<?xml version="1.0" encoding="utf-8"?>
<!-- Generator: Adobe Illustrator 21.1.0, SVG Export Plug-In . SVG Version: 6.00 Build 0)  -->
<svg version="1.1" id="Layer_1" xmlns="http://www.w3.org/2000/svg" xmlns:xlink="http://www.w3.org/1999/xlink" x="0px" y="0px"
	 viewBox="0 0 652.8 477.8" style="enable-background:new 0 0 652.8 477.8;" xml:space="preserve">
<style type="text/css">
	.st0{display:none;}
	.st1{display:inline;fill:#BE1E2D;}
	.st2{display:inline;}
	.st3{fill:#FFFFFF;}
</style>
<g id="Layer_2" class="st0">
	<rect x="-93.3" y="0" class="st1" width="841.9" height="595.3"/>
</g>
<g id="Layer_4" class="st0">
	<g id="Grime_Vector_Pack_12" class="st2">
		<path d="M295.2,440.3c0.1-0.4,0.9-0.2,0.9-0.5c-0.4,0.1-1.4-0.2-1.4,0.2C295,439.9,295,440.3,295.2,440.3z M155.2,466.5
			c0.1,0,0.3,0.1,0.4,0.2C155.6,466.5,155.5,466.4,155.2,466.5z M716,498.7c-0.5,1-0.8,0-1.9,0c-2.7,1.1-4.9-1.7-7.3-2.7
			c-0.6,1.7-3.9,2.8-6.6,1.4c0.2,0.5-0.5,0.3-0.7,0.5c0-1-1.4-0.5-1.6-0.5v-0.7c-0.6-0.3-1.1,0.6-1.4-0.4c-0.2,0.2-0.2,0.7-0.7,0.7
			c-2.2-0.4-1.8-2.7-3.3-2.3c0.1-0.7-0.3-1.1-0.9-1.2c0.1,0.7-1-0.2-1.2,0.5c-0.4-0.1,0-0.8-0.5-0.9c0.2,0.5-0.5,0.3-0.7,0.5
			c-1.8-1.1-3.1,0-5.6,0.4c-1-0.6,0.4-1.6-0.2-2c-0.3,0.3-0.3,0.9-0.9,1.1c-0.7-0.8-1.9-1.1-2.6-2.3c-4.2,0.8-5.2-3.1-9.4-2.3
			c0.1-0.6-0.9-0.5-0.9-1.1c-1.4-0.1-2-0.3-2.4-0.5c-1.8-1.1-2.8-4.7-3.5-3.9c-0.7-1.6-2.1-1.7-3.5-2.8c-0.9,1.1-3-0.3-4.2-0.9
			c-0.1,0.3,0.3,0.9-0.2,0.9c-0.6-0.3-1.2-0.6-1.6-1.1c-0.3,0.4,0.1,0.6-0.2,0.7c-0.1-0.3-0.4,0.1-0.5-0.2c1-0.3-0.5-0.5,0.2-1.1
			c-1.4-0.3-1.6-0.1-3.1-1.1c-0.4,0.9-1.4-0.4-1.9-0.2c0.2-0.6-0.7-1.6-1.9-1.4c0,0.3-0.2,0.6-0.5,0.7c-1.2-3-3.6-6-7-7.1
			c0.2,0.8-0.1,1,0.7,1.4c-0.4,0-0.7,0-0.9,0.2c-0.6-1.2-3-1.9-4-2.1c-0.3,0.4-0.7,0,0,0.9c-1.1-0.3-1.1-0.3-2.1,0
			c0-0.2-0.4-0.2-0.5-0.4c0.3,0,0.6-0.1,0.5-0.4c-1.1,0.4-1.4-0.6-2.6-0.2c-1.4-3-2.2-4.8-3.5-7.3c-1.7,1.2-2.5-1.8-3.3-0.7
			c-0.5-0.8-0.2-0.4,0-1.2c-0.5-0.1-0.5,0.2-0.7,0.4c-0.9-0.9-2.5-2.2-3.5-1.4c-0.5-1.3-1.3-4.2-2.8-3.6c-0.1-0.6,0.7-0.4,0.5-1.1
			c-1.1-0.6-0.9-0.6-1.9-1.1c0.3,0.5,0.1,0.9-0.5,0.5c-0.3,0.4,0.9,0.6,0.2,0.7c-0.9-0.2-0.9-1-1.4-1.4c-0.8-0.2-0.2,0.6-0.9,0.4
			c0-0.7,0.1-1-0.7-0.7c0.1-0.2,0.3-0.3,0.2-0.7c-0.6-0.4-0.9,0.5-1.6,0.5c-0.1-0.3,0.3-0.4,0.2-0.7c-1.2,0.1-2.3-0.8-3.5,0.2
			c0-0.5-0.3-0.7-0.9-0.7c-0.5,1.2,0.3,0.4,0.5,1.4c-0.7,0.4-1.5,0.3-2.1,0.2c0.7,0.2,0.4-0.4,0.5-0.7c-1.8,0.1-1.8-0.6-3.3-1.2
			c-0.8,0.5-0.7,0.7-1.2,1.2c0-0.7-0.9-0.6-1.2-1.1c-0.4,0.5-0.2,0.1-0.5,0.7c-0.1-0.4-0.6-0.5-0.5-1.1c-0.5-0.1-0.5,0.2-0.7,0.4
			c0.1-0.6-0.4-0.8-0.7-1.1c-0.7-0.2-1.8-0.1-2.6-0.4c0.2,0.6-0.5,0.3-0.7,0.2c-0.1,0.3,0.3,0.9-0.2,0.9c-0.3-0.1-0.6-0.3-0.9-0.4
			c-0.3,1.6,0.2,1.8-1.6,2c-0.5-0.7-0.1-1.4-0.7-1.6c-1,0.2,0.2,0.7-0.2,0.9c-0.4-0.1-0.6,0.3-0.7,0c-0.2-0.8,0.6-1,0.5-1.4
			c-0.1,0.5-0.4-0.3-0.7-0.2c-0.3,0.1,0,0.7-0.5,0.7c-1-0.2-1,0-1.9-0.2c-1.1-2.6-5.8-3-6.8-4.3c0,0.2-0.3,0.1-0.5,0
			c-0.1,0.3,0.3,0.9-0.2,0.9c-0.2-0.7-1.3-0.8-0.7-1.6c-0.8,0.2-0.5-0.5-0.9-0.5c0,0.2-0.3,0.3-0.5,0.4c0.1-0.6-1.2-1-1.6-0.5
			c0-0.3,0-0.6-0.5-0.5c-0.1,0.5-0.2,0.3-0.7,0.9c-0.6-0.5,0.4-0.9,0-1.1c-0.6,0.3-1.4-0.8-2.6-0.7c-0.3,0.5-0.3,1.2-1.2,1.2
			c-0.7-0.3,0.5-0.8-0.2-1.1c-0.1,0.7-3.1,1.8-1.9,0.9c-0.9-0.3-0.4,0.1-1.2,0.2c0-0.7-0.6-0.5-1.2-0.4c0.3-0.5-0.7-1-1.2-1.1
			c-0.4,0-0.6,0.1-0.7,0.1c0.1,0.2-0.1,0.1,0,0c0,0,0-0.1,0-0.1c-0.4-1.1-2.2,1.2-3.1-0.5c-0.7,0-0.7,0.4-1.4,0.4
			c0-0.3-0.2-0.4-0.5-0.2c0.1-0.2,0.3-0.3,0.2-0.7c-1-0.1-2.3,0-1.9-0.9c-0.7,0.2-0.9,0.7-1.6,0.7c-1.1-0.6-1.9,0.3-2.8,0.9
			c-0.1-0.3,0.7-0.9,0-1.1c-0.5,0.3-0.3,0.8-0.9,1.4c-0.4-0.2-0.3-0.7-0.9-0.7c-0.5,0.8,0.8,1.4-0.2,2c-0.2-0.8-0.5-0.6,0-1.2
			c-1.1-0.8-1.9,1-2.3,0.2c-0.3,0.4-0.8,0.7-0.9,1.2c-1.6-0.8-3.9,0-4.7-1.2c-0.8,0.8,0.7,0.8,0.2,1.2c-0.5-0.3-1.3-1-0.9-1.4
			c-1.2,0-1.8,0.4-2.6-0.2c-1.3,1.3-4.4,0.7-6.3,0c-0.7,0.5-0.3,0.8-0.9,1.2c-1.2-0.3-1.6,0.1-2.6,0.2c-0.4-0.3,0.3-0.5-0.5-0.7
			c-0.2,0.8-0.6,0.3-1.6,0.4c-0.1-0.4-0.6-1.6-1.2-1.1c0.3,0.1,0.6,0.3,0.7,0.5c-1-0.1-0.1,1.2-0.9,1.2c-0.1-0.6-0.3-2-1.2-1.4
			c0.7-0.1,0.7,0.4,0.7,0.9c-1.2,0.1-1.8-0.3-2.1-0.4c0.5,0.1-0.2-1.2-0.5-0.5c0.7,0.4-0.2,1-0.7,1.1c0.3-0.8-0.3-1.3,0-1.6
			c-0.9,0,0,0.9-0.5,0.9c-0.8,0.1-0.8-0.6-0.5-0.9c-0.7-0.1-0.4,0.5-1.2,0.4c0.1-0.3-0.3-1.1-0.5-0.7c0.1,0.1,0.6,0.7,0,0.7
			c-0.1-0.2-0.3-0.1-0.5,0c0.1-0.6-0.2-0.9-0.7-1.1c0.1,0.8-1,1.1,0,1.6c0-0.6,0.3,0,0.9-0.4c-0.1,0.3,0.7,0.7,0,0.9
			c0.2-0.6-0.8-0.6-1.2-0.4c-0.3,0.6,0.8,0.1,0.5,0.7c-1.4,0-1.1-0.7-0.7-1.2c-1.2-0.2-0.6-0.9-0.9-1.4c-0.8,0.2-0.7-0.1-1.2,0.4
			c-0.3-0.4-0.7-0.8-0.9-1.2c-0.7,0.3-2.4,0.3-2.8,0.9c-1-0.3-1.2-0.9-1.6-1.8c-0.1,0.3-0.3-0.1-0.5-0.2c-0.1,0.2-0.3,0.4-0.5,0.5
			c-0.7-0.8-2.2,0.2-3.1,0c0.3,0,0.4,0.2,0.5,0.4c-1.7,0.1-3.4,0.9-4.9,1.1c0.4,0,0.1,0.6,0.5,0.7c-0.6,0.2-0.6,0.7-1.6,0.5
			c-0.1,0.8,0.6,0.2,0.7,0.5c-0.4,0-0.1,0.5-0.5,0.5c0-0.2,0-0.5-0.2-0.5c-0.6,0.5,0.5,1.2-0.9,1.1c0.1-0.8-0.1-0.9,0.5-1.2
			c-0.5-0.3-0.3,0-0.9,0c0.3,1.4-0.4,0.3-0.5,1.4v-0.5c-2.4,1.1-3.5,1.9-6.1,1.8c-1.7-1.9-3-3.6-6.6-3.7c-1.1,0.5-1.8,0.7-2.6,0.2
			c-0.6,2.7-4.3,3-5.6,0.7c-0.4,0.8-1.7,0.4-2.1,1.4c-1.4-0.5-2.4-1.7-4-1.6c0.1-0.6-0.3-0.7-0.7-0.9c0,0.6,0.6,0.6,0.5,1.2
			c-0.3,0-0.4,0.3-0.7,0.4c0-0.5-0.1-0.9-0.5-1.1c-0.1,0.8-1.3-0.3-1.6-0.5c-0.3,0.6,0.7,1.2,0.2,1.4c0-0.2-0.3-0.1-0.5,0
			c-0.3-0.5,0.7-0.8-0.2-0.7c-1,0.6-1.8,2.2-3.8,1.4c-0.6,0.5-1.3,1.6-2.6,1.1c-0.4,0.4-0.7,0.9-1.4,1.1c-0.2-0.5-1.1-0.3-1.6-0.2
			c-0.2-0.7-0.5-1.3-1.4-1.4c0,0.2,0,0.5-0.2,0.5c-0.4-1.2-1.4-2.1-2.8-1.4c0.1-0.3,0.3-0.3,0-0.5c-0.8,0-1.4,0.3-2.1,0.4
			c-1.5-1-3.7-1.4-4.5-2.9c-2.3,0.4-4.2-2.4-6.1-1.8c0.5,0.3-0.4,0.2-0.5,0.9c0.3-1.2-0.9,0.4-1.2-0.2c0-0.2,0.4-0.4,0-0.5
			c-0.2,0.6-1.5,0.4-1.4-0.2c0.3,0,0.9,0.1,0.9-0.2c-1.1,0.3-1.3-0.6-1.9-0.2c-0.7,0.3,0.4,0.7-0.2,0.9c0-0.8-0.4,0.3-0.9,0.2
			c-0.2-0.5,0.3-0.5,0.2-0.9c-0.7,0-0.8,0-0.5-0.4c-0.8,0-0.2,1-1.2,0.9c0-0.2,0.1-0.4,0.2-0.5c-0.8,0.2-0.6,0-1.4,0.2
			c0.3,0.5,0.3,1.1-0.2,1.4c-0.4-1.1-2.8-1.4-2.4-2.5c-1,0-0.9-0.2-1.6,0c-0.4-0.1,0-0.8-0.5-0.9c-0.1,0.5-0.4-0.3-0.7-0.2
			c-0.3,0.7-0.8,1.3-1.6,1.6c-1.6-1.6-2.9-2.7-5.2-3.2c0.4,0.6,0,0.9-0.5,1.2c-0.2-0.3,0.7-0.6,0-0.7c-0.3,0.3-0.3,0.7-0.7,0.9
			c-1.1,0.2-3.5-0.2-3.1-1.1c-1.1,0.2-1.2-0.7-1.6,0c-1-1.9-3.4-1.8-5.6-2.1c-0.8,0.6-1.6,0.8-2.6,0.2c-0.7,0.6-1.3,0.7-2.3,1.2
			c-0.1-0.7-0.7-0.1-0.7-0.7c-1.1,0,0.3,0.3,0,0.7c-0.5,0.3-0.5-0.1-0.9,0.2c0-0.4,0.5-0.6-0.2-0.7c-0.7,0.8-1.8,1.6-3.3,1.2
			c0,0.2,0,0.5-0.2,0.5c-0.9,0-0.8-0.3-1.2,0.2c-0.4-0.3-0.7-0.6-1.2-0.9c-0.7,0.6-2.5-0.7-3.5-0.5c-0.1,0.3,0.3,0.5,0,0.5
			c-0.1-0.3-0.2,0.1-0.5,0.2c0.1-0.4-0.4-0.4-0.2-0.9c-1,0.4-0.7-0.3-1.4-0.5c-0.9,0.4-1.1,0.9-2.6,1.4c0.3,0.4,0.1,0.5,0.5,1.1
			c-0.9-0.8-2-0.5-2.6-0.7c0.1,0,0.4-0.3,0.2-0.4c-0.3-0.2-1.8-0.3-2.6-1.1c0.1,0.6-0.2,1.1-0.7,1.2c-1.7,0.5-3.7-0.8-5.2-0.4
			c0.4,0-0.4,0.5-0.5,0.7c-0.3-0.9-0.5,0.8-1.4,0.5c-0.1-0.4-0.6-0.6-0.9-0.9c0.5,1-0.7,0.6-1.6,1.1c-1.2-0.7-1.8-1.4-3.1-1.2
			c-0.4,0.3,0.2,0.6-0.5,0.9c-0.3-0.2-0.5-0.5-0.9-0.5c-0.4,0.2-0.5,0.6-0.9,0.7c-0.5-0.6-0.8-1.3-1.9-1.4c-2.4,0.3-3.2,2-5.2,1.1
			c-0.1,0.1,0,0.4-0.2,0.4c-1-0.5-1.9-1.4-3.3-0.9c-0.2-0.4-0.1-1-0.7-1.1c-1.1,0.8-2.5-0.9-4-0.9c-0.2-0.8,0.6,0.2,0.7-0.4
			c-0.6-0.4-0.6-0.2-1.6-0.2c-0.1,0.7,0.8-0.2,0.7,0.7c-2.5-0.1-4.8,0.1-5.6-0.5c-0.9-0.1,0.2,0.7-0.7,0.9c-0.3-0.5-3.3-0.5-4.2,0.2
			c-0.4-0.3-1.4-0.7-1.6-0.2c-0.4-1-2-0.9-2.8-0.7c-0.4,1.1-0.8,0.3-0.2,1.2c-0.5-0.5-0.6,0.5-1.2,0c-0.3,0.4,0.1,0.6-0.2,0.7
			c-0.7-0.6-2.3,0.6-2.6-0.4c-1.8,0.7-3.9,0.2-5.6,0.2c0,0.2,0,0.5-0.2,0.5c-0.8-0.1-0.4-0.5-0.9,0c-0.1-0.3,0.3-0.4,0.2-0.7
			c-0.8,0.6-2-0.3-1.4,0.5c-1.8-0.5-3.5-1-4.7-2.3c-0.2,0.5-0.8,0.6-0.9,1.1c-0.6-0.6-1.3-0.2-2.4-0.5c-0.3,0.2-0.1,0.9-0.7,0.9
			c-0.3-0.4,0.1-0.5-0.7-0.7c-1.2,0.1-2.9,1-3.5,2.5c-0.4-0.7,0.3-1.3-0.7-1.8c0.3,0.7-0.3,0.9-0.7,1.1c0.4-0.1,0.8,0.7,0.2,0.7
			c-0.5-0.6-1-1-1.4-1.2c0,0.3,0.1,0.6,0.2,0.7c-0.5-0.5-0.6,0.5-1.2,0c0,0.4,0,0.9-0.5,0.9c0.7-0.9-0.3-0.7-0.7-1.4
			c-0.7,1-3,1.2-4.7,0.9c0.6,0.6-0.6,0.7,0,1.2c-0.8-0.6-0.5,0.5-0.9,0.7c-0.2-0.8-0.4,0.2-0.5,0.2c-0.3,0-0.2-0.3-0.5-0.4
			c0.2,0.8-0.5-0.1-0.5,0.4c0.3,0.4,0.6-0.2,0.7,0.2c-0.5,0.6-0.7,0.5-0.7,1.1c-0.8-0.1,0-0.5-0.5-0.5c-0.2,0.4-0.2,0.8-0.7,1.2
			c-0.3-0.9-0.7,0.7-1.6,0.4c0-0.2,0.4-0.4,0-0.5c-0.4,0.9-1.3,1.4-2.4,1.8c0.1-0.2,0.9-0.7,0.2-0.9c-0.2,0.7-0.5,0.2-0.9,0.7
			c-0.2-0.5-0.4-0.6-0.7-0.7c0.1-0.2,1-0.7,0-0.7c-0.2,0.2-0.2,0.5-0.5,0.7c0.1-0.4-0.7-0.2-0.7-0.5c0.2,0,0.8-0.7,0.2-0.7
			c-1,0.6-0.3,0.8-0.2,1.8c-0.5-0.1-0.5-0.5-0.9-0.5c-0.3,0.5-0.7,1-0.9,1.6c0.4-1.2-1.2-0.1-1.4-1.1c-0.1,0.2-0.2,0.4-0.5,0.5
			c-1.6-1.1-3.7,1.8-4.7,1.8c-0.1,0-0.2-0.5-0.2-0.5c-0.3-0.1-0.6,0.2-0.7,0.2c-0.6-0.1-1.3-1.6-1.6-0.5c0-0.5,0.4-0.4,0-0.7
			c-1.5-0.3-2.2,0.4-3.5-0.2c0,0.2,0,0.5-0.2,0.5c-0.8,0-0.9-0.5-1.6-0.5c-0.1,0.1-0.2,0.2-0.5,0.2c-0.3,0.6,0.2,1.1-0.7,1.4
			c-0.8,0-0.5-0.1-1.9,0c-0.2,0.6,1.1,0.9,0.5,1.2c0.2-0.5-0.8-0.2-0.5-0.9c-1,0.1-0.9,1-1.4,1.4c-0.5,0.1-0.5-0.2-0.7-0.4
			c-0.5,0.4,0.3,0.8,0,1.1c-0.2-0.6-0.5,0-0.9-0.4c-0.1,0.3,0.3,0.4,0.5,0.5c-1.1,0.2-0.5,1-1.4,0.4c-0.7,1.4-1.4,0-2.4,0.7
			c0.1-0.5-0.1-0.6-0.7-0.5c-0.4,0.3-0.4,0.8-1.2,0.7c-0.3-0.4-2-1.1-1.9-0.5c0.3-0.6,0.8,0.8,0,0.7c0.1-0.3-0.3-0.5-0.5-0.2
			c0.3,0.2,0.1,0.5-0.2,0.9c0.7-0.2,1.1-0.1,1.2,0.5c-1.1-1-2.2,1.3-2.6,0.2c-0.1,0.2-0.2,0.4-0.5,0.5c-0.5-0.2-0.9-0.4-1.4-0.5
			c-0.1,0.6-0.6,0.5-1.2,0.4c-0.4,0.3-0.4,1-1.2,1.1c-0.7-0.1-0.4-1-1.2-1.1c-0.3,0.8-0.1,0.2,0.2,0.5c-0.2,0-0.3,0.1-0.5,0.2
			c-0.5-0.1-3,0.2-3.5-0.9c0,0.3-0.2,0.6-0.5,0.7c-0.4-0.7-0.8-0.3-1.2-0.2c-0.1,1.3-1.1,1.4-2.3,2.1c0-0.5-0.4-0.6-0.7-0.4
			c-0.1,0.4-0.4,1.3,0.5,1.6c-1.8-0.2-2.5,0.6-3.8,0.4c0.4,0.9-0.3,0.5-0.2,1.4c-0.3,0.1-0.6,0.2-1.2,0.2c-0.2,0.7-0.1,1.6-1.2,1.6
			c-0.2-0.5-2.2-0.4-2.8-0.7c0-0.2,0.4-0.2,0.5-0.4c-0.2,0-0.5,0-0.5-0.2c-1,0,0.2,0.9-0.9,0.4c-0.3,0.4,0.6,0.7,0,0.7
			c-1.1-0.4-0.6,0.8-1.6,0.2c0.3-0.3,0.9-0.4,0.7-1.1c-0.3,0-0.4-0.2-0.5-0.4c-0.7,0-0.8,0.3-1.2,0.5c0.1-0.9-2,0.7-2.8,0.9
			c0.7,0.1-0.2,0.4,0,0.7c0.5-0.1,0.9,0,0.9,0.4c-0.5,0.2-0.7,0.6-1.4,0.7c-0.1-0.3-0.3-0.3,0-0.5c-0.8-0.1-1.3,1-1.6,0.2
			c0.4,0,0.5-0.5,0.9-0.5c-1.8-0.6-0.8,1.3-1.4,1.6c-0.2-1.3-1.7-0.4-2.1-1.4c-0.6,0.3-0.3,0.3,0,0.7c-1.2,0.2-1.2,0.2-2.8,0.7
			c-0.1,0.3,0.3,0.4,0.2,0.7c-0.4,0.1-0.9,0.2-1.2,0.5c-0.5-0.1-0.2-0.7-0.9-0.5c0,0.4,0.4,0.6,0.5,0.9c-1.2,0.6-0.4,0.7-0.9,1.4
			c-0.4-0.6-0.9,0.1-1.4-0.4c0.1-0.6,0.9-1.2,1.4-1.6c-1.2-0.5-1.9,1.7-3.1,0.7c-0.1,0.6-0.4,0.8-0.7,0.9c0.3,0.1,0.5,0.2,0.5,0.5
			c-0.4,0-0.2-0.5-0.7-0.4c-0.3,0.5,0.8,0.9,0.2,1.1c-0.6-0.3-1.9-0.5-0.5-1.1h-0.9c-0.4,0.6,0.5,1.1-0.5,1.2
			c0.7-0.6-0.9-0.6-0.9-1.2c0.2,0.7,0.3,1-0.7,0.7c0.3,1-0.8,0.5-0.5,1.4c-1.3-0.9-2.3,0.2-3.3,0.2c-0.3,0.2-0.1,0.8-0.5,1.1
			c0.8,0,1.2,1.4,0.5,1.4c-0.4-0.3-0.8-0.5-1.2-0.9c-0.1,1.1-1.5-0.2-2.1,0.4c0.6,0.2-0.2,0.8-0.7,0.7c-0.5-0.8-1.2,0.1-2.1,0.2
			c0-0.3-0.2-0.5-0.5-0.5c-0.1,0.9-0.7-0.1-0.9-0.2c0,0.7-0.6,0.4-0.9,1.1c-0.1-0.2-0.2-0.4-0.5-0.5c-0.7,0.3,0.4,0.7-0.2,0.9
			c-1-0.4-0.8-0.6-0.7-1.6c-0.9-0.1-0.8-1-1.4-1.2c0.1,0.9-1.9,1.3-1.9,0.5c0.1,0.4-1,0.7-0.2,1.1c0-1.1,0.5,0.2,0.7,0.2
			c-0.1,0,0.8-1.7,1.4-0.4c-0.2,0.8-0.8,1.4-1.9,1.6c-0.4-0.5,0.3-0.8-0.7-0.9c-0.3,0.5,0.1,1.1-0.9,1.2c-0.1-0.6,0.3-0.7,0.5-1.1
			c-0.8-0.2-0.3,0.6-0.9,0.5c-0.6-0.4-0.1-0.8-0.5-1.1c-0.1,0.3-0.1,0.8-0.7,0.7c-0.1-0.3,0.2-0.9-0.5-0.7c-0.1,0.3,0.3,0.5,0,0.5
			c-0.6-0.2-0.9-0.6-1.6-0.7c-0.4,1.2-1.3-0.1-2.6,0.4c-0.2-0.4-0.5-0.7-0.7-1.1c-0.5,0.1-1,0.2-1.4,0.4c0.2-0.3-0.5-0.8-0.5-0.4
			c0.6,0,0,0.6-0.2,0.5c0.5-0.4-0.2-0.8-0.7-0.9c0.4,0.6-1.2,1-2.1,0.9c-0.1,0.3-0.1,0.7-0.5,0.9c0.1-0.2-0.7-0.6-0.7-0.2
			c0,0.5-1.5,1.2-2.1,1.8c0.5-0.4-0.1-0.4-0.5-0.5c-0.3,1-1,1.6-2.1,2c-0.6,0.1-1.5-0.8-1.4,0c-0.9,0.2,0.7,0,0.5,0.4
			c-0.9,0-0.8,0.9-0.9,1.1c-0.7-0.4-1.3-2.1-2.8-2.7c-0.7,0.2,0.2,0.6-0.9,0.5c-0.4-0.8,0.8-0.3,0.9-0.7c-1.1,0.3-0.9-1.2-1.9-0.7
			c0.3,0,0.6,0.3,0.2,0.4c-3.3-1.4-7.2,1.5-8.5-1.6c-1,0.4-1.2-0.5-1.9,0.2c-0.2-0.5-0.3-1.1-0.9-1.2c0.2,0.9-0.8,0.7-1.4,0.5
			c0.2,1.1-0.9,1.2-1.9,1.8c0-0.2,0-0.5-0.2-0.5c-1.3,0.5-2.3-1.1-3.4-1.6c-0.1,0.2-0.3,0.3-0.4,0.4c-0.4-0.4-0.9-0.9-2.1-0.7
			c-0.1,0.4-0.2,0.9-0.9,0.9c-0.9-0.8-0.6-1.2-1.4-1.4c-0.1,0.2-0.5,0.2-0.7,0.4c-0.2-0.3-0.7-0.5-0.2-0.9c-0.3,0-0.7,0-0.7-0.2
			c-0.6,0.4-1.2,0.4-1.9,0c-0.2,0.2-0.5,0.4-0.7,0.5c-2.8-0.6-4.1-1.3-5.2-3.7c0,0.7-0.4-0.1-0.7,0.4c0.2-1-1.3-1.4-2.6-1.2
			c-0.8-0.5-0.5-1.9-1.9-2c-0.1,0.3,0.3,0.5,0,0.5c-0.3-0.7-1.1-0.4-1.6-0.5c0.2-0.5,1-0.7,0.2-1.1c-0.2,0.3,0,1-0.7,0.9
			c0.3-0.6-0.4-0.4-0.5-0.7c0.1-0.5,1-0.4,0.9-1.1c-1.3,0.2-0.8-0.8-1.6-0.9c-0.8-0.3-0.1,0.6-0.7,0.5c0.2-0.8-0.4-0.2-0.5-0.5
			c0.1-0.6,0.9,0.5,0.7-0.4c-0.5-0.6-1,0.4-1.2,0c0-0.2-0.4-0.2-0.5-0.4c0.5-0.4-0.1-0.5,0-1.1c-1.5,0.2-1.4-1-2.6-1.6
			c-0.3,0.1,0,0.7-0.5,0.7c0-0.2-0.4-0.2-0.5-0.4c0.6,0.2,0.7-1,0.5-0.9c-0.4,0.7-1.6-0.4-1.6,0c0.3,0.1,0.4,0.4,0.5,0.7
			c-0.4-0.3-0.6,0-1.2,0c0-0.8-1.8-1.1-2.4-0.9c0-0.9-0.9-1.1-0.7-2.1c-1.1-0.2-1-0.5-2.1-0.9c-0.2,0.5,0.3,1.4,0,1.4
			c-0.3-0.2-0.7-0.3-0.5-0.9c-4.5-0.7-9.3-2.5-12.7-4.6c0.1,0.6-1.5,0.7-1.6,0.4c-1.5,1.6-4.4-1.1-6.6-1.2c-0.5,0.6-1.4-0.1-1.9,0.7
			v-0.5c-0.8,0.4-0.8,0.3-1.6,0c0.1,0.9-0.9,0.4-1.4,0.4c0.1,0.4-0.1,0.7-0.5,0.7c-2.4-0.6-2.5-3.6-5.6-3c-0.7-1-1.5-0.1-3.1-1.1
			c-0.6,1.1-2,0.3-2.8,1.2c-0.6-0.1-0.4-0.6-1.2-0.5c-1.4,0.9-2.7,0.7-4,0.2c-0.2,0.9-1.4,0.9-2.4,0.9c-0.5,1.9-4.6,2.8-6.6,1.2
			c-0.6,0.2,0.2,0.9-0.2,0.9c-0.8,0-0.9-0.6-0.9-1.2c-1,0.4-1.9-0.3-2.4-1.2c0.2,0.8-0.8,0.6-0.9,0.2c0-0.3,0.7-0.1,0.7-0.4
			c-0.7-0.2-1.1,0.1-1.6-0.5c-0.3,0.7-1,1-1.4,1.6c-0.3-0.4-1.2-0.2-1.4-0.7c0.6,0.1-0.2-1.3-0.7-0.9c0.4,0.1-0.5,0.8-0.7,1.1
			c-0.1-1.4-0.1-1-0.9-1.2c-0.4,0.3,0.3,0.6-0.5,0.7c-0.6-1.2-2.7-0.7-3.5-0.7c0.3,0.9-1.1,1.1-1.2,1c-0.1,0.2,0.1,0.5,0,0.6
			c-0.4,0.4-1.2-0.1-1.6,0.5c0.4,0.3,0,0.5,0.2,1.1c-0.9,0-1,0.7-0.7,1.2c-1.4-0.1-0.3,1.7,0.7,2.3c-1-0.3-0.7,1.2-1.4,1.6
			c-0.1-0.3,0.3-0.9-0.2-0.9c-0.1,0.2-1.5-0.2-0.5,0.4c-0.7,0-0.7-0.6-1.6-0.4c-0.5,0.1-1.5,0.9-0.9,1.2c-0.2-0.3,0.5-0.8,0.5-0.4
			c-0.9,0.6-0.9,2.3-1.2,2.9c-0.7-0.4-0.3,0.4-1.2,0c0.3,0.9-0.3,0.8-1.4,0.7c0.3,0.6-1.4,0.5-1.9,1.1c-0.4,0.5-0.4,1.6,0.2,1.6
			c-0.9,0.2-1.7-0.1-2.1,0.9c0.8,0.1,0.4-0.7,0.9-0.7c0.1,0.4,1,0.2,1.2,0.5c-0.5,0.2-0.4,0.8-1.2,0.7c0.4-0.6-0.1,0-0.5-0.4
			c-0.1,0.9,0.3,3.2-1.4,2.8c-1.1,2-1.5,3.6-4,4.3c-0.7-0.4-0.7-0.2-1.6-0.5c-1.8,2-5.5,0.4-7.1,0.7c0.3,0.6,1-0.1,1.2,0.5
			c-1.3,0.8-2.5,0.6-3.3-0.2c-0.8,0.5-2.7,0.8-2.1,1.4c-0.2-0.1-1.3-0.4-1.4,0c0.3,0.2,0.7,0.3,0.7,0.7c-1.5-0.3,0.1,0.9-0.5,1.4
			c-1.5-0.4-1.5-0.3-2.8-0.7c0.6,1,0,1.5,1.2,1.8c-1,0.1-0.9,1.1-1.6,1.4c-0.1-0.7-0.6-1.1-0.9-1.6c-0.8,1.3-3.7-0.3-3.8,1.1
			c0-0.3,0.1-0.7-0.2-0.7c-0.2,0.3-0.6,0.4-0.9,0.2c-0.4,0.7,1,0.1,0.9,0.5c-0.7,0.3-0.6,1.2-1.4,1.4c0-0.4-1-0.1-1.4-0.2
			c0,0.3-0.2,0.4-0.7,0.4c0,0.3,0.1,0.6,0.2,0.7c-1.1,0.4-1.7,1-2.6,0.2c0,0.7-0.2,0-0.5,0c0.1,0.3-0.3,1,0.2,1.1
			c-0.1-0.5,0.1-0.6,0.7-0.5c0,0.5-0.4,0.4,0,0.7c-1.3,0.2-1.6,0-2.8-0.2c0.3,1.3,0,1.3,0.9,2.1c-1.1-0.3-0.7,0.7-1.4,0.9
			c-0.1,0-0.4-0.5-0.7-0.5c0.1,0-0.8,0.6-0.9,0.2c-0.5,0.5,0.2,0.8-0.2,1.1c-0.9,0.2-0.4-0.7-1.2-0.5c-0.1,0.3,0.3,1-0.2,1.1
			c0.1-0.8-2.5-1-2.6-0.5c0.9,0.1,0.5,0.6,1,0.9c0.1,0,0.3,0.1,0.4,0.2c-0.2,0-0.3-0.1-0.4-0.2c-1-0.3-2.2,0.2-2.4-0.6
			c-0.8-0.2-0.3,0.6-0.9,0.5c-0.2-0.6-1.4-1.1-1.6-0.2c-0.2-0.5,0.3-0.5,0.2-0.9c-0.8-0.1,0,0.8-0.9,0.9c-0.4-0.2-0.9-0.6-1.4-0.2
			c0-0.4,0-0.9-0.5-0.9c0.1,0.5-0.1,0.8-0.7,0.7c-0.1-0.2-0.3-0.1-0.5,0c-0.1-0.8-1.2-0.8-1.4-1.6c0,0.8-0.8,1.1,0,1.2
			c-0.2,1.4-1.2,1.2-2.1,2.1c-0.2-0.2-0.4-0.5-0.7-0.7c0.1,0.5,0.3,0.7,0,0.9c-0.4,0.1-0.6-0.3-0.7,0c0.3,0.7-1.1,0.4-0.2,1.2
			c-1.3,0.2-0.5-0.3-0.9-0.5c-0.3,0.6-1,0.3-1.4,0.4c0.7,1.1-1,1.6-2.8,1.2c0.2,2.1-2.6,1.4-4.7,1.6c0.3,0,0.3,0.3,0.2,0.5
			c-0.3,0-0.3-0.2-0.7-0.2c0.1,0.5,0.3,0.6-0.2,0.9c-0.8-0.3,0.1-0.9-0.7-0.9c0.1,0.8-0.1,1.3-1.2,1.2c-0.1,0.3,0.3,0.4,0.2,0.7
			c-1.1,0.5-1.4-0.4-1.6,0.5c-0.5-0.1-0.2-0.8-0.7-0.9c-0.3,0.1,0,0.7-0.5,0.7c-0.8-0.2-0.3-0.4-0.9-0.5c-0.7,0.2,0.5,0.8-0.5,0.9
			c-0.6-0.4-0.6-0.2-1.6-0.2c-0.3-0.4-0.5-0.8-0.9-1.1c-1.5,0.6-1.4,1.5-3.1,1.8c0.3,1.5,0.9,1.7,0.2,3c-1.2-1.4-2.9-0.6-4,0.7
			c-0.3-0.5-1.2,0.4-1.6-0.2c0.3,0.5-0.5,1,0,1.1c0.5-0.4,0.7,0.1,0.7,0.4c0.1-0.2,0.2-0.4,0.5-0.5c0.6,0.5-0.3,0.9-0.7,1.2
			c-0.6-0.4-1.1-0.1-2.8-0.4c-1.2,0.7-2.7,2.5-4.5,2.3c0.6,0.4-0.6,0.9-0.7,1.4c-0.7,0-1.4,0.2-1.9,0.7c-1.2,0.1-2.6-1.1-3.3-0.4
			c-0.4-0.2-0.7-0.5-1.2-0.7c0.1,0.8-0.4,0.8-0.5,1.1c-0.5-0.2-0.3-0.8-0.7-1.1c-0.7,0.6-2.3-0.1-3.1,0.5c0.1,0.5,0.2,0.9-0.2,1.2
			c0-0.9-1.1-0.6-1.4-0.9c0.1-0.4,1.1-0.1,1.2-0.5c-0.6,0-0.7,0.3-1.4,0.2c-0.6,0.2,0.4,0.5-0.2,0.7c-1.1,0.1,0.4-0.5-0.7-0.4
			c-0.1,0.6-0.6,0.2-0.2,0.9c-0.8-0.3-1.3,0-1.9,0.5c-0.3-0.6,0-0.3-0.5-0.5c0-0.3,0.6-0.1,0.5-0.5c-0.8,0.3-1-0.1-1.9,0.2
			c0.3,0.5,0.2,1-0.5,1.2c-1.2-0.5-1.5,0.3-2.6-0.4v-0.9c-1.2,0-2.1-0.8-2.1,0.4c-0.5-0.1,0.1-1.1-0.7-0.9c0,0.4,0.4,0.5,0.2,1.1
			c-0.9,0.9-2.7-0.1-2.8,0.7c-1-0.2-1.8,0.1-2.6-0.5c0,0.2,0,0.5-0.2,0.5c0-0.7-0.8,0.1-0.9-0.4c0.4,0,0-0.3-0.2-0.4v46.6h799.9
			v-44.5C717.2,500.5,717.5,498.9,716,498.7z M-56.3,498.3c-0.6,0-1-0.1-0.9-0.5c0.4,0,0.6,0.3,0.7,0c0.2,0,0.2,0.1,0.2,0.2
			L-56.3,498.3L-56.3,498.3z M-18.5,483c0.5-0.5,0.5-1.4,1.9-1.2c0,0.3,0.3,0.4,0.2,0.7C-17.5,482.8-17.5,482.5-18.5,483z
			 M51.3,447.6c0-0.3,0.3-0.4,0.2-0.7c0.4,0.2,0.8,0.3,0.7,0.9C51.8,447.8,51.7,447.6,51.3,447.6z M52.5,445.6
			c-0.3,0-0.1-0.5-0.5-0.5c0-0.2,0.2-0.1,0.2,0c0.2,0,0.2-0.2,0.2-0.4h0.5c0.1,0.1,0.2,0.3,0.2,0.5
			C52.8,445.3,52.6,445.4,52.5,445.6z M53.2,444c-0.3,0-0.5-0.9-0.7-0.4c-0.6-0.3,0.2-0.6,0.7-0.4C52.5,443.8,53.8,443.6,53.2,444z
			 M226.8,461.1c-0.5-0.5-0.6,0.5-1.2,0c0.2-0.3,0.4-0.6,1.2-0.5V461.1z M240.5,457.6c-0.7-0.2-0.6,0.1-1.2-0.2
			c-0.1-0.4,1.1,0.1,0.7-0.5C240.4,456.9,240.5,457.2,240.5,457.6z M291,443c0.1-0.2,0.3-0.3,0-0.4c0.1-0.5,0.4,0.2,0.9,0
			C292,443.2,291.3,443.2,291,443z M503.2,443.9c-0.2,0.4-0.8-0.2-0.9,0.2c-0.2-0.6-0.2-0.7,0.9-1.1
			C503.8,443,502.5,443.9,503.2,443.9z M516.6,444.4c-0.2-0.1-0.4-0.2-0.5,0c-0.5-0.4,1-0.4,0.2-1.2c0.5-0.1,0.6,0.1,0.9,0.2
			C516.8,443.7,516.9,443.7,516.6,444.4z M577.2,446.2c-0.3,0-0.4,0-0.5,0.2c-0.4,0-0.6-1.2-0.9-0.7c-0.7-0.7,0.7-0.2,0.7-0.7
			c0.2,0.1,0.2,0.4,0.7,0.4V446.2z M580.5,446.9c0.2,0.2,0.9,0.1,0.7,0.5C580.2,447.2,580,448.1,580.5,446.9z M581.4,449
			c-0.5-0.6-0.1-1,0-1.6c0.2-0.2,0.4,1,0.2,1.2c0.2,0,0.2-0.1,0.2-0.2C582.8,448.8,581.4,448.8,581.4,449z M582.3,449.7
			c-0.4,0-0.5-0.3-0.5-0.7h0.9C583,449.5,582.3,449.4,582.3,449.7z M582.6,448.7c0-0.2,0.3-0.1,0.5-0.2c-0.1-0.1-0.2-0.3-0.2-0.5
			c0.2,0.1,0.5,0.2,0.9,0.2c0,0.3,0,0.5,0.2,0.5C583.9,449.1,582.7,448.8,582.6,448.7z M588.9,452.2c-0.2,0-0.2-0.1-0.2-0.2
			c-0.2,0-0.2,0.2-0.2,0.4c-0.4-0.6-0.4-0.9-1.2-0.9V451c1,0.2,1.2-0.8,1.9-0.4c0,0.2-0.3,0.1-0.5,0.2
			C589,451.5,588.7,451.5,588.9,452.2z M591.7,453.1c0-0.2,0.2-0.1,0.2,0c0.7-0.2-0.5-0.3-0.2-0.7c0.5,0,0.3,0.5,0.9,0.4
			C592.8,453.3,592.1,453.4,591.7,453.1z M639.7,471.8c0.2-0.2,0.2-0.7,0.5-0.9c0.5,0.1,0.5,0.5,0.7,0.7
			C640.4,471.6,640.4,471.2,639.7,471.8z"/>
	</g>
</g>
<g id="Layer_3">
</g>
<path class="st3" d="M215.9,213.7c0-3.1-0.6-5.8-1.9-8.2c-1.2-2.4-3.1-4.4-5.7-6c-0.1-0.1-0.3-0.3-0.7-0.6h-15.1l-1.2,0.4l1.1-0.1
	c0.3-0.3,0.4-0.3,0.4,0V241v0.4c0.5-0.4,0.9-0.6,1.1-0.8c0.5-0.4,1.6-1.1,3.2-2.2c1.5-1.1,3.2-2.3,4.9-3.6c1.7-1.3,3.4-2.5,4.9-3.6
	c1.5-1.1,2.5-1.9,3.1-2.4h-0.1c2-1.7,3.5-3.8,4.5-6.5C215.4,219.7,215.9,216.8,215.9,213.7z"/>
<path class="st3" d="M90.6,172.9C90.6,173,90.6,173,90.6,172.9C90.6,173,90.6,173,90.6,172.9z"/>
<path class="st3" d="M87.2,176.4c-0.1,0.1-0.2,0.2-0.3,0.3c-0.2,0.2-0.4,0.4-0.6,0.7C86.5,177.1,86.9,176.8,87.2,176.4z"/>
<path class="st3" d="M127.4,237.8c-1.6,0.3-3.2,0.7-4.9,1.2c-1.3,0.4-2.6,0.7-4,0.9c-1.4,0.2-2.9,0.4-4.5,0.6c-0.3,0-0.9,0-2,0.1
	c-1.1,0-1.6,0.1-1.6,0.2v40.8c0,1.3,0.5,2.1,1.5,2.5c1,0.4,1.8,0.7,2.3,0.8h5.2c4.4,0,8.5-0.2,12.4-0.5c3.9-0.3,7.3-1.3,10.2-2.8
	c2.9-1.5,5.2-3.8,6.9-6.9c1.7-3.1,2.5-7.3,2.5-12.8c0-3.1-0.5-6.1-1.4-9.1c-1-3-2.3-5.6-4-7.9c-1.7-2.3-3.8-4.1-6.2-5.6
	c-2.4-1.4-5.1-2.2-8-2.2C130.4,237.3,129,237.4,127.4,237.8z"/>
<path class="st3" d="M295.3,440.2c0.1-0.4,0.9-0.2,0.9-0.5c-0.4,0.1-1.4-0.2-1.4,0.2C295.1,439.9,295,440.2,295.3,440.2z"/>
<path class="st3" d="M155.1,466c0.1,0,0.3,0.1,0.4,0.2C155.6,466.1,155.5,466,155.1,466z"/>
<path class="st3" d="M358.5,111.9l2.3,2.3v3.3v10.5c11.2,2.1,22.1,5.3,32.4,9.5c10.3-4.2,21.1-7.4,32.4-9.5v-10.5v-3.3l2.3-2.3
	l1.3-1.3v-9.1h-71.9v9.1L358.5,111.9z"/>
<path class="st3" d="M489.6,111.9l2.3,2.3v3.3v10.5c35.6,6.7,67.1,24.3,87.2,48.7h15.6h36.6l-113.1-75.2h-29.9v9.1L489.6,111.9z"/>
<path class="st3" d="M227.4,111.9l2.3,2.3v3.3v10.5c11.2,2.1,22.1,5.3,32.4,9.5c10.3-4.2,21.1-7.4,32.4-9.5v-10.5v-3.3l2.3-2.3
	l1.3-1.2v-9.1h-71.9v9.1L227.4,111.9z"/>
<path class="st3" d="M163.4,128.1v-10.5v-3.3l2.3-2.3l1.3-1.2v-9.1h-30.1L24,176.8h36.7h15.6C96.3,152.4,127.8,134.8,163.4,128.1z"
	/>
<g>
	<g>
		<path class="st3" d="M47.5,329.3C47.5,329.2,47.5,329.2,47.5,329.3C47.5,329.2,47.4,329.2,47.5,329.3
			C47.4,329.3,47.5,329.3,47.5,329.3C47.5,329.3,47.5,329.3,47.5,329.3z"/>
		<path class="st3" d="M46.2,320.8C46.2,320.8,46.2,320.8,46.2,320.8C46.2,320.8,46.2,320.8,46.2,320.8
			C46.2,320.8,46.2,320.7,46.2,320.8C46.2,320.7,46.2,320.8,46.2,320.8z"/>
		<path class="st3" d="M57.6,325.8c-0.5-5.4-1.6-9-2.3-10.8c-0.4-1-0.6-1.5-0.6-1.5s0,0,0,0l-0.1-0.3c0,0-2.5-0.7-3.1-0.6
			c-0.3,0-0.4,0.1-0.5,0.3c-1.3-0.2-2.8-0.3-4.6-0.4l-0.2-0.3c0,0-2.6-0.3-3.2-0.1c-0.2,0.1-0.4,0.2-0.5,0.3c-1.5,0-3.2,0.1-4.9,0.3
			c-1.7,0.2-3.3,0.4-4.8,0.7c-0.1-0.1-0.3-0.2-0.5-0.2c-0.6,0-3.1,0.7-3.1,0.7l-0.1,0.4c-1.7,0.4-3.2,0.9-4.4,1.3
			c-0.1-0.1-0.3-0.2-0.6-0.2c-0.6,0.1-2.9,1.2-2.9,1.2l-0.1,0.3c0,0,0,0,0,0s-0.2,0.5-0.3,1.6v0c-0.3,1.9-0.7,5.5-0.1,11
			c0.1,0.9,0.2,1.8,0.3,2.6l-0.4,0c0,0-1-0.3-1.7-0.1c-0.7,0.2-0.7,0.4-1,0.4c-0.2,0-0.3-0.5-0.5,0c-0.2,0.5,0.2,1.4,0.4,1.5
			c0.2,0.1,0.7-0.6,1.4-0.8c0.3-0.1,0.6-0.1,0.8-0.1l-0.3,0.9l0.1,1.2c-0.5,0.2-1,0.6-1.4,1c-0.8,1-0.9,2.7-0.9,2.8l1.1,0
			c0-0.4,0.1-1.5,0.6-2.1c0.1-0.2,0.4-0.3,0.6-0.3l0.1,1.5l0.4,0l0.1,1.4l0.1,0l0,0.1l0.8-0.1l0-0.1l0.1,0l-0.1-1.4l0.4,0l-0.1-0.9
			c0.3,1.3,0.7,2.3,1,3l0,0l0.8,1.8c0,0,2.5,0.7,3.1,0.6c0.3,0,0.4-0.2,0.5-0.3c1.3,0.2,2.8,0.3,4.6,0.4l0.2,0.3
			c0,0,2.6,0.3,3.2,0.1c0.3-0.1,0.4-0.2,0.5-0.4c1.5,0,3.1-0.1,4.8-0.3s3.3-0.4,4.8-0.7c0.1,0.1,0.3,0.3,0.5,0.3
			c0.6,0,3.1-0.7,3.1-0.7l0.2-0.4c1.7-0.4,3.2-0.9,4.4-1.3c0.1,0.1,0.3,0.2,0.6,0.2c0.6-0.1,2.9-1.2,2.9-1.2l0.4-1.9l0,0
			C57.7,334.5,58.1,331.1,57.6,325.8z M36.9,330.8c-0.4,0.8-0.9,1.6-1.6,2.2c-0.7,0.6-1.5,1.1-2.4,1.4c-0.9,0.3-2,0.5-3.1,0.5
			c-0.9,0-1.7-0.1-2.4-0.3c-0.7-0.2-1.5-0.4-2.3-0.7c0,0-0.1,0-0.1,0c-0.1,0-0.2,0-0.2,0s-0.2,0-0.3,0c-0.1,0-0.1,0-0.2-0.1v0
			c0,0,0.1-0.1,0.2-0.4c0.2-0.2,0.3-0.4,0.5-0.7c0.2-0.2,0.4-0.5,0.6-0.7c0.2-0.2,0.3-0.3,0.3-0.3c0.1,0,0.2,0,0.3,0.1
			c0.1,0.1,0.2,0.2,0.2,0.3c0.1,0.1,0.1,0.2,0.2,0.3c0.1,0.1,0.2,0.2,0.2,0.2c0.4,0.3,0.9,0.5,1.4,0.7c0.5,0.2,1.1,0.3,1.6,0.3
			c0.6,0,1.3,0,1.9-0.1c0.6-0.1,1.2-0.3,1.7-0.5c0.5-0.2,1-0.5,1.4-0.9c0.4-0.4,0.8-0.9,1-1.5c0.1-0.2,0.1-0.3,0.1-0.4
			c0-0.1,0.1-0.2,0.1-0.3c0-0.1,0-0.2,0-0.3c0-0.1,0-0.2,0-0.4c0-0.3,0-0.6-0.1-1c-0.1-0.3-0.2-0.6-0.4-0.9
			c-0.2-0.3-0.4-0.5-0.7-0.8c-0.3-0.2-0.6-0.4-0.9-0.6l-4.1-1.7c-0.7-0.3-1.3-0.7-1.7-1.3c-0.4-0.6-0.6-1.2-0.6-1.9
			c0-0.7,0.2-1.3,0.5-1.9c0.3-0.6,0.7-1.1,1.2-1.5c0.5-0.4,1.1-0.8,1.8-1c0.7-0.2,1.4-0.4,2.1-0.4c0.6,0,1.2,0.1,1.7,0.2
			c0.5,0.2,1,0.4,1.5,0.7c0.1,0.1,0.2,0.2,0.4,0.3c0.2,0.1,0.4,0.1,0.5,0.1v0.3l-1.7,1.8c0,0-0.1,0-0.1,0c0,0-0.1-0.1-0.1-0.2
			c-0.1-0.1-0.1-0.2-0.2-0.4c-0.1-0.1-0.1-0.3-0.2-0.4c-0.1-0.1-0.1-0.2-0.2-0.3c-0.4-0.4-0.8-0.6-1.4-0.8c-0.5-0.1-1.1-0.2-1.6-0.2
			c-0.4,0-0.8,0.1-1.1,0.2c-0.4,0.1-0.7,0.3-1,0.5c-0.3,0.2-0.5,0.5-0.7,0.8c-0.2,0.3-0.3,0.7-0.3,1c0,0.3,0.1,0.7,0.3,1
			s0.5,0.6,0.8,0.7l4.7,2c0.5,0.2,0.9,0.4,1.2,0.7c0.3,0.3,0.6,0.6,0.9,1c0.2,0.4,0.4,0.8,0.5,1.2c0.1,0.4,0.2,0.9,0.3,1.3
			C37.6,329,37.3,329.9,36.9,330.8z M52.2,335.9c-0.3,0.5-0.7,1-1.2,1.3c-0.5,0.3-1.1,0.6-1.7,0.7s-1.3,0.2-2,0.3
			c-0.7,0-1.4,0.1-2.1,0c-0.7,0-1.3,0-1.9,0c-0.1,0-0.1,0.1-0.2,0.1c0,0-0.1,0-0.1,0c-0.6,0-1.1,0-1.7-0.1c-0.6,0-1.1-0.1-1.7-0.1
			c0-0.1,0-0.2,0.1-0.3c0-0.1,0.1-0.1,0.1-0.2c0.1-0.1,0.1-0.1,0.2-0.2c0.1-0.1,0.1-0.2,0.1-0.3c0,0,0-0.1,0.1-0.2s0-0.2,0-0.2
			c0-0.1,0-0.2,0-0.3c0-0.1,0-0.3,0-0.5c0-0.2,0-0.3,0-0.4c0-0.1,0-0.2,0-0.3V325c0,0,0-0.1,0-0.2c0-0.1,0-0.2,0-0.3
			c0-0.1,0-0.2,0-0.3c0-0.1,0-0.1,0-0.2c0-0.2-0.1-0.3-0.3-0.5c-0.1-0.1-0.2-0.3-0.2-0.5v-0.1c0.1,0,0.2,0,0.5,0c0.2,0,0.5,0,0.7,0
			c0.2,0,0.5,0,0.7,0c0.2,0,0.4,0,0.5,0h0.5h0.5c0.1,0,0.1,0,0.1,0.1v0c-0.2,0.1-0.4,0.3-0.5,0.5c-0.1,0.2-0.2,0.4-0.2,0.7
			c0,0.6-0.1,1.1-0.1,1.4c0,0.4,0,0.8,0,1.3v0.5c0,0.1,0,0.2,0,0.4c0,0.2,0,0.4,0,0.6c0,0.2,0,0.4,0,0.6c0,0.2,0,0.3,0,0.4
			c0.1,0.1,0.2,0.2,0.3,0.2c0.1,0,0.2,0,0.3,0h0.3c0.7-0.1,1.3-0.3,1.8-0.5c0.6-0.2,1-0.5,1.4-0.9s0.7-0.8,0.9-1.4s0.3-1.2,0.3-1.9
			c0-1.4-0.3-2.5-0.9-3.3c-0.6-0.8-1.6-1.3-3-1.6c-0.3-0.1-0.5-0.1-0.7-0.1c-0.2,0-0.4,0-0.7,0c-0.3,0-0.6,0-1,0
			c-0.4,0-0.7,0-1.1,0.1c-0.4,0.1-0.7,0.1-1.1,0.3c-0.3,0.1-0.6,0.3-0.9,0.5c-0.1,0.1-0.3,0.3-0.4,0.4c-0.1,0.2-0.2,0.3-0.4,0.4
			c-0.1,0-0.1,0-0.1-0.1c0,0,0-0.1,0-0.1c0-0.2,0.1-0.4,0.3-0.7c0.2-0.2,0.4-0.4,0.7-0.6c0.3-0.2,0.6-0.3,0.9-0.4
			c0.3-0.1,0.5-0.2,0.7-0.3c0.1,0,0.2,0,0.5-0.1c0.2,0,0.5-0.1,0.7-0.1c0.3,0,0.5-0.1,0.7-0.1c0.2,0,0.4-0.1,0.5-0.1h0.2
			c0.9,0,1.8,0.1,2.7,0.3c0.9,0.2,1.7,0.6,2.4,1c0.7,0.5,1.3,1,1.7,1.8c0.4,0.7,0.6,1.6,0.6,2.6c0,0.3-0.1,0.7-0.2,1.1
			c-0.1,0.4-0.3,0.8-0.6,1.2c-0.2,0.4-0.5,0.8-0.8,1.1c-0.3,0.3-0.7,0.5-1,0.7c0.1,0,0.2,0,0.4,0.1c0.2,0,0.3,0.1,0.3,0.1
			c0.6,0.2,1.1,0.4,1.6,0.7c0.5,0.3,1,0.6,1.4,0.9c0.4,0.4,0.7,0.8,0.9,1.3c0.2,0.5,0.4,1.1,0.4,1.7
			C52.7,334.7,52.5,335.4,52.2,335.9z"/>
		<path class="st3" d="M49.1,331.1c-0.3-0.4-0.7-0.7-1.1-0.9c-0.4-0.2-0.9-0.3-1.5-0.3c-0.5,0-1,0.1-1.5,0.2s-1,0.2-1.5,0.3
			c0,0-0.1,0-0.2,0c-0.1,0-0.2,0-0.3,0c-0.1,0-0.2,0-0.3,0s-0.1,0-0.1,0.1v6.3c0,0.1,0,0.2,0.1,0.3c0.1,0.1,0.2,0.1,0.3,0.2
			s0.2,0.1,0.3,0.1c0.1,0,0.2,0.1,0.3,0.1h0.9c0.8,0,1.5,0,2.2-0.1c0.7-0.1,1.3-0.2,1.8-0.4c0.5-0.2,0.9-0.6,1.2-1.1
			c0.3-0.5,0.5-1.2,0.5-2c0-0.5-0.1-1-0.3-1.4C49.6,331.9,49.4,331.5,49.1,331.1z"/>
	</g>
	<rect x="17.5" y="305.3" class="st3" width="43.2" height="4"/>
	
		<rect x="26.8" y="295.2" transform="matrix(0.8767 -0.4811 0.4811 0.8767 -136.9989 59.9464)" class="st3" width="43.2" height="4"/>
</g>
<path class="st3" d="M648.9,476.8c0.2-0.6-0.7-1.6-1.9-1.4c0,0.3-0.2,0.6-0.5,0.7c-1.2-2.9-3.6-6-7.1-7c0.2,0.8-0.1,1,0.7,1.4
	c-0.4,0-0.7,0-0.9,0.2c-0.6-1.2-3-1.9-4-2.1c-0.3,0.4-0.7,0,0,0.9c-1.1-0.3-1.1-0.3-2.1,0c0-0.2-0.4-0.2-0.5-0.4
	c0.3,0,0.6-0.1,0.5-0.4c-1.1,0.4-1.4-0.6-2.6-0.2c-1.4-2.9-2.2-4.7-3.5-7.2c-1.7,1.2-2.5-1.7-3.3-0.7c-0.1-0.1-0.1-0.2-0.2-0.3
	H226.9v0.4c-0.5-0.5-0.6,0.5-1.2,0c0.1-0.2,0.3-0.3,0.5-0.4h-0.6c-0.2,0.1-0.3,0.1-0.4,0.3c-0.2,0-0.2-0.1-0.3-0.3h-0.6
	c0.1,0.2,0.4,0.4,0.4,0.6c-1.2,0.6-0.4,0.7-0.9,1.4c-0.4-0.5-0.9,0.1-1.4-0.4c0.1-0.6,0.9-1.2,1.4-1.6c-1.2-0.5-1.9,1.7-3.1,0.7
	c-0.1,0.6-0.4,0.8-0.7,0.9c0.3,0.1,0.5,0.2,0.5,0.5c-0.4,0-0.2-0.5-0.7-0.4c-0.3,0.5,0.8,0.9,0.2,1c-0.6-0.3-1.9-0.5-0.5-1h-0.9
	c-0.4,0.6,0.5,1.1-0.5,1.2c0.7-0.6-0.9-0.6-0.9-1.2c0.2,0.7,0.3,1-0.7,0.7c0.3,1-0.8,0.5-0.5,1.4c-1.3-0.9-2.3,0.2-3.3,0.2
	c-0.3,0.2-0.1,0.8-0.5,1.1c0.8,0,1.2,1.4,0.5,1.4c-0.5-0.2-0.8-0.5-1.2-0.9c-0.1,1.1-1.5-0.2-2.1,0.4c0.6,0.2-0.2,0.8-0.7,0.7
	c-0.5-0.8-1.2,0.1-2.1,0.2c0-0.3-0.2-0.4-0.5-0.5c-0.1,0.8-0.7-0.1-0.9-0.2c0,0.7-0.6,0.4-0.9,1.1c-0.1-0.2-0.3-0.4-0.5-0.5
	c-0.7,0.3,0.4,0.7-0.2,0.9c-1-0.4-0.8-0.6-0.7-1.6c-0.9-0.1-0.8-1-1.4-1.2c0.1,0.8-1.9,1.3-1.9,0.5c0.1,0.4-1,0.7-0.2,1.1
	c0-1.1,0.5,0.2,0.7,0.2c-0.1,0,0.8-1.7,1.4-0.4c-0.2,0.8-0.8,1.4-1.9,1.6c-0.4-0.4,0.3-0.7-0.7-0.9c-0.3,0.5,0.1,1-0.9,1.2
	c-0.1-0.6,0.3-0.7,0.5-1.1c-0.8-0.1-0.3,0.6-0.9,0.5c-0.6-0.4-0.1-0.8-0.5-1.1c-0.1,0.3-0.1,0.8-0.7,0.7c-0.1-0.3,0.2-0.9-0.5-0.7
	c-0.1,0.3,0.4,0.5,0,0.5c-0.6-0.2-0.9-0.6-1.6-0.7c-0.4,1.2-1.3-0.1-2.6,0.4c-0.2-0.4-0.5-0.7-0.7-1.1c-0.5,0.1-1,0.2-1.4,0.4
	c0.2-0.3-0.5-0.8-0.5-0.4c0.6,0,0,0.6-0.2,0.5c0.5-0.4-0.2-0.8-0.7-0.9c0.4,0.5-1.2,1-2.1,0.9c-0.1,0.3-0.1,0.7-0.5,0.9
	c0.1-0.2-0.7-0.6-0.7-0.2c0,0.5-1.5,1.2-2.1,1.8c0.5-0.4-0.1-0.4-0.5-0.5c-0.3,1-1,1.6-2.1,1.9c-0.6,0.1-1.5-0.7-1.4,0
	c-0.9,0.2,0.7,0,0.5,0.3c-0.9,0-0.8,0.9-0.9,1.1c-0.7-0.4-1.3-2-2.8-2.6c-0.7,0.2,0.2,0.6-0.9,0.5c-0.4-0.8,0.8-0.3,0.9-0.7
	c-1.1,0.3-0.9-1.1-1.9-0.7c0.3,0,0.6,0.3,0.2,0.4c-3.3-1.3-7.2,1.5-8.5-1.6c-1,0.4-1.2-0.5-1.9,0.2c-0.2-0.5-0.3-1.1-0.9-1.2
	c0.2,0.9-0.8,0.7-1.4,0.5c0.2,1-0.9,1.2-1.9,1.8c0-0.2,0-0.5-0.2-0.5c-1.3,0.5-2.4-1.1-3.4-1.6c-0.1,0.1-0.3,0.3-0.4,0.4
	c-0.4-0.4-0.9-0.9-2.1-0.7c-0.1,0.4-0.2,0.9-0.9,0.9c-0.9-0.8-0.6-1.1-1.4-1.4c-0.1,0.2-0.5,0.2-0.7,0.4c-0.2-0.3-0.7-0.5-0.2-0.9
	c-0.3,0-0.7,0-0.7-0.2c-0.6,0.4-1.2,0.4-1.9,0c-0.2,0.2-0.5,0.4-0.7,0.5c-2.8-0.5-4.1-1.3-5.2-3.7c0,0.7-0.4-0.1-0.7,0.4
	c0.2-1-1.3-1.4-2.6-1.2c-0.1-0.1-0.2-0.2-0.3-0.3H37.6c-0.9,1.8-1.4,3.2-3.8,3.8c-0.7-0.4-0.7-0.2-1.6-0.5c-1.9,1.9-5.5,0.4-7.1,0.7
	c0.3,0.6,1-0.1,1.2,0.5c-1.3,0.8-2.5,0.6-3.3-0.2c-0.8,0.5-2.7,0.8-2.1,1.4c-0.2-0.1-1.3-0.4-1.4,0c0.3,0.2,0.7,0.3,0.7,0.7
	c-1.5-0.3,0.1,0.8-0.5,1.4c-1.5-0.4-1.5-0.3-2.8-0.7c0.6,1,0,1.4,1.2,1.8c-1,0.1-0.9,1.1-1.6,1.4c-0.1-0.7-0.6-1.1-0.9-1.6
	c-0.8,1.3-3.7-0.2-3.8,1.1c0-0.3,0.1-0.6-0.2-0.7c-0.2,0.3-0.6,0.4-0.9,0.2c-0.4,0.7,1,0.1,0.9,0.5c-0.7,0.3-0.6,1.2-1.4,1.4
	c0-0.4-1-0.1-1.4-0.2c0,0.3-0.2,0.4-0.7,0.4c0,0.3,0.1,0.5,0.2,0.7c-1.1,0.4-1.7,1-2.6,0.2c0,0.7-0.2,0-0.5,0c0.1,0.3-0.3,1,0.2,1.1
	c-0.1-0.5,0.1-0.6,0.7-0.5c0,0.5-0.4,0.4,0,0.7c-1.3,0.2-1.6,0-2.8-0.2c0.3,1.3,0,1.3,0.9,2.1c-1.1-0.3-0.7,0.7-1.4,0.9
	c-0.1,0-0.4-0.5-0.7-0.5c0.1,0-0.8,0.6-0.9,0.2c-0.5,0.5,0.2,0.8-0.2,1.1c-0.7,0.2-0.5-0.4-0.9-0.5v66.8h652.8v-65.7
	c-0.6-0.1-1-0.2-2-0.8C650.4,477.8,649.4,476.5,648.9,476.8z M640,471.3c0.2-0.2,0.2-0.6,0.5-0.9c0.5,0.1,0.5,0.5,0.7,0.7
	C640.7,471.1,640.7,470.7,640,471.3z"/>
<g>
	<path class="st3" d="M453.7,424.1h-0.2c0.1,0,0.2,0,0.3,0C453.8,424.2,453.7,424.2,453.7,424.1z"/>
	<path class="st3" d="M594.7,427.9V239.8c0-14-3.5-27.3-9.7-39.6l18.3-10.4v-5h-28c-2.1-2.8-4.4-5.4-6.8-8
		c-19.1-20.5-47.3-35.4-79.9-41.2l-4.6-2.6v-15.4l-3.6-3.6v-12.4V43.6h-43.2l0,57.9V114l-3.6,3.6V133l-4.6,2.6
		c-12.7,2.2-24.7,5.8-35.8,10.6c-11.1-4.8-23.1-8.4-35.8-10.6l-4.6-2.6v-15.4l-3.6-3.6v-12.4l0-57.9h-43.2l0,57.9V114l-3.6,3.6V133
		l-4.6,2.6c-12.7,2.2-24.7,5.8-35.8,10.6c-11.1-4.8-23.1-8.4-35.8-10.6l-4.6-2.6v-15.4l-3.6-3.6v-12.4l0-57.9H175l0,57.9V114
		l-3.6,3.6V133l-4.6,2.6c-28.7,5-54,17.2-72.6,34c1.2-0.1,2.4-0.2,3.5-0.4h-0.1c1.9-0.3,4-0.6,6.1-0.8c2.1-0.3,3.6-0.5,4.3-0.6h1.2
		c6.1,0,12.1,0.7,18,2.1c5.9,1.4,11.2,3.6,15.8,6.6c4.7,3,8.4,6.9,11.3,11.7c2.9,4.8,4.3,10.6,4.3,17.3c0,2-0.4,4.3-1.3,6.9
		c-0.9,2.6-2,5.1-3.5,7.6c-1.5,2.5-3.2,4.8-5.2,6.9c-2,2.1-4.1,3.7-6.3,4.9c0.5,0.2,0.9,0.3,1.4,0.4c0.5,0.1,0.8,0.2,1,0.3l-0.1-0.1
		c3.7,1.4,7.3,2.9,10.8,4.7c3.4,1.7,6.5,3.8,9.1,6.1c2.6,2.4,4.7,5.1,6.3,8.3c1.6,3.2,2.3,6.9,2.3,11.1c0,6.4-1.4,11.5-4.2,15.4
		c-2.8,3.9-6.4,6.8-10.8,8.8c-4.4,2-9.4,3.3-14.9,3.9c-5.5,0.6-10.9,0.9-16.2,0.9c-1.8,0-3.6,0-5.3,0c-1.7,0-3.4,0-4.9-0.1
		c-0.6,0-1.3,0-1.8-0.1c-0.6,0-1.2-0.1-1.7-0.1c-0.5,0.3-1,0.4-1.4,0.5c-0.4,0-0.9,0.1-1.6,0.1c-1.8,0-3.6,0-5.3-0.1
		c-1.7,0-3.5-0.1-5.2-0.2c-1.7-0.1-3.4-0.2-5.1-0.3c-1.7-0.1-3.4-0.1-5.1-0.1l-2.7-0.7c0-0.6,0.2-1.1,0.6-1.7c0.4-0.6,0.9-1.3,1.6-2
		c0.2-0.2,0.4-0.4,0.5-0.8c0.2-0.3,0.4-0.9,0.5-1.6c0.1-0.2,0.2-0.6,0.3-1.1c0.1-0.6,0.1-1,0.1-1.3c0-0.5,0-1.2,0.1-2.2
		c0.1-1,0.2-2,0.2-3c0-1,0.1-1.9,0.1-2.8c0-0.8,0.1-1.4,0.1-1.7v-67.3c0-0.3,0-0.7-0.1-1.3s-0.1-1.2-0.1-1.8c0-0.6-0.1-1.2-0.2-1.7
		c-0.1-0.6-0.1-0.9-0.1-1.1c-0.2-0.6-0.3-1.2-0.5-1.5c-0.1-0.4-0.3-0.6-0.5-0.8c-0.5-0.7-1-1.4-1.4-2c-0.4-0.6-0.6-1.1-0.6-1.6v-1.3
		c0.5,0,1.7,0,3.4-0.1c1.7-0.1,3.6-0.2,5.5-0.3c1.9-0.1,3.7-0.2,5.5-0.2c1.7,0,2.9-0.1,3.4-0.1h7.3c1,0.4,1.7,0.6,2,0.8
		c0.3,0.2,0.5,0.4,0.5,0.6c-1.2,0.9-2.2,2.1-3,3.5c-0.8,1.4-1.3,2.9-1.5,4.5c-0.1,1-0.2,2-0.2,2.9c0,0.9-0.1,1.7-0.1,2.6
		c-0.1,2.2-0.2,4.3-0.2,6.2c0,1.9-0.1,4-0.1,6.2v3.1c0,0.5,0,1.3,0.1,2.5c0,1.2,0.1,2.5,0.2,3.8c0.1,1.3,0.2,3.4,0.3,6.3l-0.4-0.3
		c0.3,0.5,0.5,0.7,0.6,0.8c0.1,0,0.3,0.1,0.3,0.1h1.8c3.8-0.6,7.3-1.7,10.5-3.1c3.2-1.4,5.9-3.3,8.2-5.7c2.3-2.4,4-5.2,5.3-8.6
		c1.2-3.4,1.8-7.4,1.8-11.9c0-9-1.7-15.9-5.2-20.8c-3.5-4.9-9.2-8.2-17.1-10.1c-1.7-0.4-3.2-0.6-4.4-0.8c-1.2-0.1-2.5-0.2-3.8-0.2
		c-1.8,0-3.8,0-5.8,0.1c-2.1,0.1-4.1,0.3-6.2,0.7c-2.1,0.4-4.1,1-6.1,1.7c-2,0.8-2.7,1.1-4.4,2.5c-1.9,2.1-3.7,4.3-5.4,6.5H52v5
		l18.3,10.4c-6.2,12.2-9.7,25.6-9.7,39.6v188.1l-15.1,24.5H91V348.7c0-26.5,24.9-47.9,55.7-47.9c30.7,0,55.7,21.5,55.7,47.9v103.6
		h96.1c2.2-1.8,4.5-3.5,4.4-3.5v-0.9l1.6-1.6l-0.3,0.2c0.2-0.2,0.5-0.7,0.9-1.3c0.3-0.7,0.5-1.8,0.5-3.5c0-1.7,0-2.8-0.1-3.5
		c-0.1-0.7-0.4-1.9-1-3.5c-0.3-1.2-0.8-2.7-1.5-4.5c-0.6-1.8-1.2-3.6-1.7-5.3c-0.5-1.7-1-3.2-1.3-4.3c-0.3-1.2-0.5-1.7-0.3-1.6
		l-1.9-2l-8.9-27.1h-35.2c-0.2,0.4-0.4,0.8-0.5,1.2l-9.6,31.2h0.2c-0.1,0.8-0.2,1.4-0.2,1.6c0,0.1,0,0.3,0,0.5
		c0,1.3,0.1,2.4,0.4,3.2c0.3,0.8,0.6,1.5,1,2.1c0.6,0.9,1.1,1.9,1.6,2.9c0.5,1,0.7,2.1,0.7,3.3h-29.6l-1.6-1.6c0.4-0.4,1-1,1.9-1.9
		c0.9-0.9,1.9-1.8,2.9-2.8c1-1,1.9-2,2.8-2.9c0.9-0.9,1.5-1.6,1.8-1.9c0.1-0.1,0.4-0.6,1-1.6c0.5-0.9,0.9-1.7,1.1-2.1h-0.2
		c0.3-0.9,1-2.7,2-5.2c1-2.5,2-5.2,3.1-8.1c1.1-2.8,2.1-5.5,3-8c0.9-2.5,1.6-4.2,1.9-5.3c0.2-0.6,0.4-1,0.5-1.3
		c0.1-0.3,0.1-0.1,0,0.4c0.2-1.1,0.5-2,0.8-2.9c0.3-0.9,0.9-2,1.8-3.5l-0.5,0.2l21.4-65.5c0.2-1.3,0.4-2.3,0.5-3
		c0-0.2,0-0.4,0.1-0.5c0.1-0.1,0.1-0.3,0.1-0.5V317c0-1.3-0.2-2.5-0.7-3.7c-0.5-1.2-1-2.2-1.6-3.2l0.5-0.7c0.2-0.2,0.9-0.4,1.9-0.6
		c1-0.2,2.3-0.3,3.7-0.4c1.4-0.1,2.9-0.2,4.4-0.4c1.6-0.1,3-0.2,4.4-0.2c0.6,0,1.1,0,1.7-0.1c0.5-0.1,1-0.1,1.3-0.1h6.1
		c0.7,0,1.5,0,2.4,0c1,0,2.1,0,3-0.1c1-0.1,1.9-0.1,2.7-0.1c0.8,0,1.3,0,1.6,0c0,1.2-0.2,2.2-0.5,3.1c-0.4,0.9-0.8,1.8-1.2,2.7
		c-0.2,0.6-0.5,1.1-0.7,1.7c-0.2,0.5-0.4,1.4-0.4,2.6v0.7c0,0.6,0.1,1.7,0.4,3.2c0.2,1.5,0.5,2.5,0.7,3l32.6,97.2h-0.2
		c0.9,1.9,1.8,3.7,2.6,5.5c0.8,1.8,1.7,3.5,2.6,5.3c0.9,2,1.9,4,2.9,6.1c1,2.1,2.1,4.2,3.2,6.3l-0.2-0.2c0.6,0.9,1,1.6,1.4,2
		c0.4,0.4,0.6,0.7,0.9,1c0.7,0.9,1.4,1.7,2,2.4c0.6,0.6,1.1,1.1,1.3,1.3c0.3,0.3,0.5,0.6,0.6,0.9h6h131.1h131.1L594.7,427.9z
		 M314.7,283.1c0,1.9-1,3.4-3.1,4.7c-2.1,1.3-4.4,2.4-7.1,3.3c-2.7,0.9-5.3,1.5-7.9,1.9c-2.6,0.4-4.5,0.6-5.7,0.6H289l-32.6-5.2H254
		c-0.5,0.2-1.5,0.5-3,1c-1.6,0.5-2.9,0.9-4,1.4c-0.4,0.2-0.6,0.3-0.8,0.3c0.3,0,0.5,0,0.7-0.1c-0.3,0.2-0.5,0.3-0.8,0.3
		c-0.2,0-0.7,0.3-1.4,0.8h-1.4c-0.9,0-1.7-0.1-2.2-0.2l5.6,10.5l-0.5-0.3c0.6,0.6,1.3,1.5,2.1,2.5c0.8,1,1.2,1.9,1.2,2.6
		c0,0.4-0.2,0.7-0.7,1.1c-0.5,0.4-1.4,0.6-2.7,0.6c-1,0-1.7,0-2.1-0.1c-0.4-0.1-0.8-0.3-1-0.6h0.1c-0.5-0.5-1.5-1.3-2.9-2.5
		c-1.4-1.2-2.8-2.5-4.3-3.8c-1.5-1.3-2.9-2.6-4.2-3.8c-1.3-1.2-2.3-2-2.8-2.5c-0.7-0.7-1.4-1.5-2.1-2.3c-0.6-0.8-1.3-1.6-1.9-2.3
		c-0.8-1-1.6-2-2.4-3.1c-0.8-1-1.6-1.9-2.5-2.6c-0.5-0.6-1.2-1.5-2.1-2.9c-1-1.3-2-2.8-3.1-4.3c-1.1-1.5-2.1-3-3-4.3
		c-0.9-1.3-1.5-2.3-1.8-2.9c-0.3-0.5-0.9-1.5-1.9-3.2c-1-1.7-2-3.5-3.1-5.5c-1.1-2-2.2-3.9-3.3-5.9c-1.1-1.9-1.9-3.4-2.4-4.4h0.1
		c-0.7-1.3-1.3-2.3-1.6-2.9c-0.2-0.4-0.3-0.7-0.3-1c0-0.3-0.1-0.6-0.2-0.9c-0.7,0.5-1.4,0.9-2.1,1.3c-0.7,0.4-1.2,0.6-1.4,0.8
		c-0.2,0.1-0.3,0.6-0.3,1.4c0,0.7,0,1.5,0,2.4v3.3c0,0.4,0,1.3,0.1,2.7c0.1,1.4,0.2,3,0.2,4.7c0,1.7,0.1,3.2,0.1,4.7
		c0,1.4,0.1,2.3,0.1,2.7v8.6c0.1,2,0.5,3.7,1.3,5.1c0.8,1.3,1.6,2.5,2.5,3.6c0.2,0.2,0.5,0.5,0.8,0.9c0.4,0.4,0.6,0.7,0.8,0.9v1.3
		c0,0.1-0.2,0.2-0.6,0.3c-0.4,0.1-0.9,0.3-1.6,0.4c-0.6,0.1-1.3,0.3-1.9,0.3c-0.6,0.1-1.2,0.1-1.6,0.1c-0.2,0-0.8-0.1-1.9-0.2
		c-1.1-0.1-1.7-0.3-1.9-0.3c-1.3,0-2.6,0-3.8,0.1c-1.3,0-2.6,0.1-3.8,0.2c-1.4,0.1-2.7,0.2-4.1,0.2c-1.4,0-2.7,0.1-4.1,0.1h-0.7
		c-1,0-1.9,0-2.7-0.1c-0.8-0.1-1.2-0.5-1.2-1.3c0-0.1,0.2-0.4,0.6-1c0.4-0.6,0.9-1.4,1.6-2.3c0.5-0.7,1.1-1.6,1.6-2.7
		c0.5-1.1,1-2.2,1.2-3.6v-37.6c0-0.6,0-2.2-0.1-4.7c-0.1-2.5-0.2-5.1-0.2-7.9c0-2.8-0.1-5.4-0.1-7.9c0-2.5-0.1-4-0.1-4.5v-2.2
		c-0.1-3.2-0.2-6.4-0.4-9.3c-0.2-3-0.7-5.9-1.5-8.8v0.1c-0.4-1-0.6-1.6-0.7-1.6c-0.1,0-0.2-0.2-0.4-0.3h0.1
		c-0.7-0.6-1.4-1.3-1.9-1.8c-0.5-0.6-0.8-1.1-0.8-1.5c0-0.2,0.1-0.5,0.4-1c0.3-0.5,1.2-0.8,2.9-0.8H194c1.1-0.3,2.4-0.4,4-0.5
		c1.6,0,3.1-0.1,4.5-0.1h1.1c3.7,0,7.4,0.3,11.4,0.8c3.9,0.5,7.5,1.5,10.8,2.9c3.3,1.4,6,3.5,8.1,6.2c2.1,2.7,3.2,6.3,3.2,10.7
		c0,3.3-0.8,6.2-2.3,8.8c-1.5,2.6-3.5,5-5.8,7.2c-2.4,2.2-5,4.2-7.8,5.9c-2.8,1.8-5.6,3.3-8.2,4.7c0.3-0.1,0.4,0.2,0.4,1v0.3
		c0,0.3,0,0.5,0.1,0.6l26.4,49.2l1.2-2.4c0.2-0.5,0.4-0.9,0.8-1.4c0.3-0.5,0.6-0.9,0.8-1.3l-0.4,0.4c0-0.1,0-0.2,0.1-0.4
		c0.2-0.4,0.3-0.8,0.3-1.3c0.1-0.4,0.2-1,0.3-1.8c0.1-0.8,0.2-1.7,0.3-2.6c0.1-0.9,0.2-1.7,0.3-2.5c0.1-0.8,0.1-1.4,0.1-1.7
		c0-1.3,0-3.6,0-6.8c0-3.2,0-6.7,0.1-10.4c0.1-3.7,0.2-7.2,0.2-10.4c0-3.2,0.1-5.5,0.1-6.8v-32.6c-0.1-1.7-0.2-3.2-0.3-4.5
		c-0.1-1.3-0.3-2.6-0.6-3.8c-0.3-1.2-0.8-2.3-1.4-3.3c-0.6-1.1-1.5-2.2-2.6-3.4v-1.9c2.9,0,6.3,0,10,0.1c3.7,0,7.1,0.1,10,0.2
		c2.9,0.1,5.8,0.2,8.6,0.2c2.8,0,5.7,0.1,8.6,0.1h15.8c0.2-0.2,0.4-0.3,0.8-0.4c0.3-0.1,0.6-0.2,0.8-0.4c0.2-0.1,0.3-0.2,0.4-0.4
		c0.1-0.2,0.3-0.3,0.5-0.5c0.2-0.1,0.5-0.3,1-0.3c0.4-0.1,1.1-0.1,2-0.1c0.6,0,1.1,0,1.3,0.1c0.2,0.1,0.8,0.4,1.8,0.8l7.5,14.3
		c0,0.6-0.4,1.1-1.2,1.3c-0.8,0.2-1.7,0.3-2.7,0.3c-1.3,0-2.2-0.1-2.7-0.3c-0.5-0.2-0.9-0.5-1.3-0.8h0.4c-0.2-0.2-0.3-0.4-0.5-0.6
		c-0.1-0.2-0.4-0.4-0.8-0.6h0.1c-2-1-3.9-1.9-5.7-2.7c-1.8-0.8-3.7-1.4-5.7-1.7h0.3c-0.9-0.1-2.4-0.2-4.5-0.3
		c-2.1-0.1-4.4-0.2-6.9-0.4c-2.5-0.2-4.8-0.3-7.1-0.5c-2.2-0.1-3.8-0.3-4.6-0.3h-2.3c-0.1,0.2-0.1,0.5-0.1,0.8v22.4l-0.8-0.6
		l0.8,0.8c0.8,0,1.8,0,2.8,0.1c1,0.1,1.9,0.1,2.5,0.1c0.5,0,1,0,1.6,0.1c0.6,0,1.2,0.1,1.9,0.1c0.7,0,1.5,0,2.2,0.1
		c0.7,0,1.5,0.1,2.3,0.1c1.6,0,3.2-0.1,4.9-0.3c1.7-0.2,3.3-0.5,4.7-1c0-0.1,0.2-0.3,0.5-0.6c0.4-0.3,0.8-0.7,1.2-1.2
		c0.5-0.6,1.3-1,2.3-1.4c1-0.4,2.8-0.6,5.5-0.6v15c0,1.1-0.1,1.8-0.4,1.9c-0.3,0.2-1.3,0.3-3,0.3h-2.5c-1.6-2.6-3.4-4.2-5.2-4.8
		c-1.8-0.6-3.8-0.9-5.9-0.9H272c-0.5,0-1.1,0-1.8,0c-0.7,0-1.5,0-2.2,0c-0.6,0-1.2,0-1.8,0.1c-0.5,0-0.9,0.1-1,0.1
		c-0.2,0-0.5-0.1-1-0.2c-0.5-0.1-0.7-0.3-0.7-0.5l-1,1.7l0.4-0.3v2.8c0,1.8,0,4.1-0.1,7c0,2.9-0.1,6-0.2,9.3
		c-0.1,3.2-0.2,6.5-0.2,9.6c0,3.2-0.1,5.8-0.1,8.1v15.7l-0.1-0.3c0.5,1.2,1.6,2,3.4,2.3c1.8,0.3,3.7,0.5,5.6,0.5
		c0.8,0,1.6,0,2.5-0.1c0.8,0,1.6-0.1,2.2-0.1h2.1c1.5,0,3.1-0.1,4.8-0.3c1.7-0.2,3.5-0.5,5.2-1c1.7-0.5,3.3-1.1,4.8-1.9
		c1.5-0.8,2.6-2,3.6-3.3c0.2-0.2,0.5-0.8,0.8-1.7c0.4-1,0.6-1.6,0.7-1.7c0.5-1.1,1.8-1.7,3.7-1.7h1.9l11.1,10.6L314.7,283.1
		L314.7,283.1z M396.4,367.9c-0.7,0.6-1.6,1.3-2.7,2h0.1c-0.2,0.2-0.4,0.4-0.7,0.6c-0.2,0.2-0.6,0.7-1,1.5c-0.7,1.4-1.1,3.2-1.2,5.4
		c-0.1,2.2-0.1,4.2-0.1,6.1v54.4c0,0.7-0.6,1.1-1.7,1.2c-1.1,0.1-2,0.1-2.7,0.1h-1.9c-7.9-1.9-15.8-4.2-23.7-6.8
		c-7.9-2.6-15.2-6.5-21.9-11.5h-0.1v-0.1l0.1,0.1h0.3c-7-5.5-12.5-11.9-16.6-19.2c-4.1-7.3-6.1-15.2-6.1-23.8c0-6.6,1-13.1,2.9-19.6
		c1.9-6.5,4.8-12.4,8.6-17.6c3.8-5.2,8.7-9.5,14.5-12.7c5.8-3.2,12.5-4.9,20.2-4.9c4.8,0,9.4,0.6,13.6,1.9c4.3,1.2,8.4,3,12.3,5.3
		h4.1c1.4,0,2.3,0.2,2.8,0.6c0.5,0.4,0.7,0.8,0.7,1.1c0,0.3-0.8,1.3-2.3,2.9c-1.5,1.6-3.2,3.4-5,5.2c-1.8,1.8-4.3,4.2-7.4,7.2h-3.4
		c-0.7-5.1-2.4-9.1-5.2-12.1c-2.8-3-6.4-4.5-10.8-4.5c-4.4,0-8.2,1.2-11.2,3.6c-3,2.4-5.5,5.4-7.3,9.1c-1.8,3.6-3.1,7.7-3.9,12.2
		c-0.8,4.5-1.2,8.8-1.2,13c0,5.3,0.4,10.6,1.1,16c0.7,5.3,2,10.4,3.8,15.2c1.8,4.8,4.2,9.2,7.2,13.2c3,4,6.8,7.2,11.3,9.7h-0.1
		c0.3,0.2,0.6,0.4,1,0.5c0.3,0.1,0.7,0.3,1.1,0.5c0.8,0.5,1.7,1,2.7,1.6c1,0.5,1.9,1,2.8,1.3V381c0-0.1,0-0.5-0.1-1
		c-0.1-0.6-0.1-1.2-0.1-1.9c-0.1-0.6-0.1-1.3-0.1-2c0-0.7-0.1-1.2-0.1-1.5c-0.2-1.8-0.7-3.2-1.4-4.2c-0.7-1-1.5-1.9-2.3-2.7
		l-1.5-1.5l1.6-1.2c4.5-0.1,8.1-0.2,10.8-0.2c2.7,0,5-0.1,6.8-0.1c1.8-0.1,3.4-0.1,4.8-0.2c1.4,0,3-0.1,5-0.1h0.4
		c1.2,0,2.2,0.1,3,0.4c0.8,0.3,1.3,0.7,1.3,1.4C397.5,366.7,397.1,367.2,396.4,367.9z M428.9,329.7v0.1l-1.5,1.5l0.3-0.1
		c-0.8,1.1-1.6,2.3-2.4,3.6c-0.8,1.3-1.3,2.8-1.3,4.6v86.5c0,1.4,0.2,2.4,0.5,3c0.3,0.6,0.7,1.1,1.1,1.6c0.5,0.7,1,1.3,1.5,1.9
		c0.5,0.6,0.7,1,0.7,1.2v0.1c0,0.4-0.2,0.9-0.4,1.4c-0.3,0.5-1.3,0.7-3.1,0.7h-23.6c-1.8,0-2.8-0.3-3.1-0.7c-0.3-0.5-0.4-0.9-0.4-1
		v-0.3c2.6-1.7,4.1-3.9,4.6-6.7c0.5-2.7,0.8-5.6,0.8-8.5v-76.6c0-2.2-0.1-3.8-0.4-4.9c-0.3-1-0.9-2.4-1.9-4l0.4,0.2
		c-0.8-0.8-1.2-1.3-1.3-1.5c-0.3-0.4-0.5-0.7-0.7-1c-0.2-0.2-0.4-0.5-0.6-0.7v0.1l-0.3-0.3c0.1,0,0.2,0.1,0.3,0.1l-0.4-0.8
		c0.6-0.4,1.3-0.8,2.1-1.3c0.7,0,2.1,0,4.2-0.1c2.1,0,4.1-0.1,6-0.2c1.9-0.1,3.6-0.1,5.2-0.1c1.7,0,2.8,0,3.4,0h7.8
		c1.4,0.4,2.2,0.8,2.4,1c0.2,0.3,0.4,0.5,0.4,0.7C429,329.7,429,329.7,428.9,329.7z M496.8,435.1c-0.6,0.7-1.5,1.3-2.5,1.7
		c-1,0.5-2.1,0.8-3.3,1c-1.2,0.2-2.3,0.3-3.4,0.4c-0.2,0-0.7,0-1.6,0.2c-0.9,0.1-1.8,0.2-2.9,0.2c-1,0-2,0.1-2.9,0.2
		c-0.9,0-1.4,0.1-1.6,0.1H478c-0.2,0-0.4,0-0.7-0.1c-0.2-0.1-0.5-0.1-0.7-0.1c-0.7-0.1-1.4-0.2-2.1-0.3c-0.7-0.1-1.3-0.2-1.8-0.3
		l0.1,0.1l-1.3-0.1h1.2l-19.3-5.2c-1.1-0.3-2.2-0.5-3.3-0.5c-1.1,0-2.2-0.1-3.3-0.1h-1c-0.7,0-1.5,0.1-2.4,0.3
		c-0.9,0.2-1.8,0.4-2.7,0.6c-0.9,0.2-1.8,0.4-2.8,0.5c-1,0.2-2.1,0.2-3.4,0.2h-0.3c-1.1,0-2-0.1-2.8-0.2c-0.8-0.1-1.2-0.7-1.2-1.6
		c0.8-0.9,1.3-1.4,1.5-1.6L431,431c0-0.1,0.3-0.5,0.8-1c0.5-0.6,0.9-1,1.1-1.2l-0.7,0.3c0.2-0.4,0.4-1.2,0.7-2.5
		c0.3-1.2,0.5-2.2,0.7-2.9v0.1c0.5-11.3,0.9-22.5,1.2-33.7c0.3-11.2,0.4-22.5,0.4-33.9v-19.3c-0.2-1.4-0.6-2.7-1.2-4
		c-0.6-1.2-1.1-2.2-1.5-2.9l0.6,0.3c-0.1-0.1-0.3-0.3-0.6-0.7c-0.3-0.3-0.5-0.6-0.6-0.7v-0.3c0-0.2,0.1-0.5,0.4-0.7
		c0.2-0.3,1.1-0.6,2.4-1h1.6c0.2,0,0.4,0,0.5-0.1c0.1,0,0.3-0.1,0.4-0.1c1.5,0,2.9,0,4.4,0.1c1.4,0.1,2.8,0.1,4.2,0.2
		c1.5,0.1,2.9,0.2,4.4,0.2c1.5,0.1,3,0.1,4.6,0.1h3.2c1.3,0.7,2,1.1,2.2,1.3c0.2,0.2,0.3,0.3,0.3,0.5c0,0.4-0.2,0.9-0.7,1.4
		c-0.4,0.5-0.9,1-1.4,1.5c-0.1,0.4-0.2,0.9-0.4,1.6c-0.8,2.3-1.3,4.7-1.5,7.3c-0.2,2.6-0.4,5.3-0.4,8.2v10
		c-0.1,4.1-0.2,8.2-0.3,12.2c-0.1,4-0.2,8.1-0.4,12.2c-0.2,6.6-0.4,13.1-0.6,19.6c-0.2,6.4-0.3,13-0.3,19.6c0,0.9-0.2,1.4-0.7,1.4
		c3.3,0.4,6.1,0.7,8.3,0.9c2.4,0.2,5,0.3,7.8,0.3c3.7,0,7.1-0.6,10.2-1.9c3-1.3,6.2-3.2,9.4-5.8c0.9-0.3,1.4-0.5,1.7-0.5
		s0.7-0.1,1.3-0.1c1.1,0,2,0.1,2.8,0.4s1.2,0.8,1.2,1.6c0,0.2,0,0.4,0.1,0.6c0,0.2,0.1,0.4,0.1,0.6c0.2,1.8,0.4,3.8,0.7,6.1
		c0.2,2.2,0.4,4.4,0.4,6.4C497.8,433.5,497.5,434.4,496.8,435.1z M582.2,426.8c0,2-1.1,3.7-3.3,5.1c-2.2,1.4-4.8,2.6-7.7,3.5
		c-2.9,1-5.8,1.6-8.6,2.1c-2.8,0.5-4.8,0.7-6.1,0.7h-2.1l-35.1-5.5h-2.5c-0.5,0.2-1.6,0.5-3.2,1c-1.7,0.5-3.1,1-4.3,1.5
		c-0.4,0.2-0.7,0.3-0.9,0.3c0.3,0,0.5,0,0.7-0.1c-0.3,0.2-0.6,0.3-0.8,0.4c-0.2,0-0.8,0.3-1.5,0.8h-1.5c-2.8,0-4.1-0.6-4.1-1.8v-0.3
		l1.6-3.3c0.2-0.5,0.5-1,0.8-1.5c0.3-0.5,0.6-0.9,0.8-1.4l-0.4,0.5c0-0.1,0-0.2,0.2-0.5c0.2-0.4,0.3-0.8,0.3-1.3
		c0.1-0.4,0.2-1,0.3-1.9c0.1-0.9,0.2-1.8,0.4-2.8c0.1-0.9,0.3-1.8,0.4-2.7c0.1-0.8,0.2-1.5,0.2-1.9c0-1.4,0-3.8,0-7.3
		c0-3.5,0-7.2,0.1-11.2c0.1-4,0.2-7.7,0.2-11.2c0-3.5,0.1-5.9,0.1-7.3v-35.1c-0.1-1.8-0.2-3.4-0.3-4.9c-0.1-1.4-0.3-2.8-0.7-4
		c-0.3-1.2-0.9-2.4-1.5-3.6c-0.7-1.1-1.6-2.4-2.8-3.7v-2.1c3.1,0,6.7,0,10.8,0.1c4,0.1,7.6,0.1,10.8,0.2c3.1,0.1,6.2,0.2,9.3,0.2
		c3,0.1,6.1,0.1,9.3,0.1h17c0.2-0.2,0.5-0.4,0.8-0.4c0.3-0.1,0.6-0.2,0.8-0.4c0.2-0.1,0.3-0.2,0.4-0.5c0.1-0.2,0.3-0.4,0.5-0.5
		c0.2-0.1,0.6-0.3,1-0.4c0.4-0.1,1.2-0.1,2.1-0.1c0.7,0,1.2,0,1.4,0.1c0.2,0.1,0.9,0.4,2,0.9l8.1,15.4c0,0.7-0.4,1.1-1.3,1.3
		c-0.8,0.2-1.8,0.3-2.9,0.3c-1.4,0-2.3-0.1-2.9-0.3c-0.5-0.2-1-0.5-1.4-0.9h0.4c-0.2-0.2-0.4-0.4-0.5-0.6c-0.2-0.2-0.4-0.4-0.8-0.6
		h0.1c-2.2-1.1-4.2-2.1-6.1-2.9c-1.9-0.8-4-1.5-6.1-1.9h0.3c-1-0.1-2.6-0.2-4.9-0.3c-2.3-0.1-4.7-0.2-7.4-0.5
		c-2.7-0.2-5.2-0.4-7.6-0.5c-2.4-0.1-4.1-0.3-4.9-0.4h-2.5c-0.1,0.2-0.1,0.5-0.1,0.9v24.1l-0.9-0.6l0.9,0.9c0.9,0,1.9,0,3,0.1
		c1.1,0.1,2,0.1,2.7,0.1c0.5,0,1.1,0,1.7,0.1c0.6,0,1.3,0.1,2,0.1c0.8,0,1.6,0,2.4,0.1c0.8,0.1,1.6,0.1,2.5,0.1
		c1.7,0,3.4-0.1,5.3-0.3c1.9-0.2,3.5-0.5,5-1c0-0.1,0.2-0.3,0.6-0.7c0.4-0.4,0.8-0.8,1.3-1.3c0.6-0.6,1.4-1.1,2.5-1.5
		c1.1-0.4,3-0.6,5.9-0.6v16.2c0,1.2-0.1,1.9-0.4,2.1c-0.3,0.2-1.4,0.3-3.2,0.3h-2.7c-1.8-2.8-3.6-4.5-5.6-5.2c-2-0.6-4.1-1-6.3-1
		h-7.1c-0.5,0-1.1,0-1.9,0c-0.8,0-1.6,0-2.4,0c-0.7,0-1.3,0-1.9,0.1c-0.6,0.1-0.9,0.1-1,0.1c-0.2,0-0.5-0.1-1-0.2
		c-0.5-0.1-0.7-0.3-0.7-0.5l-1,1.8l0.4-0.3v3c0,1.9,0,4.4-0.1,7.6c-0.1,3.1-0.1,6.5-0.2,10c-0.1,3.5-0.2,6.9-0.2,10.3
		c-0.1,3.4-0.1,6.3-0.1,8.7v16.9l-0.1-0.3c0.5,1.3,1.7,2.1,3.7,2.5c2,0.4,4,0.5,6,0.5c0.9,0,1.8,0,2.7-0.1c0.9,0,1.7-0.1,2.4-0.1
		h2.2c1.6,0,3.3-0.1,5.2-0.3c1.9-0.2,3.7-0.5,5.6-1.1c1.9-0.5,3.6-1.2,5.2-2.1c1.6-0.9,2.9-2.1,3.8-3.6c0.2-0.2,0.5-0.8,0.9-1.9
		c0.4-1,0.6-1.7,0.7-1.9c0.6-1.2,1.9-1.8,4-1.8h2.1l11.9,11.4L582.2,426.8L582.2,426.8z M581.2,228.3c-0.7,0.6-1.5,1.2-2.5,1.9h0.1
		c-0.2,0.2-0.4,0.4-0.6,0.6c-0.2,0.2-0.5,0.6-0.9,1.4c-0.6,1.3-1,3-1.1,5c-0.1,2-0.1,3.9-0.1,5.7v50.6c0,0.6-0.5,1-1.6,1.1
		c-1.1,0.1-1.9,0.1-2.5,0.1h-1.8c-7.3-1.8-14.6-3.9-22-6.3c-7.4-2.5-14.1-6-20.3-10.7h-0.1v-0.1l0.1,0.1h0.3
		c-6.5-5.1-11.6-11-15.4-17.8c-1.7-3.1-3.1-6.3-4-9.7c0.1,4.2,0.1,8.4,0.2,12.6c0,5.2,0.1,10.3,0.1,15.5v10.3l-1.1,2.1h-6.7
		c-1.3,0-2.1-0.1-2.3-0.4c-0.3-0.2-0.8-1.1-1.5-2.6c-0.1-0.4-0.2-0.8-0.3-1.4c-0.1-0.6-0.2-1.3-0.4-2.4c-0.2-1-0.3-1.9-0.4-2.8
		c-0.1-0.8-0.2-1.4-0.3-1.8v-0.7l0.1,0.3l-3-9.6l0.3,0.1l-7.9-13.8h0.4l-32.5-34.4v43.2l1.5,15.3c0.1,1.1,0.5,2.2,1.2,3.3
		c0.7,1.1,1.5,2.1,2.2,3c0.7,0.9,1.6,2,2.6,3.3c0,1.1-0.7,1.8-2.2,2c-1.5,0.2-2.7,0.3-3.8,0.3h-17.3c-0.5,0-1.4-0.2-2.5-0.6
		c-1.1-0.4-1.7-0.9-1.7-1.3c1.8-1.5,3.3-3.2,4.3-5.1c1-2,1.8-4,2.4-6.2c0.5-2.2,0.9-4.4,1.1-6.8c0.2-2.3,0.3-4.6,0.3-7V246
		c0-0.8,0-2-0.1-3.4c0-1.4-0.1-3.1-0.1-4.9c0-1.9,0-4-0.1-6.3c0-2.2-0.1-4.5-0.1-6.7c-0.1-4.5-0.2-8.7-0.2-12.7c0-4-0.1-6.9-0.1-8.6
		c-0.3-2.9-0.8-5.2-1.7-6.8c-0.8-1.6-2.2-3.3-4.1-5.1c0.2,0.4,0.4,0.7,0.4,0.9v0.3c-1.6,1.3-2.8,2.8-3.6,4.5
		c-0.9,1.7-1.3,3.7-1.3,5.9v95.5c0,1.7,0.2,2.9,0.7,3.8c0.5,0.8,0.9,1.5,1.4,2.1h-0.1c1.4,1.7,2.1,2.6,2.1,2.9v0.4
		c0,0.4-0.1,0.7-0.4,1.1c-0.3,0.4-1.2,0.6-2.7,0.6h-0.7l-22.1-5c-1.3-0.4-2-0.7-2.3-1c-0.2-0.3-0.3-0.6-0.3-0.8c0-0.2,0.2-0.5,0.8-1
		c0.5-0.5,1.1-1,1.9-1.5c0.2-0.2,0.3-0.4,0.5-0.6c0.1-0.2,0.3-0.6,0.6-1.3c0.2-0.4,0.4-1,0.5-1.8c0.2-0.8,0.3-1.3,0.3-1.5
		c0-0.4,0-1,0.1-2c0-1,0.1-2,0.1-3.1c0-1.1,0.1-2.2,0.1-3.2c0-1,0.1-1.8,0.1-2.2v-71.2c0-0.4,0-1.1-0.1-2.2c0-1.1-0.1-2.3-0.1-3.6
		c0-1.3-0.1-2.6-0.1-3.8c0-1.2-0.1-2.1-0.1-2.6c-0.1-1.1-0.3-2-0.6-2.7c-0.3-0.7-0.7-1.3-1.2-1.9c-0.3-0.4-0.5-0.7-0.7-1
		c-0.2,0.4-0.3,0.7-0.4,0.9l0.3-0.3c-0.3,0.7-0.5,1.3-0.7,1.8c-0.2,0.6-0.4,1.2-0.5,1.7c-0.2,0.5-0.3,0.9-0.4,1l0.1-0.1v0.1
		l-23.2,88.2c-0.2,0.7-0.7,1.4-1.5,1.9c-0.8,0.5-1.9,0.8-3.3,0.8c-1.6,0-2.6-0.1-3.2-0.4c-0.6-0.3-1-0.8-1.2-1.5l-11.5-34.1l0.7,0.3
		c-0.2-0.2-0.5-0.5-0.8-0.9c-0.4-0.4-0.5-0.7-0.5-0.8v0.1c-0.2-0.5-0.4-1.2-0.7-2.3c-0.3-1.1-0.6-2.2-1.1-3.4l-11,41.4l0.1-0.1
		c0,0.1,0,0.2-0.1,0.3c-0.1,0.1-0.1,0.2-0.1,0.3c-0.2,0.8-0.5,1.4-0.9,1.8c-0.4,0.4-1.5,0.6-3.4,0.6c-1.1,0-2.1-0.1-2.9-0.3
		c-0.8-0.2-1.3-0.7-1.5-1.4v0.1l-25.1-75.9h0.1c-0.2-0.2-0.3-0.3-0.3-0.4l0.5,0.3l-1-1c0,0.1,0.1,0.2,0.1,0.2l-0.1-0.3l0.1,0.1
		c-0.1-0.3-0.3-0.9-0.6-1.7c-0.4-1-0.7-2.2-1.1-3.4c-0.4-1.3-0.7-2.4-1-3.5c-0.3-1.1-0.5-1.7-0.6-2l0.1,0.1
		c-0.1-0.3-0.3-0.6-0.5-1.1c-0.2-0.5-0.4-0.9-0.6-1.4c-0.2-0.5-0.5-1.1-0.8-1.9c-0.5-0.6-0.9-1.1-1.2-1.6c-0.4-0.5-0.7-0.9-1-1.2
		c-1-0.9-2-1.9-2.9-2.8c-0.9-0.9-1.4-1.7-1.4-2.2c0-0.4,0.3-0.7,0.8-1c0.5-0.3,1-0.5,1.6-0.6c0.6-0.1,1.2-0.2,1.7-0.3
		c0.5,0,0.9-0.1,1.1-0.1h21.1c1.6,0,2.6,0.2,2.9,0.7c0.3,0.5,0.4,0.8,0.4,1c0,0.5-0.2,1-0.6,1.6c-0.4,0.6-0.8,1.3-1.2,2h0.1
		c-0.3,0.5-0.5,0.9-0.7,1.3c-0.2,0.4-0.3,1-0.3,1.9v0.3l-0.1-0.1l10.6,34.7l-0.3-0.1l1.2,2.1l6.2,20.2l5.6-21.2l0.7-1.7l-0.1,0.1
		l4.4-18.9c0.2-0.2,0.4-0.3,0.5-0.3c0.2,0,0.4-0.2,0.5-0.3c0-0.5,0.1-0.7,0.3-0.8c0.2,0,1.1-0.1,2.5-0.1c2,0,3.2,0.3,3.4,1
		l15.1,41.6l13.8-51.1l-0.1,0.1v-0.3c0-0.6,0.2-1.4,0.7-2.6v0.1c0.1-0.2,0.2-0.3,0.2-0.4c0-0.1,0.1-0.5,0.1-1.1
		c0.3-1.7,0.5-3.4,0.5-5.2c0.1-1.8,0.1-3.6,0.1-5.5h14.3v1.9c-0.1,0.1-0.2,0.4-0.3,0.7h22.2c1.3,0,2.2,0.2,2.6,0.5
		c0-0.3,0.2-0.5,0.7-0.8c0.5-0.3,1.3-0.5,2.6-0.5h24.5c0,1.2-0.1,2-0.2,2.4c-0.1,0.4-0.3,0.7-0.5,1.1c-0.4,0.7-0.7,1.5-0.9,2.2
		c-0.2,0.7-0.3,1.6-0.3,2.5c0,2,0.5,3.8,1.4,5.3c0.9,1.5,1.9,2.8,3,4l31.1,30.9l0.3,0.4c0-0.8,0-1.7,0-2.5c0-0.9,0-1.9,0.1-2.9
		c0.1-2.4,0.2-4.7,0.2-6.8c0-2.1,0.1-3.6,0.1-4.5v-3.5c0-4.8,0-9.9-0.1-15.2c-0.1-5.3-0.4-10.5-0.8-15.4c-0.3-2.7-1-5.2-2.2-7.4
		l0.1,0.1c-0.5-0.6-0.8-1-0.9-1.2c-0.1-0.1-0.3-0.3-0.3-0.5c-0.7-0.7-1.5-1.4-2.2-2.1c-0.7-0.6-1.1-1.2-1.1-1.7
		c0.1-0.2,0.3-0.4,0.5-0.7c0.5-0.2,1.7-0.7,3.6-1.5c1.8-0.8,3.5-1.6,5.1-2.3c1.6-0.7,3.1-1.4,4.6-2c1.5-0.6,2.5-1,3.1-1.3
		c0.1,0,0.2-0.1,0.4-0.3h-0.1c0.4-0.2,0.8-0.4,1.3-0.7c0.5-0.3,1-0.5,1.6-0.6h-0.4c0.2-0.1,0.3-0.1,0.4-0.1c0.2,0,0.5,0,1.1,0
		c0.9,0,1.8,0.1,2.7,0.3c0.8,0.2,1.2,0.6,1.3,1.1c0,0,0,0,0,0v0.1c0,0,0-0.1,0-0.1c-1.1,2-2.1,4.2-3,6.6c-0.9,2.4-1.6,5-1.9,7.7
		v-0.1c-0.1,0.7-0.2,2-0.3,3.8c-0.1,1.8-0.2,3.8-0.3,5.8c-0.1,2.1-0.3,4-0.3,5.9c-0.1,1.8-0.1,3.1-0.1,3.8v15c0,2.9,0,5.8,0,8.7
		c0.4-1.7,0.8-3.4,1.3-5.1c1.8-6,4.5-11.5,8-16.4c3.6-4.9,8-8.8,13.4-11.8c5.4-3,11.6-4.5,18.8-4.5c4.5,0,8.7,0.6,12.7,1.7
		c4,1.2,7.8,2.8,11.4,4.9h3.8c1.3,0,2.1,0.2,2.6,0.6c0.5,0.4,0.7,0.7,0.7,1c0,0.3-0.7,1.2-2.1,2.7c-1.4,1.5-3,3.1-4.7,4.8
		c-1.7,1.7-4,3.9-6.9,6.7h-3.2c-0.6-4.7-2.3-8.5-4.9-11.3c-2.6-2.8-6-4.2-10.1-4.2c-4.1,0-7.6,1.1-10.4,3.3c-2.8,2.2-5.1,5-6.8,8.4
		c-1.7,3.4-2.9,7.2-3.6,11.3c-0.7,4.2-1.1,8.2-1.1,12.1c0,4.9,0.3,9.9,1,14.8c0.7,5,1.9,9.7,3.6,14.1c1.7,4.5,3.9,8.5,6.7,12.3
		c2.8,3.7,6.3,6.7,10.5,9.1h-0.1c0.3,0.2,0.6,0.3,0.9,0.5s0.7,0.3,1,0.5c0.7,0.5,1.6,1,2.5,1.5c0.9,0.5,1.8,0.9,2.6,1.2v-42.3
		c0-0.1,0-0.4-0.1-1c0-0.6-0.1-1.1-0.1-1.7c0-0.6-0.1-1.2-0.1-1.9c0-0.6-0.1-1.1-0.1-1.4c-0.2-1.7-0.6-3-1.3-3.9
		c-0.7-0.9-1.4-1.8-2.1-2.5l-1.4-1.4l1.5-1.1c4.2-0.1,7.6-0.2,10.1-0.2c2.5,0,4.6-0.1,6.3-0.1c1.7,0,3.2-0.1,4.5-0.1
		c1.3,0,2.8-0.1,4.7-0.1h0.4c1.1,0,2,0.1,2.8,0.3c0.8,0.2,1.2,0.7,1.2,1.3C582.2,227.1,581.9,227.7,581.2,228.3z"/>
	<path class="st3" d="M285.4,378.7h-0.7l-0.2,0.4h1.2C285.3,379,285.2,378.9,285.4,378.7z"/>
	<path class="st3" d="M257,378.8c-0.3,0.1-0.6,0.2-0.9,0.2h28.4L271,337.4l-9.8,29.2l0.2-0.4v0.5l-4,11.5l0.2-0.4v0.4
		C257.5,378.5,257.4,378.7,257,378.8z"/>
</g>
<g>
	<path class="st3" d="M154.5,388.2l1.5,1.6c0,0,1.1,2.7-0.9,4.9c-1.3,0.7-2.8,1-4.4,1c-1.5,0-3-0.3-4.4-1c-1.4-1.3-2.4-3.4-3.1-6.1
		c-1-3.8-1.6-6-1.9-6.6c-0.3-0.1-0.6-0.1-0.9-0.1c-1,0-2.3,0.5-3.9,1.4c-1.9,1-3.3,1.6-4.2,1.8c-3,1.2-6.2,1.8-9.7,1.8
		c-5.9,0-11.6-1.6-17.1-4.9c-3.7-2.9-6.7-6.6-9-10.9c-2.2-4.4-3.4-8.8-3.4-13.3c0-4.7,1.1-9.5,3.2-14.5c2.1-5,4.9-9.1,8.3-12.2
		c1.5-1,4.4-2.3,8.6-3.8c3.9-0.4,7-0.6,9.3-0.6c2.3,0,4.5,0.2,6.6,0.6c2.2,1.3,5.4,2.2,9.2,2.6c2.5,0.3,2.5,0.3,4.2,0.3
		c1.1,0,1.7,0,3.4,0c2.6-0.1,2.6-0.5,3.5-0.5c0.5,0,1.4-0.6,2-0.3c0.1,0.2,0,0.5,0,0.8c0.1,3.8,0.1,2.5,0.1,2.7
		c-1.2,2.7-2.4,0.7-3.6,3.5c-1.3,3.2-2.1,6.1-2.4,8.7c0.1,2.2,0,5.1-0.1,8.6c-0.1,4.3-0.2,7.1-0.2,8.4c0,7.5,0.9,13.7,2.8,18.6
		c0.3,0.9,0.9,1.7,1.8,2.5c0.9,0.8,1.5,1.7,2.2,2.5c0.8,0.9,1.5,1.7,1.5,1.7L154.5,388.2z M113.8,374.4c0.1-2.1,0.2-4.4,0.2-6.8
		c0-2.5-0.1-6.1-0.2-11c-0.1-4.9-0.2-8.5-0.2-10.8c0-3.2,0.1-6.1,0.2-8.6c0.1-0.2,0-0.3-0.2-0.4c-0.1-0.1-0.3-0.1-0.5,0
		c-0.2,0.1-0.4,0.1-0.6,0.2c-2.7,5.8-4.2,13.4-4.4,22.8c0.5,2.6,1.1,5.1,1.6,7.6c0.7,3,1.6,5.3,2.8,7c0.1,0.2,0.3,0.3,0.6,0.3
		C113.6,374.7,113.7,374.6,113.8,374.4z M139.7,367.1c0.7-3.3,1.1-6.7,1.1-10.1c0-8.1-1.8-14.7-5.5-19.9c-2.8-3.9-6.1-5.9-9.8-5.9
		c-0.7,0-1.4,0.1-2,0.3c-0.7,0.2-1.6,0.7-2.7,1.5c-1.3,2.3-1.9,5.3-1.9,9c0,1,0.1,2.4,0.2,4.1c0.2,2.3,0.2,3.7,0.2,4.2
		c0.1,2,0.9,2.9,2.5,2.7c2.2-0.1,4.6-1.1,7-3c1.9-1.7,3.7-3.3,5.6-5c0.8,0.2,1.3,0.8,1.4,1.8c0.1,0.7,0.1,1.5,0.2,2.3
		c-0.2,2-0.3,4.8-0.3,8.3c0.1,4.1,0,6.9-0.1,8.3c-0.2,0.4-0.6,0.9-1.2,1.5c-0.3,0.1-0.5,0.2-0.7,0.2c-0.6,0-1.1-0.5-1.4-1.5
		c-0.4-1.3-0.7-2-0.9-2.2c-1-0.7-2-1.5-3-2.2c-1.2-0.9-2.4-1.4-3.4-1.8c-2.2-0.7-4.1-0.6-5.5,0.2c0.2,1.3,0.2,4.6,0,9.9
		c-0.2,4.1,0.2,7.4,1,9.9c0.6,0.9,1.8,1.3,3.4,1.3c0.7,0,1.9-0.2,3.8-0.5C133,379.4,137.1,375,139.7,367.1z"/>
	<path class="st3" d="M199.6,351.4c-0.1,1.3-0.2,3-0.2,5.2v2c0,5.1-0.5,8.8-1.5,11.2c-1.4,3.3-3.6,6.8-6.6,10.5
		c-1.8,2.3-4.7,3.8-8.5,4.7c-3.3,0.5-6.7,1.1-10,1.7c-1.5-0.2-5.6-0.3-12.3-0.5c-5-0.2-9.1-0.6-12.2-1.4c-1.3-0.1-3.1,0.2-5.5,0.7
		c-2.3,0.5-4.1,0.8-5.2,0.8c-0.6,0-1.2-0.1-1.7-0.2c-0.7-1.7-0.7-3.1,0.2-4.2c0.5-0.6,1.9-1.4,4.1-2.2c1.8-0.7,2.9-1.8,3.2-3.2
		c0.5-2.5,0.9-5.8,1-9.9c0.1-3.3,0.1-6.7,0.2-10c0.1-2-0.7-3.9-2.4-5.9c-2.4-3-2.3-4.6-2.5-5c0.2-0.6-0.9-0.9-0.3-0.9
		c0.2,0,0.6,0.1,1.2,0.3c0.6,0.2,1.1,0.3,1.4,0.3c0.3,0,0.6-0.1,0.8-0.2c2.7-0.3,6.3-1.3,10.5-2.9c5.1-1.9,8.5-3.1,10.4-3.5
		c0.4-0.1,0.9-0.4,1.6-0.8s1.3-0.7,1.7-0.7c0.3,0,0.5,0.1,0.8,0.2c0.1,0.2,0.1,0.4,0.1,0.6c0,0.4-0.2,0.9-0.6,1.7
		c-0.4,0.7-0.6,1.3-0.6,1.7c-0.1,1.2,0.1,2.9,0.5,4.9c0.5,2.5,0.7,4.1,0.8,4.7c-0.3,3-0.4,6.7-0.2,11.1c0.2,6.5,0.2,10.2,0.2,11
		c-0.1,1-0.1,2-0.2,3.1c-0.1,1.2,0.1,2.2,0.6,2.9c1.5,1.7,3.2,2.4,5,2.2c2.9-1,5.4-2.7,7.4-5.2c2-2.5,3.3-5.4,3.9-8.7
		c0.3-1.4,0.4-3,0.4-4.8c0-0.7-0.1-2.8-0.2-6.3c-0.1-2.6-0.1-4.7,0-6.3c-1.7-9.5-5.5-15.3-11.4-17.5c-6.1-0.7-10.9-0.6-14.2,0.2
		c-2.8,1.5-5.6,3.1-8.4,4.6c-3.3,1.5-6.3,2.3-9,2.3c-1.2,0-2.3-0.1-3.5-0.4c-1-0.8-2-1.6-2.9-2.5c-1.1-1-1.7-2.1-1.7-3.2
		c0-0.3,0-0.6,0.1-0.9c-0.1-1.7,0.8-0.2,3.1-2.3c1.3-0.6,2.6-0.1,3.5-0.1c0.5,0,1.9,0,1.9,0l0.4-0.2c0,0,1.2,0,2,0.1
		c1.4-0.2,5.6-1,12.7-2.6c5.2-1.1,9.6-1.6,13.1-1.4c7.8,0.4,13.9,3,18.4,7.9C194.1,338.2,197.6,344,199.6,351.4z M161.4,349.9
		c-0.1-0.5-0.2-1-0.4-1.5c-0.2-0.6-0.4-0.9-0.9-1.1c-0.8-0.2-1.7,0.2-2.5,1.2c-0.4,0.9-0.6,2-0.6,3.2c0,0.5,0.1,1.4,0.2,2.5
		c0.1,1.2,0.2,2,0.2,2.6c-0.2,1.5-0.3,3.1-0.3,5c0,1.5,0.1,4,0.4,7.7c0.2,3.4,0.3,6,0.2,7.8c0,0.2,0.2,0.6,0.7,1.3
		c0.7,0.3,1.5,0.2,2.4-0.3c0.8-1.7,1.3-3.7,1.3-6.2c0-0.6-0.4-3.9-1.1-9.7C161.6,357.6,161.8,353.5,161.4,349.9z"/>
	<path class="st3" d="M166.3,440.1c0,0.7-0.6,1.5-1.9,2.5c-2.2-0.2-5.7-0.5-10.5-0.7c-0.9-0.1-2.3,0.2-4.2,0.7
		c-1.9,0.5-3.3,0.8-4.3,0.8c-1.8,0-3.2-0.8-4.3-2.3c0.1-0.8,0.2-1.6,0.2-2.4c0-2.3-0.7-5.3-2-9c-1.5-4-2.3-7-2.5-8.9
		c-0.4-1-1.4-1.9-2.8-2.7c-3.7-0.4-6.3,0.5-7.7,2.9c-0.4,0.7-0.6,1.4-0.6,2.2c0,0.5,0.1,1.4,0.4,2.9c0.2,1.2,0.3,2.2,0.2,2.9
		c-0.1,1-0.1,2.2,0,3.6c0.1,1.1,0.1,2.3,0.2,3.5c1.4,0.7,2.9,1.3,4.4,2c1.6,1,2.5,2.3,2.6,3.8c0.1,0.4-0.1,0.7-0.5,0.9
		c-0.4,0.2-0.8,0.3-1.1,0.5c-0.9,0.1-1.8,0.1-2.8,0.1c-2.2,0-5.5-0.3-10-0.9c-4.4-0.6-7.7-0.9-9.8-0.9c-3.1,0-6,0.4-8.4,1.2
		c-0.3,0-1,0.1-2.1,0.2c-1.1,0.2-1.9,0.2-2.5,0.2c-1.7,0-2.9-0.6-3.6-1.7c0.4-1.6,2-2.7,4.9-3.5c2.9-0.8,4.4-2.1,4.7-4
		c0-4,0.3-9.9,0.8-17.9c0.2-4.9-2.1-8.4-6.8-10.7c-0.5-0.2-0.7-0.7-0.7-1.3c0.1-0.5,0.2-1.1,0.2-1.6c0.3-0.1,0.6-0.3,1.1-0.6
		c1.4,0.2,2.8,0.2,4.2,0.2c7.3,0,13.5-2,18.8-6.1c1.4-0.5,2.7-1,4.1-1.5c1.6-0.4,3-0.6,4.1-0.4c-0.1,0.6-0.6,2.4-1.4,5.2
		c-0.6,2.3-0.9,4.1-0.9,5.4c0,2,0.6,3.7,1.9,5.1c1.5,1.7,4.1,2.4,7.9,2.2c2.4-0.5,4.6-1.7,6.5-3.4c2-1.7,3.2-3.8,3.8-6.1
		c0.2-1,0.3-1.9,0.3-2.8c0-3.4-1.2-6.1-3.7-8.4c-1.5-1-2.7-1.7-3.4-2.1c-1.2-0.6-2.5-1-3.7-1.1c-1.8-0.5-3.7-0.7-5.6-0.7
		c-3.4,0-7.2,0.9-11.5,2.6c-3.6,1.6-7.1,3.1-10.7,4.7c-0.9-0.1-2.2,0-4,0.2c-2.1,0.3-3.5,0.4-4.3,0.4c-3,0-5.1-1.1-6.3-3.3
		c-0.3-1.2-0.5-2.3-0.5-3.3c0-2.5,1-4.3,3-5.4c2.3-0.5,4.7-0.8,7-0.9c0.4,1.5,0.7,2.3,0.8,2.6c0.5,1,1.2,1.6,2,1.8
		c0.9,0.2,1.7,0.4,2.6,0.4c2.1,0,5-0.8,8.8-2.4c3.8-1.6,6.9-2.4,9.1-2.4c7.5,0,12.1,0.1,13.9,0.2c5,0.4,9.3,1.6,12.9,3.6
		c1.3,1.4,2.6,2.8,4,4.3c1.7,1.8,2.7,3.5,3.2,4.9c0.1,3.7,0,6.4-0.2,8.3c-0.4,3-1.4,5.6-3,7.6c-1.2,0.9-2.5,1.9-3.7,2.8
		c-1.5,1.1-2.3,2.4-2.5,3.7c0.3,1.8,1.1,4.2,2.2,7.2c1.4,3.6,2.2,5.9,2.5,7.1c0.9,1.4,1.5,2.3,2,2.8c0.8,1,1.7,1.7,2.7,2.1
		c1.3,0.2,2.6,0.4,3.9,0.6C165.4,438.1,166.3,438.8,166.3,440.1z M120.6,435.3c-0.1-2.4,0-5.6,0.2-9.5c0.1-4.4,0.2-7.4,0.2-9.2
		c0-4.3-0.2-8.1-0.7-11.5c-0.1-0.4-0.2-0.8-0.6-1.4c-0.3-0.2-0.7-0.2-1.1-0.2c-1,0-1.9,0.4-2.8,1.2c-1,2-1.3,4.7-1,8.4
		c0.4,4.1,0.3,7-0.2,8.6c0.1,3.6,0.2,6.1,0.4,7.4c0.4,2.9,1.4,5.1,2.8,6.6c0.5,0.1,1,0.2,1.5,0.2C120,436,120.4,435.8,120.6,435.3z"
		/>
	<path class="st3" d="M195.4,440.8c-1.2,0.3-2.7,0.4-4.2,0.4c-1.3,0-3.2-0.1-5.8-0.4c-2.5-0.3-4.4-0.4-5.7-0.4
		c-1.7,0-3.3,0.2-4.8,0.6c-1.5,0.4-3,0.6-4.7,0.6c-2.4,0-5.2,1.8-7,0.7c-0.2-0.1-0.8-2.2-0.6-3.2c0.2-0.9,0.9-1.3,1.3-1.3
		c3.1-0.1,5.4-2,6.4-2.6c1.6-0.9,2.7-2.2,3.2-3.9c0.3-0.6,0.5-1.3,0.5-2c0-0.3-0.1-1.3-0.4-3c-0.2-1.2-0.2-2.3,0.1-3.1
		c0.2-1.3,0.3-2.8,0.3-4.5c0-1.7-0.2-4.3-0.5-8c-0.3-3.5-0.4-6-0.3-7.6c0-0.6,0.1-1.8,0.3-3.5c0.2-1.7,0.3-3,0.3-3.9
		c0-3.6-1.2-5.9-3.7-7.1c-1.4-0.6-3.2-1.4-3.2-1.4s-0.6-0.5-3.4-0.9c-0.5-0.1,0.1-1.4,0.6-2.5c0.5-1.1,1-1.6,1.5-1.7
		c9.1,0,15.7-0.4,19.7-1.3c1.7,0.2,3.4,0.3,5,0.5c2,0.3,3.5,0.9,4.6,1.8c0.1,2.4-0.6,3.8-2.3,4.3c-1.2-0.1-2.5,0.5-4.1,1.5
		c-1.6,1.6-2.3,4.5-2.2,8.9c0.3,17,0.4,27.3,0.2,31.1c0.6,3.8,1.9,6,3.8,6.6c0.8,0.1,2.3,0.4,4.5,1c0.4,0.2,0.6,1,0.7,2.4
		C195.8,440.1,195.7,440.8,195.4,440.8z"/>
</g>
</svg>
