<?xml version="1.0" encoding="utf-8"?>
<!-- Generator: Adobe Illustrator 15.0.2, SVG Export Plug-In . SVG Version: 6.00 Build 0)  -->
<!DOCTYPE svg PUBLIC "-//W3C//DTD SVG 1.1//EN" "http://www.w3.org/Graphics/SVG/1.1/DTD/svg11.dtd">
<svg version="1.1" id="Layer_1" xmlns="http://www.w3.org/2000/svg" xmlns:xlink="http://www.w3.org/1999/xlink" x="0px" y="0px"
	 width="100px" height="100px" viewBox="0 0 100 100" enable-background="new 0 0 100 100" xml:space="preserve">
<rect y="47.5" width="100" height="5"/>
<rect y="37.5" width="100" height="5"/>
<rect y="27.5" width="100" height="5"/>
<rect y="57.5" width="100" height="5"/>
<rect y="67.5" width="100" height="5"/>
<rect x="50" fill="#E31E26" width="5" height="27.5"/>
<rect x="60" fill="#E31E26" width="5" height="27.5"/>
<rect x="70" width="5" height="27.5"/>
<rect x="90" width="5" height="27.5"/>
<rect x="80" width="5" height="27.5"/>
<rect x="40" fill="#E31E26" width="5" height="27.5"/>
<rect x="30" fill="#E31E26" width="5" height="27.5"/>
<rect x="10" width="5" height="27.5"/>
<rect width="5" height="27.5"/>
<rect x="20" fill="#E31E26" width="5" height="27.5"/>
<rect x="50" y="72.5" fill="#E31E26" width="5" height="27.5"/>
<rect x="60" y="72.5" fill="#E31E26" width="5" height="27.5"/>
<rect x="70" y="72.5" width="5" height="27.5"/>
<rect x="90" y="72.5" width="5" height="27.5"/>
<rect x="80" y="72.5" width="5" height="27.5"/>
<rect x="40" y="72.5" fill="#E31E26" width="5" height="27.5"/>
<rect x="30" y="72.5" fill="#E31E26" width="5" height="27.5"/>
<rect x="10" y="72.5" width="5" height="27.5"/>
<rect y="72.5" width="5" height="27.5"/>
<rect x="20" y="72.5" fill="#E31E26" width="5" height="27.5"/>
</svg>
