<svg xmlns="http://www.w3.org/2000/svg" width="100" height="100" baseProfile="tiny"><g fill="#848484"><path d="M30 87.04v-.95l-1.7.94zM30.58 85.77l-.15-.26-.43.25v.34zM38.5 95.92c0-.1 0-.2 0-.34 0-.13 0-.33-.03-.6-.02-.26-.02-.45-.02-.57 0-.04 0-.14.02-.26.02-.14.02-.23.02-.3 0-.27-.1-.44-.28-.54-.1-.04-.25-.1-.25-.1s-.03-.04-.24-.07c-.07 0-.14 0-.22 0-.23 0-.45-.03-.63-.06.03.03.05.06.07.1.04.02.08.07.12.1l.1.13c.03.02.05.04.07.06.12.14.2.26.23.36 0 .28 0 .5-.02.63-.03.22-.1.4-.23.56-.08.08-.17.16-.27.23-.1.08-.17.17-.2.27.04.14.1.32.18.54.1.27.18.44.2.54.07.1.1.17.14.2.07.1.13.14.2.17.1.02.2.03.3.05.02 0 .03 0 .05 0 .2 0 .37-.14.44-.18.12-.06.2-.16.23-.3.03-.03.04-.08.04-.14 0-.03 0-.1-.02-.23-.02-.1-.02-.17 0-.23zM38.54 99.44c.08 0 .02-.02.07-.04 0 .02-.1-.02-.06.04zM55.26 91.74c.05-.04.08-.08.08-.12 0-.05-.03-.1-.1-.12-.05-.02-.13-.02-.22-.02H55c-.16 0-.3 0-.38 0-.1 0-.23 0-.36.02-.14 0-.32 0-.52 0s-.47 0-.8 0l-.14.1.1.13c.07.04.13.12.2.2.04.06.08.17.1.3 0 .03 0 .07 0 .12 0 .06 0 .1 0 .16 0 .04 0 .1.02.14 0 .05 0 .08 0 .08v3.44c-.07-.03-.14-.06-.22-.1-.06-.04-.13-.08-.2-.1-.02-.03-.05-.04-.07-.05-.02 0-.06-.02-.07-.03-.33-.2-.6-.43-.84-.74-.23-.3-.4-.63-.54-1-.15-.35-.25-.73-.3-1.13-.05-.4-.08-.82-.08-1.2 0-.32.03-.65.1-1 .05-.32.15-.63.28-.9.14-.28.32-.5.56-.7.23-.17.5-.27.84-.27.32 0 .6.12.82.35.2.23.34.52.4.92h.25c.23-.23.4-.4.56-.55.14-.14.27-.27.4-.4s.16-.2.16-.2c0-.04-.02-.06-.05-.1-.03-.02-.1-.04-.2-.04h-.32c-.3-.15-.6-.3-.92-.38-.33-.1-.67-.15-1.03-.15-.58 0-1.1.13-1.53.37-.43.25-.8.57-1.08.96-.3.4-.5.84-.65 1.33-.14.5-.2.98-.2 1.48 0 .65.14 1.25.45 1.8.3.55.73 1.04 1.25 1.45h-.02c.5.37 1.06.66 1.65.86.6.2 1.2.38 1.78.53h.14c.05 0 .12 0 .2-.02.1 0 .13-.03.13-.08v-4.1c0-.14 0-.3 0-.45s.05-.3.1-.4c.03-.07.06-.1.08-.12.02-.02.03-.03.04-.05.08-.05.15-.1.2-.15zM49.1 85.36l-.84-.8h-.15c-.13 0-.22.04-.27.12 0 .02-.02.06-.05.14-.03.07-.05.1-.06.12-.07.1-.16.2-.27.26-.1.06-.23.1-.35.15-.14.03-.27.06-.4.07-.13 0-.25.02-.37.02h-.14c-.06 0-.12 0-.18 0s-.12 0-.2 0c-.13 0-.27 0-.4-.03-.14-.02-.2-.07-.25-.15l-.02-.02s.02 0 .02.02v-1.2c0-.15 0-.36 0-.6 0-.23 0-.47 0-.72.02-.24.03-.48.03-.7 0-.2 0-.4 0-.53v-.2l-.03.03.08-.13s.02.03.05.04c.04 0 .06 0 .08 0 0 0 .03 0 .08 0 .03 0 .08 0 .13 0 .04 0 .1 0 .16 0 .05 0 .1 0 .13 0h.48c.16 0 .3.02.45.07.13.06.27.18.4.38h.18c.14 0 .2-.02.23-.03.02 0 .03-.06.03-.15v-1.13c-.2 0-.34.02-.4.05-.1.03-.14.06-.2.1-.03.04-.05.07-.08.1-.02 0-.04.03-.04.04-.1.03-.22.06-.35.07-.14 0-.26 0-.38 0-.07 0-.12 0-.18 0s-.1 0-.16 0c-.05 0-.1 0-.14 0-.05 0-.1 0-.12 0-.05 0-.1 0-.2 0-.07-.02-.14-.02-.2-.02l-.06-.05.06.04V79c0-.03 0-.05 0-.06h.18c.06 0 .18 0 .34.02.18 0 .35.02.53.04s.35.02.52.03.26 0 .33.02h-.02c.16.03.3.07.44.13.13.06.28.13.42.2.02.02.04.03.05.04.02.02.04.03.05.05H48c.05.03.08.05.1.06.05 0 .12.02.22.02.07 0 .14 0 .2-.02.05 0 .08-.05.08-.1l-.56-1.08c-.1-.03-.13-.05-.15-.06-.02-.02-.06-.02-.1-.02-.08 0-.12 0-.15 0s-.06.02-.08.03c0 .02-.03.04-.03.05 0 0-.03.02-.03.03 0 0-.02.02-.05.03-.02.02-.04.03-.05.04h-1.2c-.2 0-.43 0-.64 0-.2 0-.43 0-.65-.02s-.46 0-.74 0c-.28-.02-.53-.03-.75-.03v.14c.1.1.15.18.2.27.05.08.08.16.1.25.03.1.05.2.06.28 0 .1 0 .22 0 .35v2.44c0 .1 0 .27 0 .5 0 .26 0 .53 0 .8 0 .28 0 .54 0 .8 0 .23 0 .4 0 .5 0 .04-.02.08-.03.14 0 .06-.02.12-.03.18 0 .07-.02.14-.02.2s-.02.1-.02.13c0 .04 0 .07-.02.1 0 0 0 .02 0 .03l.02-.03c0 .02-.04.06-.06.1-.02.03-.04.06-.05.1l-.1.18-1.98-3.7s0-.02 0-.04v-.02c0-.05-.02-.07-.04-.07.2-.1.4-.2.6-.34.23-.14.43-.28.6-.45.18-.15.33-.33.44-.53.12-.2.18-.4.18-.66 0-.32-.08-.6-.24-.8-.16-.2-.35-.36-.6-.47-.24-.1-.5-.18-.8-.22-.3-.03-.6-.05-.86-.05h-.1c-.1 0-.2 0-.33 0-.1 0-.2.02-.3.05h-1.67c-.12 0-.2 0-.22.05 0 .04-.02.07-.02.08 0 .04.02.07.06.12.05.04.1.08.14.12 0 .02.02.03.03.03 0 0 .03.05.06.12.06.22.1.43.1.66.02.22.03.46.05.7v.16c0 .05 0 .16 0 .35.02.17.02.37.02.58 0 .2 0 .4 0 .6.03.17.03.3.03.34v2.84c-.03.1-.05.18-.1.26-.04.1-.08.15-.12.2-.05.08-.1.13-.12.18-.02.05-.04.07-.04.08 0 .05.03.1.1.1.05 0 .1 0 .2 0h.04c.1 0 .2 0 .3 0 .12 0 .22 0 .32-.02.1 0 .2 0 .3 0 .1 0 .2 0 .28 0 .02 0 .07 0 .14 0 .1.03.14.03.15.03.03 0 .06 0 .1-.02.06 0 .1-.02.16-.03.04 0 .1-.02.1-.03.04 0 .06-.02.06-.02v-.1s-.04-.03-.06-.06c-.03-.03-.05-.06-.06-.08-.07-.06-.14-.16-.2-.26s-.08-.23-.1-.38v-.65c0-.03 0-.1 0-.2s0-.23 0-.35c0-.13-.02-.25-.02-.36 0-.1 0-.17 0-.2v-.25c0-.05 0-.1 0-.17 0-.06 0-.1 0-.1.03 0 .07-.04.12-.06.06-.04.1-.06.16-.1 0 .02.02.04.02.07 0 .03 0 .05.03.08.03.05.08.1.13.2.03.1.1.2.18.35.08.14.16.28.25.43.08.15.17.3.23.4.08.14.13.22.15.25.02.05.06.12.13.22s.14.2.23.32c.08.1.15.22.22.32.08.1.13.17.16.22.07.04.13.1.2.2.05.06.12.14.18.22.05.06.1.1.15.17.05.06.1.13.15.18.05.05.12.1.2.2.1.08.22.18.33.27.12.1.23.2.33.3.12.08.2.15.23.18 0 .03.03.04.06.05.02 0 .08.02.16.02.1 0 .16-.02.2-.05.03-.03.05-.06.05-.08 0-.07-.02-.14-.08-.22-.06-.08-.1-.14-.15-.2l.04.03-.42-.78c.05 0 .1.02.17.02h.1c.06-.03.1-.06.12-.06 0 0 .03 0 .05-.02 0 0-.03 0-.05 0 .02 0 .04 0 .07 0 .08-.04.17-.08.3-.1.1-.04.18-.07.2-.1h.18l2.46.4h.15c.1 0 .24 0 .43-.04.2-.03.4-.08.6-.15.2-.06.37-.15.53-.25.14-.1.22-.2.22-.35l-.02.02v-.05zm-7.87-4.1c-.04.04-.12.1-.23.2-.12.07-.24.16-.37.26-.12.1-.25.2-.37.27-.12.08-.2.13-.24.16 0 .02-.04.04-.08.07v-3.18s0-.02 0-.02-.02 0-.02 0l-.1.04.1-.04h1.14c.02.02.04.03.05.05.2.1.34.27.44.44.1.2.14.38.14.63v-.02c0 .23-.05.45-.1.65-.1.2-.2.36-.36.5zM33.98 90.1c0-.25 0-.47 0-.66 0-.02 0-.03 0-.03s0 0-.03 0c-.02 0-.03.02-.04.03-.2.44-.3 1-.33 1.72.05.2.1.38.13.57.04.22.12.4.2.52 0 .02.03.02.06.02.02 0 .03 0 .04-.02 0-.15 0-.32 0-.5s0-.47 0-.83c-.02-.36-.02-.64-.02-.8zM50.93 95.74zM34.4 90.43c.02.15.1.22.2.2.17 0 .34-.07.52-.22.15-.12.3-.24.43-.37.06.02.1.06.1.14 0 .05 0 .1 0 .17 0 .15 0 .36 0 .63 0 .3 0 .5 0 .62-.02.02-.05.06-.1.1-.02.02-.04.02-.05.02-.05 0-.1-.03-.12-.1-.03-.1-.04-.16-.06-.18-.08-.05-.15-.1-.23-.17-.1-.06-.2-.1-.26-.12-.17-.05-.3-.05-.42 0 0 .1 0 .35 0 .75 0 .3 0 .56.07.74.04.07.12.1.25.1.05 0 .14 0 .28-.03.42-.07.73-.4.93-1 .04-.25.07-.5.07-.77 0-.6-.14-1.1-.4-1.5-.23-.3-.48-.43-.75-.43-.05 0-.1 0-.15 0-.05.03-.12.06-.2.13-.1.17-.15.4-.15.67 0 .07 0 .18.02.3 0 .18 0 .28 0 .33zM34.43 94.46c-.03-.02-.05-.03-.1-.03-.06 0-.14.04-.2.1-.07.15-.1.35-.07.62.03.32.02.53 0 .65 0 .28 0 .46.02.56.03.22.1.4.22.5.04 0 .07 0 .1 0 .06 0 .1 0 .1-.04 0-.17 0-.4.02-.7 0-.34 0-.57 0-.7 0-.32 0-.6-.05-.86 0-.03-.02-.07-.04-.1zM28.2 88.57c0-.02-.04-.04-.06-.07-.03-.02-.05-.04-.1-.06l-.35-.15c-.03 0-.06-.03-.07-.05-.02-.02-.02-.05-.02-.07 0-.04 0-.06.03-.1 0 0 .03-.03.05-.05.03 0 .05-.03.08-.03s.05 0 .1 0c.03-.02.06 0 .1 0 .05 0 .08.02.1.05 0 0 .02.02.02.03 0 0 .02.02.02.03 0 .02 0 .04 0 .04.02 0 .03 0 .03 0l.13-.13s-.03 0-.04-.02c-.02 0-.03 0-.04-.02-.04-.02-.07-.04-.1-.05s-.1 0-.14 0c-.06 0-.1 0-.16 0-.05.03-.1.05-.13.1-.04.02-.07.06-.1.1-.02.05-.03.1-.03.14 0 .06.02.1.05.15.04.04.07.07.13.1l.3.12c.04 0 .06.03.08.05.02 0 .04.03.05.06 0 0 .02.03.03.06 0 0 0 .04 0 .06 0 0 0 .02 0 .03 0 .02 0 .02 0 .03 0 0 0 .02 0 .03-.03.04-.05.08-.08.1-.04.04-.07.06-.12.08-.04.02-.08.03-.12.04-.05 0-.1 0-.15 0-.05 0-.1 0-.13-.02-.03 0-.07-.03-.1-.05 0 0-.02 0-.02 0 0-.02-.02-.03-.02-.04 0 0 0-.02-.02-.02s-.03 0-.05.02c0 0-.02.03-.03.05-.02.03-.04.05-.05.06 0 .02-.02.03-.02.03.02 0 .02 0 .03 0 .02 0 .02 0 .02 0 .07.02.12.04.2.05.04 0 .1.02.16.02.1 0 .17-.02.24-.04.07-.02.13-.06.18-.1.06-.06.1-.1.12-.17v.02c.04-.07.06-.14.06-.2 0-.05 0-.07 0-.1-.03-.04-.04-.07-.06-.1zM29.13 89.5c.05-.02.1-.04.13-.06.05-.02.07-.06.1-.1 0-.03.02-.1.02-.14 0-.05 0-.1-.03-.13-.02-.04-.04-.07-.07-.1-.03-.02-.06-.04-.1-.06-.04 0-.08-.03-.13-.04 0 0 0 0-.02 0 0 0-.02 0-.02 0 .04-.02.06-.04.08-.06.03-.02.05-.05.06-.08.03-.03.04-.06.05-.1 0-.03 0-.06 0-.08 0-.08 0-.15-.04-.2-.03-.05-.08-.1-.13-.13-.05-.02-.1-.05-.18-.06-.06-.03-.13-.03-.2-.03h-.02s-.02 0-.03 0c-.02.02-.04.03-.07.03 0 0-.03 0-.04 0-.03 0-.04 0-.05 0 0 0-.04.02-.05.02-.02 0-.04.02-.07.03-.02.02-.03.03-.05.04-.02.02-.02.03-.02.05 0 0 .03 0 .03 0 0-.03 0-.04.02-.05.02-.02.04-.03.07-.04.02-.02.04-.02.07-.02.03 0 .05 0 .08 0s.05 0 .08 0c0 0 .03 0 .05 0 0 0 .03 0 .05 0 .1.03.18.08.23.12.05.07.07.15.07.25 0 .06 0 .1-.02.15 0 .03-.03.07-.06.1s-.06.05-.1.06c-.05.02-.1.03-.15.04h-.03s0 0-.02 0c0 0-.02 0-.02 0 0-.02 0-.03 0-.04s0-.03 0-.04c0-.02 0-.03 0-.05 0 0 0-.03 0-.03v-.03c0-.05 0-.08 0-.1s0-.08 0-.12c0-.02 0-.04.02-.05 0-.02.02-.03.03-.05h-.08s-.02 0-.04 0-.03 0-.05 0c0 0-.03 0-.05 0 0 0-.03 0-.03 0 0 .02 0 .03.02.05 0 0 .02.02.02.04 0 0 0 .02 0 .02s0 .02 0 .02v.8s0 .03 0 .04c0 0 0 .02 0 .04 0 0 0 .02 0 .02 0 .03 0 .03 0 .03-.02 0-.02.02-.02.02 0 .02-.02.03-.03.03 0 0 0 0 0 .02.06 0 .1 0 .14 0 .04 0 .08 0 .12 0 0 0 0 0 .02 0 .05 0 .1 0 .15 0s.1 0 .16 0c.04 0 .1 0 .13-.03zm-.36-.04h-.06c-.02 0-.03 0-.04 0 0-.02-.02-.03-.02-.03s0-.02 0-.02v-.46s.02 0 .03 0c0 0 .02 0 .03 0 .05-.02.08-.02.12-.04.03 0 .07 0 .1 0 .04 0 .08 0 .1 0 .04.03.07.06.1.08.03.03.05.05.06.1 0 .03.02.07.02.1 0 .06 0 .1-.03.16-.03.03-.06.06-.1.08-.03.02-.08.04-.13.04s-.1 0-.17 0zM55.4 88.93s0 0-.02-.02l.02.03zM37.28 91.88c.02.25.03.45.02.6 0 0 .02.04.05.1.05 0 .1 0 .18-.03.07-.14.1-.3.1-.48 0-.05-.03-.3-.08-.72.05-.36.06-.68.04-.94h-.02c0-.04-.02-.08-.03-.12 0-.04-.03-.06-.07-.08-.06 0-.12 0-.18.1-.04.06-.05.15-.05.23 0 .04 0 .1 0 .2.02.08.02.15.02.2 0 .1-.02.23-.02.36 0 .1 0 .3.03.58zM36.5 89.55c-.06.16-.1.3-.12.45.17-.04.36-.1.6-.18.4-.14.64-.23.78-.26.03 0 .07-.03.12-.06.05-.04.1-.05.13-.05s.06 0 .07 0c0 .02 0 .04 0 .05 0 .03 0 .07-.04.13-.02.05-.04.1-.04.12 0 .1 0 .22.03.37.03.2.05.3.05.36-.02.2-.02.5 0 .83 0 .5 0 .77 0 .84 0 .07 0 .14 0 .23 0 .1 0 .16.04.22.1.12.24.17.37.16.2-.08.4-.2.55-.4.15-.2.25-.4.3-.66 0-.1.03-.22.03-.36 0-.04 0-.2-.02-.46 0-.2 0-.36 0-.48-.14-.72-.42-1.15-.86-1.33-.47-.05-.82-.04-1.07.02-.2.1-.42.22-.63.34-.1.05-.2.08-.3.1zM36.83 89.1zM63.65 85.94l.08-.16V85c0-.4 0-.77 0-1.16 0-.3 0-.63 0-.95.05.24.15.5.28.72.3.5.7.96 1.18 1.34h-.02c.47.35.98.62 1.53.8.54.2 1.1.35 1.64.48h.14c.05 0 .1 0 .2 0 .07 0 .1-.04.1-.1v-3.8c0-.13 0-.27.02-.43 0-.14.03-.26.08-.36.03-.06.05-.1.07-.1.02-.03.03-.04.05-.05.06-.06.12-.1.17-.16.05-.04.07-.07.07-.1 0-.05-.03-.1-.08-.1-.07-.03-.13-.03-.2-.03h-.04c-.14 0-.26 0-.34 0-.1.02-.22.02-.35.02-.13 0-.28 0-.47 0-.2.02-.44.02-.76.03l-.1.1.1.1c.06.04.1.1.16.18.04.07.08.16.1.3 0 0 0 .05 0 .1 0 .04 0 .1 0 .14 0 .05 0 .08 0 .13.02.04.02.06.02.07v3.2c-.06-.03-.13-.06-.2-.1-.07-.04-.12-.07-.17-.1-.02-.02-.05-.04-.07-.04-.03 0-.05-.02-.07-.03-.3-.18-.57-.4-.78-.7-.2-.27-.38-.58-.5-.9-.13-.35-.23-.7-.28-1.08s-.07-.74-.07-1.12c0-.3.02-.6.08-.9.07-.32.15-.6.28-.86.13-.26.3-.47.5-.64.23-.17.5-.25.8-.25.3 0 .56.1.76.3.2.22.32.5.36.86h.24c.22-.2.4-.37.52-.5.12-.12.25-.24.34-.36.1-.1.16-.18.16-.2 0-.02 0-.05-.05-.06-.02-.04-.1-.05-.18-.05h-.3c-.26-.17-.56-.28-.85-.38-.3-.1-.6-.14-.96-.14-.52 0-1 .13-1.4.36-.4.23-.75.52-1 .9-.27.36-.47.76-.6 1.22-.04.13-.08.26-.1.4 0-.23 0-.45 0-.67v-1.13c0-.05 0-.14 0-.3 0-.13.02-.28.03-.43 0-.16.02-.3.03-.44 0-.14.02-.23.02-.3v.02c.03-.2.08-.4.15-.58.06-.18.14-.35.22-.5 0-.04-.04-.08-.1-.08-.06 0-.13-.02-.2-.02-.04 0-.07 0-.1 0-.03.02-.07.03-.1.06-.05 0-.08.03-.1.05 0 0-.02.02-.02.02-.04.02-.12.05-.24.1s-.23.1-.35.14c-.12.07-.25.13-.38.2-.14.05-.23.08-.27.1-.02.02-.03.03-.04.05 0 .04.02.08.07.13.06.05.12.1.17.16 0 0 .02.03.03.03 0 0 .03.04.06.08-.02 0-.02 0-.02 0v.02s0 0 0-.02c.1.16.15.36.17.56.03.38.05.76.06 1.17.02.4.02.78.02 1.15v.25c0 .07 0 .2 0 .35 0 .15 0 .32 0 .5-.02.08-.02.16-.02.23s0 .13 0 .2l-.02-.04-2.35-2.3c-.1-.1-.16-.2-.23-.3-.07-.12-.1-.26-.1-.4 0-.08 0-.14.02-.2s.04-.12.07-.17c0-.03 0-.05.02-.08 0-.03 0-.1 0-.18H58.4c-.1 0-.17 0-.2.03-.04.02-.05.04-.05.06-.04-.02-.1-.04-.2-.04h-1.67c0-.02.02-.04.02-.05v-.15h-1.07c0 .14 0 .28 0 .4-.02.15-.03.28-.06.4 0 .06 0 .1 0 .1s0 0 0 .02c-.05.08-.06.14-.06.2h.02l-1.04 3.85-1.14-3.15c-.02-.05-.1-.07-.26-.07-.1 0-.18 0-.2 0 0 0-.02.02-.02.06 0 0-.02.03-.04.03s-.02 0-.04.02l-.32 1.42-.05.1-.4 1.6-.47-1.52-.1-.15h.02l-.8-2.6h.02c0-.08 0-.12.02-.16 0-.03.02-.07.04-.1.04-.06.07-.1.1-.15.02-.05.03-.1.03-.12 0-.02 0-.04-.03-.08-.02-.03-.1-.04-.22-.04h-1.58c-.02 0-.04 0-.1 0-.03 0-.07.03-.1.03-.06 0-.1.02-.14.04-.04.03-.05.05-.05.08 0 .04.03.1.1.17s.14.14.2.2c.03.03.06.06.08.1.04.03.07.07.1.12.03.06.04.1.06.15 0 .02.02.05.04.1 0 .02.03.05.03.07 0 0 .02.07.05.15.02.08.05.16.07.26.02.1.05.18.07.26.03.06.05.1.05.12l.07.08-.05-.02s0 .02.02.04l1.86 5.7c.02.04.06.08.12.1.06 0 .13 0 .22 0 .13 0 .22 0 .25-.03s.05-.07.06-.13c0 0 0-.02 0-.02s0-.02 0-.03v.02l.83-3.1c.05.08.07.16.1.23.02.1.03.15.05.18 0 0 0 .02.04.04.02.04.04.06.05.07l-.05-.03.87 2.58c0 .05.03.1.08.1s.13.04.25.04c.1 0 .2-.03.24-.06.07-.05.1-.1.12-.15L56 79.15c0-.02 0-.04.02-.08.02-.03.04-.08.05-.13 0-.04.03-.08.05-.14l-.02.03c0-.02.02-.04.03-.06.02.02.03.05.06.07.03.04.05.1.07.14.03.06.04.13.05.2 0 .05 0 .1 0 .2s.02.2.02.3 0 .18 0 .26c0 .1 0 .14 0 .17v5.37c0 .03 0 .1 0 .16 0 .08 0 .16 0 .24 0 .1-.02.17-.02.25 0 .06 0 .1 0 .14 0 .02 0 .06-.02.12 0 .06-.02.1-.03.13-.03.06-.04.1-.05.1 0 .02-.03.04-.04.05-.06.04-.1.08-.14.1-.04.05-.05.07-.05.08s0 .04 0 .06c.03.02.08.04.18.08l1.66.37h.05c.1 0 .17 0 .2-.04.02 0 .02-.04.02-.07v-.03c0-.02-.05-.1-.15-.22-.02-.04-.06-.1-.1-.16-.03-.06-.05-.15-.05-.28v-7.18c0-.17.04-.3.1-.44.07-.13.16-.25.28-.35v-.02s0-.03-.03-.06c.15.13.24.26.3.37.08.13.12.3.13.5 0 .14 0 .36 0 .66 0 .3.02.63.03.96 0 .15 0 .33 0 .5s0 .32 0 .47c0 .14 0 .27.02.37 0 .1 0 .2 0 .25V84c0 .17 0 .34-.02.52-.02.17-.05.34-.08.5-.05.17-.1.32-.2.47-.06.13-.17.26-.3.37 0 .04.04.07.12.1.1.04.15.05.2.05h1.3c.07 0 .17 0 .27-.02.12 0 .17-.07.17-.15-.06-.1-.14-.18-.2-.25-.05-.08-.1-.15-.14-.22-.07-.1-.1-.17-.1-.25l-.1-1.15v-3.25l2.43 2.6h-.04l.6 1.03h-.02l.23.7h-.02v.04c0 .04.02.07.02.13s.02.14.03.2c.02.1.03.14.04.2 0 .03 0 .07.02.1.05.1.1.17.1.2.03 0 .1 0 .2 0h.5zM65.16 84.96zM68.2 95.3c-.15 0-.25.05-.3.14 0 0-.02.06-.06.14-.03.08-.05.13-.06.15-.07.1-.17.2-.3.27-.1.06-.24.1-.38.15-.14.04-.28.07-.42.08-.14.02-.27.02-.4.02h-.16c-.05 0-.1 0-.2 0-.04 0-.1 0-.18 0-.16 0-.3 0-.45-.03-.15-.02-.23-.08-.28-.17v.02-1.28c0-.2 0-.4 0-.66.02-.27.03-.52.03-.8 0-.25 0-.5.02-.74 0-.24 0-.42 0-.57v-.22l-.03.02.08-.13s0 .02.05.03c.03 0 .06 0 .08 0 0 0 .02 0 .07 0s.1 0 .15 0c.06 0 .12 0 .18 0s.1 0 .14 0h.52c.18 0 .34.02.48.07.15.05.3.18.43.4h.2c.14 0 .22 0 .24-.03.02 0 .03-.06.03-.16v-1.2c-.2 0-.36 0-.44.03-.1.04-.15.07-.2.12-.03.03-.06.06-.08.1-.04.02-.05.04-.05.04-.12.03-.23.06-.38.07-.15.02-.28.02-.4.02-.07 0-.13 0-.2 0-.05-.02-.1-.02-.17-.02-.05 0-.1 0-.15 0-.05 0-.1 0-.13 0-.06 0-.12 0-.2 0-.1-.02-.17-.02-.23-.02L65 91.1l.07.04v-1.82c0-.02 0-.04 0-.06h.2c.07 0 .2.02.37.02.2.02.38.03.58.04.2.02.38.03.55.04.18 0 .3.02.37.02h-.02c.16.03.3.08.46.14.14.07.3.14.46.22.02.02.04.04.05.05 0 0 .02.02.03.04h-.04c.02.02.05.05.1.06.04.02.12.02.2.02.1 0 .17 0 .23-.03.06-.02.1-.05.1-.1l-.6-1.17c-.1-.03-.15-.06-.17-.06-.02 0-.05 0-.1 0-.07 0-.13 0-.17 0-.04 0-.07 0-.1.03 0 0 0 .02-.02.04 0 0-.02.03-.04.03 0 0-.03.02-.06.02s-.05 0-.06.03h-1.28c-.23 0-.47 0-.7 0-.23 0-.46-.02-.7-.02-.24 0-.52 0-.8-.02-.32 0-.6 0-.82 0v.17c.1.1.16.18.2.27.06.08.1.18.12.28.03.08.05.2.06.3 0 .1.02.22.02.35v2.65c0 .1 0 .28 0 .55 0 .26 0 .55 0 .85-.03.3-.03.58-.03.85 0 .26 0 .44 0 .55 0 .03-.02.08-.02.15 0 .06 0 .13-.03.2 0 .06 0 .14-.02.2 0 .07-.02.12-.03.15 0 .04 0 .07-.02.1 0 .02-.02.03-.02.04l.04-.03c0 .03-.04.07-.06.1-.03.05-.05.07-.07.12l-.12.25v.02c0 .08.1.13.32.13h.1c.06-.04.1-.06.12-.06 0 0 .03 0 .05-.03 0 0 0 0-.02 0 0 0-.02.02-.03.02 0 0 .02 0 .03 0 0-.02.03-.02.04-.03.1-.04.2-.08.32-.1.12-.05.2-.08.24-.1h.18l2.65.42h.15c.1 0 .25 0 .46-.04.2-.03.43-.08.64-.16.22-.07.42-.15.58-.26.17-.1.25-.24.25-.4v.03-.04l-.9-.85h-.15zM57.52 88.74h-.6c-.03 0-.12 0-.24 0s-.25 0-.4 0c-.13.02-.28.02-.44.03-.16 0-.26 0-.3 0-.08.04-.13.07-.17.1l.03.06s.03.03.05.04c0 .02.02.05.05.08 0 .02.04.06.1.1h-.03c.07.12.12.23.14.3.03.08.04.2.04.36v5.8c0 .2-.02.42-.07.63-.03.2-.15.37-.34.5v.02c0 .02 0 .04.03.07.02.04.1.06.23.06h1.77c.13 0 .2 0 .23-.06.02-.03.03-.06.03-.1 0-.03-.02-.05-.06-.1-.03-.05-.07-.1-.1-.15-.03-.04-.06-.07-.08-.12-.05-.05-.06-.13-.06-.22V89.6c0-.12.03-.24.1-.34.06-.1.12-.2.18-.27h-.02l.1-.1v-.02h.02s0-.04 0-.07c-.03 0-.1-.03-.2-.06zM0 0v100h25.52s-.02-.03 0-.06c.02.04.08 0 .07 0 0 0 .03.03.04.03.06-.02.03-.1.1-.07-.06-.06-.04-.06-.06-.15.1 0 .1.02.2 0 0-.02 0 0 0-.04-.04 0-.05 0-.04.05-.04 0 0-.06-.02-.08.02 0 .03.05.03 0 .07.06.12 0 .2 0 0-.03 0-.05 0-.06.02 0 .03 0 .03-.02.04 0 .1-.02.12 0 .05 0 .05-.07.1-.1 0-.03-.1 0-.08-.03.02.02.06 0 .07 0 0 0 0 .02 0 .04.02-.1.24 0 .3-.1.03.05.06.07.06.12.06-.02.05-.1.13-.1-.1-.03-.05-.06-.1-.14.1.03.1.03.2.05.05-.04-.07-.12.04-.1 0-.03-.03-.04-.05-.05 0-.03.08 0 .1 0-.05-.05.1-.06.15-.1.06.05.15.06.25 0 0-.04-.06 0-.1-.04.14-.02.4.1.54-.05.08 0 .08 0 .13.03.17-.05.2-.15.28-.3h7.52c0 .02 0 .03.02.03.1 0 .2.02.2.1 0-.03.04.02.04-.03.08.2.18.23.4.28 0 0 .02-.02.04-.04.05.04.1.04.15 0 0 .02.02.02.04.02-.04.02 0 .04.02.06 0 0 .04 0 .04-.02.07.02.04.05.12.1.05 0 .06-.03.06-.06.1 0 .13.02.17.05 0 0 .02 0 .02-.02.07.04.15.16.25.1.02.02 0 .05 0 .06.1-.04.17-.05.16-.14.05 0 .12.03.1-.04.06 0 .07.05.08.1.06-.06.07 0 .14 0 .1.22.4 0 .64.1.03 0 0-.02-.02-.02.08-.04.06.08.14.06.12.05.17.17.22.2.02 0 0-.08.08-.08.02-.03-.1 0-.03-.03-.02-.06.04 0 .1 0 .08-.03.13-.08.15-.15.04 0 .07 0 .04.05.04-.05.16-.1.16-.15 0-.04.06 0 .05 0 .02 0 .02-.03.03-.06.06 0 .2-.02.16-.07.04 0 .1.04.05.06.03 0 .07-.05.03-.05 0-.03.05 0 .03.03.04-.02.06-.03.1-.03.02.03.04.05.06.08.1-.03.17.07.2-.02.05 0 .07.05.12.06.02 0 0-.02 0-.04.06 0 .03.03.04.05.04 0 .04-.02.05-.05.04.02 0 .05.04.08.04 0 0-.05.07-.04 0 .03-.04.04-.03.08.08 0 .05-.06.08-.1.07.02.02.04.05.07.1 0 .13-.04.14-.1-.04-.1-.1 0-.1 0s-.06-.08-.06 0c-.05-.03.03-.05.03-.08 0 .05.15.02.14-.04.05.02.04.1.1.1 0 .07 0 .1.06.12.05-.02-.03-.05.02-.07.02 0 .03.03.04.04 0-.05.06-.02.06-.08 0 0 .07.07.07 0 .02 0 .04.02.04.04.06 0 .1-.06.16-.02.03 0 .1-.03.05-.04.04-.04.15.05.16-.03.03.03.06.05.1.06.04 0 0-.1-.05-.1.02 0 0-.05.03-.06.07 0 .15-.1.25-.02-.02-.06.06-.03.04-.1.07.02.06 0 .05-.05 0 .04.13.04.06.1.08-.03 0-.07.05-.1h.07c-.1.03 0 .05.04.07.03 0-.05-.03-.03-.07.04 0 .03.02.05.02 0-.03 0-.04-.04-.06.03 0 .05-.02.05-.06.1.07.15-.1.23-.05-.04.02-.1.06-.1.1.04.04.07 0 .1.03.04-.05 0-.05.07-.1 0-.02-.02-.03-.03-.05h.05c0 .02 0 .04.02.04 0 0 .02-.02.03-.02h.04s-.02.02-.03.02c.05.04.05-.03.1 0v-.02h29.85s0 0 .02.02c.05-.08.12.14.25.05.1.18.15.3.26.53.1-.04.1.04.2 0 0 .03 0 .04-.03.04 0 .02.04 0 .04.02.06-.03.06-.03.15 0-.05-.07-.03-.04 0-.07.07 0 .25.06.3.15 0 0 .04 0 .06 0-.05-.04-.02-.05-.04-.1.26.07.44.3.53.5.02 0 .02 0 .02-.03.1-.02.16.05.15.1 0-.02.04 0 .06 0l.02.05H100V0H0zm52.32 71.7h5.4v.7l-.1.1-.16.16v1.05c-.85.17-1.66.4-2.43.7-.78-.3-1.6-.54-2.44-.7v-1.04l-.2-.18h.02l-.1-.1v-.68zm-9.87 0h5.42v.7l-.1.1-.18.16v1.05c-.85.17-1.67.4-2.45.7-.77-.3-1.6-.54-2.43-.7v-1.04l-.18-.18-.1-.1v-.68zm-6.72 0H38v.7l-.1.08-.17.18v1.05c-2.68.5-5.05 1.83-6.57 3.67h-3.93l8.5-5.67zM32 77.34c-.03.02-.06.05-.08.07.02 0 .03-.03.05-.04 0 0 0 0 .03-.02zM28.47 89.8c-.13.02-.25.03-.36.03 0 0 0 .02-.03.03-.04 0-.24 0-.24 0v-.04c-.15 0-.26-.02-.36-.03 0 0-.02.02-.04.02-.04 0-.23-.05-.23-.05l-.06-.13c-.03-.05-.05-.13-.08-.23v.2H26.96v-.1h-.04v-.1c-.03 0-.05 0-.06 0-.04.05-.05.14-.05.17h-.1c0-.02.02-.14.1-.2 0-.04.05-.07.1-.1l-.02-.08.03-.08s-.04 0-.06.02c-.06 0-.1.06-.1.06-.03 0-.06-.08-.04-.12.02-.03.02 0 .03 0 .03 0 .03 0 .08-.03s.13 0 .13 0H27c0-.05 0-.12-.02-.18-.04-.4-.02-.68 0-.83.03-.08.03-.12.03-.12l.02-.02s.17-.1.22-.1c.02 0 .03.02.04.02.08-.03.2-.06.33-.1l.02-.03s.2-.06.23-.06c.02 0 .03 0 .04 0 .1 0 .23-.02.36-.04.13 0 .25-.02.36-.02 0 0 .02-.02.03-.02.05-.02.25 0 .25 0l.02.02c.12 0 .24.02.34.04 0 0 .02-.03.04-.03.04 0 .24.04.24.04v.03s.03.03.06.1c.05.14.12.4.16.8v.03c.04.4 0 .65 0 .78l-.05.14s-.16.1-.2.1c-.03 0-.05 0-.05-.02-.1.04-.2.07-.33.1v.03s-.2.05-.24.05c-.03 0-.04 0-.05-.02-.1.02-.23.04-.36.05zm8.64 9.34c.04 0 .04 0 .04 0s-.02 0-.03 0zm3.36-8.62c0 .1-.02.22-.02.38v.15c0 .38-.04.66-.1.85-.1.23-.28.5-.5.78-.03.03-.06.06-.1.1.15 0 .28.05.35.12 0 .18-.06.28-.18.32-.08 0-.2.04-.3.12-.12.12-.17.34-.17.67.03 1.3.03 2.07.02 2.35.04.3.14.46.3.5.05 0 .16.03.32.07.02 0 .04.07.04.17.02.08 0 .13 0 .14-.1.02-.2.03-.32.03-.1 0-.24 0-.44-.03-.2-.02-.33-.03-.43-.03-.13 0-.24.03-.36.06s-.24.04-.37.04-.3.08-.42.08c-.16-.02-.43-.04-.8-.06-.05 0-.15.02-.3.05-.15.04-.25.06-.32.06-.15 0-.25-.05-.33-.17 0-.06 0-.12 0-.18 0-.18-.04-.4-.14-.68-.1-.3-.16-.53-.18-.67-.03-.08-.1-.15-.2-.2-.3-.04-.48.04-.6.2-.02.06-.04.1-.04.18 0 .05 0 .12.03.22s.04.17.03.22c0 .08 0 .18 0 .28 0 .1 0 .18.02.26.1.05.2.1.32.15.13.08.2.17.2.3 0 .02 0 .05-.04.06-.03 0-.06 0-.08.02-.06 0-.13 0-.2 0-.17 0-.42 0-.76-.05s-.6-.07-.74-.07c-.24 0-.45.03-.64.1-.02 0-.08 0-.16 0-.08.03-.15.03-.2.03-.12 0-.2-.04-.26-.13.04-.12.15-.2.38-.26.2-.06.33-.16.35-.3 0-.3.02-.75.06-1.35 0-.37-.17-.65-.52-.82-.04 0-.05-.05-.05-.1 0-.04 0-.07 0-.1.03-.02.05-.04.1-.06.1 0 .2.02.3.02.56 0 1.03-.16 1.43-.46.1-.03.2-.07.3-.1.12-.04.23-.05.3-.03 0 .05-.04.18-.1.4-.04.16-.06.3-.06.4 0 .14.05.27.15.4.1.1.3.17.6.14.16-.05.33-.13.48-.27.14-.12.24-.28.28-.45.03-.08.04-.15.04-.22 0-.25-.1-.46-.28-.63-.1-.08-.2-.13-.25-.16-.1-.05-.2-.08-.28-.1-.14-.02-.27-.04-.42-.04-.26 0-.54.06-.87.2-.27.1-.54.23-.8.34-.08 0-.17 0-.3.02-.16 0-.27.02-.33.02-.23 0-.4-.08-.47-.24-.03-.1-.04-.2-.04-.26 0-.2.07-.33.22-.4.17-.05.34-.07.52-.07.04.1.06.18.07.2.04.06.1.1.15.13.07.02.14.03.2.03.12 0 .28-.04.48-.1-.23-.07-.45-.16-.66-.3-.28-.2-.5-.48-.67-.8-.17-.34-.26-.67-.26-1 0-.37.08-.73.25-1.1.13-.38.34-.7.6-.93.12-.07.34-.17.65-.28.3-.04.53-.06.7-.06.18 0 .34.02.5.04.16.1.4.17.68.2.2.02.2.02.33.02 0 0 .02 0 .03 0 0 0 .08 0 .14 0 .1 0 .42-.08.96-.2.4-.08.7-.12.98-.1.6.02 1.05.22 1.4.58.37.33.63.77.78 1.33v.02zm10.7 7.6c-.02-.02-.03-.05-.05-.07 0-.02-.04-.05-.1-.1-.04-.05-.1-.1-.14-.18-.02-.02-.04-.04-.07-.07-.03-.03-.06-.08-.1-.16v.02c-.1-.15-.17-.3-.25-.47-.07-.17-.14-.32-.2-.48-.08-.12-.15-.26-.2-.4-.07-.12-.14-.25-.2-.4L47.4 88.5c0-.03-.03-.1-.05-.23-.02-.1-.02-.2-.02-.24v-.05c0-.1 0-.15.02-.2.02-.03.04-.08.05-.13.04-.06.07-.13.1-.2.03-.06.04-.14.04-.23-.02 0-.06 0-.13 0-.03 0-.1 0-.18 0-.07 0-.15.02-.23.02-.08 0-.14 0-.2 0h-.46c-.02 0-.06 0-.1 0-.03 0-.07 0-.1 0-.12 0-.23 0-.36.02-.1 0-.23.02-.33.03-.1 0-.2 0-.28.02-.08.02-.12.04-.14.05l-.04.05c.04.08.08.16.1.25.04.08.06.18.06.28V88c0 .02 0 .04 0 .04s-.02.02-.02.04c0 .05-.02.13-.04.22l-1.6 4.94.03-.02c-.07.12-.12.2-.13.26-.03.08-.05.15-.06.23 0-.04 0-.05 0-.03 0 .03-.03.06-.04.1-.03.08-.08.22-.15.4-.07.2-.14.4-.22.6-.1.2-.17.4-.25.6-.07.2-.12.33-.14.4 0 .04-.04.1-.08.16-.04.07-.06.12-.07.12-.04.03-.1.08-.15.15-.06.07-.14.15-.2.22-.08.07-.16.15-.22.2-.07.08-.12.12-.15.15l.12.12h2.23c0-.1-.02-.18-.05-.26-.04-.07-.07-.15-.12-.22-.02-.05-.05-.1-.07-.15-.03-.07-.05-.15-.05-.25 0 0 0-.03 0-.04 0-.02 0-.06 0-.12l.73-2.34c0-.04.02-.07.04-.1h2.65l.67 2.03.14.15s0 .03.03.12c.04.1.07.2.1.33s.1.25.14.4c.05.14.1.25.1.34.05.1.08.2.08.26 0 .05 0 .14 0 .26s0 .2-.04.26c-.02.05-.04.08-.06.1l.03-.02-.12.12v.07s-.17.13-.34.26h-7.24v-7.8c0-1.98-1.88-3.6-4.2-3.6-2.3 0-4.18 1.62-4.18 3.6v7.8h-3.42L30 96.28v-8.92h-3.26v-.3h.92l2.34-1.3V82.1c0-1.05.26-2.04.72-2.96l-1.37-.8v-.37h2.1c.14-.16.28-.33.42-.48.12-.13.18-.15.33-.2.15-.06.3-.1.47-.14.15-.02.3-.04.46-.05.16 0 .3 0 .43 0 .1 0 .2 0 .3.03.1 0 .2.02.33.05.6.14 1.02.4 1.3.75.25.38.38.9.38 1.58 0 .35-.05.65-.15.9-.1.25-.22.47-.4.65-.16.18-.36.32-.6.44-.24.1-.5.17-.8.22h-.12c-.03 0-.04-.03-.06-.06l.02.02c0-.22-.02-.37-.02-.47 0-.1 0-.18 0-.27 0-.1 0-.16 0-.2v-.22c0-.16 0-.3 0-.46 0-.14 0-.3 0-.46 0-.07 0-.13 0-.2.02-.06.02-.13.02-.2 0-.13.05-.25.1-.35.07-.1.15-.2.24-.26 0-.02-.02-.03-.05-.04 0 0-.06-.04-.14-.06h-.54c-.04 0-.12 0-.25 0-.12 0-.25 0-.4 0-.15.03-.28.03-.42.03-.13 0-.2 0-.26 0v.1c0 .04.02.08.05.13.03.04.07.1.1.15.02 0 .04.03.04.06.03.02.04.07.05.1 0 .02 0 .05 0 .1.03.03.03.07.03.12 0 .04 0 .1 0 .14s0 .08 0 .1v5.06c0 .03 0 .06 0 .13s0 .12 0 .2c0 .07 0 .15-.02.22 0 .07 0 .13 0 .16s0 .05-.02.1c0 .04 0 .07 0 .08-.03.06-.04.1-.06.12-.02.03-.03.05-.04.07-.06.05-.1.1-.13.14 0 .04-.02.08-.02.13l.2.04c.13 0 .25.02.4.02.1 0 .24 0 .37 0 .13.02.26.03.4.03s.26 0 .4 0c.05 0 .1 0 .12 0 .03 0 .06-.02.1-.04.04 0 .08 0 .13 0 .04 0 .1 0 .14 0 .1 0 .24 0 .37 0 .14 0 .27 0 .4 0 .4 0 .82 0 1.23-.06.4-.05.78-.14 1.1-.3.34-.14.62-.36.83-.66.22-.28.32-.66.32-1.16 0-.3-.06-.6-.18-.83-.1-.25-.28-.45-.47-.63-.2-.18-.43-.33-.7-.46-.25-.12-.52-.24-.8-.35h.02c-.02 0-.04 0-.08 0s-.08-.02-.12-.04c.17-.08.33-.2.48-.36.14-.16.28-.33.4-.5.1-.2.2-.4.25-.6.07-.18.1-.35.1-.5 0-.52-.1-.95-.33-1.3-.22-.37-.5-.67-.85-.9-.35-.22-.74-.4-1.18-.5-.45-.1-.9-.16-1.36-.16h-.1c-.05.02-.16.03-.32.05-.17.02-.3.04-.46.07-.07 0-.16.03-.25.03 1.4-1.27 3.3-2.18 5.46-2.56l.34-.2V72.9l.27-.26v-5.3h3.25v5.3l.28.27v1.18l.34.2c.96.15 1.86.43 2.7.8.83-.37 1.73-.64 2.7-.8l.33-.2V72.9l.27-.26v-5.3h3.26v5.3l.27.28v1.16l.34.2c.96.15 1.86.43 2.7.8.83-.37 1.73-.64 2.7-.8l.33-.2V72.9l.28-.26v-5.3h3.24v5.3l.26.28v1.16l.35.2c2.46.43 4.58 1.55 6.02 3.1.18.18.36.4.52.6h2.1v.38l-1.37.77c.47.92.73 1.93.73 2.98v14.17l1.13 1.85H51.15zm-6.36-5.58l.3-.87v-.04.03l.72-2.2 1.03 3.14v-.03h.06c0 .03 0 .03.03.03H44.7c.03 0 .05 0 .08-.02.02-.02.04-.04.04-.05v-.02l-.02.04zM35 81.94c.13-.02.24-.02.35-.02.22 0 .42.06.6.16.2.1.34.25.47.43.13.17.24.37.3.6.1.22.13.44.13.67 0 .42-.07.74-.2.97-.13.22-.3.4-.52.52-.22.12-.47.2-.77.2-.3.03-.6.03-.93.03h-.4c-.04 0-.1-.02-.17-.06s-.1-.1-.1-.2V82.2s.03 0 .1-.02c.1 0 .13 0 .15 0 .14-.02.25-.03.36-.05.1 0 .2-.03.3-.06.1-.04.24-.07.36-.1zm34.02-4.58c-1.52-1.83-3.88-3.16-6.56-3.66v-1.04l-.18-.18-.1-.1v-.68h2.25l8.52 5.66h-3.93zM73.7 99.52c-.02 0-.02-.05-.06-.05-.02.02-.02.05-.04.07.07-.05.06-.02.1-.02zM62.83 95.65c0-.02 0-.03 0-.04 0 0 0-.02 0-.04 0-.06-.04-.1-.1-.12-.05-.02-.13-.02-.2-.02-.05 0-.08 0-.1 0-.02 0-.06.02-.13.04-.25.2-.48.35-.7.45-.24.1-.5.15-.78.15-.2 0-.4 0-.6-.02-.16-.02-.37-.03-.62-.07.03 0 .05-.03.05-.1 0-.5 0-.98.02-1.47.02-.5.03-1 .05-1.5 0-.3.02-.6.03-.9 0-.3.02-.62.02-.93v-.75c0-.22 0-.43.03-.63.02-.2.06-.38.12-.56 0-.05.02-.1.03-.1.04-.05.07-.1.1-.13.04-.03.06-.06.06-.1 0 0 0-.02-.02-.03-.02 0-.07-.04-.17-.1h-.23c-.12 0-.24 0-.34 0-.12 0-.23-.02-.34-.02-.1 0-.22 0-.33-.02-.1 0-.22 0-.32 0 0 0-.02 0-.03 0 0 0-.02 0-.04 0h-.12c-.1.04-.16.06-.18.1-.02 0-.03.03-.03.04v.03s.02.02.05.04c.02.03.03.05.05.05l-.05-.02c.03.05.06.12.1.22.05.1.1.2.1.3v1.45c0 .86 0 1.7-.03 2.56-.02.85-.05 1.7-.1 2.55 0 .04-.04.1-.05.2s-.03.16-.05.2l.05-.03c-.02 0-.03.04-.08.1-.04.03-.06.06-.06.07l.06-.06c0 .02-.05.06-.1.13 0 .06.03.1.08.1.06.03.12.03.2.03h.03c.1 0 .18 0 .25 0 .08-.02.15-.04.22-.05.06-.02.13-.04.2-.05.06 0 .12 0 .17 0h.07c.08 0 .16 0 .26 0 .08 0 .16 0 .24.03l1.45.4c.04 0 .1 0 .14.02.06 0 .1.02.15.03.03 0 .04 0 .06 0s.04 0 .05 0h.05c.02 0 .05 0 .12 0 .07 0 .14-.02.22-.02.07 0 .14 0 .2 0 .07 0 .1 0 .13 0 .1-.02.17-.04.26-.05.08 0 .16-.03.24-.06.08-.04.14-.08.2-.13.04-.07.07-.13.07-.2 0-.16 0-.32-.02-.5-.03-.15-.04-.3-.05-.45zM61.03 97.04v-.02h-.1z"/></g></svg>