<?xml version="1.0" encoding="utf-8"?>
<!-- Generator: Adobe Illustrator 16.0.4, SVG Export Plug-In . SVG Version: 6.00 Build 0)  -->
<!DOCTYPE svg PUBLIC "-//W3C//DTD SVG 1.1//EN" "http://www.w3.org/Graphics/SVG/1.1/DTD/svg11.dtd">
<svg version="1.1" xmlns="http://www.w3.org/2000/svg" xmlns:xlink="http://www.w3.org/1999/xlink" x="0px" y="0px"
	 width="841.89px" height="595.28px" viewBox="0 0 841.89 595.28" enable-background="new 0 0 841.89 595.28" xml:space="preserve">
<g id="Layer_2" display="none">
	<rect display="inline" fill="#BE1E2D" width="841.89" height="595.28"/>
</g>
<g id="Layer_4" display="none">
	<g id="Grime_Vector_Pack_12" display="inline">
		<path fill-rule="evenodd" clip-rule="evenodd" d="M388.462,440.299c0.066-0.368,0.875-0.168,0.94-0.534
			c-0.413,0.102-1.38-0.216-1.41,0.178C388.304,439.944,388.208,440.255,388.462,440.299z M248.417,466.456
			c0.135,0.028,0.271,0.083,0.407,0.154C248.875,466.481,248.802,466.384,248.417,466.456z M809.305,498.668
			c-0.542,1.006-0.77-0.046-1.877,0c-2.682,1.127-4.943-1.69-7.287-2.671c-0.567,1.729-3.901,2.848-6.575,1.425
			c0.157,0.478-0.489,0.343-0.709,0.531c-0.05-0.982-1.398-0.491-1.64-0.531v-0.712c-0.59-0.296-1.085,0.557-1.413-0.357
			c-0.236,0.236-0.221,0.663-0.705,0.714c-2.224-0.442-1.782-2.689-3.288-2.314c0.114-0.739-0.282-1.093-0.941-1.246
			c0.128,0.677-1.013-0.181-1.175,0.535c-0.405-0.11,0.018-0.846-0.471-0.891c0.162,0.479-0.484,0.345-0.705,0.534
			c-1.787-1.114-3.1,0.029-5.639,0.356c-0.981-0.641,0.409-1.593-0.234-1.958c-0.342,0.336-0.347,0.923-0.94,1.067
			c-0.705-0.821-1.876-1.138-2.585-2.313c-4.229,0.829-5.209-3.105-9.4-2.312c0.065-0.643-0.928-0.484-0.937-1.07
			c-1.368-0.114-1.951-0.303-2.353-0.532c-1.846-1.061-2.771-4.728-3.525-3.915c-0.735-1.569-2.145-1.658-3.522-2.848
			c-0.93,1.075-3.019-0.279-4.23-0.892c-0.13,0.262,0.275,0.921-0.236,0.892c-0.605-0.313-1.24-0.603-1.646-1.069
			c-0.297,0.448,0.124,0.559-0.231,0.713c-0.059-0.334-0.388,0.103-0.471-0.178c0.983-0.303-0.461-0.545,0.234-1.067
			c-1.414-0.341-1.648-0.148-3.053-1.068c-0.443,0.854-1.44-0.441-1.882-0.178c0.173-0.64-0.68-1.605-1.882-1.423
			c-0.029,0.331-0.153,0.592-0.471,0.712c-1.207-2.951-3.588-6.049-7.046-7.117c0.247,0.83-0.146,1.048,0.702,1.422
			c-0.407-0.014-0.727,0.039-0.938,0.179c-0.565-1.177-2.96-1.909-3.993-2.136c-0.293,0.392-0.674-0.038,0,0.89
			c-1.121-0.303-1.108-0.26-2.116,0c-0.003-0.234-0.412-0.164-0.471-0.354c0.288-0.021,0.559-0.054,0.471-0.358
			c-1.105,0.411-1.407-0.574-2.587-0.177c-1.391-2.953-2.246-4.766-3.521-7.296c-1.68,1.247-2.546-1.75-3.289-0.715
			c-0.491-0.769-0.221-0.408,0-1.242c-0.462-0.055-0.468,0.238-0.707,0.355c-0.866-0.894-2.487-2.171-3.522-1.425
			c-0.496-1.347-1.276-4.173-2.821-3.559c-0.114-0.56,0.721-0.403,0.471-1.067c-1.051-0.594-0.89-0.562-1.88-1.067
			c0.266,0.479,0.138,0.854-0.471,0.531c-0.312,0.447,0.928,0.56,0.234,0.714c-0.885-0.158-0.894-0.984-1.411-1.425
			c-0.759-0.221-0.176,0.576-0.937,0.358c0.009-0.697,0.135-1.032-0.707-0.714c0.074-0.24,0.333-0.339,0.236-0.712
			c-0.616-0.415-0.892,0.509-1.646,0.534c-0.054-0.337,0.264-0.395,0.234-0.712c-1.233,0.124-2.323-0.769-3.525,0.178
			c-0.029-0.451-0.34-0.689-0.938-0.712c-0.5,1.183,0.292,0.412,0.468,1.424c-0.704,0.387-1.461,0.343-2.116,0.178
			c0.709,0.181,0.419-0.396,0.476-0.713c-1.84,0.093-1.792-0.58-3.291-1.243c-0.804,0.49-0.664,0.721-1.178,1.243
			c0.012-0.658-0.876-0.635-1.173-1.065c-0.381,0.535-0.207,0.089-0.471,0.711c-0.135-0.372-0.583-0.508-0.468-1.068
			c-0.464-0.053-0.466,0.241-0.705,0.357c0.088-0.603-0.409-0.76-0.707-1.067c-0.666-0.241-1.837-0.126-2.586-0.355
			c0.162,0.591-0.484,0.286-0.702,0.177c-0.129,0.259,0.274,0.918-0.234,0.889c-0.347-0.091-0.595-0.261-0.941-0.356
			c-0.288,1.642,0.183,1.816-1.646,1.961c-0.506-0.663-0.054-1.359-0.702-1.604c-0.995,0.232,0.198,0.736-0.238,0.891
			c-0.403-0.072-0.602,0.265-0.703,0c-0.207-0.841,0.64-1.011,0.471-1.425c-0.133,0.517-0.369-0.272-0.707-0.176
			c-0.326,0.11-0.033,0.686-0.47,0.71c-1.024-0.153-1.043-0.038-1.88-0.176c-1.085-2.555-5.771-2.977-6.814-4.271
			c-0.047,0.214-0.261,0.107-0.471,0c-0.126,0.258,0.277,0.919-0.236,0.889c-0.188-0.665-1.321-0.815-0.702-1.603
			c-0.754,0.157-0.486-0.462-0.94-0.531c-0.05,0.198-0.262,0.275-0.469,0.354c0.112-0.606-1.227-1.048-1.647-0.534
			c-0.021-0.278,0.033-0.616-0.471-0.533c-0.097,0.485-0.202,0.319-0.704,0.89c-0.6-0.527,0.392-0.877,0-1.067
			c-0.626,0.29-1.435-0.805-2.585-0.713c-0.263,0.514-0.292,1.2-1.173,1.249c-0.673-0.278,0.488-0.834-0.234-1.07
			c-0.114,0.719-3.14,1.793-1.882,0.89c-0.875-0.304-0.371,0.106-1.173,0.181c0.029-0.719-0.603-0.475-1.175-0.358
			c0.284-0.49-0.709-1.033-1.177-1.068c-0.433-0.032-0.602,0.057-0.66,0.145c0.059,0.242-0.086,0.126,0,0
			c-0.014-0.042-0.022-0.081-0.045-0.145c-0.396-1.057-2.213,1.17-3.055-0.534c-0.687-0.046-0.721,0.404-1.407,0.356
			c0.012-0.333-0.183-0.378-0.471-0.178c0.072-0.241,0.331-0.34,0.232-0.712c-1.047-0.102-2.328-0.013-1.878-0.89
			c-0.652,0.159-0.851,0.661-1.647,0.711c-1.146-0.566-1.866,0.339-2.818,0.891c-0.065-0.312,0.662-0.889,0-1.067
			c-0.531,0.334-0.34,0.832-0.937,1.423c-0.354-0.207-0.277-0.737-0.941-0.712c-0.535,0.785,0.759,1.417-0.236,1.958
			c-0.182-0.755-0.483-0.583,0-1.246c-1.109-0.82-1.904,1.021-2.348,0.178c-0.295,0.433-0.756,0.735-0.94,1.249
			c-1.617-0.774-3.922,0.035-4.701-1.249c-0.778,0.762,0.741,0.774,0.236,1.249c-0.477-0.327-1.276-1.043-0.94-1.427
			c-1.197-0.005-1.832,0.353-2.584-0.178c-1.281,1.304-4.433,0.744-6.347,0c-0.706,0.515-0.274,0.835-0.938,1.246
			c-1.223-0.281-1.56,0.096-2.584,0.178c-0.443-0.313,0.321-0.55-0.471-0.712c-0.18,0.765-0.581,0.26-1.646,0.356
			c-0.14-0.436-0.585-1.562-1.173-1.068c0.338,0.101,0.571,0.277,0.702,0.534c-0.961-0.076-0.126,1.207-0.94,1.245
			c-0.068-0.606-0.309-2.01-1.173-1.424c0.735-0.082,0.749,0.381,0.706,0.891c-1.192,0.127-1.805-0.295-2.115-0.354
			c0.463,0.132-0.21-1.219-0.471-0.537c0.736,0.4-0.174,1.043-0.707,1.068c0.324-0.822-0.342-1.269,0-1.602
			c-0.916-0.006-0.041,0.895-0.466,0.89c-0.815,0.125-0.845-0.622-0.476-0.89c-0.718-0.132-0.447,0.486-1.173,0.355
			c0.113-0.347-0.333-1.134-0.468-0.712c0.067,0.11,0.583,0.688,0,0.712c-0.052-0.215-0.264-0.11-0.469,0
			c0.124-0.628-0.2-0.917-0.709-1.067c0.136,0.787-1.04,1.101,0,1.602c0.029-0.626,0.345-0.049,0.941-0.356
			c-0.142,0.317,0.688,0.739,0,0.891c0.164-0.615-0.824-0.637-1.173-0.354c-0.293,0.574,0.759,0.132,0.468,0.712
			c-1.351-0.003-1.123-0.706-0.702-1.249c-1.177-0.152-0.628-0.923-0.94-1.424c-0.807,0.179-0.707-0.074-1.173,0.356
			c-0.277-0.446-0.671-0.799-0.941-1.245c-0.74,0.269-2.372,0.289-2.823,0.889c-1.01-0.32-1.249-0.937-1.643-1.778
			c-0.115,0.315-0.252-0.076-0.471-0.178c-0.112,0.209-0.252,0.404-0.469,0.535c-0.68-0.785-2.177,0.177-3.055,0
			c0.264,0.034,0.365,0.195,0.467,0.354c-1.716,0.087-3.359,0.91-4.933,1.066c0.437,0.028,0.144,0.603,0.468,0.712
			c-0.561,0.168-0.621,0.716-1.643,0.534c-0.113,0.766,0.632,0.228,0.704,0.534c-0.387,0.003-0.13,0.494-0.471,0.534
			c-0.036-0.208,0.043-0.505-0.233-0.534c-0.597,0.461,0.545,1.205-0.941,1.067c0.126-0.837-0.081-0.896,0.471-1.245
			c-0.469-0.295-0.297,0.016-0.941,0c0.313,1.35-0.351,0.341-0.466,1.426v-0.536c-2.384,1.114-3.474,1.926-6.111,1.781
			c-1.673-1.923-3.035-3.596-6.578-3.739c-1.062,0.461-1.765,0.693-2.584,0.178c-0.557,2.672-4.26,3.045-5.642,0.712
			c-0.396,0.789-1.713,0.366-2.113,1.424c-1.421-0.533-2.434-1.687-3.994-1.602c0.108-0.56-0.295-0.727-0.707-0.89
			c-0.038,0.563,0.624,0.595,0.471,1.246c-0.335,0.042-0.396,0.293-0.704,0.358c0.049-0.513-0.059-0.908-0.471-1.07
			c-0.104,0.768-1.29-0.346-1.644-0.534c-0.274,0.636,0.711,1.222,0.234,1.424c-0.05-0.215-0.262-0.109-0.473,0
			c-0.272-0.467,0.727-0.766-0.234-0.712c-0.997,0.581-1.758,2.184-3.757,1.424c-0.642,0.54-1.295,1.562-2.587,1.067
			c-0.428,0.387-0.693,0.896-1.409,1.069c-0.25-0.455-1.062-0.307-1.646-0.178c-0.238-0.652-0.471-1.305-1.409-1.423
			c-0.036,0.207,0.038,0.504-0.236,0.531c-0.437-1.212-1.423-2.066-2.82-1.423c0.094-0.256,0.283-0.301,0-0.534
			c-0.84,0.015-1.354,0.276-2.112,0.358c-1.458-0.975-3.658-1.384-4.466-2.85c-2.33,0.403-4.198-2.38-6.107-1.782
			c0.484,0.331-0.39,0.25-0.471,0.893c0.277-1.202-0.902,0.438-1.177-0.178c0.036-0.211,0.421-0.402,0-0.533
			c-0.165,0.571-1.5,0.443-1.407-0.182c0.349-0.027,0.864,0.066,0.938-0.174c-1.101,0.277-1.335-0.571-1.88-0.178
			c-0.652,0.264,0.405,0.726-0.233,0.889c-0.005-0.821-0.421,0.295-0.941,0.178c-0.193-0.503,0.331-0.46,0.234-0.889
			c-0.685,0.048-0.809-0.044-0.471-0.359c-0.837-0.038-0.241,1.008-1.175,0.894c-0.009-0.246,0.112-0.393,0.233-0.534
			c-0.83,0.154-0.578,0.02-1.406,0.174c0.279,0.497,0.268,1.083-0.234,1.428c-0.352-1.071-2.775-1.418-2.351-2.493
			c-0.975,0.05-0.916-0.233-1.646,0c-0.404-0.108,0.019-0.843-0.47-0.89c-0.129,0.515-0.365-0.272-0.705-0.178
			c-0.335,0.694-0.763,1.324-1.644,1.6c-1.632-1.616-2.903-2.706-5.171-3.201c0.398,0.587,0.014,0.891-0.47,1.245
			c-0.224-0.329,0.704-0.594,0-0.712c-0.277,0.266-0.295,0.729-0.705,0.89c-1.054,0.167-3.46-0.23-3.055-1.067
			c-1.107,0.211-1.182-0.697-1.646,0c-1.009-1.945-3.408-1.778-5.639-2.135c-0.788,0.635-1.607,0.839-2.587,0.178
			c-0.682,0.573-1.312,0.669-2.348,1.245c-0.093-0.736-0.7-0.102-0.705-0.712c-1.101,0.021,0.255,0.259,0,0.712
			c-0.479,0.312-0.461-0.133-0.94,0.179c0.029-0.445,0.45-0.557-0.234-0.711c-0.687,0.837-1.806,1.615-3.289,1.244
			c-0.038,0.21,0.038,0.506-0.234,0.535c-0.878-0.015-0.761-0.27-1.177,0.177c-0.352-0.328-0.741-0.625-1.176-0.89
			c-0.673,0.621-2.505-0.749-3.522-0.534c-0.093,0.307,0.347,0.457,0,0.534c-0.115-0.317-0.25,0.075-0.471,0.178
			c0.097-0.429-0.43-0.386-0.234-0.89c-0.956,0.438-0.725-0.332-1.411-0.534c-0.945,0.431-1.146,0.891-2.584,1.424
			c0.267,0.376,0.09,0.518,0.471,1.067c-0.873-0.81-2.003-0.485-2.584-0.71c0.093,0.033,0.397-0.263,0.233-0.357
			c-0.349-0.202-1.846-0.318-2.583-1.067c0.051,0.633-0.159,1.065-0.706,1.245c-1.67,0.54-3.739-0.816-5.172-0.355
			c0.428,0.001-0.406,0.494-0.47,0.713c-0.288-0.948-0.516,0.797-1.409,0.532c-0.13-0.435-0.551-0.649-0.938-0.89
			c0.498,0.957-0.693,0.581-1.646,1.068c-1.235-0.653-1.821-1.369-3.055-1.246c-0.376,0.327,0.216,0.603-0.468,0.89
			c-0.318-0.177-0.464-0.481-0.943-0.532c-0.398,0.17-0.473,0.59-0.939,0.71c-0.486-0.578-0.752-1.33-1.879-1.423
			c-2.409,0.317-3.216,1.984-5.169,1.067c-0.054,0.139-0.007,0.354-0.236,0.355c-0.954-0.545-1.944-1.417-3.289-0.89
			c-0.183-0.396-0.135-0.965-0.704-1.067c-1.139,0.754-2.523-0.89-3.996-0.89c-0.204-0.827,0.61,0.245,0.706-0.355
			c-0.562-0.445-0.623-0.169-1.645-0.178c-0.129,0.708,0.831-0.191,0.704,0.709c-2.541-0.094-4.821,0.099-5.64-0.531
			c-0.899-0.104,0.193,0.731-0.703,0.891c-0.332-0.537-3.337-0.467-4.229,0.177c-0.408-0.322-1.428-0.716-1.645-0.177
			c-0.381-1.001-1.995-0.895-2.822-0.713c-0.373,1.142-0.77,0.318-0.233,1.245c-0.547-0.472-0.63,0.473-1.175,0
			c-0.301,0.444,0.117,0.558-0.234,0.712c-0.724-0.591-2.289,0.557-2.584-0.355c-1.807,0.736-3.875,0.159-5.643,0.178
			c-0.034,0.21,0.041,0.505-0.234,0.535c-0.801-0.073-0.387-0.55-0.939,0c-0.053-0.338,0.266-0.395,0.234-0.713
			c-0.845,0.597-1.959-0.327-1.409,0.533c-1.757-0.51-3.514-0.991-4.701-2.312c-0.167,0.466-0.767,0.606-0.938,1.067
			c-0.617-0.585-1.298-0.165-2.352-0.536c-0.328,0.229-0.102,0.875-0.704,0.892c-0.275-0.403,0.124-0.531-0.707-0.712
			c-1.224,0.079-2.937,1-3.521,2.491c-0.398-0.749,0.262-1.345-0.707-1.779c0.255,0.727-0.251,0.879-0.704,1.069
			c0.376-0.078,0.788,0.663,0.233,0.71c-0.51-0.582-0.959-1.047-1.408-1.245c-0.019,0.311,0.052,0.553,0.232,0.713
			c-0.545-0.473-0.627,0.471-1.174,0c0.037,0.439,0.044,0.863-0.469,0.889c0.665-0.923-0.323-0.73-0.705-1.424
			c-0.687,0.975-2.994,1.227-4.701,0.89c0.57,0.62-0.631,0.678,0,1.248c-0.75-0.574-0.518,0.509-0.938,0.708
			c-0.222-0.831-0.353,0.211-0.472,0.182c-0.308-0.004-0.212-0.313-0.469-0.358c0.172,0.781-0.467-0.142-0.47,0.358
			c0.34,0.392,0.573-0.226,0.704,0.178c-0.457,0.572-0.713,0.481-0.704,1.066c-0.818-0.053,0.021-0.482-0.47-0.532
			c-0.162,0.412-0.185,0.751-0.704,1.244c-0.273-0.937-0.67,0.682-1.646,0.355c0.034-0.21,0.419-0.403,0-0.532
			c-0.413,0.87-1.273,1.407-2.35,1.777c0.07-0.21,0.948-0.672,0.235-0.889c-0.25,0.683-0.534,0.235-0.939,0.711
			c-0.21-0.529-0.365-0.649-0.704-0.711c0.065-0.208,1.035-0.739,0-0.712c-0.245,0.217-0.226,0.491-0.47,0.712
			c0.072-0.409-0.679-0.197-0.706-0.534c0.213-0.049,0.789-0.663,0.235-0.714c-0.995,0.603-0.348,0.796-0.235,1.781
			c-0.478-0.053-0.46-0.481-0.939-0.533c-0.297,0.547-0.659,1.043-0.941,1.601c0.355-1.182-1.183-0.136-1.409-1.067
			c-0.115,0.209-0.25,0.403-0.471,0.533c-1.635-1.09-3.653,1.776-4.699,1.78c-0.123,0-0.157-0.502-0.236-0.531
			c-0.268-0.118-0.576,0.207-0.704,0.176c-0.598-0.148-1.258-1.555-1.645-0.534c-0.022-0.485,0.393-0.357,0-0.712
			c-1.48-0.266-2.219,0.419-3.526-0.179c-0.036,0.212,0.043,0.505-0.233,0.534c-0.842,0.047-0.861-0.534-1.645-0.534
			c-0.053,0.141-0.198,0.207-0.469,0.179c-0.258,0.552,0.204,1.104-0.705,1.424c-0.831-0.029-0.543-0.121-1.88,0
			c-0.208,0.587,1.149,0.888,0.469,1.245c0.176-0.548-0.81-0.216-0.469-0.887c-0.995,0.076-0.889,0.985-1.411,1.42
			c-0.462,0.056-0.465-0.238-0.704-0.355c-0.534,0.433,0.295,0.788,0,1.069c-0.213-0.6-0.528-0.021-0.941-0.355
			c-0.07,0.349,0.317,0.353,0.47,0.533c-1.089,0.242-0.488,1.016-1.41,0.356c-0.66,1.427-1.424,0.048-2.35,0.711
			c0.14-0.464-0.094-0.642-0.706-0.534c-0.354,0.266-0.357,0.799-1.175,0.712c-0.332-0.395-2.018-1.089-1.879-0.534
			c0.331-0.576,0.843,0.806,0,0.712c0.07-0.291-0.317-0.479-0.471-0.178c0.325,0.222,0.136,0.517-0.234,0.891
			c0.679-0.223,1.071-0.092,1.175,0.534c-1.078-1.015-2.209,1.288-2.585,0.177c-0.115,0.212-0.25,0.402-0.47,0.532
			c-0.479-0.169-0.93-0.362-1.411-0.532c-0.08,0.628-0.614,0.461-1.173,0.354c-0.445,0.317-0.404,1.001-1.174,1.068
			c-0.708-0.116-0.37-1.024-1.175-1.068c-0.262,0.767-0.111,0.229,0.234,0.534c-0.234,0-0.278,0.146-0.47,0.18
			c-0.543-0.053-2.957,0.203-3.523-0.89c-0.033,0.331-0.156,0.595-0.471,0.71c-0.379-0.734-0.844-0.283-1.175-0.176
			c-0.079,1.292-1.107,1.378-2.348,2.134c0.039-0.492-0.362-0.611-0.706-0.354c-0.056,0.357-0.389,1.342,0.471,1.601
			c-1.774-0.212-2.509,0.607-3.761,0.355c0.414,0.865-0.337,0.481-0.235,1.423c-0.273,0.149-0.629,0.236-1.175,0.179
			c-0.192,0.684-0.1,1.583-1.174,1.602c-0.24-0.548-2.202-0.396-2.82-0.712c0.002-0.235,0.411-0.163,0.47-0.356
			c-0.183-0.039-0.464-0.005-0.47-0.179c-0.965-0.018,0.179,0.928-0.94,0.357c-0.322,0.405,0.606,0.668,0,0.711
			c-1.082-0.381-0.612,0.761-1.645,0.179c0.339-0.277,0.945-0.351,0.704-1.068c-0.263-0.038-0.365-0.196-0.469-0.355
			c-0.687-0.044-0.812,0.336-1.176,0.534c0.063-0.886-2.045,0.687-2.819,0.89c0.703,0.116-0.226,0.38,0,0.714
			c0.535-0.053,0.883,0.039,0.94,0.354c-0.458,0.247-0.723,0.64-1.411,0.714c-0.092-0.257-0.281-0.301,0-0.536
			c-0.84-0.111-1.289,0.976-1.646,0.178c0.408-0.044,0.533-0.487,0.94-0.533c-1.836-0.594-0.809,1.304-1.409,1.603
			c-0.195-1.256-1.707-0.426-2.115-1.425c-0.585,0.312-0.342,0.296,0,0.714c-1.198,0.236-1.245,0.241-2.82,0.711
			c-0.053,0.337,0.265,0.394,0.234,0.711c-0.438,0.143-0.948,0.229-1.175,0.531c-0.452-0.069-0.185-0.688-0.94-0.531
			c-0.037,0.442,0.37,0.551,0.469,0.89c-1.152,0.59-0.372,0.705-0.939,1.425c-0.418-0.557-0.92,0.058-1.41-0.355
			c0.116-0.63,0.854-1.246,1.41-1.605c-1.159-0.473-1.945,1.696-3.054,0.714c-0.085,0.641-0.374,0.848-0.704,0.892
			c0.294,0.071,0.479,0.229,0.469,0.532c-0.37-0.016-0.184-0.454-0.706-0.355c-0.297,0.542,0.805,0.907,0.237,1.067
			c-0.636-0.266-1.872-0.521-0.472-1.067h-0.938c-0.441,0.567,0.508,1.085-0.471,1.245c0.72-0.634-0.907-0.63-0.939-1.245
			c0.159,0.741,0.289,0.968-0.706,0.712c0.344,0.994-0.771,0.544-0.469,1.423c-1.29-0.908-2.316,0.233-3.29,0.179
			c-0.325,0.226-0.144,0.84-0.471,1.067c0.776-0.003,1.198,1.373,0.471,1.424c-0.448-0.253-0.839-0.55-1.175-0.892
			c-0.137,1.134-1.528-0.216-2.114,0.356c0.592,0.179-0.188,0.787-0.705,0.713c-0.531-0.791-1.169,0.07-2.114,0.179
			c0.012-0.307-0.183-0.456-0.47-0.535c-0.053,0.858-0.745-0.051-0.939-0.178c-0.018,0.744-0.583,0.363-0.942,1.069
			c-0.113-0.211-0.249-0.404-0.469-0.535c-0.652,0.266,0.408,0.728-0.235,0.89c-0.982-0.355-0.807-0.612-0.704-1.603
			c-0.885-0.101-0.753-0.971-1.411-1.245c0.084,0.855-1.891,1.291-1.88,0.534c0.053,0.356-1.049,0.72-0.234,1.067
			c0.017-1.104,0.543,0.194,0.704,0.179c-0.103,0.007,0.845-1.732,1.41-0.356c-0.211,0.848-0.778,1.427-1.88,1.602
			c-0.43-0.456,0.268-0.754-0.705-0.889c-0.347,0.479,0.149,1.059-0.939,1.245c-0.113-0.561,0.335-0.696,0.47-1.067
			c-0.755-0.158-0.322,0.586-0.94,0.533c-0.576-0.403-0.083-0.782-0.471-1.067c-0.098,0.339-0.086,0.767-0.703,0.713
			c-0.055-0.317,0.236-0.893-0.471-0.713c-0.093,0.307,0.348,0.455,0,0.534c-0.635-0.173-0.912-0.615-1.646-0.713
			c-0.35,1.188-1.275-0.095-2.584,0.356c-0.223-0.363-0.479-0.705-0.705-1.069c-0.549,0.059-0.971,0.216-1.41,0.356
			c0.172-0.29-0.467-0.774-0.47-0.356c0.576,0.021,0.049,0.592-0.235,0.535c0.474-0.355-0.174-0.771-0.705-0.89
			c0.388,0.552-1.247,1.021-2.116,0.89c-0.128,0.318-0.119,0.739-0.469,0.891c0.072-0.217-0.678-0.614-0.705-0.178
			c0.046,0.453-1.496,1.235-2.115,1.78c0.476-0.367-0.096-0.356-0.471-0.535c-0.251,0.995-0.959,1.645-2.114,1.957
			c-0.555,0.119-1.491-0.75-1.409,0c-0.875,0.246,0.69,0.025,0.469,0.355c-0.934,0.039-0.764,0.915-0.939,1.068
			c-0.651-0.42-1.266-2.065-2.819-2.67c-0.741,0.228,0.188,0.602-0.94,0.534c-0.437-0.806,0.845-0.309,0.94-0.71
			c-1.117,0.331-0.913-1.16-1.881-0.714c0.257,0.042,0.565,0.294,0.236,0.355c-3.287-1.361-7.225,1.492-8.459-1.601
			c-0.991,0.442-1.188-0.492-1.879,0.179c-0.16-0.533-0.285-1.09-0.938-1.248c0.209,0.883-0.774,0.734-1.412,0.535
			c0.217,1.063-0.892,1.198-1.879,1.779c-0.037-0.21,0.04-0.504-0.236-0.533c-1.305,0.486-2.348-1.089-3.351-1.627
			c-0.057,0.152-0.277,0.342-0.407,0.381c-0.425-0.449-0.895-0.863-2.115-0.713c-0.133,0.436-0.2,0.918-0.94,0.891
			c-0.904-0.768-0.577-1.156-1.41-1.424c-0.062,0.25-0.517,0.203-0.706,0.356c-0.206-0.314-0.744-0.52-0.235-0.89
			c-0.276-0.028-0.667,0.031-0.705-0.178c-0.641,0.373-1.208,0.414-1.88,0c-0.229,0.181-0.465,0.359-0.704,0.533
			c-2.755-0.558-4.071-1.345-5.171-3.737c0.039,0.704-0.36-0.056-0.704,0.357c0.161-0.989-1.254-1.368-2.586-1.249
			c-0.841-0.489-0.471-1.894-1.879-1.953c-0.093,0.305,0.349,0.454,0,0.533c-0.292-0.668-1.136-0.384-1.645-0.533
			c0.217-0.531,0.986-0.742,0.236-1.067c-0.217,0.309,0.007,0.953-0.706,0.887c0.271-0.56-0.369-0.432-0.469-0.711
			c0.145-0.483,0.981-0.443,0.939-1.068c-1.268,0.249-0.775-0.835-1.645-0.89c-0.834-0.276-0.142,0.603-0.704,0.534
			c0.201-0.825-0.371-0.188-0.471-0.534c0.096-0.6,0.911,0.474,0.706-0.355c-0.468-0.587-1.003,0.441-1.175,0
			c-0.003-0.236-0.413-0.162-0.471-0.356c0.512-0.373-0.117-0.508,0-1.067c-1.512,0.166-1.368-1.021-2.583-1.603
			c-0.327,0.109-0.036,0.686-0.471,0.711c-0.002-0.235-0.412-0.159-0.469-0.353c0.647,0.173,0.686-0.995,0.469-0.892
			c-0.409,0.692-1.632-0.391-1.645,0c0.316,0.118,0.438,0.379,0.47,0.713c-0.447-0.335-0.591-0.021-1.174,0
			c-0.049-0.802-1.783-1.051-2.35-0.889c-0.031-0.869-0.857-1.133-0.706-2.139c-1.115-0.214-0.972-0.529-2.113-0.89
			c-0.219,0.539,0.334,1.386,0,1.424c-0.266-0.215-0.671-0.32-0.471-0.889c-4.499-0.673-9.252-2.465-12.688-4.627
			c0.123,0.635-1.458,0.687-1.646,0.355c-1.498,1.639-4.419-1.084-6.579-1.245c-0.467,0.561-1.434-0.053-1.88,0.714v-0.536
			c-0.782,0.409-0.763,0.267-1.645,0c0.085,0.859-0.896,0.418-1.408,0.355c0.063,0.407-0.058,0.67-0.472,0.712
			c-2.357-0.584-2.538-3.571-5.639-3.025c-0.659-1.032-1.457-0.133-3.055-1.066c-0.646,1.121-2.022,0.308-2.819,1.244
			c-0.555-0.053-0.438-0.616-1.175-0.533c-1.418,0.933-2.709,0.669-3.995,0.178c-0.174,0.855-1.441,0.859-2.35,0.89
			c-0.494,1.864-4.581,2.786-6.58,1.246c-0.599,0.226,0.217,0.87-0.233,0.89c-0.836-0.021-0.947-0.589-0.941-1.245
			c-1.046,0.355-1.884-0.265-2.35-1.246c0.174,0.75-0.76,0.562-0.94,0.178c0.005-0.294,0.653-0.098,0.706-0.356
			c-0.745-0.191-1.131,0.053-1.646-0.533c-0.265,0.689-0.993,1.026-1.41,1.602c-0.306-0.36-1.244-0.246-1.409-0.712
			c0.592,0.115-0.201-1.327-0.706-0.89c0.362,0.115-0.48,0.809-0.705,1.067c-0.07-1.368-0.087-0.996-0.939-1.246
			c-0.443,0.315,0.32,0.553-0.47,0.712c-0.633-1.243-2.69-0.669-3.524-0.712c0.333,0.925-1.053,1.062-1.198,0.952
			c-0.059,0.158,0.123,0.534,0.022,0.65c-0.354,0.404-1.247-0.062-1.645,0.534c0.401,0.31-0.037,0.466,0.235,1.067
			c-0.93,0.041-1.008,0.73-0.704,1.247c-1.427-0.063-0.303,1.664,0.704,2.312c-1.036-0.262-0.699,1.247-1.409,1.601
			c-0.129-0.258,0.275-0.917-0.237-0.889c-0.117,0.243-1.483-0.221-0.468,0.356c-0.729,0.018-0.671-0.561-1.645-0.356
			c-0.532,0.142-1.516,0.854-0.94,1.245c-0.172-0.289,0.466-0.774,0.469-0.356c-0.889,0.625-0.933,2.255-1.174,2.85
			c-0.664-0.363-0.293,0.391-1.175,0c0.299,0.866-0.337,0.762-1.41,0.712c0.328,0.601-1.426,0.525-1.878,1.068
			c-0.45,0.536-0.396,1.625,0.233,1.601c-0.867,0.159-1.712-0.15-2.115,0.89c0.802,0.131,0.389-0.656,0.94-0.712
			c0.077,0.415,1.026,0.173,1.175,0.533c-0.494,0.159-0.408,0.76-1.175,0.713c0.435-0.601-0.059-0.021-0.469-0.356
			c-0.137,0.869,0.262,3.19-1.411,2.848c-1.108,1.982-1.452,3.611-3.994,4.271c-0.719-0.37-0.736-0.236-1.644-0.534
			c-1.849,1.958-5.463,0.402-7.051,0.712c0.304,0.642,0.973-0.097,1.177,0.534c-1.294,0.807-2.48,0.571-3.29-0.178
			c-0.847,0.539-2.703,0.764-2.116,1.422c-0.162-0.138-1.311-0.396-1.409,0c0.343,0.158,0.745,0.269,0.705,0.713
			c-1.461-0.333,0.121,0.857-0.471,1.424c-1.546-0.374-1.542-0.3-2.819-0.711c0.63,1.003-0.019,1.464,1.175,1.778
			c-1.043,0.099-0.939,1.067-1.644,1.425c-0.142-0.665-0.552-1.127-0.941-1.601c-0.847,1.297-3.727-0.255-3.759,1.067
			c-0.041-0.266,0.083-0.659-0.235-0.713c-0.231,0.286-0.626,0.409-0.939,0.178c-0.376,0.699,1.014,0.06,0.939,0.535
			c-0.728,0.278-0.601,1.205-1.408,1.422c-0.031-0.393-0.997-0.076-1.412-0.179c0.03,0.319-0.231,0.418-0.704,0.356
			c-0.018,0.312,0.052,0.555,0.234,0.712c-1.07,0.37-1.693,1.012-2.585,0.178c-0.033,0.739-0.153,0.037-0.47,0
			c0.135,0.315-0.283,1.046,0.236,1.067c-0.14-0.462,0.093-0.64,0.704-0.533c0.021,0.485-0.392,0.358,0,0.712
			c-1.29,0.239-1.591-0.035-2.82-0.179c0.265,1.295,0.017,1.291,0.941,2.137c-1.053-0.259-0.651,0.669-1.411,0.89
			c-0.132,0.038-0.449-0.495-0.706-0.533c0.134,0.019-0.756,0.612-0.94,0.178c-0.467,0.453,0.244,0.817-0.235,1.067
			c-0.875,0.188-0.373-0.669-1.176-0.534c-0.134,0.314,0.286,1.045-0.233,1.067c0.093-0.816-2.475-0.994-2.584-0.533
			c0.884,0.103,0.518,0.59,1.038,0.912c0.129,0.036,0.256,0.084,0.372,0.155c-0.165-0.044-0.279-0.097-0.372-0.155
			c-0.958-0.273-2.197,0.201-2.448-0.556c-0.754-0.155-0.323,0.586-0.941,0.533c-0.174-0.644-1.391-1.054-1.644-0.178
			c-0.194-0.503,0.331-0.462,0.234-0.89c-0.823-0.07,0.026,0.758-0.939,0.89c-0.365-0.215-0.917-0.568-1.41-0.179
			c0.034-0.441,0.043-0.863-0.471-0.89c0.067,0.466-0.085,0.766-0.704,0.713c-0.05-0.215-0.26-0.11-0.47,0
			c-0.071-0.837-1.234-0.846-1.41-1.602c0.019,0.813-0.777,1.125,0,1.245c-0.241,1.378-1.238,1.163-2.115,2.135
			c-0.236-0.236-0.388-0.537-0.705-0.713c0.062,0.524,0.325,0.663,0,0.892c-0.405,0.071-0.603-0.265-0.706,0
			c0.3,0.666-1.129,0.354-0.233,1.247c-1.309,0.18-0.471-0.279-0.94-0.536c-0.312,0.561-1.037,0.314-1.41,0.358
			c0.732,1.079-0.981,1.558-2.82,1.242c0.223,2.146-2.627,1.372-4.699,1.604c0.274,0.03,0.255,0.28,0.234,0.533
			c-0.299-0.009-0.325-0.229-0.705-0.178c0.125,0.455,0.312,0.625-0.235,0.892c-0.757-0.265,0.1-0.921-0.704-0.892
			c0.104,0.79-0.131,1.326-1.175,1.246c-0.053,0.336,0.264,0.393,0.235,0.712c-1.136,0.522-1.448-0.361-1.644,0.534
			c-0.477-0.115-0.155-0.833-0.705-0.891c-0.327,0.11-0.037,0.684-0.47,0.713c-0.807-0.198-0.251-0.443-0.941-0.535
			c-0.737,0.228,0.511,0.848-0.468,0.891c-0.566-0.444-0.624-0.169-1.646-0.178c-0.252-0.404-0.535-0.783-0.94-1.068
			c-1.512,0.601-1.351,1.533-3.055,1.779c0.251,1.546,0.866,1.695,0.234,3.025c-1.207-1.374-2.947-0.578-3.994,0.713
			c-0.328-0.538-1.216,0.369-1.646-0.178c0.277,0.471-0.45,1.044,0,1.066c0.514-0.356,0.653,0.058,0.706,0.354
			c0.114-0.21,0.25-0.402,0.471-0.532c0.604,0.51-0.331,0.933-0.706,1.245c-0.642-0.371-1.101-0.135-2.819-0.354
			c-1.231,0.658-2.687,2.514-4.465,2.314c0.626,0.428-0.639,0.925-0.706,1.422c-0.7-0.035-1.414,0.167-1.879,0.712
			c-1.247,0.06-2.587-1.122-3.289-0.355c-0.38-0.248-0.745-0.507-1.176-0.714c0.092,0.774-0.444,0.796-0.47,1.069
			c-0.455-0.189-0.327-0.82-0.705-1.069c-0.735,0.623-2.263-0.117-3.055,0.536c0.052,0.533,0.25,0.896-0.235,1.244
			c-0.007-0.905-1.065-0.622-1.41-0.888c0.148-0.363,1.098-0.118,1.175-0.535c-0.554-0.006-0.691,0.307-1.41,0.179
			c-0.577,0.236,0.423,0.534-0.234,0.711c-1.065,0.132,0.358-0.488-0.705-0.354c-0.098,0.606-0.637,0.223-0.237,0.888
			c-0.834-0.297-1.267-0.017-1.879,0.535c-0.263-0.571,0.05-0.336-0.469-0.535c0.021-0.28,0.599-0.14,0.469-0.533
			c-0.829,0.272-1.049-0.096-1.88,0.179c0.307,0.515,0.191,1.021-0.469,1.245c-1.221-0.534-1.506,0.284-2.585-0.355v-0.89
			c-1.173-0.041-2.11-0.827-2.114,0.354c-0.467-0.12,0.146-1.06-0.705-0.888c-0.005,0.419,0.405,0.523,0.234,1.066
			c-0.949,0.947-2.746-0.076-2.819,0.712c-0.964-0.186-1.825,0.074-2.586-0.534c-0.036,0.209,0.04,0.505-0.234,0.534
			c0.042-0.721-0.795,0.072-0.94-0.355c0.359-0.044,0.034-0.293-0.236-0.356v46.624h799.859v-44.488
			C810.491,500.499,810.788,498.909,809.305,498.668z M36.938,498.312c-0.614,0.049-1.011-0.065-0.94-0.533
			c0.403-0.039,0.609,0.302,0.705,0c0.2-0.033,0.222,0.067,0.236,0.175V498.312z M74.769,483.008
			c0.469-0.536,0.474-1.425,1.88-1.247c-0.029,0.319,0.288,0.377,0.235,0.711C75.74,482.788,75.806,482.513,74.769,483.008z
			 M144.558,447.595c-0.031-0.321,0.288-0.378,0.233-0.712c0.413,0.161,0.817,0.329,0.706,0.89
			C145.077,447.794,145.001,447.554,144.558,447.595z M145.733,445.635c-0.339-0.037-0.083-0.53-0.471-0.532
			c0.044-0.203,0.236-0.098,0.235,0c0.229-0.006,0.182-0.218,0.236-0.354h0.469c0.124,0.141,0.247,0.286,0.235,0.531
			C146.034,445.272,145.829,445.414,145.733,445.635z M146.438,444.035c-0.318,0.029-0.471-0.906-0.705-0.354
			c-0.593-0.336,0.185-0.648,0.705-0.358C145.808,443.78,147.067,443.577,146.438,444.035z M320.084,461.119
			c-0.544-0.474-0.629,0.472-1.173,0c0.214-0.311,0.435-0.618,1.173-0.536V461.119z M333.714,457.56
			c-0.738-0.202-0.622,0.051-1.174-0.178c-0.095-0.428,1.069,0.1,0.704-0.534C333.657,456.891,333.779,457.153,333.714,457.56z
			 M384.234,442.967c0.146-0.158,0.284-0.318,0-0.355c0.056-0.46,0.404,0.245,0.94,0
			C385.283,443.165,384.584,443.247,384.234,442.967z M596.416,443.857c-0.159,0.354-0.778-0.176-0.938,0.178
			c-0.157-0.571-0.196-0.666,0.938-1.068C597.051,442.962,595.783,443.862,596.416,443.857z M609.811,444.394
			c-0.207-0.113-0.424-0.217-0.466,0c-0.471-0.428,0.966-0.382,0.231-1.249c0.491-0.075,0.624,0.122,0.941,0.179
			C610.009,443.709,610.18,443.737,609.811,444.394z M670.436,446.172c-0.272-0.029-0.417,0.038-0.471,0.178
			c-0.43-0.049-0.556-1.221-0.94-0.715c-0.707-0.655,0.673-0.188,0.706-0.71c0.241,0.117,0.241,0.408,0.705,0.355V446.172z
			 M673.725,446.883c0.221,0.188,0.866,0.053,0.707,0.533C673.504,447.234,673.299,448.09,673.725,446.883z M674.665,449.017
			c-0.454-0.576-0.074-0.97,0-1.601c0.171-0.18,0.362,0.977,0.234,1.246c0.2,0.033,0.221-0.07,0.236-0.179
			C676.022,448.787,674.625,448.777,674.665,449.017z M675.606,449.73c-0.414-0.044-0.538-0.308-0.471-0.714h0.937
			C676.248,449.503,675.608,449.375,675.606,449.73z M675.838,448.662c0.009-0.173,0.288-0.14,0.471-0.179
			c-0.121-0.143-0.243-0.29-0.236-0.533c0.214,0.14,0.533,0.19,0.941,0.178c-0.021,0.252-0.039,0.504,0.236,0.534
			C677.152,449.06,676.002,448.802,675.838,448.662z M682.184,452.221c-0.202,0.032-0.22-0.069-0.238-0.176
			c-0.225,0.004-0.178,0.216-0.231,0.354c-0.358-0.616-0.417-0.926-1.176-0.89v-0.534c0.998,0.158,1.193-0.822,1.882-0.354
			c-0.009,0.172-0.292,0.137-0.475,0.178C682.218,451.498,681.999,451.46,682.184,452.221z M685.002,453.112
			c0.046-0.204,0.237-0.101,0.237,0c0.693-0.154-0.545-0.269-0.237-0.714c0.469,0.003,0.302,0.485,0.941,0.355
			C686.054,453.31,685.354,453.391,685.002,453.112z M732.94,471.795c0.238-0.234,0.229-0.654,0.468-0.889
			c0.484,0.052,0.469,0.476,0.705,0.712C733.665,471.588,733.686,471.161,732.94,471.795z"/>
	</g>
</g>
<g id="Layer_3">
</g>
<g id="Layer_1">
	<path fill="#FFFFFF" d="M309.177,213.737c0-3.066-0.615-5.802-1.85-8.216c-1.23-2.414-3.131-4.41-5.686-5.989
		c-0.093-0.09-0.32-0.279-0.685-0.557h-15.073l-1.232,0.417l1.096-0.139c0.274-0.278,0.412-0.278,0.412,0v41.778v0.418
		c0.547-0.373,0.912-0.648,1.096-0.837c0.547-0.37,1.597-1.115,3.152-2.228c1.55-1.115,3.195-2.32,4.93-3.621
		c1.735-1.298,3.357-2.506,4.864-3.621c1.509-1.112,2.536-1.902,3.087-2.368h-0.141c2.01-1.67,3.517-3.829,4.522-6.474
		C308.673,219.654,309.177,216.798,309.177,213.737z"/>
	<path fill="#FFFFFF" d="M183.865,172.943c-0.027,0.026-0.054,0.053-0.082,0.079C183.811,172.996,183.837,172.97,183.865,172.943z"
		/>
	<path fill="#FFFFFF" d="M180.471,176.414c-0.11,0.117-0.229,0.229-0.338,0.346c-0.207,0.222-0.407,0.447-0.611,0.67
		C179.791,177.139,180.112,176.794,180.471,176.414z"/>
	<path fill="#FFFFFF" d="M220.62,237.757c-1.6,0.328-3.22,0.722-4.865,1.184c-1.279,0.373-2.602,0.675-3.973,0.905
		c-1.37,0.233-2.877,0.442-4.521,0.628c-0.274,0-0.938,0.023-1.987,0.069c-1.052,0.047-1.575,0.117-1.575,0.208v40.801
		c0,1.301,0.5,2.137,1.507,2.506c1.003,0.372,1.78,0.652,2.33,0.837h5.206c4.386,0,8.517-0.16,12.4-0.487
		c3.883-0.323,7.283-1.253,10.208-2.786c2.923-1.53,5.229-3.828,6.919-6.892c1.689-3.063,2.537-7.332,2.537-12.811
		c0-3.065-0.48-6.081-1.44-9.053c-0.959-2.97-2.307-5.592-4.042-7.868c-1.737-2.273-3.815-4.13-6.234-5.57
		c-2.421-1.438-5.093-2.16-8.016-2.16C223.703,237.269,222.218,237.432,220.62,237.757z"/>
	<path fill="#FFFFFF" d="M388.534,440.21c0.065-0.361,0.877-0.165,0.941-0.528c-0.413,0.102-1.383-0.213-1.411,0.179
		C388.375,439.861,388.28,440.167,388.534,440.21z"/>
	<path fill="#FFFFFF" d="M248.391,466.038c0.136,0.026,0.272,0.08,0.408,0.151C248.851,466.062,248.777,465.967,248.391,466.038z"/>
	<path fill="#FFFFFF" d="M451.738,111.908l2.344,2.343v3.315v10.526c11.23,2.108,22.094,5.289,32.369,9.478
		c10.277-4.189,21.141-7.37,32.371-9.479v-10.526v-3.314l2.342-2.343l1.252-1.251v-9.116h-71.93v9.115L451.738,111.908z"/>
	<path fill="#FFFFFF" d="M582.818,111.909l2.344,2.343v3.314v10.526c35.609,6.694,67.058,24.275,87.176,48.667h15.605h36.623
		l-113.141-75.217h-29.857v9.116L582.818,111.909z"/>
	<path fill="#FFFFFF" d="M320.657,111.908l2.345,2.343v3.315v10.526c11.229,2.108,22.093,5.29,32.369,9.478
		c10.276-4.188,21.142-7.37,32.371-9.478v-10.526v-3.313l2.343-2.343l1.251-1.25v-9.117h-71.93v9.115L320.657,111.908z"/>
	<path fill="#FFFFFF" d="M256.662,128.092v-10.526v-3.314l2.343-2.343l1.251-1.25v-9.116h-30.069L117.258,176.76h36.672h15.554
		C189.603,152.367,221.049,134.785,256.662,128.092z"/>
	<g>
		<g>
			<path fill="#FFFFFF" d="M140.785,329.268c0-0.028-0.014-0.043-0.044-0.043c-0.029,0-0.043,0.015-0.043,0.043
				c0,0.015,0.014,0.021,0.043,0.021C140.771,329.288,140.785,329.282,140.785,329.268z"/>
			<path fill="#FFFFFF" d="M139.42,320.781c0,0.015,0.015,0.022,0.044,0.022c0.015,0,0.021-0.008,0.021-0.022
				c0-0.027-0.007-0.043-0.021-0.043C139.435,320.738,139.42,320.754,139.42,320.781z"/>
			<path fill="#FFFFFF" d="M150.87,325.8c-0.533-5.449-1.584-8.951-2.265-10.75c-0.375-0.992-0.637-1.47-0.637-1.47
				s-0.002,0-0.003,0l-0.125-0.288c0,0-2.53-0.707-3.125-0.648c-0.263,0.025-0.429,0.147-0.532,0.277
				c-1.275-0.167-2.83-0.326-4.598-0.418l-0.212-0.319c0,0-2.613-0.259-3.191-0.099c-0.24,0.066-0.379,0.203-0.46,0.342
				c-1.534,0.02-3.163,0.1-4.862,0.265c-1.698,0.166-3.312,0.403-4.821,0.683c-0.106-0.12-0.27-0.229-0.518-0.246
				c-0.598-0.047-3.112,0.713-3.112,0.713l-0.146,0.355c-1.716,0.432-3.211,0.889-4.43,1.301c-0.126-0.108-0.313-0.197-0.575-0.171
				c-0.596,0.059-2.941,1.241-2.941,1.241l-0.067,0.307c-0.001,0.001-0.003,0.001-0.003,0.001s-0.165,0.519-0.341,1.564v0.001
				c-0.318,1.898-0.672,5.536-0.14,10.984c0.09,0.916,0.195,1.769,0.31,2.564l-0.381,0.035c0,0-1.023-0.334-1.682-0.141
				c-0.659,0.193-0.742,0.428-0.979,0.433c-0.236,0.002-0.302-0.497-0.505,0.009c-0.204,0.505,0.172,1.428,0.397,1.484
				c0.226,0.057,0.672-0.64,1.42-0.842c0.288-0.077,0.567-0.115,0.8-0.134l-0.279,0.923l0.117,1.193
				c-0.524,0.238-1.043,0.559-1.377,0.965c-0.849,1.033-0.901,2.717-0.902,2.79l1.12,0.028c0.01-0.38,0.148-1.499,0.649-2.107
				c0.134-0.163,0.366-0.27,0.642-0.338l0.149,1.533l0.369-0.034l0.135,1.38l0.149-0.016l0.014,0.138l0.82-0.081l-0.013-0.137
				l0.149-0.016l-0.135-1.38l0.369-0.035l-0.089-0.905c0.345,1.277,0.692,2.251,0.981,2.952l-0.033-0.012l0.766,1.758
				c0,0,2.529,0.706,3.127,0.647c0.266-0.026,0.431-0.151,0.534-0.283c1.256,0.168,2.802,0.323,4.584,0.408l0.221,0.335
				c0,0,2.613,0.259,3.191,0.099c0.26-0.072,0.401-0.226,0.479-0.376c1.513-0.025,3.131-0.111,4.838-0.277s3.312-0.397,4.8-0.663
				c0.105,0.13,0.275,0.253,0.543,0.274c0.598,0.046,3.111-0.715,3.111-0.715l0.153-0.371c1.732-0.429,3.217-0.881,4.419-1.288
				c0.126,0.109,0.313,0.2,0.579,0.175c0.597-0.059,2.942-1.241,2.942-1.241l0.411-1.874l-0.029,0.019
				C151.008,334.51,151.389,331.112,150.87,325.8z M130.187,330.789c-0.402,0.841-0.94,1.569-1.615,2.184
				c-0.673,0.615-1.479,1.097-2.416,1.445c-0.937,0.346-1.984,0.521-3.14,0.521c-0.864,0-1.666-0.094-2.406-0.28
				c-0.738-0.188-1.504-0.436-2.294-0.742c-0.015,0-0.059,0.003-0.132,0.011c-0.073,0.006-0.154,0.009-0.242,0.009
				s-0.172-0.006-0.253-0.02c-0.08-0.014-0.143-0.04-0.187-0.08v-0.041c0-0.026,0.08-0.146,0.241-0.359
				c0.163-0.215,0.341-0.444,0.539-0.692c0.199-0.247,0.389-0.472,0.571-0.671c0.184-0.201,0.297-0.301,0.341-0.301
				c0.103,0,0.194,0.039,0.274,0.121c0.081,0.079,0.157,0.173,0.231,0.278c0.073,0.107,0.146,0.216,0.219,0.322
				c0.074,0.105,0.155,0.186,0.243,0.24c0.424,0.254,0.9,0.477,1.427,0.672c0.527,0.194,1.054,0.291,1.582,0.291
				c0.629,0,1.251-0.048,1.867-0.142c0.615-0.093,1.193-0.257,1.735-0.491c0.541-0.233,1.024-0.541,1.449-0.922
				c0.424-0.382,0.762-0.865,1.011-1.453c0.058-0.161,0.105-0.287,0.143-0.381c0.036-0.094,0.066-0.185,0.088-0.27
				c0.022-0.088,0.032-0.179,0.032-0.271c0-0.094,0-0.215,0-0.36c0-0.322-0.046-0.643-0.143-0.963
				c-0.095-0.321-0.234-0.624-0.417-0.913c-0.184-0.287-0.406-0.545-0.67-0.771c-0.264-0.228-0.557-0.416-0.879-0.562l-4.107-1.744
				c-0.703-0.308-1.267-0.74-1.691-1.303c-0.424-0.561-0.637-1.202-0.637-1.925c0-0.694,0.153-1.336,0.461-1.924
				c0.308-0.587,0.717-1.095,1.229-1.523c0.513-0.428,1.103-0.758,1.768-0.993c0.667-0.233,1.365-0.351,2.099-0.351
				c0.615,0,1.171,0.08,1.668,0.241c0.498,0.16,1.01,0.382,1.538,0.661c0.103,0.121,0.249,0.225,0.439,0.31
				c0.189,0.088,0.366,0.132,0.527,0.132v0.281l-1.691,1.764c-0.029,0.013-0.052,0.021-0.066,0.021
				c-0.029,0-0.073-0.058-0.132-0.172c-0.058-0.112-0.124-0.243-0.197-0.391c-0.073-0.146-0.146-0.288-0.219-0.42
				c-0.074-0.134-0.132-0.229-0.176-0.28c-0.367-0.389-0.817-0.646-1.351-0.771c-0.535-0.127-1.065-0.191-1.592-0.191
				c-0.381,0-0.755,0.06-1.121,0.18c-0.365,0.121-0.695,0.29-0.988,0.512c-0.292,0.221-0.531,0.488-0.714,0.801
				c-0.183,0.314-0.275,0.658-0.275,1.033c0,0.335,0.103,0.671,0.308,1.013c0.205,0.342,0.475,0.585,0.812,0.731l4.744,1.966
				c0.469,0.199,0.875,0.446,1.219,0.74c0.344,0.294,0.633,0.621,0.868,0.982c0.233,0.362,0.417,0.751,0.549,1.173
				c0.132,0.421,0.22,0.853,0.264,1.294C130.835,329.031,130.59,329.946,130.187,330.789z M145.463,335.916
				c-0.3,0.537-0.704,0.967-1.21,1.288c-0.506,0.323-1.086,0.56-1.739,0.71c-0.653,0.15-1.324,0.247-2.014,0.29
				c-0.689,0.042-1.376,0.057-2.058,0.042c-0.683-0.014-1.31-0.027-1.882-0.042c-0.074,0.042-0.129,0.067-0.166,0.075
				c-0.037,0.008-0.084,0.011-0.143,0.011c-0.558,0-1.116-0.019-1.673-0.053c-0.558-0.037-1.115-0.055-1.673-0.055
				c0-0.1,0.022-0.187,0.066-0.258c0.044-0.072,0.091-0.14,0.143-0.204c0.052-0.063,0.106-0.132,0.166-0.205
				c0.058-0.071,0.103-0.156,0.132-0.257c0.015-0.028,0.033-0.093,0.055-0.193s0.033-0.164,0.033-0.192
				c0-0.072,0.007-0.184,0.022-0.335c0.014-0.148,0.026-0.303,0.033-0.461c0.007-0.157,0.014-0.301,0.022-0.431
				c0.007-0.128,0.011-0.213,0.011-0.257v-10.377c0-0.041-0.004-0.109-0.011-0.202c-0.008-0.095-0.015-0.19-0.022-0.292
				c-0.007-0.099-0.019-0.192-0.033-0.278c-0.015-0.086-0.022-0.143-0.022-0.172c-0.03-0.158-0.117-0.308-0.264-0.45
				c-0.146-0.143-0.22-0.295-0.22-0.452v-0.105c0.088,0,0.25-0.008,0.484-0.022c0.235-0.015,0.477-0.026,0.727-0.033
				c0.249-0.006,0.492-0.014,0.727-0.021c0.234-0.007,0.395-0.01,0.483-0.01h0.528h0.506c0.059,0.014,0.089,0.05,0.089,0.105v0.045
				c-0.191,0.143-0.352,0.318-0.484,0.525c-0.132,0.208-0.213,0.427-0.242,0.656c-0.029,0.572-0.051,1.056-0.067,1.449
				c-0.014,0.395-0.021,0.827-0.021,1.3v0.473c0,0.071,0.004,0.2,0.012,0.388c0.007,0.186,0.018,0.383,0.032,0.589
				c0.015,0.209,0.025,0.405,0.033,0.591c0.007,0.188,0.011,0.315,0.011,0.387c0.073,0.102,0.161,0.154,0.264,0.162
				c0.103,0.008,0.206,0.011,0.309,0.011h0.308c0.675-0.101,1.288-0.27,1.838-0.505c0.55-0.236,1.023-0.541,1.419-0.913
				s0.705-0.824,0.925-1.354s0.331-1.153,0.331-1.87c0-1.402-0.309-2.487-0.925-3.254c-0.616-0.766-1.622-1.307-3.016-1.621
				c-0.279-0.058-0.522-0.097-0.727-0.118c-0.206-0.021-0.433-0.033-0.683-0.033c-0.308,0-0.646,0.009-1.012,0.022
				c-0.367,0.015-0.735,0.05-1.101,0.107c-0.367,0.057-0.719,0.148-1.057,0.278c-0.338,0.129-0.638,0.309-0.902,0.537
				c-0.146,0.129-0.275,0.276-0.386,0.44c-0.11,0.166-0.245,0.305-0.407,0.419c-0.059-0.014-0.088-0.042-0.088-0.085
				c0-0.044,0-0.078,0-0.107c0-0.229,0.099-0.448,0.297-0.656c0.198-0.207,0.437-0.396,0.715-0.569
				c0.279-0.172,0.565-0.318,0.859-0.439c0.293-0.123,0.528-0.211,0.704-0.27c0.088-0.014,0.246-0.034,0.474-0.063
				c0.227-0.029,0.469-0.058,0.726-0.087c0.256-0.028,0.502-0.057,0.737-0.085c0.235-0.029,0.396-0.051,0.484-0.063h0.154
				c0.925,0,1.834,0.106,2.73,0.32c0.895,0.216,1.699,0.552,2.41,1.011c0.712,0.458,1.284,1.049,1.718,1.773
				c0.432,0.723,0.648,1.592,0.648,2.609c0,0.342-0.074,0.727-0.22,1.149c-0.147,0.421-0.341,0.835-0.583,1.234
				c-0.242,0.401-0.525,0.756-0.847,1.062c-0.324,0.309-0.668,0.527-1.035,0.655c0.073,0,0.201,0.019,0.385,0.054
				c0.183,0.036,0.297,0.069,0.341,0.097c0.558,0.201,1.097,0.43,1.618,0.688c0.521,0.259,0.98,0.562,1.376,0.913
				c0.396,0.353,0.711,0.77,0.946,1.257c0.234,0.488,0.352,1.053,0.352,1.697C145.915,334.701,145.764,335.379,145.463,335.916z"/>
			<path fill="#FFFFFF" d="M142.315,331.104c-0.316-0.366-0.698-0.662-1.145-0.893c-0.447-0.228-0.936-0.344-1.464-0.344
				c-0.498,0-0.983,0.073-1.453,0.216s-0.954,0.236-1.452,0.278c-0.029,0-0.099,0.005-0.209,0.012
				c-0.11,0.008-0.219,0.014-0.33,0.021c-0.109,0.007-0.209,0.021-0.297,0.042c-0.088,0.021-0.132,0.047-0.132,0.076v6.294
				c0,0.115,0.036,0.208,0.11,0.279c0.074,0.072,0.162,0.129,0.265,0.172s0.208,0.08,0.319,0.106
				c0.11,0.029,0.202,0.053,0.275,0.065h0.925c0.762,0,1.482-0.028,2.157-0.086c0.675-0.057,1.267-0.204,1.772-0.441
				c0.506-0.235,0.91-0.597,1.21-1.083c0.301-0.487,0.452-1.168,0.452-2.041c0-0.488-0.088-0.964-0.264-1.429
				C142.876,331.886,142.63,331.47,142.315,331.104z"/>
		</g>
		<rect x="110.721" y="305.334" fill-rule="evenodd" clip-rule="evenodd" fill="#FFFFFF" width="43.235" height="4.005"/>
		
			<rect x="139.696" y="275.566" transform="matrix(0.4811 0.8767 -0.8767 0.4811 334.0516 29.9814)" fill-rule="evenodd" clip-rule="evenodd" fill="#FFFFFF" width="4.005" height="43.236"/>
	</g>
	<path fill="#FFFFFF" d="M742.184,476.755c0.172-0.632-0.682-1.583-1.883-1.407c-0.031,0.33-0.154,0.588-0.469,0.704
		c-1.213-2.909-3.596-5.97-7.055-7.027c0.248,0.823-0.146,1.034,0.705,1.405c-0.41-0.015-0.732,0.04-0.939,0.177
		c-0.566-1.162-2.965-1.887-4-2.108c-0.293,0.388-0.67-0.039,0,0.878c-1.119-0.301-1.107-0.258-2.115,0
		c-0.002-0.231-0.41-0.161-0.471-0.352c0.287-0.021,0.559-0.053,0.471-0.354c-1.105,0.408-1.408-0.566-2.588-0.173
		c-1.391-2.917-2.25-4.707-3.525-7.205c-1.68,1.233-2.545-1.727-3.293-0.702c-0.072-0.112-0.123-0.194-0.165-0.266H320.11v0.44
		c-0.547-0.466-0.631,0.466-1.177,0c0.124-0.174,0.26-0.339,0.48-0.44h-0.566c-0.155,0.068-0.295,0.147-0.385,0.266
		c-0.183-0.029-0.248-0.146-0.311-0.266h-0.587c0.101,0.238,0.352,0.363,0.429,0.616c-1.154,0.587-0.373,0.696-0.94,1.406
		c-0.419-0.548-0.921,0.058-1.412-0.35c0.117-0.621,0.854-1.231,1.412-1.584c-1.159-0.465-1.946,1.673-3.056,0.703
		c-0.086,0.634-0.376,0.837-0.705,0.881c0.294,0.069,0.479,0.225,0.469,0.526c-0.371-0.018-0.185-0.45-0.706-0.35
		c-0.298,0.532,0.806,0.896,0.237,1.049c-0.638-0.258-1.874-0.51-0.472-1.049h-0.94c-0.443,0.558,0.508,1.069-0.472,1.228
		c0.721-0.628-0.907-0.622-0.938-1.228c0.158,0.731,0.287,0.956-0.708,0.701c0.345,0.981-0.772,0.539-0.469,1.403
		c-1.291-0.896-2.317,0.232-3.291,0.176c-0.327,0.223-0.145,0.83-0.471,1.058c0.773-0.005,1.197,1.354,0.471,1.403
		c-0.45-0.248-0.842-0.543-1.177-0.878c-0.137,1.119-1.529-0.215-2.116,0.351c0.592,0.176-0.188,0.776-0.705,0.703
		c-0.532-0.779-1.172,0.07-2.115,0.176c0.012-0.303-0.184-0.449-0.473-0.528c-0.051,0.849-0.744-0.052-0.938-0.175
		c-0.018,0.736-0.584,0.361-0.941,1.058c-0.113-0.212-0.251-0.402-0.47-0.53c-0.654,0.26,0.408,0.719-0.236,0.877
		c-0.981-0.351-0.807-0.602-0.704-1.58c-0.885-0.1-0.754-0.96-1.412-1.23c0.084,0.845-1.893,1.275-1.882,0.528
		c0.054,0.353-1.048,0.711-0.233,1.053c0.017-1.093,0.543,0.19,0.704,0.177c-0.104,0.01,0.846-1.709,1.411-0.352
		c-0.212,0.836-0.779,1.41-1.882,1.579c-0.43-0.448,0.269-0.745-0.705-0.876c-0.346,0.475,0.15,1.045-0.939,1.23
		c-0.112-0.553,0.336-0.688,0.471-1.058c-0.755-0.15-0.322,0.583-0.941,0.528c-0.576-0.396-0.083-0.773-0.471-1.053
		c-0.099,0.337-0.086,0.756-0.703,0.706c-0.055-0.317,0.236-0.887-0.472-0.706c-0.094,0.304,0.35,0.451,0,0.524
		c-0.635-0.169-0.913-0.604-1.646-0.701c-0.352,1.173-1.277-0.094-2.587,0.353c-0.225-0.358-0.48-0.697-0.705-1.054
		c-0.549,0.06-0.971,0.208-1.411,0.351c0.173-0.288-0.467-0.763-0.47-0.351c0.576,0.02,0.05,0.581-0.234,0.526
		c0.474-0.351-0.175-0.76-0.706-0.878c0.389,0.545-1.247,1.01-2.116,0.878c-0.131,0.314-0.12,0.729-0.47,0.876
		c0.071-0.211-0.68-0.6-0.706-0.173c0.047,0.451-1.497,1.219-2.116,1.757c0.476-0.36-0.096-0.35-0.47-0.526
		c-0.253,0.982-0.963,1.622-2.116,1.932c-0.556,0.118-1.493-0.74-1.411,0c-0.876,0.245,0.692,0.024,0.47,0.349
		c-0.935,0.042-0.765,0.907-0.94,1.057c-0.652-0.414-1.267-2.039-2.822-2.636c-0.741,0.225,0.189,0.595-0.939,0.529
		c-0.438-0.795,0.846-0.306,0.939-0.704c-1.117,0.328-0.912-1.143-1.881-0.704c0.257,0.041,0.565,0.29,0.235,0.351
		c-3.288-1.342-7.229,1.476-8.464-1.579c-0.993,0.437-1.19-0.485-1.882,0.176c-0.161-0.524-0.285-1.073-0.939-1.229
		c0.211,0.868-0.774,0.725-1.413,0.526c0.219,1.049-0.893,1.181-1.879,1.756c-0.038-0.206,0.039-0.495-0.237-0.527
		c-1.306,0.482-2.351-1.076-3.354-1.604c-0.057,0.149-0.277,0.338-0.408,0.375c-0.425-0.445-0.895-0.853-2.117-0.703
		c-0.131,0.43-0.199,0.903-0.939,0.878c-0.904-0.756-0.578-1.142-1.411-1.403c-0.062,0.244-0.517,0.2-0.705,0.351
		c-0.207-0.311-0.744-0.513-0.235-0.879c-0.275-0.028-0.667,0.03-0.704-0.176c-0.642,0.368-1.208,0.409-1.882,0
		c-0.229,0.181-0.465,0.356-0.705,0.526c-2.756-0.548-4.073-1.33-5.175-3.689c0.04,0.695-0.359-0.054-0.703,0.353
		c0.16-0.976-1.257-1.35-2.589-1.23c-0.123-0.07-0.215-0.164-0.295-0.266H130.822c-0.932,1.757-1.412,3.178-3.762,3.778
		c-0.719-0.362-0.737-0.229-1.645-0.524c-1.852,1.934-5.468,0.396-7.056,0.7c0.304,0.635,0.974-0.095,1.177,0.528
		c-1.297,0.799-2.481,0.562-3.292-0.176c-0.848,0.533-2.704,0.758-2.116,1.406c-0.163-0.138-1.312-0.393-1.411,0
		c0.344,0.151,0.747,0.263,0.706,0.701c-1.462-0.329,0.119,0.847-0.472,1.404c-1.548-0.366-1.543-0.292-2.821-0.703
		c0.631,0.993-0.02,1.447,1.176,1.759c-1.045,0.1-0.94,1.056-1.645,1.407c-0.143-0.656-0.554-1.111-0.942-1.582
		c-0.846,1.281-3.73-0.247-3.763,1.054c-0.039-0.261,0.085-0.65-0.234-0.702c-0.23,0.283-0.626,0.401-0.94,0.176
		c-0.377,0.69,1.016,0.06,0.94,0.526c-0.729,0.275-0.601,1.189-1.41,1.408c-0.031-0.389-0.998-0.077-1.411-0.18
		c0.029,0.318-0.233,0.41-0.706,0.354c-0.018,0.306,0.053,0.545,0.235,0.701c-1.071,0.365-1.693,0.999-2.588,0.177
		c-0.03,0.73-0.153,0.037-0.47,0c0.136,0.31-0.283,1.033,0.236,1.054c-0.142-0.457,0.094-0.632,0.705-0.525
		c0.02,0.478-0.393,0.353,0,0.704c-1.291,0.233-1.593-0.036-2.822-0.179c0.267,1.276,0.018,1.274,0.941,2.107
		c-1.052-0.253-0.651,0.662-1.411,0.879c-0.132,0.04-0.449-0.49-0.705-0.526c0.133,0.019-0.757,0.604-0.942,0.175
		c-0.465,0.451,0.245,0.81-0.233,1.057c-0.733,0.154-0.509-0.406-0.883-0.518v66.754h652.826v-65.743
		c-0.631-0.115-1.049-0.218-2.02-0.847C743.621,477.773,742.623,476.494,742.184,476.755z M733.248,471.307
		c0.24-0.229,0.23-0.646,0.469-0.877c0.482,0.053,0.469,0.472,0.707,0.704C733.971,471.101,733.992,470.683,733.248,471.307z"/>
	<g>
		<path fill="#FFFFFF" d="M546.947,424.146h-0.15c0.109,0.013,0.207,0.023,0.315,0.036
			C547.06,424.176,547.006,424.167,546.947,424.146z"/>
		<path fill="#FFFFFF" d="M687.92,427.873V239.806c0-13.992-3.461-27.341-9.688-39.587l18.316-10.396v-5.036h-28.045
			c-2.117-2.762-4.396-5.437-6.813-8.027c-19.119-20.498-47.317-35.431-79.948-41.158l-4.58-2.596v-15.44l-3.594-3.594v-12.43
			v-57.92h-43.15l-0.002,57.92v12.43l-3.594,3.594v15.44l-4.58,2.596c-12.691,2.228-24.713,5.848-35.791,10.646
			c-11.078-4.798-23.098-8.418-35.789-10.646l-4.58-2.596v-15.44l-3.596-3.594v-12.43l0.002-57.919h-43.152l-0.001,57.919v12.43
			l-3.594,3.594v15.44l-4.582,2.596c-12.689,2.227-24.711,5.848-35.789,10.646c-11.078-4.798-23.099-8.418-35.79-10.646
			l-4.579-2.596v-15.44l-3.596-3.594v-12.43l0.001-57.92h-43.15l-0.001,57.92v12.43l-3.594,3.594v15.44l-4.582,2.596
			c-28.694,5.036-53.955,17.197-72.635,33.996c1.183-0.091,2.419-0.237,3.511-0.424h-0.138c1.919-0.278,3.951-0.557,6.099-0.834
			c2.144-0.279,3.583-0.464,4.316-0.557h1.233c6.118,0,12.126,0.696,18.019,2.089c5.892,1.392,11.167,3.598,15.826,6.615
			c4.658,3.018,8.427,6.917,11.304,11.698c2.878,4.782,4.316,10.562,4.316,17.338c0,2.042-0.434,4.341-1.301,6.891
			c-0.87,2.554-2.034,5.084-3.493,7.591c-1.463,2.506-3.2,4.806-5.208,6.893c-2.01,2.089-4.111,3.738-6.303,4.944
			c0.456,0.187,0.935,0.328,1.438,0.417c0.501,0.095,0.844,0.186,1.028,0.279l-0.137-0.138c3.744,1.389,7.329,2.947,10.756,4.664
			c3.425,1.717,6.461,3.758,9.112,6.126c2.648,2.368,4.748,5.132,6.302,8.286c1.553,3.158,2.329,6.871,2.329,11.141
			c0,6.406-1.393,11.536-4.178,15.387c-2.788,3.854-6.395,6.776-10.824,8.771c-4.432,2-9.387,3.298-14.868,3.899
			c-5.48,0.608-10.871,0.906-16.168,0.906c-1.829,0-3.609,0-5.345,0c-1.735,0-3.38-0.045-4.932-0.138
			c-0.641,0-1.256-0.026-1.849-0.07c-0.596-0.05-1.166-0.069-1.714-0.069c-0.547,0.277-1.005,0.438-1.369,0.485
			c-0.367,0.048-0.915,0.071-1.646,0.071c-1.827,0-3.607-0.023-5.342-0.071c-1.737-0.047-3.473-0.116-5.207-0.208
			c-1.736-0.093-3.449-0.186-5.139-0.277c-1.691-0.092-3.403-0.141-5.138-0.141l-2.741-0.696c0-0.555,0.206-1.135,0.616-1.739
			c0.412-0.601,0.936-1.275,1.577-2.019c0.181-0.186,0.364-0.44,0.548-0.768c0.182-0.323,0.363-0.856,0.548-1.602
			c0.09-0.184,0.183-0.555,0.274-1.113c0.089-0.555,0.137-0.974,0.137-1.253c0-0.461,0.044-1.183,0.136-2.158
			c0.091-0.977,0.159-1.971,0.206-2.995c0.045-1.02,0.091-1.948,0.137-2.785c0.045-0.835,0.07-1.392,0.07-1.67v-67.259
			c0-0.28-0.024-0.72-0.07-1.324c-0.046-0.604-0.092-1.207-0.137-1.811c-0.046-0.603-0.115-1.184-0.206-1.74
			c-0.092-0.558-0.136-0.928-0.136-1.114c-0.185-0.65-0.343-1.161-0.48-1.533c-0.137-0.371-0.297-0.648-0.479-0.836
			c-0.548-0.741-1.028-1.414-1.439-2.019c-0.41-0.603-0.617-1.135-0.617-1.602v-1.253c0.548,0,1.689-0.046,3.426-0.139
			c1.734-0.091,3.562-0.185,5.48-0.279c1.918-0.091,3.744-0.16,5.48-0.208c1.735-0.046,2.878-0.07,3.426-0.07h7.262
			c1.004,0.373,1.665,0.65,1.986,0.835c0.318,0.188,0.48,0.373,0.48,0.557c-1.189,0.93-2.192,2.089-3.014,3.481
			c-0.823,1.393-1.326,2.879-1.507,4.456c-0.093,1.023-0.161,1.974-0.206,2.856c-0.048,0.884-0.069,1.742-0.069,2.576
			c-0.091,2.228-0.16,4.295-0.206,6.196c-0.046,1.904-0.068,3.969-0.068,6.198v3.064c0,0.464,0.021,1.3,0.068,2.506
			c0.045,1.208,0.115,2.46,0.206,3.759c0.09,1.303,0.182,3.389,0.275,6.27l-0.412-0.281c0.272,0.464,0.479,0.72,0.617,0.767
			c0.137,0.046,0.251,0.068,0.342,0.068h1.782c3.836-0.646,7.331-1.692,10.481-3.132c3.152-1.439,5.869-3.341,8.153-5.71
			c2.282-2.367,4.042-5.244,5.276-8.633c1.232-3.388,1.849-7.357,1.849-11.905c0-9.006-1.736-15.947-5.208-20.821
			c-3.473-4.874-9.18-8.238-17.127-10.095c-1.737-0.372-3.199-0.628-4.384-0.767c-1.188-0.14-2.465-0.209-3.836-0.209
			c-1.829,0-3.769,0.048-5.823,0.139c-2.056,0.093-4.135,0.327-6.235,0.697c-2.103,0.372-4.133,0.953-6.097,1.74
			c-1.952,0.786-2.741,1.068-4.362,2.527c-1.893,2.103-3.698,4.258-5.395,6.472h-28.045v5.036l18.316,10.394
			c-6.226,12.248-9.685,25.597-9.685,39.589v188.067l-15.103,24.452h45.432V348.727c0-26.479,24.92-47.945,55.661-47.945
			c30.741,0,55.661,21.466,55.661,47.945v103.599h96.129c2.211-1.782,4.483-3.532,4.426-3.532v-0.888l1.568-1.593l-0.348,0.179
			c0.23-0.24,0.522-0.683,0.87-1.329c0.349-0.651,0.524-1.801,0.524-3.455c0-1.655-0.031-2.833-0.088-3.541
			c-0.059-0.71-0.379-1.89-0.959-3.543c-0.348-1.179-0.843-2.685-1.48-4.516c-0.641-1.829-1.219-3.6-1.742-5.314
			c-0.523-1.708-0.957-3.156-1.309-4.337c-0.346-1.18-0.465-1.711-0.346-1.594l-1.918-1.951l-8.889-27.096h-35.202
			c-0.235,0.354-0.409,0.77-0.521,1.241l-9.585,31.169h0.174c-0.117,0.827-0.174,1.358-0.174,1.596c0,0.117,0,0.296,0,0.529
			c0,1.302,0.145,2.363,0.436,3.188c0.29,0.827,0.609,1.535,0.957,2.127c0.582,0.945,1.104,1.918,1.568,2.922
			c0.463,1.002,0.698,2.096,0.698,3.273h-29.623l-1.571-1.592c0.35-0.354,0.986-0.975,1.918-1.86
			c0.927-0.885,1.887-1.829,2.873-2.834c0.988-1.001,1.92-1.974,2.791-2.922c0.871-0.941,1.479-1.596,1.83-1.948
			c0.113-0.118,0.435-0.646,0.957-1.594c0.523-0.943,0.898-1.651,1.133-2.126h-0.174c0.349-0.941,1.016-2.684,2.004-5.223
			c0.986-2.539,2.031-5.227,3.137-8.061c1.104-2.832,2.119-5.488,3.05-7.969c0.929-2.48,1.567-4.249,1.918-5.313
			c0.23-0.588,0.403-1.033,0.521-1.329c0.114-0.292,0.114-0.145,0,0.441c0.23-1.06,0.493-2.034,0.786-2.921
			c0.285-0.884,0.896-2.035,1.827-3.454l-0.522,0.181l21.434-65.53c0.234-1.298,0.406-2.305,0.524-3.012
			c0-0.235,0.026-0.414,0.087-0.531c0.057-0.116,0.086-0.294,0.086-0.531v-0.709c0-1.298-0.234-2.538-0.697-3.719
			c-0.465-1.18-0.986-2.243-1.566-3.188l0.523-0.71c0.232-0.234,0.871-0.441,1.918-0.619c1.044-0.177,2.264-0.323,3.658-0.443
			c1.396-0.115,2.875-0.234,4.443-0.352c1.568-0.119,3.049-0.18,4.443-0.18c0.579,0,1.133-0.025,1.656-0.088
			c0.521-0.06,0.959-0.088,1.306-0.088h6.101c0.697,0,1.509,0,2.439,0c1.045,0,2.062-0.027,3.049-0.089
			c0.985-0.057,1.889-0.089,2.702-0.089c0.812,0,1.333,0,1.565,0c0,1.184-0.172,2.214-0.519,3.099
			c-0.351,0.887-0.759,1.803-1.22,2.747c-0.236,0.591-0.469,1.15-0.697,1.681c-0.237,0.533-0.351,1.39-0.351,2.568v0.71
			c0,0.59,0.113,1.655,0.351,3.188c0.229,1.535,0.461,2.538,0.697,3.01l32.586,97.234h-0.176c0.928,1.888,1.803,3.717,2.615,5.489
			c0.812,1.77,1.682,3.541,2.614,5.314c0.93,2.008,1.889,4.042,2.873,6.107c0.988,2.065,2.066,4.164,3.227,6.288l-0.174-0.178
			c0.578,0.943,1.043,1.624,1.393,2.038c0.35,0.412,0.637,0.736,0.873,0.975c0.695,0.942,1.363,1.74,2.004,2.389
			c0.635,0.648,1.072,1.093,1.307,1.331c0.259,0.317,0.451,0.605,0.596,0.875h5.99h131.08h131.08L687.92,427.873z M407.996,283.085
			c0,1.859-1.027,3.437-3.081,4.734c-2.058,1.303-4.433,2.391-7.125,3.274c-2.695,0.882-5.343,1.53-7.948,1.948
			c-2.602,0.418-4.502,0.627-5.686,0.627h-1.918l-32.611-5.151h-2.33c-0.459,0.186-1.462,0.511-3.015,0.973
			c-1.554,0.467-2.877,0.93-3.975,1.394c-0.366,0.187-0.64,0.277-0.823,0.277c0.277,0,0.502-0.044,0.686-0.138
			c-0.272,0.187-0.523,0.298-0.751,0.348c-0.229,0.044-0.71,0.3-1.44,0.766h-1.369c-0.912,0-1.654-0.074-2.241-0.216l5.641,10.521
			l-0.548-0.278c0.637,0.648,1.347,1.482,2.123,2.506c0.777,1.021,1.164,1.9,1.164,2.645c0,0.372-0.229,0.743-0.685,1.114
			c-0.459,0.371-1.372,0.558-2.739,0.558c-1.008,0-1.713-0.046-2.125-0.14c-0.41-0.092-0.754-0.276-1.027-0.556h0.137
			c-0.549-0.466-1.506-1.301-2.877-2.507c-1.371-1.207-2.811-2.484-4.318-3.828c-1.506-1.348-2.923-2.624-4.246-3.831
			c-1.325-1.206-2.261-2.042-2.81-2.506c-0.731-0.745-1.417-1.51-2.055-2.299c-0.64-0.788-1.28-1.555-1.918-2.297
			c-0.821-1.021-1.623-2.042-2.399-3.064c-0.775-1.019-1.621-1.9-2.533-2.645c-0.457-0.56-1.164-1.508-2.124-2.856
			c-0.96-1.344-1.987-2.784-3.083-4.319c-1.096-1.53-2.102-2.967-3.014-4.316c-0.914-1.342-1.508-2.295-1.783-2.853
			c-0.273-0.465-0.889-1.533-1.85-3.203c-0.959-1.672-2.01-3.503-3.15-5.5c-1.143-1.996-2.24-3.945-3.289-5.85
			c-1.051-1.901-1.85-3.362-2.396-4.387h0.135c-0.73-1.298-1.278-2.272-1.642-2.924c-0.186-0.369-0.299-0.718-0.345-1.045
			c-0.045-0.324-0.113-0.626-0.203-0.903c-0.734,0.466-1.439,0.882-2.125,1.252c-0.686,0.372-1.164,0.65-1.438,0.835
			c-0.184,0.095-0.274,0.557-0.274,1.393c0,0.744,0,1.533,0,2.368v3.341c0,0.374,0.045,1.28,0.137,2.717
			c0.09,1.44,0.16,2.993,0.205,4.664c0.047,1.67,0.092,3.228,0.137,4.667c0.046,1.44,0.07,2.343,0.07,2.713v8.635
			c0.09,2.042,0.523,3.739,1.301,5.082c0.775,1.348,1.62,2.53,2.536,3.553c0.182,0.186,0.456,0.487,0.821,0.903
			c0.365,0.42,0.637,0.721,0.82,0.905v1.255c0,0.093-0.203,0.207-0.613,0.346c-0.41,0.143-0.94,0.28-1.576,0.42
			c-0.643,0.14-1.28,0.253-1.92,0.348c-0.64,0.091-1.188,0.139-1.644,0.139c-0.184,0-0.822-0.069-1.919-0.209
			c-1.096-0.138-1.736-0.256-1.918-0.348c-1.279,0-2.559,0.02-3.836,0.07c-1.28,0.045-2.56,0.114-3.837,0.211
			c-1.372,0.088-2.741,0.159-4.11,0.206c-1.371,0.047-2.741,0.069-4.111,0.069h-0.685c-1.007,0-1.897-0.048-2.672-0.139
			c-0.776-0.095-1.165-0.512-1.165-1.253c0-0.092,0.205-0.438,0.616-1.046c0.411-0.603,0.936-1.367,1.576-2.297
			c0.548-0.74,1.095-1.646,1.645-2.716c0.549-1.065,0.96-2.249,1.233-3.551v-37.598c0-0.648-0.047-2.203-0.138-4.665
			c-0.091-2.459-0.16-5.083-0.206-7.868c-0.045-2.787-0.091-5.408-0.136-7.87c-0.048-2.457-0.069-3.968-0.069-4.524v-2.231
			c-0.092-3.245-0.229-6.357-0.412-9.329c-0.183-2.969-0.685-5.894-1.506-8.773v0.14c-0.366-1.021-0.596-1.553-0.686-1.601
			c-0.092-0.046-0.229-0.162-0.411-0.349h0.138c-0.732-0.648-1.371-1.253-1.919-1.81c-0.548-0.557-0.821-1.066-0.821-1.532
			c0-0.185,0.136-0.533,0.41-1.045c0.274-0.51,1.234-0.766,2.878-0.766h22.472c1.097-0.278,2.443-0.439,4.043-0.486
			c1.596-0.046,3.082-0.07,4.452-0.07h1.094c3.655,0,7.446,0.256,11.376,0.767c3.924,0.51,7.535,1.485,10.822,2.924
			c3.288,1.439,5.982,3.505,8.086,6.196c2.1,2.695,3.152,6.267,3.152,10.723c0,3.251-0.756,6.174-2.262,8.773
			c-1.509,2.601-3.451,4.992-5.824,7.172c-2.377,2.182-4.979,4.155-7.812,5.916c-2.83,1.768-5.571,3.343-8.22,4.736
			c0.272-0.092,0.412,0.233,0.412,0.974v0.28c0,0.279,0.045,0.465,0.136,0.556l26.379,49.205l1.188-2.414
			c0.184-0.463,0.432-0.927,0.754-1.394c0.32-0.463,0.57-0.881,0.754-1.251l-0.41,0.416c0-0.091,0.043-0.231,0.136-0.416
			c0.181-0.373,0.274-0.79,0.274-1.255c0.088-0.371,0.182-0.974,0.273-1.81c0.09-0.836,0.207-1.694,0.344-2.579
			c0.136-0.879,0.25-1.715,0.342-2.506c0.089-0.785,0.137-1.368,0.137-1.739c0-1.298,0-3.573,0-6.825
			c0-3.249,0.045-6.729,0.138-10.443c0.089-3.714,0.157-7.193,0.206-10.445c0.045-3.249,0.066-5.522,0.066-6.822v-32.587
			c-0.092-1.671-0.184-3.179-0.272-4.525c-0.093-1.345-0.298-2.598-0.616-3.761c-0.321-1.16-0.801-2.273-1.439-3.341
			c-0.641-1.066-1.508-2.204-2.604-3.412v-1.949c2.922,0,6.256,0.024,10.004,0.07c3.744,0.047,7.076,0.117,10.001,0.208
			c2.923,0.094,5.8,0.164,8.632,0.208c2.83,0.048,5.709,0.07,8.634,0.07h15.757c0.18-0.185,0.432-0.324,0.754-0.417
			c0.317-0.09,0.568-0.231,0.754-0.418c0.18-0.09,0.318-0.23,0.41-0.417c0.09-0.185,0.251-0.348,0.48-0.487
			c0.227-0.14,0.547-0.255,0.959-0.348c0.41-0.092,1.072-0.14,1.984-0.14c0.64,0,1.076,0.047,1.305,0.14
			c0.226,0.093,0.844,0.372,1.848,0.835l7.538,14.344c0,0.649-0.391,1.068-1.165,1.251c-0.777,0.188-1.668,0.279-2.672,0.279
			c-1.281,0-2.173-0.091-2.672-0.279c-0.504-0.184-0.939-0.463-1.303-0.834h0.412c-0.186-0.186-0.344-0.371-0.481-0.558
			c-0.136-0.185-0.39-0.37-0.753-0.556h0.139c-2.012-1.022-3.906-1.927-5.686-2.717c-1.783-0.788-3.68-1.369-5.689-1.74h0.274
			c-0.915-0.091-2.421-0.185-4.521-0.279c-2.102-0.091-4.385-0.231-6.852-0.417c-2.467-0.186-4.819-0.349-7.057-0.488
			c-2.24-0.139-3.77-0.253-4.592-0.349h-2.328c-0.092,0.188-0.138,0.467-0.138,0.837v22.42l-0.821-0.559l0.821,0.836
			c0.821,0,1.759,0.025,2.809,0.069c1.05,0.05,1.897,0.07,2.535,0.07c0.458,0,0.981,0.025,1.577,0.07
			c0.592,0.049,1.211,0.071,1.85,0.071c0.73,0,1.46,0.021,2.191,0.068c0.73,0.048,1.508,0.071,2.331,0.071
			c1.552,0,3.194-0.092,4.933-0.28c1.732-0.185,3.287-0.51,4.659-0.976c0-0.09,0.181-0.299,0.546-0.625
			c0.365-0.324,0.776-0.72,1.233-1.184c0.548-0.557,1.325-1.021,2.329-1.395c1.006-0.368,2.831-0.556,5.482-0.556v15.04
			c0,1.115-0.137,1.765-0.41,1.949c-0.276,0.187-1.283,0.279-3.016,0.279h-2.467c-1.645-2.6-3.381-4.2-5.205-4.804
			c-1.829-0.604-3.794-0.906-5.895-0.906h-6.574c-0.459,0-1.055,0-1.784,0c-0.731,0-1.461,0-2.19,0
			c-0.641,0-1.234,0.024-1.781,0.071c-0.549,0.047-0.871,0.066-0.961,0.066c-0.182,0-0.502-0.066-0.958-0.206
			c-0.458-0.14-0.685-0.301-0.685-0.488l-0.959,1.67l0.409-0.279v2.787c0,1.763-0.022,4.108-0.067,7.032
			c-0.047,2.922-0.113,6.012-0.205,9.262c-0.093,3.25-0.161,6.452-0.207,9.607s-0.068,5.849-0.068,8.076v15.738l-0.138-0.278
			c0.458,1.207,1.599,1.972,3.428,2.297c1.825,0.326,3.698,0.488,5.616,0.488c0.823,0,1.645-0.023,2.468-0.072
			c0.821-0.045,1.552-0.067,2.192-0.067h2.055c1.461,0,3.06-0.092,4.795-0.282c1.734-0.183,3.473-0.508,5.208-0.973
			c1.734-0.463,3.331-1.112,4.795-1.949c1.461-0.835,2.649-1.951,3.563-3.341c0.183-0.186,0.455-0.768,0.822-1.74
			c0.362-0.976,0.592-1.556,0.686-1.742c0.547-1.115,1.779-1.671,3.698-1.671h1.919l11.098,10.582V283.085z M489.658,367.874
			c-0.738,0.65-1.65,1.326-2.729,2.022h0.146c-0.197,0.202-0.418,0.402-0.662,0.601c-0.248,0.2-0.57,0.701-0.959,1.5
			c-0.689,1.399-1.084,3.197-1.18,5.394c-0.102,2.198-0.15,4.247-0.15,6.145v54.4c0,0.698-0.562,1.096-1.693,1.196
			c-1.131,0.1-2.043,0.15-2.727,0.15h-1.918c-7.865-1.898-15.754-4.171-23.666-6.819c-7.914-2.646-15.215-6.466-21.898-11.464
			h-0.146v-0.147l0.146,0.147h0.295c-6.98-5.492-12.51-11.885-16.59-19.183c-4.078-7.29-6.119-15.231-6.119-23.826
			c0-6.593,0.961-13.136,2.877-19.632c1.916-6.492,4.793-12.366,8.623-17.608c3.836-5.246,8.651-9.49,14.454-12.737
			c5.799-3.247,12.533-4.872,20.201-4.872c4.816,0,9.365,0.625,13.641,1.873c4.273,1.25,8.379,3.023,12.311,5.321h4.133
			c1.373,0,2.307,0.2,2.797,0.598c0.492,0.4,0.74,0.752,0.74,1.051c0,0.3-0.764,1.274-2.285,2.922
			c-1.523,1.647-3.195,3.372-5.014,5.17c-1.82,1.799-4.303,4.197-7.447,7.192h-3.391c-0.689-5.094-2.436-9.14-5.238-12.138
			c-2.799-2.996-6.41-4.496-10.836-4.496c-4.424,0-8.16,1.198-11.205,3.597c-3.049,2.397-5.482,5.42-7.299,9.067
			c-1.824,3.648-3.123,7.717-3.908,12.214c-0.789,4.494-1.178,8.841-1.178,13.038c0,5.296,0.365,10.615,1.104,15.96
			c0.736,5.344,2.014,10.417,3.832,15.21c1.82,4.795,4.227,9.193,7.227,13.187c2.998,3.997,6.76,7.246,11.281,9.743h-0.148
			c0.295,0.2,0.613,0.376,0.961,0.523c0.34,0.149,0.709,0.325,1.105,0.523c0.783,0.502,1.67,1.028,2.654,1.576
			c0.98,0.547,1.916,0.974,2.801,1.271v-45.555c0-0.1-0.025-0.451-0.074-1.05c-0.055-0.601-0.098-1.224-0.146-1.874
			c-0.053-0.648-0.1-1.322-0.15-2.022c-0.049-0.698-0.072-1.197-0.072-1.5c-0.199-1.799-0.664-3.193-1.4-4.194
			c-0.738-0.999-1.498-1.896-2.285-2.697l-1.475-1.5l1.621-1.199c4.521-0.097,8.135-0.172,10.836-0.225
			c2.705-0.049,4.963-0.099,6.785-0.147c1.818-0.051,3.416-0.101,4.791-0.152c1.379-0.05,3.047-0.074,5.018-0.074h0.439
			c1.182,0,2.188,0.126,3.021,0.374c0.836,0.253,1.256,0.727,1.256,1.424C490.764,366.651,490.395,367.226,489.658,367.874z
			 M522.139,329.735v0.149l-1.473,1.498l0.295-0.147c-0.787,1.097-1.6,2.298-2.432,3.595c-0.838,1.301-1.252,2.847-1.252,4.645
			v86.472c0,1.397,0.168,2.396,0.514,2.996c0.344,0.601,0.711,1.149,1.107,1.648c0.49,0.699,0.979,1.348,1.475,1.949
			c0.488,0.598,0.738,1.001,0.738,1.198v0.149c0,0.4-0.15,0.85-0.445,1.35c-0.293,0.498-1.328,0.749-3.098,0.749h-23.592
			c-1.768,0-2.801-0.251-3.096-0.749c-0.295-0.5-0.443-0.85-0.443-1.048v-0.302c2.557-1.698,4.105-3.92,4.646-6.667
			c0.539-2.749,0.809-5.57,0.809-8.468v-76.579c0-2.196-0.145-3.82-0.443-4.87c-0.293-1.05-0.932-2.372-1.912-3.974l0.439,0.151
			c-0.789-0.798-1.229-1.298-1.328-1.498c-0.293-0.397-0.539-0.724-0.734-0.975c-0.201-0.247-0.396-0.474-0.592-0.674v0.148
			l-0.295-0.299c0.098,0,0.199,0.053,0.295,0.15l-0.441-0.751c0.592-0.397,1.275-0.847,2.064-1.349c0.688,0,2.086-0.022,4.203-0.074
			c2.111-0.048,4.102-0.124,5.971-0.225c1.867-0.097,3.588-0.149,5.16-0.149c1.67,0,2.803,0,3.395,0h7.812
			c1.375,0.4,2.188,0.75,2.432,1.049c0.246,0.298,0.371,0.55,0.371,0.748C522.289,329.686,522.24,329.735,522.139,329.735z
			 M590.076,435.087c-0.641,0.699-1.473,1.273-2.508,1.723c-1.033,0.451-2.137,0.774-3.316,0.975
			c-1.18,0.198-2.312,0.348-3.393,0.449c-0.197,0-0.736,0.05-1.621,0.152c-0.885,0.096-1.844,0.172-2.877,0.222
			c-1.031,0.05-1.988,0.1-2.875,0.151c-0.883,0.049-1.426,0.072-1.621,0.072h-0.59c-0.199,0-0.42-0.023-0.666-0.072
			c-0.242-0.052-0.467-0.076-0.662-0.076c-0.688-0.101-1.377-0.201-2.064-0.297c-0.688-0.103-1.277-0.203-1.768-0.303l0.146,0.15
			l-1.326-0.15h1.18l-19.318-5.244c-1.082-0.299-2.188-0.473-3.318-0.523c-1.131-0.05-2.238-0.077-3.316-0.077h-1.031
			c-0.689,0-1.477,0.101-2.361,0.302c-0.885,0.2-1.768,0.4-2.652,0.598c-0.887,0.203-1.824,0.376-2.803,0.524
			c-0.98,0.152-2.115,0.226-3.391,0.226h-0.295c-1.084,0-2.016-0.073-2.803-0.226c-0.785-0.148-1.18-0.674-1.18-1.573
			c0.787-0.9,1.275-1.447,1.475-1.647l-0.883,0.6c0-0.098,0.268-0.45,0.809-1.049c0.539-0.601,0.91-0.998,1.107-1.199l-0.736,0.3
			c0.195-0.398,0.439-1.224,0.736-2.474c0.295-1.249,0.539-2.224,0.736-2.923v0.149c0.49-11.285,0.885-22.526,1.182-33.72
			c0.293-11.184,0.441-22.476,0.441-33.864v-19.334c-0.201-1.398-0.59-2.722-1.18-3.971c-0.592-1.25-1.084-2.223-1.477-2.923
			l0.592,0.301c-0.1-0.098-0.295-0.324-0.592-0.677c-0.293-0.347-0.492-0.571-0.588-0.673v-0.3c0-0.199,0.121-0.45,0.367-0.749
			c0.244-0.3,1.057-0.648,2.436-1.047h1.621c0.193,0,0.367-0.024,0.516-0.078c0.148-0.048,0.27-0.074,0.365-0.074
			c1.477,0,2.926,0.026,4.352,0.074c1.426,0.054,2.828,0.128,4.205,0.228c1.473,0.099,2.947,0.174,4.424,0.224
			c1.473,0.051,2.994,0.075,4.57,0.075h3.242c1.279,0.699,2.016,1.123,2.211,1.271c0.197,0.151,0.299,0.327,0.299,0.524
			c0,0.404-0.223,0.853-0.664,1.35c-0.441,0.503-0.91,1.001-1.402,1.5c-0.098,0.4-0.246,0.949-0.443,1.649
			c-0.787,2.3-1.301,4.746-1.545,7.342c-0.248,2.598-0.369,5.347-0.369,8.241v10.041c-0.1,4.099-0.199,8.169-0.297,12.214
			c-0.1,4.046-0.246,8.118-0.443,12.215c-0.197,6.595-0.393,13.113-0.588,19.556c-0.199,6.443-0.293,12.963-0.293,19.557
			c0,0.947-0.223,1.408-0.657,1.392c3.271,0.38,6.054,0.665,8.323,0.857c2.359,0.201,4.961,0.3,7.816,0.3
			c3.732,0,7.123-0.649,10.172-1.947c3.047-1.3,6.195-3.247,9.439-5.846c0.883-0.302,1.447-0.475,1.693-0.524
			s0.664-0.075,1.252-0.075c1.082,0,2.016,0.125,2.803,0.375s1.182,0.775,1.182,1.573c0,0.203,0.021,0.398,0.072,0.598
			c0.049,0.203,0.074,0.403,0.074,0.602c0.195,1.796,0.416,3.823,0.664,6.067c0.244,2.249,0.369,4.371,0.369,6.371
			C591.035,433.541,590.715,434.388,590.076,435.087z M675.471,426.845c0,1.998-1.105,3.695-3.316,5.094
			c-2.215,1.402-4.77,2.574-7.668,3.522c-2.902,0.95-5.754,1.65-8.555,2.099c-2.801,0.451-4.844,0.674-6.119,0.674h-2.062
			l-35.096-5.545h-2.506c-0.496,0.201-1.574,0.55-3.244,1.05c-1.672,0.502-3.098,0.999-4.279,1.499
			c-0.393,0.199-0.686,0.298-0.883,0.298c0.297,0,0.539-0.048,0.736-0.149c-0.297,0.202-0.566,0.324-0.811,0.375
			c-0.246,0.048-0.762,0.323-1.547,0.825h-1.475c-2.754,0-4.129-0.6-4.129-1.798v-0.302l1.621-3.298
			c0.197-0.496,0.467-0.994,0.811-1.496c0.346-0.496,0.615-0.949,0.812-1.35l-0.445,0.45c0-0.099,0.049-0.248,0.15-0.45
			c0.195-0.398,0.295-0.845,0.295-1.349c0.098-0.396,0.195-1.048,0.293-1.947c0.096-0.9,0.223-1.824,0.369-2.773
			c0.146-0.946,0.271-1.847,0.365-2.697c0.098-0.847,0.152-1.472,0.152-1.874c0-1.397,0-3.846,0-7.341
			c0-3.498,0.047-7.243,0.148-11.239c0.098-3.998,0.168-7.744,0.219-11.24c0.049-3.497,0.074-5.945,0.074-7.345v-35.066
			c-0.1-1.799-0.195-3.422-0.293-4.869c-0.102-1.448-0.324-2.798-0.666-4.049c-0.344-1.247-0.859-2.446-1.549-3.596
			c-0.688-1.149-1.621-2.372-2.801-3.671v-2.101c3.145,0,6.732,0.027,10.764,0.077c4.031,0.051,7.617,0.126,10.766,0.226
			c3.145,0.1,6.242,0.175,9.291,0.223c3.041,0.052,6.141,0.076,9.287,0.076h16.961c0.191-0.199,0.461-0.351,0.809-0.449
			c0.344-0.099,0.613-0.25,0.811-0.448c0.195-0.1,0.344-0.25,0.441-0.452c0.098-0.198,0.271-0.374,0.52-0.526
			c0.24-0.146,0.588-0.271,1.027-0.373c0.445-0.1,1.156-0.148,2.141-0.148c0.684,0,1.152,0.049,1.4,0.148
			c0.244,0.102,0.908,0.4,1.99,0.899l8.111,15.437c0,0.698-0.422,1.149-1.254,1.347c-0.838,0.203-1.795,0.302-2.877,0.302
			c-1.377,0-2.334-0.099-2.873-0.302c-0.541-0.197-1.01-0.496-1.402-0.898h0.443c-0.199-0.198-0.369-0.396-0.514-0.598
			c-0.15-0.2-0.422-0.398-0.814-0.601h0.148c-2.164-1.098-4.201-2.071-6.119-2.923c-1.918-0.846-3.959-1.472-6.121-1.873h0.297
			c-0.986-0.097-2.607-0.197-4.867-0.299c-2.262-0.097-4.721-0.248-7.373-0.45c-2.654-0.198-5.186-0.374-7.594-0.524
			c-2.41-0.149-4.057-0.273-4.939-0.374h-2.508c-0.096,0.201-0.145,0.502-0.145,0.898v24.127l-0.887-0.599l0.887,0.898
			c0.883,0,1.891,0.027,3.02,0.075c1.133,0.055,2.041,0.076,2.73,0.076c0.49,0,1.055,0.024,1.695,0.075
			c0.639,0.05,1.301,0.075,1.99,0.075c0.785,0,1.57,0.023,2.359,0.074c0.785,0.051,1.623,0.074,2.506,0.074
			c1.672,0,3.441-0.098,5.309-0.299c1.869-0.2,3.539-0.548,5.014-1.05c0-0.1,0.195-0.323,0.59-0.672
			c0.395-0.351,0.834-0.774,1.328-1.274c0.588-0.601,1.424-1.102,2.506-1.5c1.08-0.398,3.047-0.601,5.9-0.601v16.186
			c0,1.199-0.148,1.901-0.445,2.1c-0.295,0.2-1.379,0.298-3.24,0.298h-2.66c-1.768-2.795-3.633-4.519-5.602-5.169
			c-1.967-0.65-4.078-0.976-6.336-0.976h-7.082c-0.49,0-1.131,0-1.914,0c-0.789,0-1.574,0-2.361,0c-0.688,0-1.328,0.028-1.916,0.074
			c-0.59,0.054-0.936,0.077-1.033,0.077c-0.199,0-0.539-0.077-1.031-0.225c-0.492-0.149-0.738-0.325-0.738-0.525l-1.029,1.8
			l0.441-0.302v2.999c0,1.897-0.025,4.42-0.074,7.567c-0.053,3.146-0.125,6.469-0.223,9.965c-0.1,3.5-0.172,6.944-0.219,10.341
			c-0.053,3.396-0.078,6.292-0.078,8.692v16.935l-0.145-0.302c0.49,1.3,1.717,2.123,3.688,2.473c1.963,0.351,3.98,0.523,6.043,0.523
			c0.887,0,1.771-0.021,2.654-0.074c0.885-0.048,1.672-0.073,2.363-0.073h2.207c1.572,0,3.293-0.101,5.162-0.299
			c1.865-0.2,3.734-0.548,5.604-1.053c1.865-0.496,3.588-1.195,5.16-2.095c1.572-0.9,2.852-2.101,3.834-3.598
			c0.197-0.202,0.492-0.824,0.885-1.874c0.391-1.049,0.637-1.672,0.736-1.872c0.592-1.198,1.918-1.799,3.982-1.799h2.064
			l11.945,11.391V426.845z M674.441,228.289c-0.684,0.604-1.529,1.231-2.535,1.878h0.139c-0.186,0.188-0.391,0.374-0.619,0.558
			c-0.227,0.187-0.523,0.65-0.889,1.392c-0.641,1.301-1.006,2.972-1.096,5.013c-0.092,2.044-0.137,3.946-0.137,5.709v50.55
			c0,0.65-0.527,1.021-1.576,1.114c-1.053,0.092-1.896,0.139-2.535,0.139h-1.781c-7.311-1.764-14.641-3.874-21.992-6.336
			c-7.355-2.459-14.137-6.008-20.346-10.652h-0.137v-0.14l0.137,0.14h0.271c-6.486-5.104-11.625-11.046-15.414-17.826
			c-1.736-3.103-3.056-6.34-3.996-9.697c0.064,4.225,0.121,8.418,0.158,12.553c0.047,5.154,0.068,10.328,0.068,15.528v10.306
			l-1.096,2.088h-6.717c-1.277,0-2.051-0.116-2.328-0.35c-0.273-0.229-0.775-1.089-1.508-2.575
			c-0.088-0.369-0.182-0.836-0.271-1.393c-0.094-0.558-0.229-1.344-0.41-2.369c-0.188-1.018-0.322-1.948-0.414-2.784
			c-0.092-0.834-0.184-1.437-0.273-1.811v-0.696l0.139,0.279l-3.016-9.609l0.273,0.139l-7.945-13.786h0.41l-32.475-34.395v43.169
			l1.508,15.318c0.09,1.113,0.502,2.208,1.234,3.272c0.73,1.069,1.457,2.067,2.189,2.995c0.732,0.93,1.6,2.043,2.604,3.34
			c0,1.114-0.732,1.767-2.191,1.951c-1.461,0.185-2.74,0.277-3.836,0.277h-17.268c-0.543,0-1.393-0.208-2.531-0.625
			c-1.143-0.418-1.715-0.857-1.715-1.324c1.83-1.484,3.266-3.204,4.318-5.15c1.049-1.953,1.85-4.017,2.396-6.198
			c0.547-2.182,0.912-4.435,1.098-6.754c0.18-2.32,0.271-4.642,0.271-6.964v-18.52c0-0.837-0.021-1.972-0.064-3.411
			c-0.049-1.439-0.07-3.087-0.07-4.946c0-1.948-0.025-4.037-0.07-6.266c-0.047-2.226-0.066-4.455-0.066-6.685
			c-0.092-4.455-0.162-8.704-0.209-12.742c-0.043-4.038-0.064-6.89-0.064-8.562c-0.277-2.877-0.848-5.153-1.713-6.824
			c-0.834-1.601-2.203-3.286-4.079-5.057c0.23,0.407,0.358,0.708,0.358,0.878v0.279c-1.553,1.301-2.762,2.809-3.631,4.525
			c-0.867,1.72-1.301,3.691-1.301,5.919v95.532c0,1.669,0.227,2.922,0.686,3.759c0.455,0.836,0.912,1.532,1.371,2.088h-0.139
			c1.371,1.673,2.055,2.646,2.055,2.924v0.42c0,0.369-0.137,0.742-0.41,1.112c-0.273,0.372-1.188,0.558-2.74,0.558h-0.686
			l-22.059-5.014c-1.281-0.371-2.037-0.721-2.264-1.043c-0.229-0.328-0.342-0.582-0.342-0.768c0-0.187,0.25-0.51,0.754-0.973
			c0.502-0.468,1.117-0.978,1.852-1.533c0.18-0.188,0.34-0.372,0.479-0.556c0.137-0.188,0.342-0.607,0.615-1.255
			c0.182-0.372,0.365-0.974,0.549-1.81c0.182-0.836,0.275-1.349,0.275-1.533c0-0.369,0.02-1.043,0.068-2.019
			c0.045-0.975,0.088-2.019,0.135-3.132c0.047-1.114,0.09-2.182,0.139-3.203c0.045-1.022,0.066-1.763,0.066-2.228v-71.163
			c0-0.369-0.021-1.113-0.066-2.228c-0.049-1.114-0.092-2.319-0.139-3.62c-0.047-1.298-0.09-2.553-0.135-3.76
			c-0.049-1.205-0.068-2.088-0.068-2.645c-0.094-1.116-0.297-2.02-0.617-2.716c-0.32-0.697-0.709-1.324-1.166-1.881
			c-0.256-0.37-0.485-0.708-0.711-1.041c-0.171,0.393-0.291,0.693-0.357,0.902l0.271-0.279c-0.271,0.744-0.5,1.347-0.684,1.812
			c-0.186,0.65-0.367,1.231-0.549,1.739c-0.184,0.512-0.32,0.861-0.41,1.045l0.135-0.14v0.14l-23.156,88.15
			c-0.184,0.743-0.684,1.371-1.508,1.877c-0.822,0.513-1.916,0.769-3.287,0.769c-1.555,0-2.627-0.14-3.219-0.418
			c-0.598-0.278-0.984-0.79-1.166-1.533l-11.51-34.116l0.686,0.277c-0.186-0.184-0.459-0.488-0.822-0.905
			c-0.367-0.417-0.549-0.672-0.549-0.765v0.139c-0.184-0.465-0.41-1.229-0.686-2.297c-0.275-1.067-0.639-2.204-1.096-3.413
			l-10.961,41.358l0.135-0.139c0,0.096-0.021,0.188-0.064,0.28c-0.051,0.092-0.07,0.187-0.07,0.276
			c-0.186,0.837-0.48,1.439-0.891,1.809c-0.41,0.373-1.531,0.56-3.357,0.56c-1.094,0-2.057-0.095-2.877-0.277
			c-0.822-0.188-1.324-0.651-1.506-1.394v0.14l-25.079-75.896h0.138c-0.182-0.184-0.272-0.324-0.272-0.418l0.547,0.279l-1.031-1.048
			c0.028,0.08,0.055,0.159,0.072,0.212l-0.137-0.278l0.064,0.066c-0.116-0.34-0.317-0.911-0.611-1.737
			c-0.366-1.02-0.734-2.157-1.098-3.412c-0.365-1.252-0.709-2.413-1.027-3.48c-0.32-1.066-0.525-1.741-0.617-2.02l0.137,0.141
			c-0.09-0.28-0.252-0.649-0.479-1.115c-0.229-0.464-0.436-0.926-0.616-1.393c-0.185-0.463-0.457-1.113-0.823-1.949
			c-0.457-0.558-0.87-1.09-1.232-1.601c-0.367-0.51-0.684-0.906-0.961-1.184c-1.006-0.928-1.965-1.855-2.875-2.786
			c-0.914-0.926-1.372-1.671-1.372-2.228c0-0.37,0.252-0.696,0.755-0.975c0.5-0.278,1.049-0.487,1.643-0.625
			c0.594-0.14,1.166-0.23,1.714-0.279c0.548-0.047,0.913-0.069,1.097-0.069h21.102c1.645,0,2.602,0.232,2.877,0.695
			c0.275,0.466,0.412,0.791,0.412,0.976c0,0.465-0.186,0.999-0.551,1.602c-0.365,0.604-0.775,1.277-1.232,2.019h0.139
			c-0.275,0.465-0.504,0.905-0.686,1.323c-0.186,0.417-0.275,1.043-0.275,1.88v0.277l-0.137-0.138l10.551,34.675l-0.273-0.138
			l1.232,2.087l6.166,20.193l5.619-21.167l0.684-1.671l-0.137,0.138l4.387-18.937c0.18-0.186,0.361-0.302,0.547-0.349
			c0.184-0.047,0.363-0.16,0.547-0.348c0-0.463,0.113-0.717,0.342-0.767c0.229-0.044,1.072-0.07,2.535-0.07
			c2.01,0,3.152,0.328,3.426,0.976l15.074,41.638l13.838-51.107l-0.137,0.139v-0.278c0-0.557,0.227-1.438,0.686-2.646v0.138
			c0.09-0.185,0.158-0.324,0.205-0.418c0.045-0.09,0.068-0.462,0.068-1.113c0.275-1.67,0.457-3.411,0.549-5.223
			c0.09-1.81,0.135-3.642,0.135-5.5h14.252v1.949c-0.063,0.13-0.173,0.366-0.324,0.696h22.223c1.313,0,2.165,0.168,2.564,0.5
			c0.028-0.263,0.248-0.543,0.676-0.848c0.455-0.325,1.32-0.488,2.602-0.488h24.525c0,1.208-0.068,1.998-0.205,2.368
			c-0.135,0.372-0.295,0.745-0.479,1.114c-0.367,0.745-0.664,1.487-0.891,2.228c-0.23,0.745-0.344,1.58-0.344,2.507
			c0,2.043,0.455,3.808,1.371,5.292c0.908,1.479,1.912,2.82,3.001,4.022l31.116,30.93l0.275,0.417c0-0.835,0-1.671,0-2.506
			c0-0.927,0.043-1.902,0.139-2.924c0.088-2.412,0.158-4.687,0.203-6.823c0.047-2.135,0.068-3.62,0.068-4.456v-3.482
			c0-4.828-0.047-9.909-0.135-15.248c-0.094-5.338-0.365-10.467-0.824-15.388c-0.273-2.691-1.006-5.152-2.191-7.381l0.137,0.141
			c-0.457-0.649-0.754-1.045-0.893-1.184c-0.135-0.14-0.252-0.302-0.34-0.488c-0.732-0.742-1.463-1.438-2.193-2.09
			c-0.734-0.648-1.096-1.205-1.096-1.67c0.09-0.185,0.273-0.418,0.549-0.697c0.547-0.184,1.734-0.671,3.561-1.461
			c1.828-0.787,3.518-1.553,5.07-2.297c1.553-0.742,3.082-1.414,4.59-2.02c1.508-0.603,2.537-1.043,3.086-1.322
			c0.088,0,0.225-0.091,0.408-0.279h-0.137c0.365-0.185,0.801-0.417,1.303-0.696c0.502-0.278,1.027-0.464,1.576-0.557h-0.412
			c0.184-0.091,0.32-0.139,0.412-0.139c0.182,0,0.547,0,1.096,0c0.912,0,1.803,0.093,2.672,0.278
			c0.816,0.177,1.234,0.564,1.282,1.15c0.006-0.012,0.012-0.025,0.019-0.037v0.14c0-0.038-0.016-0.067-0.019-0.103
			c-1.089,2.034-2.089,4.248-2.995,6.648c-0.914,2.415-1.555,4.968-1.92,7.659v-0.14c-0.09,0.745-0.182,2.02-0.273,3.83
			c-0.09,1.81-0.205,3.759-0.342,5.848c-0.137,2.089-0.252,4.039-0.344,5.85c-0.09,1.81-0.137,3.087-0.137,3.83v15.039
			c0,2.936,0.009,5.836,0.022,8.714c0.359-1.701,0.782-3.399,1.282-5.093c1.779-6.034,4.451-11.489,8.014-16.363
			c3.562-4.874,8.037-8.819,13.428-11.836c5.389-3.017,11.646-4.526,18.773-4.526c4.475,0,8.701,0.582,12.676,1.741
			c3.973,1.162,7.785,2.81,11.439,4.943h3.836c1.279,0,2.146,0.188,2.604,0.557c0.457,0.373,0.688,0.697,0.688,0.975
			c0,0.279-0.709,1.184-2.127,2.716c-1.416,1.531-2.967,3.134-4.658,4.804c-1.689,1.672-3.996,3.9-6.92,6.686h-3.15
			c-0.639-4.734-2.26-8.495-4.863-11.28c-2.604-2.785-5.963-4.178-10.072-4.178c-4.111,0-7.584,1.114-10.414,3.341
			c-2.832,2.228-5.094,5.038-6.781,8.425c-1.691,3.389-2.9,7.172-3.631,11.349c-0.732,4.178-1.096,8.216-1.096,12.116
			c0,4.924,0.34,9.865,1.027,14.832c0.684,4.966,1.871,9.679,3.562,14.136c1.688,4.455,3.924,8.541,6.715,12.253
			c2.783,3.712,6.277,6.731,10.482,9.052h-0.139c0.273,0.185,0.57,0.348,0.891,0.487s0.662,0.303,1.027,0.488
			c0.73,0.464,1.553,0.952,2.465,1.46c0.914,0.511,1.785,0.904,2.607,1.186v-42.333c0-0.092-0.027-0.418-0.07-0.978
			c-0.049-0.556-0.092-1.135-0.139-1.739c-0.045-0.601-0.092-1.231-0.137-1.881c-0.045-0.647-0.066-1.114-0.066-1.392
			c-0.186-1.67-0.617-2.969-1.303-3.899c-0.686-0.925-1.393-1.762-2.123-2.508l-1.371-1.39l1.504-1.115
			c4.203-0.093,7.561-0.163,10.074-0.21c2.512-0.044,4.611-0.09,6.303-0.138c1.688-0.047,3.174-0.092,4.453-0.139
			c1.281-0.046,2.832-0.071,4.658-0.071h0.412c1.096,0,2.033,0.118,2.809,0.348c0.775,0.233,1.166,0.676,1.166,1.325
			C675.471,227.15,675.129,227.685,674.441,228.289z"/>
		<path fill="#FFFFFF" d="M378.683,378.657h-0.695l-0.174,0.354h1.22C378.567,379.012,378.45,378.896,378.683,378.657z"/>
		<path fill="#FFFFFF" d="M350.279,378.835c-0.346,0.12-0.639,0.177-0.871,0.177h28.406l-13.594-41.618l-9.758,29.219l0.172-0.353
			v0.531l-4.007,11.512l0.175-0.354v0.354C350.802,378.543,350.627,378.717,350.279,378.835z"/>
	</g>
	<g>
		<path fill="#FFFFFF" d="M247.782,388.19l1.5,1.616c0,0,1.115,2.664-0.913,4.853c-1.334,0.694-2.802,1.041-4.403,1.041
			c-1.548,0-3.016-0.347-4.404-1.041c-1.388-1.334-2.429-3.361-3.122-6.083c-0.961-3.79-1.601-6.007-1.922-6.646
			c-0.267-0.053-0.561-0.081-0.881-0.081c-0.96,0-2.269,0.454-3.923,1.361c-1.869,1.014-3.256,1.603-4.164,1.762
			c-2.989,1.228-6.218,1.84-9.687,1.84c-5.925,0-11.636-1.628-17.133-4.882c-3.736-2.937-6.725-6.578-8.967-10.93
			c-2.242-4.351-3.362-8.791-3.362-13.331c0-4.695,1.053-9.537,3.162-14.53c2.108-4.99,4.87-9.058,8.287-12.209
			c1.547-1.014,4.43-2.268,8.646-3.763c3.95-0.426,7.046-0.641,9.287-0.641c2.348,0,4.536,0.188,6.565,0.56
			c2.242,1.281,5.389,2.181,9.158,2.582c2.536,0.271,2.536,0.271,4.205,0.271c1.144,0,1.743,0.036,3.372,0
			c2.638-0.058,2.605-0.52,3.459-0.52c0.532,0,1.378-0.559,1.966-0.292c0.053,0.158,0.013,0.461,0.024,0.812
			c0.128,3.808,0.058,2.54,0.111,2.7c-1.175,2.723-2.389,0.72-3.562,3.495c-1.28,3.202-2.081,6.113-2.401,8.727
			c0.053,2.188,0.026,5.07-0.08,8.646c-0.107,4.271-0.16,7.073-0.16,8.407c0,7.474,0.934,13.663,2.802,18.573
			c0.32,0.908,0.933,1.748,1.842,2.522c0.907,0.772,1.464,1.688,2.185,2.467c0.815,0.88,1.546,1.669,1.546,1.669L247.782,388.19z
			 M207.058,374.404c0.106-2.081,0.161-4.351,0.161-6.806c0-2.453-0.068-6.109-0.201-10.968c-0.134-4.855-0.2-8.459-0.2-10.807
			c0-3.205,0.079-6.087,0.24-8.647c0.053-0.212,0-0.348-0.161-0.401c-0.107-0.052-0.267-0.052-0.48,0
			c-0.214,0.054-0.4,0.136-0.561,0.24c-2.722,5.817-4.19,13.424-4.404,22.818c0.534,2.56,1.067,5.097,1.602,7.605
			c0.693,2.989,1.627,5.31,2.802,6.965c0.106,0.215,0.32,0.319,0.641,0.319C206.818,374.724,207.003,374.619,207.058,374.404z
			 M232.998,367.117c0.747-3.306,1.121-6.669,1.121-10.086c0-8.112-1.842-14.732-5.525-19.854c-2.83-3.949-6.084-5.926-9.768-5.926
			c-0.694,0-1.375,0.095-2.042,0.28c-0.667,0.189-1.56,0.682-2.681,1.481c-1.281,2.349-1.921,5.338-1.921,8.968
			c0,1.014,0.052,2.375,0.16,4.082c0.16,2.295,0.24,3.71,0.24,4.244c0.107,2.028,0.934,2.936,2.482,2.721
			c2.242-0.053,4.563-1.065,6.965-3.043c1.868-1.653,3.735-3.307,5.604-4.964c0.801,0.215,1.254,0.804,1.362,1.762
			c0.052,0.749,0.106,1.522,0.16,2.322c-0.213,2.028-0.32,4.804-0.32,8.327c0.053,4.11,0.026,6.886-0.08,8.325
			c-0.161,0.373-0.561,0.883-1.201,1.521c-0.268,0.108-0.508,0.161-0.72,0.161c-0.641,0-1.121-0.506-1.441-1.521
			c-0.427-1.28-0.721-2.027-0.88-2.241c-1.015-0.748-2.03-1.495-3.042-2.241c-1.229-0.854-2.35-1.443-3.363-1.763
			c-2.242-0.693-4.083-0.64-5.524,0.161c0.161,1.334,0.161,4.642,0,9.926c-0.16,4.113,0.161,7.394,0.961,9.85
			c0.64,0.854,1.761,1.28,3.362,1.28c0.694,0,1.948-0.161,3.763-0.48C226.218,379.397,230.328,374.964,232.998,367.117z"/>
		<path fill="#FFFFFF" d="M292.883,351.357c-0.106,1.267-0.159,3.003-0.159,5.214v1.975c0,5.058-0.502,8.797-1.505,11.221
			c-1.374,3.266-3.565,6.769-6.575,10.507c-1.849,2.264-4.673,3.844-8.476,4.74c-3.327,0.526-6.654,1.08-9.981,1.66
			c-1.479-0.159-5.572-0.319-12.278-0.477c-5.017-0.158-9.083-0.634-12.198-1.426c-1.321-0.054-3.143,0.185-5.465,0.713
			c-2.325,0.526-4.067,0.792-5.229,0.792c-0.582,0-1.162-0.053-1.743-0.158c-0.739-1.741-0.687-3.142,0.159-4.198
			c0.527-0.633,1.901-1.371,4.119-2.218c1.849-0.685,2.931-1.768,3.248-3.249c0.528-2.479,0.871-5.782,1.03-9.9
			c0.052-3.326,0.131-6.653,0.238-9.981c0.105-1.952-0.688-3.933-2.376-5.94c-2.43-2.955-2.298-4.596-2.508-5.019
			c0.21-0.582-0.873-0.923-0.344-0.923c0.21,0,0.62,0.095,1.228,0.28c0.606,0.184,1.068,0.276,1.386,0.276s0.581-0.054,0.792-0.159
			c2.745-0.316,6.257-1.294,10.535-2.931c5.07-1.903,8.528-3.062,10.376-3.486c0.369-0.105,0.911-0.382,1.624-0.831
			s1.28-0.672,1.703-0.672c0.264,0,0.528,0.053,0.792,0.156c0.052,0.213,0.08,0.425,0.08,0.636c0,0.369-0.186,0.924-0.555,1.663
			c-0.37,0.741-0.582,1.294-0.633,1.662c-0.106,1.216,0.051,2.852,0.476,4.911c0.475,2.534,0.739,4.095,0.792,4.673
			c-0.316,2.959-0.396,6.655-0.238,11.092c0.159,6.495,0.238,10.164,0.238,11.01c-0.053,1.004-0.107,2.033-0.159,3.09
			c-0.053,1.214,0.131,2.19,0.555,2.93c1.53,1.69,3.195,2.429,4.991,2.219c2.903-0.951,5.359-2.694,7.366-5.228
			c2.006-2.535,3.299-5.439,3.881-8.715c0.264-1.372,0.396-2.956,0.396-4.752c0-0.738-0.08-2.824-0.237-6.258
			c-0.106-2.586-0.106-4.699,0-6.336c-1.743-9.508-5.545-15.341-11.406-17.509c-6.127-0.684-10.853-0.633-14.179,0.159
			c-2.8,1.534-5.599,3.064-8.396,4.597c-3.327,1.53-6.337,2.294-9.031,2.294c-1.162,0-2.324-0.129-3.485-0.395
			c-1.004-0.792-1.981-1.609-2.931-2.457c-1.108-1.003-1.664-2.057-1.664-3.167c0-0.264,0.025-0.555,0.08-0.872
			c-0.054-1.689,0.806-0.234,3.078-2.294c1.32-0.632,2.615-0.132,3.514-0.132c0.528,0,1.938,0.033,1.938,0.033l0.394-0.219
			c0,0,1.163-0.027,2.008,0.077c1.426-0.152,5.65-1.017,12.674-2.591c5.175-1.125,9.558-1.607,13.149-1.448
			c7.815,0.368,13.941,3.001,18.377,7.899C287.364,338.164,290.875,343.982,292.883,351.357z M254.703,349.92
			c-0.106-0.478-0.238-0.99-0.396-1.545c-0.159-0.558-0.449-0.938-0.872-1.149c-0.845-0.211-1.69,0.186-2.535,1.188
			c-0.423,0.898-0.634,1.952-0.634,3.168c0,0.528,0.052,1.375,0.159,2.535c0.104,1.162,0.158,2.033,0.158,2.615
			c-0.212,1.478-0.317,3.143-0.317,4.989c0,1.478,0.132,4.038,0.396,7.683c0.211,3.38,0.29,5.994,0.238,7.842
			c0,0.159,0.238,0.609,0.713,1.349c0.686,0.264,1.478,0.156,2.376-0.319c0.844-1.688,1.267-3.747,1.267-6.177
			c0-0.635-0.37-3.854-1.109-9.663C254.834,357.63,255.019,353.457,254.703,349.92z"/>
		<path fill="#FFFFFF" d="M259.573,440.082c0,0.703-0.624,1.539-1.868,2.511c-2.222-0.216-5.716-0.459-10.482-0.73
			c-0.867-0.053-2.262,0.177-4.185,0.689c-1.922,0.516-3.345,0.773-4.265,0.773c-1.788,0-3.223-0.76-4.306-2.275
			c0.108-0.812,0.163-1.625,0.163-2.437c0-2.327-0.678-5.337-2.032-9.019c-1.462-4.009-2.302-6.96-2.518-8.856
			c-0.434-1.029-1.355-1.924-2.763-2.683c-3.684-0.433-6.257,0.545-7.719,2.936c-0.379,0.652-0.569,1.386-0.569,2.201
			c0,0.487,0.135,1.439,0.406,2.851c0.216,1.197,0.271,2.176,0.163,2.936c-0.109,1.034-0.109,2.229,0,3.587
			c0.053,1.142,0.133,2.31,0.241,3.504c1.447,0.654,2.918,1.305,4.42,1.959c1.605,0.976,2.462,2.254,2.57,3.829
			c0.054,0.433-0.122,0.733-0.528,0.897c-0.406,0.162-0.772,0.325-1.096,0.489c-0.867,0.053-1.788,0.081-2.763,0.081
			c-2.222,0-5.54-0.285-9.954-0.853c-4.415-0.569-7.678-0.854-9.791-0.854c-3.142,0-5.959,0.406-8.449,1.219
			c-0.326,0-1.03,0.081-2.114,0.243c-1.083,0.163-1.922,0.244-2.518,0.244c-1.735,0-2.925-0.569-3.575-1.706
			c0.377-1.57,2.002-2.735,4.875-3.494c2.87-0.757,4.439-2.084,4.712-3.981c0-3.953,0.271-9.914,0.812-17.875
			c0.163-4.875-2.112-8.449-6.825-10.725c-0.487-0.216-0.731-0.651-0.731-1.301c0.107-0.541,0.189-1.082,0.244-1.624
			c0.269-0.11,0.65-0.3,1.137-0.57c1.409,0.164,2.816,0.243,4.226,0.243c7.258,0,13.514-2.029,18.769-6.094
			c1.354-0.487,2.708-0.975,4.063-1.461c1.625-0.433,2.978-0.569,4.062-0.406c-0.109,0.649-0.569,2.385-1.381,5.199
			c-0.598,2.275-0.894,4.091-0.894,5.443c0,2.006,0.622,3.712,1.869,5.119c1.516,1.682,4.144,2.41,7.881,2.192
			c2.383-0.539,4.563-1.677,6.541-3.41c1.977-1.732,3.236-3.764,3.778-6.096c0.215-0.974,0.324-1.921,0.324-2.842
			c0-3.358-1.218-6.146-3.655-8.368c-1.518-1.029-2.655-1.734-3.413-2.114c-1.247-0.649-2.492-1.027-3.738-1.138
			c-1.841-0.487-3.71-0.729-5.605-0.729c-3.359,0-7.177,0.865-11.456,2.599c-3.575,1.571-7.15,3.143-10.725,4.713
			c-0.867-0.054-2.194,0-3.981,0.165c-2.059,0.268-3.495,0.405-4.307,0.405c-3.034,0-5.119-1.112-6.256-3.335
			c-0.324-1.189-0.487-2.3-0.487-3.329c0-2.545,1.002-4.334,3.007-5.362c2.328-0.542,4.658-0.839,6.987-0.894
			c0.433,1.462,0.704,2.329,0.812,2.599c0.487,0.977,1.165,1.585,2.032,1.829c0.866,0.244,1.733,0.365,2.6,0.365
			c2.058,0,4.997-0.8,8.815-2.397c3.82-1.596,6.866-2.396,9.142-2.396c7.476,0,12.106,0.081,13.894,0.242
			c5.038,0.433,9.344,1.621,12.919,3.565c1.3,1.404,2.626,2.836,3.982,4.295c1.678,1.838,2.734,3.458,3.168,4.862
			c0.108,3.673,0.027,6.43-0.244,8.266c-0.434,3.022-1.436,5.563-3.006,7.617c-1.246,0.918-2.492,1.863-3.737,2.834
			c-1.462,1.136-2.304,2.378-2.519,3.73c0.324,1.781,1.057,4.188,2.193,7.209c1.354,3.566,2.194,5.918,2.519,7.051
			c0.866,1.351,1.517,2.296,1.951,2.836c0.812,1.027,1.706,1.73,2.681,2.108c1.301,0.215,2.6,0.404,3.9,0.564
			C258.705,438.056,259.573,438.841,259.573,440.082z M213.829,435.281c-0.055-2.384,0-5.553,0.162-9.507
			c0.108-4.388,0.163-7.446,0.163-9.182c0-4.278-0.245-8.097-0.731-11.456c-0.055-0.378-0.243-0.839-0.569-1.381
			c-0.326-0.162-0.705-0.244-1.138-0.244c-0.975,0-1.897,0.408-2.763,1.219c-0.975,1.95-1.299,4.739-0.975,8.37
			c0.377,4.116,0.325,6.986-0.163,8.612c0.054,3.628,0.19,6.094,0.407,7.394c0.433,2.924,1.38,5.119,2.843,6.581
			c0.487,0.109,1.002,0.19,1.544,0.243C213.259,435.985,213.666,435.769,213.829,435.281z"/>
		<path fill="#FFFFFF" d="M288.682,440.812c-1.246,0.271-2.653,0.406-4.225,0.406c-1.299,0-3.223-0.136-5.768-0.406
			c-2.546-0.271-4.442-0.407-5.688-0.407c-1.733,0-3.331,0.191-4.793,0.57c-1.462,0.377-3.034,0.567-4.713,0.567
			c-2.384,0-5.231,1.783-7.026,0.719c-0.197-0.115-0.754-2.242-0.591-3.217c0.163-0.92,0.938-1.256,1.302-1.271
			c3.121-0.131,5.422-2.018,6.397-2.56c1.625-0.917,2.682-2.216,3.169-3.895c0.326-0.594,0.487-1.271,0.487-2.027
			c0-0.327-0.135-1.326-0.406-3.002c-0.217-1.244-0.19-2.273,0.081-3.084c0.216-1.298,0.325-2.814,0.325-4.543
			c0-1.677-0.161-4.328-0.487-7.953c-0.272-3.461-0.379-6.004-0.325-7.627c0-0.65,0.095-1.825,0.284-3.53
			c0.188-1.704,0.285-3.016,0.285-3.937c0-3.57-1.219-5.922-3.657-7.059c-1.419-0.593-3.186-1.38-3.186-1.38
			s-0.573-0.503-3.373-0.907c-0.492-0.07,0.14-1.404,0.627-2.459c0.487-1.055,0.975-1.637,1.462-1.746
			c9.1,0,15.653-0.431,19.663-1.296c1.678,0.16,3.357,0.323,5.036,0.486c2.004,0.271,3.548,0.866,4.631,1.787
			c0.109,2.384-0.649,3.818-2.274,4.307c-1.192-0.053-2.547,0.459-4.062,1.542c-1.572,1.574-2.303,4.524-2.194,8.856
			c0.325,16.956,0.406,27.331,0.244,31.121c0.594,3.847,1.869,6.039,3.818,6.582c0.812,0.056,2.302,0.378,4.468,0.974
			c0.379,0.216,0.623,1.004,0.732,2.357C289.088,440.081,289.007,440.759,288.682,440.812z"/>
	</g>
	<rect x="923.565" y="-69.391" fill="none" width="926.954" height="592.47"/>
	<text transform="matrix(1 0 0 1 923.5654 -20.7041)"><tspan x="0" y="0" font-family="'Primitive'" font-size="68" letter-spacing="-3">Experior,</tspan><tspan x="0" y="81.6" font-family="'Primitive'" font-size="68" letter-spacing="-3">Delinquo,</tspan><tspan x="0" y="163.2" font-family="'Primitive'" font-size="68" letter-spacing="-3">Rescisco,</tspan><tspan x="0" y="244.8" font-family="'Primitive'" font-size="68" letter-spacing="-3">Itero.</tspan></text>
</g>
</svg>
