<svg width="1068" height="211" viewBox="0 0 1068 211" fill="none" xmlns="http://www.w3.org/2000/svg">
<path d="M435.712 62.4559V79.4204H384.009V96.248H402.611C407.9 96.248 412.779 96.8409 417.247 98.0266C421.715 99.1211 425.773 100.854 429.42 103.225C433.068 105.506 435.895 108.698 437.901 112.802C439.998 116.906 441.047 121.649 441.047 127.03C441.047 137.337 437.399 145.272 430.104 150.835C422.809 156.399 413.964 159.181 403.569 159.181C391.988 159.181 382.55 156.809 375.255 152.067C368.051 147.324 364.404 139.708 364.312 129.219H382.231C382.231 133.962 384.328 137.382 388.523 139.48C392.809 141.487 397.733 142.49 403.295 142.49C408.402 142.49 412.961 141.213 416.973 138.659C421.077 136.105 423.128 132.229 423.128 127.03C423.22 122.105 421.259 118.548 417.247 116.359C413.235 114.17 408.356 113.076 402.611 113.076H366.364V62.4559H435.712Z" fill="#091540"/>
<path d="M521.735 62.4559V79.4204H470.032V96.248H488.634C493.923 96.248 498.801 96.8409 503.269 98.0266C507.738 99.1211 511.796 100.854 515.443 103.225C519.091 105.506 521.917 108.698 523.923 112.802C526.021 116.906 527.069 121.649 527.069 127.03C527.069 137.337 523.422 145.272 516.127 150.835C508.832 156.399 499.987 159.181 489.591 159.181C478.011 159.181 468.573 156.809 461.278 152.067C454.074 147.324 450.426 139.708 450.335 129.219H468.253C468.253 133.962 470.351 137.382 474.545 139.48C478.831 141.487 483.755 142.49 489.318 142.49C494.424 142.49 498.984 141.213 502.996 138.659C507.099 136.105 509.151 132.229 509.151 127.03C509.242 122.105 507.282 118.548 503.269 116.359C499.257 114.17 494.379 113.076 488.634 113.076H452.387V62.4559H521.735Z" fill="#091540"/>
<path d="M169.104 0.623573H161.017V13.2109C163.698 14.2058 166.422 15.2006 169.104 16.1955V0.623573Z" fill="#007FFF"/>
<path d="M169.103 19.6134C166.422 18.6185 163.698 17.6237 161.016 16.6288C138.399 8.36702 115.781 1.27315 93.1631 17.9697C93.1631 19.6999 93.1631 21.4301 93.1631 23.1171C93.1631 24.2417 93.1631 25.4096 93.1631 26.5343C115.781 9.83771 138.399 16.9316 161.016 25.1934V30.1677C163.698 31.1626 166.422 32.1575 169.103 33.1523V28.178C191.462 36.31 213.82 43.0578 236.135 26.5343C236.135 25.4096 236.135 24.2417 236.135 23.1171C236.135 21.3869 236.135 19.6567 236.135 17.9697C213.777 34.45 191.462 27.7454 169.103 19.6134Z" fill="#007FFF"/>
<path d="M169.103 53.5259C166.422 52.531 163.698 51.5362 161.016 50.5413C138.399 42.2795 115.781 35.1856 93.1631 51.8822C93.1631 53.6124 93.1631 55.3426 93.1631 57.0296C93.1631 58.1542 93.1631 59.3221 93.1631 60.4468C115.781 43.7502 138.399 50.8008 161.016 59.1058V64.0802C163.698 65.0751 166.422 66.07 169.103 67.0648V62.0905C191.462 70.2225 213.82 76.9703 236.135 60.4468C236.135 59.3221 236.135 58.1542 236.135 57.0296C236.135 55.2994 236.135 53.6124 236.135 51.8822C213.777 68.4057 191.462 61.7012 169.103 53.5259Z" fill="#007FFF"/>
<path d="M169.103 87.4801C166.422 86.4852 163.698 85.4903 161.016 84.4954C138.399 76.2337 115.781 69.1398 93.1631 85.8364C93.1631 87.5666 93.1631 89.2968 93.1631 91.027C93.1631 92.1516 93.1631 93.3195 93.1631 94.4442C115.781 77.7476 138.399 84.8415 161.016 93.1033V130.173C148.994 137.094 110.808 156.689 101.856 131.125C101.856 131.125 87.6276 191.596 164.649 210.542C241.67 191.596 227.442 131.125 227.442 131.125C218.663 156.126 181.904 137.916 169.06 130.606V96.0446C191.418 104.177 213.777 110.924 236.092 94.4009C236.092 93.2763 236.092 92.1084 236.092 90.9837C236.092 89.2535 236.092 87.5233 236.092 85.7931C213.777 102.36 191.462 95.6553 169.103 87.4801ZM195.829 151.325C188.348 155.261 175.763 149.681 169.103 146.134C166.422 144.707 164.649 143.582 164.649 143.582C164.649 143.582 163.222 144.491 161.016 145.702C154.616 149.205 141.253 155.434 133.468 151.325C144.583 148.384 155.524 142.587 161.016 139.43C163.308 138.132 164.649 137.224 164.649 137.224C164.649 137.224 166.336 138.305 169.103 139.862C174.812 143.15 185.234 148.513 195.829 151.325Z" fill="#007FFF"/>
<path d="M169.103 36.5683C166.422 35.5735 163.698 34.5786 161.016 33.5837C138.399 25.322 115.781 18.2281 93.1631 34.9246C93.1631 36.6549 93.1631 38.3851 93.1631 40.1153C93.1631 41.2399 93.1631 42.4078 93.1631 43.5325C115.781 26.8359 138.399 33.9298 161.016 42.1915V47.1659C163.698 48.1608 166.422 49.1557 169.103 50.1505V45.1762C191.462 53.3082 213.82 60.056 236.135 43.5325C236.135 42.4078 236.135 41.2399 236.135 40.1153C236.135 38.3851 236.135 36.6549 236.135 34.9246C213.777 51.4482 191.462 44.7004 169.103 36.5683Z" fill="#007FFF"/>
<path d="M169.103 70.5251C166.422 69.5303 163.698 68.5354 161.016 67.5405C138.399 59.2787 115.781 52.1849 93.1631 68.8814C93.1631 70.6116 93.1631 72.3419 93.1631 74.0721C93.1631 75.1967 93.1631 76.3646 93.1631 77.4892C115.781 60.7927 138.399 67.8433 161.016 76.1483V81.1227C163.698 82.1176 166.422 83.1124 169.103 84.1073V79.1329C191.462 87.2649 213.82 94.0128 236.135 77.4892C236.135 76.3646 236.135 75.1967 236.135 74.0721C236.135 72.3419 236.135 70.6116 236.135 68.8814C213.777 85.3617 191.462 78.6571 169.103 70.5251Z" fill="#007FFF"/>
<path d="M48.1875 191.682H60.2964L102.418 171.006C101.596 169.362 100.861 167.762 100.256 166.118L48.1875 191.682Z" fill="#007FFF"/>
<path d="M0.487305 191.682H12.5962L96.3208 150.59C96.0613 148.557 95.9316 146.654 95.8451 144.88L0.487305 191.682Z" fill="#007FFF"/>
<path d="M91.1309 191.684H103.24L113.576 186.623C112.235 185.282 111.024 183.898 109.856 182.514L91.1309 191.684Z" fill="#007FFF"/>
<path d="M281.804 191.682H269.695L227.53 171.006C228.352 169.362 229.087 167.762 229.693 166.118L281.804 191.682Z" fill="#007FFF"/>
<path d="M238.816 191.684H226.707L216.371 186.623C217.712 185.282 218.923 183.898 220.09 182.514L238.816 191.684Z" fill="#007FFF"/>
<path d="M329.459 191.682H317.351L233.626 150.59C233.885 148.557 234.015 146.654 234.102 144.88L329.459 191.682Z" fill="#007FFF"/>
<path d="M583.501 104.638C578.029 104.638 573.47 106.462 569.823 110.111C566.175 113.668 564.351 118.411 564.351 124.339C564.351 130.176 566.175 134.965 569.823 138.704C573.561 142.352 578.121 144.176 583.501 144.176C588.972 144.176 593.577 142.352 597.316 138.704C601.146 135.056 603.06 130.267 603.06 124.339C603.06 118.593 601.146 113.896 597.316 110.247C593.486 106.508 588.881 104.638 583.501 104.638ZM604.155 62.5007H620.842V158.131H605.249L604.155 148.828C599.504 156.033 592.255 159.636 582.407 159.636C572.285 159.636 563.941 156.489 557.376 150.196C550.901 143.812 547.664 135.193 547.664 124.339C547.664 113.029 550.81 104.319 557.102 98.2082C563.485 92.0973 571.783 89.0419 581.996 89.0419C585.917 89.0419 590.112 90.0452 594.58 92.0517C599.139 93.9671 602.331 96.5665 604.155 99.8499V62.5007Z" fill="#007FFF"/>
<path d="M703.719 130.359H651.058C651.605 134.645 653.657 138.111 657.213 140.756C660.769 143.401 665.42 144.724 671.165 144.724C674.448 144.724 677.821 144.176 681.287 143.082C684.752 141.896 687.396 140.346 689.22 138.43L699.889 148.965C696.515 152.522 692.184 155.258 686.895 157.173C681.606 158.998 676.271 159.91 670.891 159.91C659.402 159.91 650.328 156.672 643.672 150.196C637.106 143.629 633.823 134.873 633.823 123.929C633.823 113.531 637.061 105.049 643.535 98.4818C650.1 91.9149 658.809 88.6315 669.66 88.6315C681.241 88.6315 690.132 92.2341 696.333 99.4395C702.533 106.554 704.995 116.86 703.719 130.359ZM651.331 116.541H687.715C687.168 112.254 685.344 109.016 682.244 106.827C679.144 104.547 675.131 103.407 670.207 103.407C665.557 103.407 661.544 104.547 658.171 106.827C654.797 109.016 652.517 112.254 651.331 116.541Z" fill="#007FFF"/>
<path d="M762.809 92.3253L769.512 83.8431L781.822 93.1462L774.299 102.723C779.041 108.104 781.412 114.762 781.412 122.697C781.412 127.714 780.272 132.593 777.992 137.336C775.803 142.079 772.202 145.59 767.186 147.87C776.487 152.522 781.138 159.955 781.138 170.17C781.138 179.291 777.992 186.588 771.7 192.06C765.408 197.533 757.292 200.269 747.353 200.269C737.414 200.269 729.207 197.487 722.732 191.923C716.349 186.36 713.158 179.109 713.158 170.17H729.708C729.708 174.457 731.395 177.923 734.769 180.568C738.234 183.304 742.429 184.672 747.353 184.672C752.277 184.672 756.335 183.395 759.527 180.842C762.809 178.288 764.451 174.731 764.451 170.17C764.451 165.793 762.718 162.418 759.253 160.046C755.879 157.766 751.912 156.626 747.353 156.626C736.775 156.626 728.432 153.616 722.322 147.597C716.212 141.486 713.158 133.186 713.158 122.697C713.158 112.391 716.44 104.137 723.006 97.9346C729.571 91.6413 737.687 88.4946 747.353 88.4946C753.918 88.4946 759.071 89.7715 762.809 92.3253ZM747.353 103.681C742.338 103.681 738.143 105.414 734.769 108.879C731.395 112.345 729.708 116.951 729.708 122.697C729.708 128.443 731.395 133.004 734.769 136.378C738.143 139.753 742.338 141.44 747.353 141.44C752.277 141.44 756.426 139.753 759.8 136.378C763.174 132.912 764.861 128.352 764.861 122.697C764.861 117.042 763.174 112.482 759.8 109.016C756.426 105.459 752.277 103.681 747.353 103.681Z" fill="#007FFF"/>
<path d="M792.047 90.6836H807.504L808.735 98.4818C811.106 94.6511 813.841 92.0973 816.942 90.8204C820.042 89.5435 823.644 88.9051 827.747 88.9051C835.042 88.9051 840.833 91.0484 845.118 95.3352L837.595 109.837C834.13 106.918 830.118 105.459 825.559 105.459C820.726 105.459 816.714 106.873 813.522 109.7C810.33 112.436 808.735 116.723 808.735 122.56V158.131H792.047V90.6836Z" fill="#007FFF"/>
<path d="M918.241 130.359H865.58C866.127 134.645 868.179 138.111 871.735 140.756C875.292 143.401 879.942 144.724 885.687 144.724C888.97 144.724 892.344 144.176 895.809 143.082C899.274 141.896 901.918 140.346 903.742 138.43L914.411 148.965C911.037 152.522 906.706 155.258 901.417 157.173C896.128 158.998 890.793 159.91 885.413 159.91C873.924 159.91 864.851 156.672 858.194 150.196C851.628 143.629 848.346 134.873 848.346 123.929C848.346 113.531 851.583 105.049 858.057 98.4818C864.623 91.9149 873.331 88.6315 884.182 88.6315C895.763 88.6315 904.654 92.2341 910.855 99.4395C917.055 106.554 919.518 116.86 918.241 130.359ZM865.854 116.541H902.237C901.69 112.254 899.867 109.016 896.766 106.827C893.666 104.547 889.654 103.407 884.729 103.407C880.079 103.407 876.067 104.547 872.693 106.827C869.319 109.016 867.039 112.254 865.854 116.541Z" fill="#007FFF"/>
<path d="M997.985 130.359H945.325C945.872 134.645 947.924 138.111 951.48 140.756C955.036 143.401 959.687 144.724 965.431 144.724C968.714 144.724 972.088 144.176 975.553 143.082C979.018 141.896 981.663 140.346 983.487 138.43L994.156 148.965C990.782 152.522 986.45 155.258 981.161 157.173C975.872 158.998 970.538 159.91 965.158 159.91C953.668 159.91 944.595 156.672 937.938 150.196C931.373 143.629 928.09 134.873 928.09 123.929C928.09 113.531 931.327 105.049 937.802 98.4818C944.367 91.9149 953.076 88.6315 963.927 88.6315C975.508 88.6315 984.399 92.2341 990.599 99.4395C996.8 106.554 999.262 116.86 997.985 130.359ZM945.598 116.541H981.982C981.435 112.254 979.611 109.016 976.511 106.827C973.41 104.547 969.398 103.407 964.474 103.407C959.823 103.407 955.811 104.547 952.437 106.827C949.063 109.016 946.784 112.254 945.598 116.541Z" fill="#007FFF"/>
<path d="M1064.19 97.6609L1054.89 108.606C1050.6 104.593 1045.04 102.586 1038.2 102.586C1029.99 102.586 1025.89 104.821 1025.89 109.29C1025.89 113.668 1030.08 116.13 1038.47 116.678C1041.48 116.86 1044.13 117.134 1046.41 117.498C1048.78 117.863 1051.33 118.547 1054.07 119.551C1056.8 120.463 1059.08 121.694 1060.91 123.244C1062.73 124.704 1064.23 126.71 1065.42 129.264C1066.7 131.818 1067.33 134.828 1067.33 138.294C1067.33 144.587 1064.78 149.877 1059.67 154.164C1054.66 158.359 1047.55 160.457 1038.34 160.457C1032.14 160.457 1026.53 159.636 1021.51 157.994C1016.5 156.353 1011.71 153.16 1007.15 148.418L1015.36 136.515C1017.64 139.069 1021.1 141.258 1025.75 143.082C1030.4 144.906 1034.69 145.864 1038.61 145.955C1041.89 146.046 1044.72 145.317 1047.09 143.766C1049.55 142.216 1050.78 140.255 1050.78 137.883C1050.78 135.603 1049.74 133.916 1047.64 132.821C1045.63 131.727 1042.21 131.043 1037.38 130.769C1033.82 130.495 1030.54 129.994 1027.53 129.264C1024.52 128.443 1021.56 127.303 1018.64 125.844C1015.81 124.293 1013.58 122.15 1011.94 119.414C1010.3 116.678 1009.48 113.485 1009.48 109.837C1009.48 106.098 1010.34 102.814 1012.07 99.9867C1013.9 97.1593 1016.22 94.9703 1019.05 93.4198C1021.97 91.8693 1025.02 90.7292 1028.22 89.9996C1031.41 89.1787 1034.64 88.7683 1037.93 88.7683C1048.69 88.7683 1057.44 91.7325 1064.19 97.6609Z" fill="#007FFF"/>
</svg>
