<?xml version="1.0" encoding="utf-8"?>
<!-- Generator: Adobe Illustrator 15.0.2, SVG Export Plug-In . SVG Version: 6.00 Build 0)  -->
<!DOCTYPE svg PUBLIC "-//W3C//DTD SVG 1.1//EN" "http://www.w3.org/Graphics/SVG/1.1/DTD/svg11.dtd">
<svg version="1.1" id="Layer_2" xmlns="http://www.w3.org/2000/svg" xmlns:xlink="http://www.w3.org/1999/xlink" x="0px" y="0px"
	 width="600px" height="800px" viewBox="0 0 600 800" enable-background="new 0 0 600 800" xml:space="preserve">
<g>
	<path fill="#FFFFFF" d="M578,745H19V22h559V745z M25,739h547V28H25V739z"/>
</g>
<g>
	<path fill="#FFFFFF" d="M327.127,119.041v2.863v9.093c9.703,1.821,19.088,4.569,27.963,8.188
		c8.879-3.619,18.262-6.367,27.963-8.188v-9.092v-2.863l2.022-2.024l1.084-1.082v-7.873h-62.138v7.873l1.083,1.081L327.127,119.041z
		"/>
	<path fill="#FFFFFF" d="M440.359,119.041v2.863v9.093c30.76,5.782,57.926,20.97,75.307,42.04h13.478h31.638l-97.735-64.974h-25.792
		v7.874l1.082,1.081L440.359,119.041z"/>
	<path fill="#FFFFFF" d="M213.897,119.04v2.864v9.093c9.699,1.821,19.084,4.569,27.963,8.188c8.875-3.618,18.261-6.367,27.962-8.188
		v-9.093v-2.862l2.021-2.025l1.083-1.081v-7.874h-62.135v7.873l1.079,1.081L213.897,119.04z"/>
	<path fill="#FFFFFF" d="M81.285,173.036c17.38-21.071,44.543-36.258,75.308-42.04v-9.092v-2.863l2.021-2.024l1.083-1.081v-7.874
		h-25.974l-97.551,64.974h31.677H81.285z"/>
	<path fill="#FFFFFF" d="M57.697,314.812l0.132-0.321c1.496-0.372,2.779-0.762,3.817-1.113c0.108,0.095,0.271,0.174,0.5,0.152
		c0.517-0.052,2.541-1.073,2.541-1.073l0.355-1.621l-0.025,0.017c0.306-1.547,0.635-4.482,0.187-9.072
		c-0.459-4.707-1.37-7.731-1.956-9.286c-0.323-0.857-0.549-1.27-0.549-1.27s-0.002,0-0.004,0l-0.108-0.249
		c0,0-2.184-0.611-2.699-0.56c-0.228,0.021-0.371,0.127-0.46,0.239c-1.101-0.145-2.444-0.28-3.973-0.36l-0.182-0.276
		c0,0-2.256-0.224-2.755-0.084c-0.209,0.057-0.328,0.176-0.397,0.295c-1.326,0.016-2.732,0.085-4.2,0.229
		c-1.467,0.143-2.862,0.348-4.165,0.59c-0.092-0.105-0.231-0.198-0.447-0.215c-0.517-0.039-2.688,0.618-2.688,0.618l-0.125,0.306
		c-1.484,0.374-2.775,0.769-3.827,1.124c-0.109-0.094-0.27-0.171-0.497-0.148c-0.516,0.05-2.541,1.072-2.541,1.072l-0.058,0.264
		c-0.001,0.001-0.002,0.001-0.002,0.001s-0.143,0.448-0.295,1.352v0.001c-0.274,1.638-0.58,4.782-0.122,9.488
		c0.078,0.792,0.17,1.529,0.269,2.216l-0.329,0.033c0,0-0.883-0.29-1.453-0.124c-0.569,0.167-0.642,0.37-0.845,0.374
		c-0.206,0.001-0.262-0.429-0.436,0.008c-0.176,0.436,0.147,1.232,0.343,1.282c0.194,0.048,0.581-0.551,1.227-0.728
		c0.249-0.066,0.488-0.099,0.69-0.116l-0.241,0.797l0.102,1.031c-0.454,0.206-0.901,0.482-1.191,0.833
		c-0.732,0.894-0.779,2.348-0.78,2.412l0.969,0.024c0.01-0.329,0.128-1.296,0.56-1.819c0.116-0.143,0.316-0.234,0.556-0.294
		l0.128,1.324l0.319-0.028l0.116,1.193l0.129-0.015l0.011,0.119l0.708-0.071l-0.008-0.117l0.126-0.014l-0.116-1.192l0.319-0.031
		l-0.078-0.782c0.296,1.104,0.598,1.946,0.846,2.551l-0.027-0.01l0.662,1.517c0,0,2.186,0.611,2.701,0.56
		c0.229-0.022,0.372-0.132,0.459-0.245c1.087,0.146,2.422,0.279,3.961,0.354l0.193,0.288c0,0,2.256,0.224,2.756,0.084
		c0.225-0.063,0.345-0.193,0.413-0.323c1.309-0.023,2.706-0.096,4.181-0.239c1.474-0.146,2.861-0.344,4.146-0.575
		c0.092,0.114,0.237,0.221,0.471,0.239C55.525,315.467,57.697,314.812,57.697,314.812z"/>
	<path fill="#FFFFFF" d="M179.97,365.664c0.094,0.019,0.189,0.056,0.284,0.105C180.289,365.681,180.237,365.614,179.97,365.664z"/>
	<path fill="#FFFFFF" d="M322.533,450.777c0-8.35-5.577-10.918-10.889-10.918c-5.743,0-11.319,2.849-11.319,11.105v5.019h22.208
		V450.777z"/>
	<path fill="#FFFFFF" d="M76.82,465.572c0,8.099,5.901,10.637,13.176,10.637c3.775,0,7.687-0.959,10.638-2.538v-17.982
		c-3.157-0.412-6.45-0.754-9.539-0.754C83.339,454.935,76.82,457.062,76.82,465.572z"/>
	<path fill="#FFFFFF" d="M258.578,573.522l-5.797,2.319c-1.649,0.67-2.913,1.61-3.788,2.82c-0.877,1.212-1.314,2.72-1.314,4.522
		c0,0.771,0.078,1.571,0.232,2.395c0.155,0.825,0.438,1.561,0.851,2.205c0.412,0.644,0.991,1.172,1.739,1.584
		c0.747,0.413,1.713,0.617,2.898,0.617c1.701,0,3.079-0.359,4.136-1.082c1.056-0.722,1.855-1.623,2.396-2.705
		c0.542-1.082,0.901-2.254,1.083-3.518c0.18-1.261,0.271-2.408,0.271-3.44v-7.729h-0.154
		C261.025,572.182,260.174,572.853,258.578,573.522z"/>
	<path fill="#FFFFFF" d="M394.618,450.777c0-8.35-5.574-10.918-10.888-10.918c-5.744,0-11.318,2.849-11.318,11.105v5.019h22.206
		V450.777z"/>
	<path fill="#FFFFFF" d="M298.415,505.078c-0.341-0.906-0.793-1.677-1.359-2.32c-0.566-0.643-1.265-0.964-2.095-0.964
		c-0.566,0.039-1.198,0.464-1.896,1.275c-0.699,0.811-1.425,1.886-2.179,3.226c-0.756,1.341-1.482,2.86-2.18,4.558
		c-0.699,1.698-1.322,3.454-1.868,5.264c-0.547,1.812-0.982,3.616-1.302,5.409c-0.321,1.792-0.462,3.424-0.425,4.896
		c0.037,1.472,0.283,2.717,0.736,3.736c0.453,1.019,1.169,1.681,2.151,1.982c0.679,0.151,1.415-0.093,2.208-0.736
		c0.792-0.643,1.575-1.528,2.349-2.662c0.773-1.131,1.519-2.47,2.236-4.019c0.717-1.547,1.387-3.15,2.01-4.812
		c0.624-1.661,1.151-3.312,1.586-4.953c0.432-1.643,0.762-3.161,0.989-4.559c0-0.679-0.075-1.508-0.227-2.491
		C298.999,506.929,298.753,505.984,298.415,505.078z"/>
	<path fill="#FFFFFF" d="M164.616,523.846c1.056-1.605,1.896-3.349,2.519-5.238c0.623-1.886,0.991-3.792,1.104-5.717
		c0.037-2.075-0.34-3.851-1.132-5.322c-0.793-1.471-1.868-2.669-3.227-3.594s-2.925-1.575-4.699-1.952
		c-1.774-0.378-3.623-0.49-5.547-0.341l2.604,28.986c1.698-0.567,3.255-1.444,4.67-2.633
		C162.323,526.846,163.559,525.448,164.616,523.846z"/>
	<polygon fill="#FFFFFF" points="100.786,659.774 157.417,659.774 129.712,614.647 	"/>
	<path fill="#FFFFFF" d="M177.188,585.463c0.721,1.47,1.739,2.668,3.053,3.597c1.314,0.926,3.053,1.391,5.218,1.391
		c2.112,0,3.788-0.413,5.024-1.238c1.236-0.823,2.165-2.009,2.783-3.554c0.619-1.546,1.004-3.414,1.159-5.605
		c0.156-2.188,0.232-4.624,0.232-7.304c0-2.37-0.129-4.496-0.387-6.376c-0.259-1.881-0.708-3.492-1.352-4.831
		c-0.646-1.339-1.546-2.371-2.706-3.092c-1.159-0.721-2.641-1.082-4.445-1.082c-1.906,0-3.478,0.335-4.714,1.004
		c-1.237,0.671-2.242,1.521-3.015,2.552c-0.567,0.722-1.018,1.494-1.353,2.318c-0.336,0.825-0.606,1.805-0.812,2.937
		c-0.206,1.134-0.348,2.436-0.425,3.904c-0.077,1.468-0.116,3.208-0.116,5.218c0,1.7,0.128,3.452,0.387,5.256
		C175.977,582.361,176.465,583.997,177.188,585.463z"/>
	<path fill="#FFFFFF" d="M143.366,571.558c0-0.265,0-0.54,0-0.828c0-0.75-0.072-1.37-0.216-1.855
		c-0.143-0.485-0.342-0.872-0.596-1.16c-0.254-0.286-0.563-0.491-0.928-0.611c-0.364-0.122-0.756-0.183-1.176-0.183
		c-0.75,0-1.37,0.148-1.855,0.447c-0.486,0.298-0.873,0.701-1.159,1.209c-0.288,0.508-0.503,1.093-0.646,1.755
		c-0.144,0.664-0.237,1.357-0.281,2.088h6.791C143.344,572.11,143.366,571.822,143.366,571.558z"/>
	<path fill="#FFFFFF" d="M195.515,519.883c1.057-1.642,2.058-3.435,3-5.378c0.943-1.944,1.689-3.783,2.236-5.521
		c0.547-1.734,0.812-3.218,0.793-4.443c-0.02-1.229-0.463-1.954-1.331-2.18c-0.792,0-1.613,0.5-2.462,1.499
		c-0.85,1.002-1.67,2.265-2.463,3.794c-0.792,1.528-1.538,3.207-2.236,5.038c-0.699,1.829-1.293,3.604-1.783,5.322
		c-0.491,1.718-0.849,3.246-1.076,4.585c-0.227,1.341-0.283,2.294-0.17,2.86c0.603,0.037,1.406-0.473,2.406-1.53
		C193.43,522.874,194.459,521.525,195.515,519.883z"/>
	<path fill="#FFFFFF" d="M211.56,521.525c-0.321,1.792-0.462,3.424-0.425,4.896c0.037,1.472,0.283,2.717,0.736,3.736
		c0.453,1.019,1.169,1.681,2.151,1.982c0.679,0.151,1.415-0.093,2.208-0.736c0.792-0.643,1.575-1.528,2.349-2.662
		c0.773-1.131,1.519-2.47,2.236-4.019c0.717-1.547,1.387-3.15,2.01-4.812c0.623-1.661,1.151-3.312,1.585-4.953
		c0.433-1.643,0.764-3.161,0.99-4.559c0-0.679-0.076-1.508-0.226-2.491c-0.151-0.979-0.396-1.924-0.736-2.83
		c-0.34-0.906-0.792-1.677-1.358-2.32c-0.566-0.643-1.265-0.964-2.095-0.964c-0.566,0.039-1.198,0.464-1.896,1.275
		c-0.699,0.811-1.425,1.886-2.179,3.226c-0.755,1.341-1.481,2.86-2.18,4.558c-0.699,1.698-1.322,3.454-1.868,5.264
		C212.315,517.929,211.879,519.732,211.56,521.525z"/>
	<path fill="#FFFFFF" d="M198.218,475.951c8.178,0,11.386-5.936,11.386-12.561l0-10.809c0-7.913-4.083-12.723-11.386-12.723
		c-7.676,0-11.632,4.342-11.632,12.725v10.807C186.587,470.005,190.008,475.951,198.218,475.951z"/>
	<path fill="#FFFFFF" d="M96.612,530.894c0.472,0.83,1.123,1.209,1.953,1.132c1.661-0.227,3.132-1.132,4.416-2.717
		c1.283-1.586,2.33-3.482,3.142-5.689c0.812-2.208,1.396-4.576,1.755-7.106c0.358-2.525,0.454-4.876,0.283-7.048
		c-0.17-2.17-0.632-3.98-1.387-5.434c-0.755-1.453-1.812-2.237-3.171-2.35c-0.905-0.075-1.754,0.311-2.547,1.161
		c-0.792,0.85-1.52,1.989-2.18,3.424c-0.66,1.436-1.236,3.077-1.727,4.927c-0.491,1.849-0.887,3.744-1.189,5.688
		c-0.303,1.943-0.481,3.842-0.538,5.69c-0.056,1.85,0.009,3.491,0.198,4.924C95.811,528.933,96.14,530.064,96.612,530.894z"/>
	<path fill="#FFFFFF" d="M517.54,504.541c-0.02-1.229-0.463-1.954-1.331-2.18c-0.791,0-1.612,0.5-2.463,1.499
		c-0.849,1.002-1.67,2.265-2.461,3.794c-0.794,1.528-1.539,3.207-2.237,5.038c-0.698,1.829-1.292,3.604-1.783,5.322
		c-0.49,1.718-0.849,3.246-1.075,4.585c-0.228,1.341-0.283,2.294-0.17,2.86c0.604,0.037,1.405-0.473,2.405-1.53
		c1.001-1.056,2.028-2.404,3.086-4.047c1.058-1.642,2.057-3.435,3-5.378c0.943-1.944,1.689-3.783,2.236-5.521
		C517.295,507.25,517.559,505.767,517.54,504.541z"/>
	<path fill="#FFFFFF" d="M436.516,530.525c0.643,0.51,1.387,0.934,2.236,1.273c0.849,0.341,1.718,0.604,2.604,0.793
		c0.886,0.19,1.556,0.282,2.009,0.282c1.963-0.263,3.511-0.979,4.643-2.149c1.132-1.169,1.981-2.539,2.548-4.105
		c0.565-1.566,0.915-3.17,1.048-4.812c0.131-1.642,0.197-3.086,0.197-4.332c0-0.941-0.133-2.085-0.396-3.424
		c-0.263-1.34-0.68-2.613-1.245-3.821c-0.566-1.207-1.303-2.245-2.208-3.114c-0.906-0.868-1.982-1.301-3.228-1.301
		c-1.208,0-2.263,0.473-3.17,1.414c-0.905,0.944-1.699,2.151-2.378,3.623c-0.68,1.472-1.255,3.104-1.727,4.897
		s-0.849,3.538-1.132,5.236s-0.481,3.247-0.595,4.643s-0.17,2.434-0.17,3.112C435.553,529.422,435.874,530.016,436.516,530.525z"/>
	<path fill="#FFFFFF" d="M425.376,568.189c0-0.619,0-1.263,0-1.934c0-1.75-0.168-3.194-0.503-4.328
		c-0.336-1.132-0.799-2.035-1.391-2.706c-0.593-0.668-1.313-1.145-2.164-1.429c-0.852-0.282-1.766-0.425-2.744-0.425
		c-1.753,0-3.194,0.348-4.329,1.043c-1.134,0.695-2.035,1.636-2.704,2.821c-0.671,1.186-1.174,2.551-1.508,4.097
		c-0.336,1.545-0.555,3.169-0.657,4.869h15.845C425.323,569.478,425.376,568.808,425.376,568.189z"/>
	<path fill="#FFFFFF" d="M471.666,505.078c-0.339-0.906-0.792-1.677-1.358-2.32c-0.566-0.643-1.265-0.964-2.095-0.964
		c-0.566,0.039-1.199,0.464-1.896,1.275c-0.698,0.811-1.424,1.886-2.181,3.226c-0.754,1.341-1.48,2.86-2.179,4.558
		c-0.698,1.698-1.321,3.454-1.868,5.264c-0.548,1.812-0.98,3.616-1.302,5.409c-0.321,1.792-0.462,3.424-0.425,4.896
		c0.038,1.472,0.282,2.717,0.736,3.736c0.453,1.019,1.17,1.681,2.151,1.982c0.679,0.151,1.415-0.093,2.207-0.736
		c0.793-0.643,1.576-1.528,2.35-2.662c0.774-1.131,1.519-2.47,2.236-4.019c0.717-1.547,1.387-3.15,2.01-4.812
		c0.622-1.661,1.151-3.312,1.585-4.953c0.435-1.643,0.765-3.161,0.991-4.559c0-0.679-0.076-1.508-0.227-2.491
		C472.252,506.929,472.006,505.984,471.666,505.078z"/>
	<path fill="#FFFFFF" d="M509.295,439.859c-5.744,0-11.32,2.849-11.32,11.105v5.019h22.207v-5.206
		C520.182,442.428,514.607,439.859,509.295,439.859z"/>
	<path fill="#FFFFFF" d="M529.125,227.497c0-12.086-2.992-23.618-8.369-34.195l15.822-8.981v-4.351h-24.226
		c-1.828-2.385-3.797-4.695-5.889-6.935c-16.513-17.706-40.869-30.605-69.059-35.553l-3.957-2.242v-13.337l-3.105-3.105v-10.737
		V58.029h-37.271l-0.002,50.033v10.737l-3.106,3.105v13.337l-3.957,2.242c-10.963,1.924-21.347,5.053-30.916,9.197
		c-9.569-4.144-19.952-7.273-30.915-9.196l-3.955-2.241v-13.338l-3.106-3.105v-10.737l0.001-50.033h-37.277v50.033v10.737
		l-3.104,3.105v13.338l-3.958,2.241c-10.962,1.923-21.346,5.052-30.916,9.196c-9.57-4.144-19.956-7.273-30.917-9.197l-3.957-2.242
		v-13.337l-3.105-3.105v-10.737V58.029h-37.274v50.033v10.737l-3.105,3.105v13.337l-3.958,2.242
		c-28.186,4.948-52.543,17.848-69.061,35.553c-2.087,2.239-4.057,4.549-5.885,6.935H60.371v4.351l15.821,8.979
		c-5.375,10.579-8.364,22.109-8.364,34.196v41.806l-26.969,14.799H30.523v3.46h37.305v102.392L54.78,411.079v297.512h487.388
		V411.079l-13.043-21.125V227.497z M67.828,284.102H48.05l19.778-10.854V284.102z M486.238,504.031
		c0.585-0.096,1.18-0.217,1.784-0.369c0.604-0.148,1.179-0.33,1.727-0.537c0.547-0.207,1.009-0.499,1.387-0.877v-8.55
		c0-0.188,0.066-0.414,0.197-0.679c0.133-0.263,0.321-0.5,0.566-0.707c0.246-0.209,0.538-0.368,0.878-0.481s0.717-0.113,1.132,0
		l0.113,9.963l14.209-2.718c0,0.418-0.104,0.794-0.311,1.134c-0.207,0.339-0.462,0.642-0.764,0.905
		c-0.302,0.265-0.623,0.48-0.963,0.65c-0.34,0.171-0.642,0.293-0.905,0.368c-0.794,0.228-1.718,0.453-2.774,0.679
		c-1.057,0.228-2.123,0.455-3.198,0.681c-1.075,0.228-2.095,0.473-3.058,0.735c-0.962,0.265-1.745,0.53-2.35,0.793v28.816
		c0,0.263-0.132,0.473-0.396,0.623c-0.265,0.15-0.557,0.272-0.878,0.368c-0.321,0.093-0.633,0.15-0.934,0.168
		c-0.303,0.019-0.49,0.03-0.566,0.03v-29.043c-0.943,0-1.858,0.104-2.745,0.311c-0.888,0.207-1.822,0.406-2.803,0.595
		c-0.15,0-0.312-0.17-0.482-0.509c-0.168-0.34-0.329-1-0.479-1.981C485.116,504.249,485.653,504.125,486.238,504.031z
		 M509.02,531.629c0.944,0.191,1.944,0.095,3.001-0.282s2.113-0.972,3.17-1.784c1.057-0.811,2.038-1.67,2.944-2.574
		c0.905-0.906,1.688-1.803,2.349-2.69c0.661-0.888,1.123-1.593,1.388-2.122c0.641,0.564,0.887,1.273,0.736,2.122
		c-0.151,0.85-0.558,1.748-1.218,2.69c-0.661,0.942-1.51,1.876-2.548,2.8c-1.038,0.925-2.122,1.748-3.255,2.464
		c-1.133,0.718-2.245,1.293-3.34,1.728c-1.095,0.433-2.02,0.614-2.774,0.536c-0.793,0-1.566-0.197-2.321-0.594
		s-1.426-0.914-2.01-1.556c-0.584-0.643-1.057-1.38-1.415-2.209c-0.358-0.828-0.538-1.679-0.538-2.547
		c0-1.282,0.17-2.944,0.51-4.982s0.82-4.18,1.443-6.425c0.623-2.246,1.378-4.48,2.265-6.708c0.888-2.229,1.868-4.18,2.943-5.861
		c1.076-1.679,2.236-2.95,3.481-3.82c1.246-0.868,2.566-1.075,3.964-0.623c0.264-0.037,0.651,0.198,1.16,0.707
		c0.51,0.511,0.915,1.304,1.218,2.379c0.302,1.075,0.396,2.436,0.282,4.075c-0.113,1.642-0.632,3.604-1.557,5.889
		c-0.924,2.281-2.358,4.878-4.302,7.783c-1.944,2.909-4.614,6.152-8.012,9.737C507.265,530.818,508.076,531.441,509.02,531.629z
		 M482.248,558.663c-0.396-0.165-0.807-0.248-1.227-0.248c-0.905,0-1.688,0.396-2.352,1.191c-0.661,0.796-0.993,2.033-0.993,3.712
		v4.604h4.106v0.465h-4.106v13.282h3.014v0.465h-8.414v-0.465h2.551v-13.282h-2.551v-0.465h2.551v-1.756
		c0-0.772,0.039-1.44,0.116-2.004c0.078-0.562,0.184-1.06,0.315-1.489c0.132-0.432,0.287-0.808,0.463-1.128
		c0.177-0.319,0.375-0.612,0.596-0.877c0.574-0.729,1.293-1.365,2.154-1.905c0.861-0.542,1.777-0.811,2.75-0.811
		c0.728,0,1.353,0.104,1.87,0.314c0.52,0.208,0.946,0.468,1.275,0.778c0.332,0.309,0.574,0.646,0.73,1.01
		c0.153,0.364,0.231,0.69,0.231,0.977c0,0.421-0.122,0.807-0.364,1.159c-0.244,0.354-0.652,0.53-1.227,0.53
		c-0.287,0-0.611-0.065-0.978-0.199c-0.364-0.131-0.545-0.419-0.545-0.861c0-0.373,0.103-0.71,0.313-1.01
		c0.211-0.299,0.315-0.634,0.315-1.011C482.845,559.156,482.645,558.829,482.248,558.663z M484.206,531.375
		c-0.963,0.472-1.973,0.688-3.029,0.65c-1.622,0-2.954-0.434-3.991-1.301c-1.037-0.869-1.867-1.962-2.491-3.284
		c-0.622-1.321-1.065-2.736-1.33-4.245s-0.433-2.924-0.51-4.247c-0.414,1.096-0.962,2.538-1.641,4.331
		c-0.68,1.793-1.501,3.547-2.463,5.265c-0.962,1.717-2.104,3.199-3.425,4.444c-1.321,1.245-2.831,1.869-4.529,1.869
		c-1.284-0.039-2.273-0.539-2.972-1.5c-0.699-0.963-1.18-2.218-1.444-3.767c-0.265-1.548-0.311-3.319-0.142-5.321
		c0.17-2.001,0.5-4.055,0.991-6.17c0.49-2.114,1.123-4.208,1.896-6.284c0.772-2.075,1.633-3.973,2.576-5.69
		c0.942-1.718,1.962-3.188,3.057-4.415s2.208-2.028,3.341-2.406c0.942,0,1.745,0.181,2.405,0.538s1.217,0.842,1.67,1.443
		c0.453,0.604,0.82,1.284,1.104,2.039c0.282,0.756,0.519,1.527,0.707,2.32c0.037-0.341,0.16-0.849,0.368-1.527
		c0.207-0.681,0.452-1.293,0.735-1.841c0.283-0.547,0.586-0.914,0.907-1.105c0.319-0.188,0.631,0.021,0.934,0.623
		c-0.491,3.965-0.83,7.38-1.02,10.248c-0.188,2.868-0.264,5.303-0.226,7.303c0.037,2.001,0.188,3.622,0.452,4.868
		c0.264,1.247,0.622,2.229,1.075,2.944c0.454,0.717,0.982,1.245,1.586,1.584c0.604,0.341,1.264,0.605,1.981,0.793
		c1.02,0.19,1.896,0.104,2.632-0.254c0.736-0.358,1.388-0.84,1.953-1.443c0.567-0.604,1.066-1.227,1.5-1.868
		c0.435-0.643,0.858-1.15,1.274-1.528c0.264,0.791,0.245,1.642-0.057,2.548c-0.302,0.904-0.783,1.745-1.444,2.518
		C485.979,530.28,485.169,530.903,484.206,531.375z M469.858,575.045c0,1.036-0.221,2.014-0.661,2.932
		c-0.442,0.915-1.021,1.717-1.739,2.399c-0.718,0.688-1.54,1.228-2.468,1.624c-0.928,0.398-1.878,0.597-2.85,0.597
		s-1.922-0.198-2.848-0.597c-0.93-0.396-1.751-0.937-2.469-1.624c-0.718-0.683-1.298-1.484-1.74-2.399
		c-0.439-0.918-0.661-1.896-0.661-2.932c0-1.083,0.236-2.089,0.712-3.016c0.475-0.928,1.081-1.728,1.822-2.401
		c0.74-0.674,1.567-1.198,2.483-1.574c0.917-0.374,1.817-0.562,2.7-0.562s1.783,0.188,2.7,0.562c0.916,0.376,1.744,0.9,2.483,1.574
		c0.741,0.674,1.347,1.474,1.823,2.401C469.622,572.956,469.858,573.962,469.858,575.045z M453.722,453.082
		c0-11.643,6.922-17.694,16.978-17.694c5.534,0,9.798,2.066,13.061,5.396l-4.062,2.203c-2.741-1.997-5.821-3.003-8.999-3.003
		c-6.616,0-11.506,4.095-11.506,13.099v9.778c0,9.004,4.89,13.101,11.506,13.101c3.178,0,6.258-1.008,8.999-3.004l4.062,2.201
		c-3.263,3.326-7.526,5.357-13.061,5.357c-10.056,0-16.978-6.014-16.978-17.655V453.082z M409.91,436.163h4.409l0.113,2.264
		c3.749-2.032,8.274-2.991,12.501-2.991c8.579,0,16.684,3.864,16.684,14.756v29.54h-5.47v-29.285
		c0-7.584-5.169-10.594-11.936-10.594c-3.849,0-7.781,0.913-10.829,2.435v37.444h-5.473V436.163z M408.273,522.628
		c0.34-2.038,0.82-4.18,1.443-6.425c0.623-2.246,1.377-4.48,2.264-6.708c0.888-2.229,1.868-4.18,2.944-5.861
		c1.075-1.679,2.236-2.95,3.481-3.82c1.245-0.868,2.566-1.075,3.962-0.623c0.266-0.037,0.652,0.198,1.162,0.707
		c0.509,0.511,0.915,1.304,1.216,2.379c0.303,1.075,0.396,2.436,0.283,4.075c-0.112,1.642-0.632,3.604-1.557,5.889
		c-0.925,2.281-2.358,4.878-4.302,7.783c-1.943,2.909-4.614,6.152-8.012,9.737c0.68,1.058,1.491,1.681,2.436,1.868
		c0.943,0.191,1.943,0.095,3-0.282c1.058-0.377,2.113-0.972,3.17-1.784c1.057-0.811,2.038-1.67,2.944-2.574
		c0.905-0.906,1.688-1.803,2.349-2.69s1.123-1.593,1.388-2.122c0.642,0.564,0.887,1.273,0.735,2.122
		c-0.15,0.85-0.557,1.748-1.217,2.69s-1.509,1.876-2.547,2.8c-1.038,0.925-2.124,1.748-3.256,2.464
		c-1.133,0.718-2.245,1.293-3.34,1.728c-1.095,0.433-2.019,0.614-2.774,0.536c-0.792,0-1.566-0.197-2.321-0.594
		s-1.424-0.914-2.009-1.556c-0.585-0.643-1.057-1.38-1.416-2.209c-0.358-0.828-0.537-1.679-0.537-2.547
		C407.764,526.328,407.933,524.666,408.273,522.628z M400.183,498.029c0.075-2.056,0.34-3.896,0.792-5.518
		c0.151-0.228,0.369-0.417,0.652-0.567c0.282-0.149,0.565-0.245,0.848-0.282c0.284-0.037,0.548,0,0.793,0.112
		c0.246,0.113,0.406,0.359,0.481,0.737c-0.415,2.828-0.65,5.442-0.708,7.839c-0.056,2.397,0,4.681,0.17,6.852
		c0.171,2.17,0.387,4.282,0.65,6.34c0.265,2.058,0.539,4.161,0.822,6.312c0.283,2.152,0.509,4.426,0.68,6.822
		c0.168,2.397,0.217,5.012,0.141,7.84c-0.037,0.756-0.179,1.228-0.424,1.416c-0.246,0.189-0.528,0.207-0.85,0.057
		s-0.623-0.433-0.906-0.849s-0.5-0.85-0.65-1.302c-0.075-0.264-0.16-0.746-0.255-1.443c-0.095-0.699-0.188-1.444-0.283-2.237
		c-0.095-0.792-0.18-1.538-0.255-2.236s-0.133-1.196-0.169-1.5c-0.604,0.645-1.359,1.435-2.266,2.379
		c-0.905,0.941-1.905,1.857-3,2.745c-1.095,0.886-2.265,1.65-3.511,2.293c-1.245,0.642-2.49,0.963-3.736,0.963
		c-1.32,0-2.425-0.285-3.312-0.852c-0.887-0.564-1.613-1.301-2.18-2.206c-0.566-0.907-0.972-1.905-1.217-3.002
		c-0.246-1.095-0.368-2.17-0.368-3.226s0.142-2.34,0.425-3.851c0.283-1.508,0.698-3.093,1.245-4.755
		c0.548-1.659,1.208-3.312,1.981-4.954c0.774-1.641,1.67-3.113,2.689-4.415c1.019-1.302,2.133-2.359,3.341-3.17
		c1.206-0.812,2.51-1.218,3.905-1.218c1.095,0,1.935,0.405,2.52,1.218c0.585,0.811,0.877,1.765,0.877,2.858
		c-0.565,0-1-0.065-1.302-0.197c-0.301-0.134-0.585-0.284-0.849-0.453c-0.265-0.17-0.52-0.32-0.765-0.454
		c-0.245-0.131-0.594-0.198-1.048-0.198c-0.905,0-1.793,0.361-2.66,1.077c-0.868,0.716-1.68,1.65-2.435,2.802
		c-0.755,1.15-1.443,2.435-2.066,3.851c-0.622,1.414-1.16,2.84-1.613,4.272c-0.453,1.437-0.803,2.784-1.047,4.049
		c-0.246,1.263-0.368,2.312-0.368,3.142c0,0.793,0.056,1.605,0.17,2.436c0.113,0.829,0.339,1.575,0.679,2.233
		c0.339,0.662,0.821,1.209,1.443,1.644c0.623,0.435,1.425,0.65,2.406,0.65c1.245,0,2.443-0.395,3.595-1.188
		c1.151-0.793,2.218-1.756,3.199-2.887c0.981-1.133,1.849-2.351,2.604-3.652s1.34-2.462,1.756-3.481
		c-0.038-2.944-0.133-5.774-0.283-8.493c-0.151-2.717-0.265-5.272-0.34-7.668C400.107,502.312,400.107,500.088,400.183,498.029z
		 M366.94,451.153c0-10.038,6.52-15.766,16.903-15.766c10.55,0,15.95,6.064,15.95,15.575v8.819h-27.513v7.211
		c0,6.552,4.153,9.325,10.591,9.325c4.575,0,8.575-1.251,11.874-3.49l3.006,2.762c-3.802,3.1-8.794,5.102-15.269,5.102
		c-10.102,0-15.543-5.521-15.543-14.187V451.153z M365.743,567.03c0.953-2.165,2.242-4.046,3.866-5.644
		c1.623-1.596,3.528-2.847,5.72-3.748c2.188-0.902,4.521-1.353,6.995-1.353c1.391,0,2.82,0.166,4.289,0.501
		c1.469,0.338,2.808,0.852,4.019,1.547c1.212,0.695,2.215,1.597,3.016,2.706c0.799,1.107,1.197,2.461,1.197,4.058
		c0,1.081-0.348,1.969-1.043,2.668c-0.696,0.694-1.688,1.042-2.977,1.042c-0.876,0-1.713-0.193-2.512-0.579
		c-0.798-0.388-1.197-1.046-1.197-1.973c0-0.72,0.179-1.596,0.54-2.627c0.359-1.031,0.542-1.88,0.542-2.553
		c0-1.184-0.593-2.098-1.777-2.742c-1.187-0.643-2.552-0.966-4.097-0.966c-1.135,0-2.307,0.143-3.518,0.425
		c-1.211,0.284-2.319,0.992-3.323,2.126c-1.006,1.133-1.831,2.834-2.474,5.101c-0.646,2.269-0.967,5.359-0.967,9.275
		c0,2.217,0.142,4.304,0.425,6.262c0.283,1.957,0.8,3.672,1.546,5.141c0.748,1.467,1.778,2.627,3.093,3.478s3.026,1.275,5.139,1.275
		c2.268,0,4.136-0.335,5.605-1.005c1.468-0.67,2.627-1.48,3.479-2.436c0.849-0.952,1.479-1.918,1.893-2.897
		c0.413-0.979,0.722-1.779,0.928-2.397l1.159,0.232c-0.154,0.566-0.451,1.379-0.889,2.434c-0.438,1.058-1.134,2.113-2.087,3.172
		c-0.953,1.056-2.241,1.984-3.866,2.781c-1.622,0.799-3.722,1.198-6.298,1.198c-1.959,0-3.994-0.311-6.106-0.928
		c-2.112-0.619-4.045-1.61-5.797-2.977c-1.752-1.365-3.183-3.154-4.29-5.372c-1.109-2.215-1.663-4.946-1.663-8.192
		C364.312,571.538,364.79,569.193,365.743,567.03z M337.824,435.895h4.409l0.191,6.321c2.645-4.762,7.051-6.903,13.287-6.903
		c1.786,0,3.454,0.162,4.988,0.605l-0.312,4.592c-2.031-0.511-3.984-0.772-5.77-0.606c-7.342,0.191-11.325,4.563-11.325,12.735
		v27.093h-5.469V435.895z M294.854,451.153c0-10.038,6.521-15.766,16.906-15.766c10.547,0,15.95,6.064,15.95,15.575v8.819h-27.515
		v7.211c0,6.552,4.153,9.325,10.591,9.325c4.576,0,8.577-1.251,11.874-3.49l3.007,2.762c-3.803,3.1-8.795,5.102-15.268,5.102
		c-10.104,0-15.545-5.521-15.545-14.187V451.153z M271.267,432.365c0-10.854,7.213-14.444,14.042-14.444
		c1.286,0,2.509,0.121,3.728,0.339v4.545c-1.433-0.226-2.722-0.344-3.678-0.256c-4.635,0.195-8.615,3.076-8.62,10.431v3.184h11.502
		v4.383h-11.502v39.186h-5.471V432.365z M267.312,562.971c0.412,1.264,0.619,2.59,0.619,3.98v19.247
		c0,1.494,0.231,2.502,0.696,3.014c0.463,0.517,1.132,0.773,2.009,0.773c0.566,0,1.159-0.103,1.778-0.309
		c0.618-0.205,1.209-0.514,1.777-0.928l0.619,0.851c-0.671,0.516-1.469,0.966-2.396,1.352c-0.929,0.387-2.062,0.581-3.402,0.581
		c-2.473,0-4.264-0.53-5.373-1.585c-1.108-1.057-1.868-2.537-2.28-4.443h-0.154c-0.207,0.463-0.491,1.041-0.851,1.737
		c-0.361,0.695-0.916,1.367-1.662,2.011c-0.748,0.646-1.739,1.186-2.976,1.622c-1.237,0.439-2.809,0.658-4.715,0.658
		c-2.164,0-3.892-0.245-5.179-0.735c-1.289-0.489-2.294-1.094-3.015-1.816c-0.722-0.72-1.198-1.533-1.43-2.436
		c-0.232-0.899-0.348-1.737-0.348-2.512c0-1.802,0.36-3.245,1.083-4.327c0.721-1.083,1.662-1.944,2.821-2.589
		c1.159-0.645,2.447-1.172,3.864-1.585c1.417-0.412,2.847-0.851,4.291-1.313c1.701-0.566,3.103-1.056,4.211-1.47
		c1.108-0.41,1.972-0.914,2.59-1.507c0.619-0.592,1.043-1.34,1.275-2.242c0.231-0.899,0.348-2.126,0.348-3.671
		c0-1.237-0.078-2.345-0.232-3.324c-0.154-0.978-0.438-1.816-0.85-2.511c-0.414-0.696-1.005-1.225-1.778-1.585
		c-0.773-0.36-1.804-0.541-3.092-0.541c-1.701,0-3.105,0.297-4.213,0.888c-1.108,0.593-1.662,1.56-1.662,2.899
		c0,0.878,0.078,1.738,0.232,2.589c0.155,0.85,0.232,1.483,0.232,1.896c0,0.72-0.258,1.325-0.772,1.814
		c-0.516,0.492-1.264,0.735-2.241,0.735c-1.702,0-2.758-0.309-3.17-0.928c-0.413-0.619-0.618-1.417-0.618-2.396
		c0-1.133,0.257-2.216,0.773-3.246c0.514-1.03,1.275-1.944,2.28-2.744c1.004-0.798,2.268-1.43,3.788-1.895
		c1.519-0.463,3.258-0.694,5.217-0.694c2.37,0,4.354,0.296,5.952,0.888c1.597,0.593,2.885,1.392,3.865,2.396
		C266.203,560.576,266.899,561.71,267.312,562.971z M225.651,436.163h4.408l0.113,2.264c3.75-2.032,8.276-2.991,12.501-2.991
		c8.581,0,16.686,3.864,16.686,14.756v29.54h-5.472v-29.285c0-7.584-5.168-10.594-11.935-10.594c-3.85,0-7.782,0.913-10.83,2.435
		v37.444h-5.471V436.163z M220.873,499.304c0.943,0,1.745,0.181,2.406,0.538c0.66,0.357,1.217,0.842,1.67,1.443
		c0.452,0.604,0.82,1.284,1.104,2.039c0.283,0.756,0.519,1.527,0.708,2.32c0.037-0.341,0.16-0.849,0.368-1.527
		c0.207-0.681,0.453-1.293,0.736-1.841c0.283-0.547,0.585-0.914,0.906-1.105c0.32-0.188,0.631,0.021,0.934,0.623
		c-0.49,3.965-0.83,7.38-1.019,10.248c-0.189,2.868-0.265,5.303-0.227,7.303c0.038,2.001,0.189,3.622,0.454,4.868
		c0.263,1.247,0.622,2.229,1.075,2.944c0.453,0.717,0.981,1.245,1.585,1.584c0.604,0.341,1.264,0.605,1.982,0.793
		c1.019,0.19,1.896,0.104,2.632-0.254c0.737-0.358,1.387-0.84,1.954-1.443c0.566-0.604,1.066-1.227,1.5-1.868
		c0.085-0.127,0.169-0.225,0.254-0.342c0-0.037-0.006-0.075-0.006-0.111c0-1.056,0.142-2.34,0.424-3.851
		c0.284-1.508,0.698-3.093,1.246-4.755c0.547-1.659,1.208-3.312,1.981-4.954c0.773-1.641,1.671-3.113,2.689-4.415
		c1.02-1.302,2.132-2.359,3.34-3.17c1.208-0.812,2.51-1.218,3.906-1.218c1.094,0,1.933,0.405,2.519,1.218
		c0.585,0.811,0.877,1.765,0.877,2.858c-0.566,0-1-0.065-1.302-0.197c-0.303-0.134-0.585-0.284-0.849-0.453
		c-0.265-0.17-0.519-0.32-0.765-0.454c-0.246-0.131-0.594-0.198-1.047-0.198c-0.906,0-1.793,0.361-2.661,1.077
		c-0.869,0.716-1.679,1.65-2.435,2.802c-0.755,1.15-1.443,2.435-2.066,3.851c-0.623,1.414-1.161,2.84-1.614,4.272
		c-0.453,1.437-0.802,2.784-1.047,4.049c-0.246,1.263-0.368,2.312-0.368,3.142c0,0.793,0.057,1.605,0.169,2.436
		c0.114,0.829,0.34,1.575,0.68,2.233c0.339,0.662,0.821,1.209,1.444,1.644c0.623,0.435,1.424,0.65,2.406,0.65
		c1.245,0,2.443-0.395,3.595-1.188c1.151-0.793,2.217-1.756,3.199-2.887c0.981-1.133,1.849-2.351,2.604-3.652
		c0.755-1.302,1.339-2.462,1.755-3.481c-0.038-2.944-0.132-5.774-0.283-8.493c-0.151-2.717-0.265-5.272-0.34-7.668
		c-0.076-2.399-0.076-4.624,0-6.683c0.075-2.056,0.34-3.896,0.792-5.518c0.15-0.228,0.368-0.417,0.651-0.567
		c0.283-0.149,0.566-0.245,0.849-0.282s0.547,0,0.792,0.112c0.245,0.113,0.405,0.359,0.481,0.737
		c-0.416,2.828-0.651,5.442-0.708,7.839c-0.057,2.397,0,4.681,0.17,6.852c0.17,2.17,0.387,4.282,0.651,6.34s0.538,4.161,0.821,6.312
		c0.283,2.152,0.51,4.426,0.679,6.822c0.17,2.397,0.217,5.012,0.142,7.84c-0.038,0.756-0.179,1.228-0.425,1.416
		c-0.246,0.189-0.529,0.207-0.85,0.057c-0.32-0.15-0.622-0.433-0.905-0.849c-0.284-0.416-0.501-0.85-0.651-1.302
		c-0.077-0.264-0.161-0.746-0.255-1.443c-0.095-0.699-0.189-1.444-0.283-2.237c-0.095-0.792-0.18-1.538-0.255-2.236
		c-0.076-0.698-0.133-1.196-0.169-1.5c-0.604,0.645-1.359,1.435-2.265,2.379c-0.906,0.941-1.906,1.857-3,2.745
		c-1.095,0.886-2.265,1.65-3.51,2.293c-1.246,0.642-2.491,0.963-3.737,0.963c-1.321,0-2.426-0.285-3.312-0.852
		c-0.887-0.564-1.614-1.301-2.179-2.206c-0.566-0.907-0.973-1.905-1.217-3.002c-0.026-0.115-0.036-0.228-0.059-0.343
		c-0.227,0.382-0.481,0.754-0.784,1.107c-0.661,0.774-1.472,1.397-2.435,1.869s-1.973,0.688-3.029,0.65
		c-1.623,0-2.953-0.434-3.991-1.301c-1.039-0.869-1.868-1.962-2.491-3.284c-0.623-1.321-1.066-2.736-1.33-4.245
		c-0.265-1.509-0.435-2.924-0.51-4.247c-0.416,1.096-0.962,2.538-1.642,4.331c-0.68,1.793-1.501,3.547-2.463,5.265
		c-0.962,1.717-2.104,3.199-3.425,4.444c-1.322,1.245-2.831,1.869-4.529,1.869c-1.283-0.039-2.274-0.539-2.972-1.5
		c-0.699-0.963-1.18-2.218-1.444-3.767c-0.264-1.548-0.312-3.319-0.142-5.321c0.17-2.001,0.5-4.055,0.991-6.17
		c0.49-2.114,1.123-4.208,1.896-6.284c0.773-2.075,1.632-3.973,2.576-5.69c0.943-1.718,1.961-3.188,3.057-4.415
		C218.626,500.483,219.74,499.682,220.873,499.304z M229.128,557.987c-0.825,0-1.7,0.309-2.628,0.926
		c-0.928,0.618-1.792,1.521-2.589,2.706c-0.799,1.187-1.468,2.615-2.01,4.289c-0.541,1.676-0.812,3.596-0.812,5.758v17.702h6.725
		v1.082h-19.324v-1.082h5.952v-30.996h-5.952v-1.083h12.444v7.809h0.155c0.205-0.772,0.541-1.649,1.005-2.63
		c0.464-0.977,1.108-1.917,1.932-2.821c0.824-0.9,1.816-1.659,2.976-2.278s2.563-0.928,4.212-0.928c1.185,0,2.215,0.192,3.092,0.581
		c0.876,0.384,1.596,0.875,2.165,1.466c0.566,0.593,0.978,1.275,1.237,2.049c0.256,0.773,0.386,1.548,0.386,2.318
		c0,1.702-0.386,2.836-1.159,3.401c-0.773,0.567-1.675,0.852-2.705,0.852c-2.269,0-3.402-0.723-3.402-2.164
		c0-0.466,0.051-0.838,0.155-1.122c0.102-0.282,0.218-0.566,0.348-0.851c0.128-0.28,0.244-0.604,0.347-0.966
		c0.102-0.359,0.154-0.876,0.154-1.544C231.833,558.81,230.932,557.987,229.128,557.987z M215.075,452.584v10.808
		c0,8.609-4.556,17.124-16.856,17.124c-12.222,0-17.104-8.458-17.104-17.125v-10.807c0-11.039,6.014-17.318,17.151-17.318
		C209.128,435.266,215.075,442.075,215.075,452.584z M181.284,611.011v1.081h-18.551v-1.081h5.952v-52.639h-5.952v-1.083h12.445
		v6.494h0.154c0.773-2.164,2.049-3.954,3.826-5.372c1.778-1.416,4.084-2.125,6.918-2.125c2.216,0,4.302,0.477,6.261,1.43
		c1.958,0.954,3.683,2.215,5.179,3.787c1.495,1.571,2.679,3.415,3.556,5.527c0.875,2.114,1.313,4.327,1.313,6.646
		c0,2.37-0.452,4.625-1.353,6.765c-0.902,2.138-2.126,4.032-3.671,5.68c-1.546,1.65-3.337,2.965-5.372,3.941
		c-2.037,0.979-4.188,1.47-6.454,1.47c-1.752,0-3.235-0.298-4.444-0.89c-1.212-0.592-2.204-1.287-2.977-2.087
		c-0.772-0.798-1.366-1.623-1.778-2.473c-0.413-0.852-0.695-1.534-0.85-2.05h-0.155v26.978H181.284z M156.804,556.709
		c-0.566,0-1.029-0.189-1.387-0.567c-0.359-0.376-0.633-0.82-0.821-1.329c-0.19-0.51-0.332-1.038-0.425-1.586
		c-0.094-0.547-0.142-0.989-0.142-1.329c0-0.418-0.028-1.087-0.085-2.011c-0.057-0.925-0.113-1.974-0.17-3.142
		c-0.057-1.171-0.113-2.416-0.169-3.736c-0.057-1.323-0.104-2.568-0.142-3.736c-0.038-1.171-0.076-2.209-0.113-3.114
		c-0.038-0.905-0.057-1.564-0.057-1.98c-0.566,0-1.01,0.027-1.331,0.084s-0.604,0.057-0.849,0c-0.246-0.057-0.491-0.207-0.736-0.452
		c-0.246-0.246-0.595-0.651-1.047-1.218c1.094,0.19,1.869,0.16,2.321-0.086c0.453-0.243,0.963-0.556,1.529-0.933l-2.491-29.551
		c-0.189-0.49-0.218-0.907-0.085-1.246c0.132-0.341,0.331-0.604,0.595-0.792c0.263-0.19,0.565-0.332,0.905-0.425
		c0.34-0.096,0.66-0.143,0.963-0.143c2.038,0,4.095,0.151,6.17,0.453c2.075,0.303,3.962,0.926,5.662,1.868
		c1.698,0.943,3.076,2.293,4.132,4.049c1.057,1.754,1.585,4.085,1.585,6.989c-0.038,2.343-0.473,4.644-1.302,6.908
		c-0.831,2.265-1.925,4.34-3.284,6.228c-1.358,1.887-2.878,3.51-4.557,4.867c-1.68,1.36-3.388,2.322-5.124,2.888L156.804,556.709z
		 M136.575,576.726c0.088,0.794,0.281,1.512,0.58,2.152c0.298,0.643,0.739,1.172,1.325,1.591c0.585,0.419,1.363,0.63,2.335,0.63
		c0.972,0,1.773-0.144,2.402-0.432c0.629-0.286,1.126-0.633,1.49-1.043c0.365-0.409,0.635-0.823,0.812-1.243
		c0.177-0.419,0.309-0.76,0.398-1.025l0.497,0.1c-0.067,0.242-0.193,0.589-0.381,1.042c-0.188,0.453-0.487,0.907-0.895,1.358
		c-0.409,0.452-0.961,0.85-1.656,1.192c-0.696,0.342-1.596,0.515-2.7,0.515c-1.105,0-2.126-0.178-3.065-0.53
		c-0.938-0.354-1.75-0.861-2.434-1.524c-0.686-0.661-1.215-1.452-1.591-2.368c-0.375-0.918-0.562-1.938-0.562-3.064
		c0-0.973,0.193-1.916,0.58-2.832c0.386-0.917,0.916-1.728,1.59-2.436c0.673-0.705,1.463-1.276,2.369-1.705
		c0.905-0.433,1.876-0.647,2.915-0.647c0.619,0,1.281,0.111,1.988,0.331c0.706,0.222,1.363,0.581,1.971,1.077
		c0.607,0.499,1.115,1.155,1.524,1.972c0.408,0.815,0.613,1.833,0.613,3.048h-10.204c0,0.22-0.005,0.447-0.016,0.679
		c-0.012,0.233-0.017,0.524-0.017,0.878C136.442,575.168,136.486,575.931,136.575,576.726z M145.939,533.525
		c-0.83,0.511-1.774,0.859-2.83,1.047c-1.057,0.189-2.189,0.285-3.397,0.285c-1.208-0.078-2.359-0.199-3.453-0.368
		c-1.096-0.171-2.076-0.404-2.944-0.707c-0.868-0.305-1.576-0.681-2.123-1.134c-0.547-0.453-0.877-0.998-0.991-1.642
		c0.679,0,1.387,0.085,2.123,0.254c0.736,0.171,1.472,0.368,2.208,0.595s1.491,0.424,2.265,0.595
		c0.773,0.17,1.557,0.255,2.349,0.255c0.754,0,1.565-0.104,2.435-0.311c0.868-0.207,1.661-0.528,2.377-0.963s1.311-0.99,1.783-1.671
		c0.472-0.679,0.708-1.491,0.708-2.433c0-1.246-0.368-2.435-1.104-3.568c-0.736-1.132-1.661-2.243-2.774-3.34
		c-1.113-1.095-2.312-2.188-3.595-3.284c-1.283-1.095-2.482-2.217-3.595-3.368c-1.113-1.15-2.038-2.349-2.774-3.594
		c-0.735-1.246-1.104-2.566-1.104-3.963c0-1.02,0.302-1.954,0.905-2.803c0.604-0.85,1.35-1.566,2.237-2.151
		c0.886-0.586,1.849-1.047,2.887-1.387c1.038-0.339,2.01-0.51,2.915-0.51c0.68-0.075,1.378,0,2.095,0.228
		c0.716,0.226,1.339,0.594,1.868,1.104c0.529,0.51,0.915,1.15,1.16,1.924c0.246,0.773,0.235,1.652-0.027,2.633
		c-0.114,0.645-0.265,1.096-0.454,1.359c-0.189,0.263-0.388,0.377-0.594,0.338c-0.208-0.034-0.434-0.169-0.679-0.396
		c-0.246-0.226-0.501-0.489-0.764-0.79c0-0.455-0.01-0.927-0.029-1.416s-0.085-0.935-0.198-1.331s-0.312-0.716-0.594-0.961
		c-0.283-0.246-0.708-0.369-1.274-0.369c-0.717,0-1.472,0.112-2.264,0.341c-0.793,0.226-1.51,0.556-2.152,0.989
		c-0.642,0.435-1.18,0.963-1.613,1.585c-0.435,0.623-0.651,1.351-0.651,2.18c-0.189,0.717,0.085,1.566,0.821,2.548
		c0.736,0.983,1.689,2.059,2.859,3.227c1.169,1.17,2.453,2.397,3.85,3.68c1.396,1.284,2.661,2.595,3.793,3.936
		c1.132,1.34,2.029,2.68,2.689,4.019c0.66,1.341,0.858,2.633,0.594,3.878c-0.113,1.359-0.425,2.482-0.934,3.369
		C147.439,532.319,146.769,533.017,145.939,533.525z M124.799,567.814c-0.409-0.551-1.043-0.828-1.905-0.828
		c-0.707,0-1.38,0.154-2.021,0.464c-0.64,0.309-1.204,0.739-1.689,1.292s-0.867,1.203-1.143,1.954
		c-0.276,0.751-0.414,1.568-0.414,2.453v7.484h2.55v0.465h-7.95v-0.465h2.55v-22.955h-2.55v-0.465h5.399v13.018h0.066
		c0.11-0.286,0.298-0.646,0.563-1.075c0.266-0.432,0.624-0.839,1.077-1.227c0.452-0.386,1.004-0.717,1.656-0.992
		c0.651-0.277,1.43-0.414,2.335-0.414c1.457,0,2.644,0.353,3.561,1.059c0.916,0.707,1.374,1.833,1.374,3.379v9.673h2.551v0.465
		h-7.95v-0.465h2.55v-10.698C125.412,569.073,125.208,568.367,124.799,567.814z M142.332,462.86v-9.778
		c0-11.643,6.923-17.694,16.978-17.694c5.534,0,9.8,2.066,13.062,5.396l-4.062,2.203c-2.743-1.997-5.823-3.003-8.999-3.003
		c-6.617,0-11.507,4.095-11.507,13.099v9.778c0,9.004,4.89,13.101,11.507,13.101c3.176,0,6.255-1.008,8.999-3.004l4.062,2.201
		c-3.262,3.326-7.528,5.357-13.062,5.357C149.255,480.516,142.332,474.502,142.332,462.86z M172.395,501.964
		c-0.02-0.338-0.009-0.679,0.028-1.019c0.037-0.339,0.132-0.641,0.283-0.906c0.15-0.262,0.396-0.433,0.736-0.508
		c0.83,0.15,1.331,0.518,1.5,1.104c0.17,0.584,0.255,1.463,0.255,2.633s0.027,2.659,0.085,4.472c0.057,1.812,0.387,4.019,0.99,6.624
		c0.679-1.961,1.462-3.896,2.35-5.803c0.886-1.906,1.944-3.586,3.17-5.039c1.226-1.454,2.641-2.604,4.246-3.454
		c1.604-0.849,3.444-1.196,5.52-1.047v1.868c-2.001,0.15-3.737,0.707-5.208,1.67s-2.727,2.229-3.765,3.793
		c-1.038,1.566-1.887,3.397-2.547,5.492s-1.189,4.321-1.584,6.68c-0.397,2.359-0.689,4.805-0.878,7.331
		c-0.189,2.529-0.321,5.039-0.396,7.53c0,0.905-0.283,1.358-0.849,1.358c-0.566,0-1.113-0.376-1.642-1.132
		c-0.077-1.586-0.151-3.019-0.227-4.303c-0.076-1.282-0.151-2.558-0.227-3.82c-0.076-1.266-0.17-2.586-0.283-3.963
		c-0.113-1.38-0.246-2.953-0.396-4.729c-0.151-1.773-0.321-3.793-0.51-6.057c-0.189-2.265-0.396-4.945-0.623-8.039
		C172.423,502.552,172.414,502.305,172.395,501.964z M199.591,532.252c-1.132,0.718-2.246,1.293-3.34,1.728
		c-1.096,0.433-2.02,0.614-2.774,0.536c-0.792,0-1.566-0.197-2.321-0.594c-0.755-0.396-1.425-0.914-2.01-1.556
		c-0.586-0.643-1.057-1.38-1.415-2.209c-0.36-0.828-0.538-1.679-0.538-2.547c0-1.282,0.17-2.944,0.51-4.982
		c0.339-2.038,0.821-4.18,1.443-6.425c0.623-2.246,1.378-4.48,2.264-6.708c0.886-2.229,1.868-4.18,2.944-5.861
		c1.075-1.679,2.236-2.95,3.481-3.82c1.246-0.868,2.566-1.075,3.963-0.623c0.263-0.037,0.651,0.198,1.161,0.707
		c0.509,0.511,0.914,1.304,1.217,2.379c0.302,1.075,0.396,2.436,0.284,4.075c-0.114,1.642-0.633,3.604-1.557,5.889
		c-0.925,2.281-2.359,4.878-4.302,7.783c-1.945,2.909-4.614,6.152-8.011,9.737c0.68,1.058,1.491,1.681,2.435,1.868
		c0.942,0.191,1.944,0.095,3-0.282c1.056-0.377,2.114-0.972,3.17-1.784c1.057-0.811,2.038-1.67,2.944-2.574
		c0.906-0.906,1.689-1.803,2.35-2.69c0.66-0.888,1.123-1.593,1.387-2.122c0.642,0.564,0.887,1.273,0.736,2.122
		c-0.151,0.85-0.557,1.748-1.217,2.69s-1.509,1.876-2.547,2.8C201.808,530.713,200.724,531.536,199.591,532.252z M94.026,321.587
		c0-22.874,21.527-41.419,48.084-41.419c26.553,0,48.08,18.545,48.08,41.419v89.492h-26.754c1.54-1.143,2.938-2.437,4.18-3.89
		c1.534-1.801,2.82-3.719,3.855-5.762c1.038-2.041,1.824-4.167,2.365-6.376c0.539-2.213,0.808-4.397,0.808-6.553
		c0-2.814-0.465-5.369-1.396-7.664c-0.93-2.295-2.22-4.252-3.87-5.871s-3.624-2.867-5.918-3.745
		c-2.295-0.877-4.808-1.316-7.537-1.316c-2.053,0-4.162,0.26-6.332,0.778c-2.167,0.518-4.425,1.316-6.773,2.395l-0.127-0.064
		c0.317-1.354,0.603-2.866,0.856-4.537c0.255-1.671,0.488-3.39,0.7-5.157c0.212-1.766,0.395-3.516,0.555-5.25
		c0.159-1.735,0.302-3.353,0.428-4.855c3.595,0.72,6.87,1.264,9.82,1.635c2.952,0.371,5.601,0.556,7.949,0.556
		c3.299,0,5.875-0.44,7.728-1.317c1.85-0.877,2.775-2.151,2.775-3.824c0-1.015-0.35-2.125-1.046-3.332
		c-3.236,0.403-6.335,0.661-9.296,0.777c-2.962,0.117-5.946,0.176-8.949,0.176c-1.058,0-2.084-0.011-3.078-0.033
		c-0.994-0.021-1.999-0.047-3.014-0.079c-1.016-0.032-2.051-0.074-3.109-0.127c-1.058-0.053-2.17-0.11-3.333-0.175
		c-0.232,4.973-0.587,9.805-1.062,14.502c-0.476,4.697-1.105,9.086-1.889,13.168l1.461,2.094c2.052-1.015,3.977-1.751,5.775-2.206
		c1.798-0.454,3.522-0.682,5.172-0.682c2.306,0,4.395,0.445,6.267,1.332c1.872,0.89,3.475,2.117,4.808,3.682
		c1.333,1.564,2.363,3.406,3.094,5.519c0.73,2.117,1.093,4.402,1.093,6.855c0,1.65-0.158,3.285-0.474,4.904
		c-0.318,1.617-0.778,3.167-1.382,4.647c-0.603,1.481-1.341,2.85-2.22,4.107c-0.879,1.26-1.883,2.354-3.015,3.286
		c-1.132,0.93-2.39,1.66-3.776,2.189c-0.209,0.08-0.426,0.142-0.639,0.211h-7.565c-1.174-0.361-2.292-0.896-3.345-1.623
		c-1.089-0.751-2.094-1.704-3.015-2.854c-0.92-1.154-1.696-2.534-2.332-4.141c-0.72,0-1.386,0.143-1.999,0.427
		c-0.614,0.287-1.142,0.662-1.586,1.128c-0.443,0.464-0.794,0.983-1.047,1.554c-0.254,0.571-0.381,1.153-0.381,1.745
		c0,1.12,0.228,2.116,0.682,2.983c0.145,0.276,0.332,0.525,0.507,0.781H94.026V321.587z M100.933,567.351v-0.464h2.55v-4.273
		c0.176,0.066,0.342,0.123,0.497,0.164c0.153,0.047,0.419,0.069,0.794,0.069c0.332,0,0.618-0.041,0.861-0.116
		c0.243-0.079,0.475-0.205,0.696-0.382v4.538h4.704v0.464h-4.704v10.833c0,0.617,0.061,1.12,0.183,1.506
		c0.121,0.387,0.281,0.687,0.48,0.896c0.199,0.21,0.414,0.348,0.646,0.413s0.458,0.101,0.679,0.101c0.773,0,1.397-0.282,1.872-0.846
		s0.779-1.208,0.911-1.937l0.464,0.164c-0.066,0.289-0.166,0.607-0.298,0.961c-0.133,0.354-0.337,0.69-0.612,1.01
		c-0.277,0.321-0.636,0.586-1.078,0.797c-0.442,0.209-0.994,0.314-1.656,0.314c-1.657,0-2.811-0.321-3.462-0.963
		c-0.651-0.64-0.977-1.544-0.977-2.715v-10.534H100.933z M75.671,506.295c-0.886,0.207-1.821,0.406-2.802,0.595
		c-0.15,0-0.312-0.17-0.481-0.509c-0.17-0.34-0.331-1-0.481-1.981c0.49-0.15,1.028-0.274,1.613-0.368
		c0.585-0.096,1.179-0.217,1.783-0.369c0.604-0.148,1.18-0.33,1.727-0.537s1.01-0.499,1.387-0.877v-8.55
		c0-0.188,0.065-0.414,0.198-0.679c0.132-0.263,0.32-0.5,0.566-0.707c0.245-0.209,0.538-0.368,0.877-0.481
		c0.339-0.113,0.716-0.113,1.132,0l0.113,9.963l14.209-2.718c0,0.418-0.104,0.794-0.312,1.134c-0.208,0.339-0.462,0.642-0.764,0.905
		c-0.302,0.265-0.623,0.48-0.963,0.65c-0.339,0.171-0.642,0.293-0.905,0.368c-0.792,0.228-1.718,0.453-2.774,0.679
		c-1.056,0.228-2.123,0.455-3.198,0.681c-1.076,0.228-2.095,0.473-3.057,0.735c-0.963,0.265-1.747,0.53-2.35,0.793v28.816
		c0,0.263-0.133,0.473-0.396,0.623s-0.558,0.272-0.877,0.368c-0.321,0.093-0.632,0.15-0.934,0.168
		c-0.303,0.019-0.491,0.03-0.566,0.03v-29.043C77.474,505.984,76.557,506.088,75.671,506.295z M94.433,512.24
		c0.679-3.265,1.5-5.878,2.463-7.841c0.962-1.961,2.01-3.332,3.142-4.104c1.133-0.774,2.321-1.085,3.566-0.935
		c1.548,0.077,2.84,0.624,3.878,1.643c1.038,1.02,1.84,2.357,2.406,4.019c0.566,1.661,0.896,3.539,0.991,5.633
		c0.093,2.095-0.01,4.238-0.312,6.426c-0.303,2.189-0.793,4.34-1.473,6.454c-0.679,2.115-1.538,4.001-2.575,5.662
		c-1.039,1.661-2.227,3.008-3.567,4.047c-1.339,1.038-2.822,1.593-4.444,1.67c-1.396,0-2.472-0.358-3.227-1.075
		c-0.755-0.716-1.312-1.614-1.67-2.689c-0.359-1.076-0.566-2.216-0.623-3.426c-0.057-1.207-0.085-2.3-0.085-3.282
		C93.244,519.57,93.753,515.505,94.433,512.24z M87.304,440.04c-4.223,0-7.527,0.965-10.037,2.546l-2.86-2.995
		c2.858-2.356,7.123-4.139,13.419-4.139c16.472,0,18.281,9.238,18.281,18.253v26.2h-4.409l-0.112-2.247
		c-3.605,2.022-8.099,3.033-12.392,3.033c-9.39-0.262-17.484-3.851-17.484-15.119c0-11.798,9.035-14.713,18.643-14.713
		c3.14,0,6.762,0.374,10.283,0.837C100.509,445.76,98.809,440.04,87.304,440.04z M177.876,693.276l-16.847-27.34H96.88
		l-17.188,27.34h-8.664l55.196-87.03h6.931l53.141,87.03H177.876z M288.732,686.623c-10.355,5.035-22.679,7.552-36.97,7.552
		c-17.287,0-31.448-3.036-42.488-9.113c-14.206-7.702-21.308-19.383-21.308-35.043c0-15.489,6.845-27.171,20.538-35.045
		c11.124-6.417,25.116-9.627,41.975-9.627c12.921,0,23.96,1.757,33.119,5.264c12.15,4.793,20.024,13.266,23.62,25.417h-7.823
		c-5.128-16.518-21.326-24.776-48.594-24.776c-15.302,0-27.823,2.835-37.567,8.501c-11.796,6.783-17.694,16.83-17.694,30.139
		c0,13.65,6.118,23.785,18.357,30.395c9.755,5.324,22.418,7.984,37.995,7.984c11.98,0,22.677-2.19,32.091-6.572
		c11.467-5.24,17.201-12.76,17.201-22.555v-2.32h-50.447v-5.907h57.379c0.428,2.817,0.642,5.08,0.642,6.785
		C308.758,670.5,302.083,680.141,288.732,686.623z M308.625,584.381c-0.438,1.058-1.133,2.113-2.086,3.172
		c-0.955,1.056-2.242,1.984-3.865,2.781c-1.623,0.799-3.724,1.198-6.299,1.198c-1.959,0-3.994-0.311-6.106-0.928
		c-2.114-0.619-4.046-1.61-5.797-2.977c-1.752-1.365-3.183-3.154-4.29-5.372c-1.108-2.215-1.662-4.946-1.662-8.192
		c0-2.525,0.476-4.87,1.431-7.033c0.953-2.165,2.241-4.046,3.864-5.644c1.624-1.596,3.529-2.847,5.719-3.748
		c2.19-0.902,4.522-1.353,6.996-1.353c1.392,0,2.82,0.166,4.289,0.501c1.469,0.338,2.808,0.852,4.02,1.547
		c1.21,0.695,2.215,1.597,3.015,2.706c0.799,1.107,1.198,2.461,1.198,4.058c0,1.081-0.349,1.969-1.045,2.668
		c-0.694,0.694-1.687,1.042-2.976,1.042c-0.876,0-1.712-0.193-2.511-0.579c-0.8-0.388-1.198-1.046-1.198-1.973
		c0-0.72,0.179-1.596,0.54-2.627c0.36-1.031,0.543-1.88,0.543-2.553c0-1.184-0.594-2.098-1.778-2.742
		c-1.187-0.643-2.552-0.966-4.097-0.966c-1.134,0-2.306,0.143-3.517,0.425c-1.211,0.284-2.318,0.992-3.324,2.126
		c-1.004,1.133-1.829,2.834-2.473,5.101c-0.645,2.269-0.966,5.359-0.966,9.275c0,2.217,0.141,4.304,0.425,6.262
		c0.282,1.957,0.797,3.672,1.545,5.141c0.747,1.467,1.778,2.627,3.091,3.478c1.315,0.851,3.027,1.275,5.141,1.275
		c2.267,0,4.134-0.335,5.604-1.005c1.469-0.67,2.627-1.48,3.478-2.436c0.852-0.952,1.481-1.918,1.895-2.897
		c0.412-0.979,0.721-1.779,0.927-2.397l1.159,0.232C309.36,582.514,309.062,583.326,308.625,584.381z M310.955,531.375
		c-0.963,0.472-1.974,0.688-3.03,0.65c-1.623,0-2.952-0.434-3.99-1.301c-1.038-0.869-1.868-1.962-2.491-3.284
		c-0.623-1.321-1.067-2.736-1.332-4.245c-0.264-1.509-0.434-2.924-0.509-4.247c-0.415,1.096-0.962,2.538-1.642,4.331
		c-0.679,1.793-1.5,3.547-2.462,5.265c-0.963,1.717-2.104,3.199-3.425,4.444c-1.322,1.245-2.831,1.869-4.529,1.869
		c-1.283-0.039-2.274-0.539-2.972-1.5c-0.699-0.963-1.18-2.218-1.444-3.767c-0.264-1.548-0.312-3.319-0.142-5.321
		c0.17-2.001,0.5-4.055,0.991-6.17c0.49-2.114,1.123-4.208,1.896-6.284c0.773-2.075,1.632-3.973,2.576-5.69
		c0.943-1.718,1.961-3.188,3.057-4.415c1.094-1.227,2.208-2.028,3.34-2.406c0.943,0,1.745,0.181,2.406,0.538
		c0.66,0.357,1.216,0.842,1.67,1.443c0.453,0.604,0.822,1.284,1.105,2.039c0.283,0.756,0.517,1.527,0.706,2.32
		c0.038-0.341,0.161-0.849,0.369-1.527c0.209-0.681,0.453-1.293,0.736-1.841c0.283-0.547,0.585-0.914,0.906-1.105
		c0.32-0.188,0.631,0.021,0.933,0.623c-0.49,3.965-0.83,7.38-1.019,10.248c-0.189,2.868-0.266,5.303-0.227,7.303
		c0.037,2.001,0.189,3.622,0.453,4.868c0.264,1.247,0.622,2.229,1.074,2.944c0.453,0.717,0.982,1.245,1.586,1.584
		c0.604,0.341,1.265,0.605,1.981,0.793c1.019,0.19,1.897,0.104,2.634-0.254c0.735-0.358,1.386-0.84,1.952-1.443
		s1.066-1.227,1.502-1.868c0.257-0.381,0.509-0.699,0.759-0.986v-18.998c0-0.868,0.217-1.67,0.65-2.406
		c0.434-0.735,1.142-1.104,2.124-1.104v14.749c0.02-0.617,0.083-1.339,0.197-2.182c0.17-1.246,0.443-2.575,0.82-3.991
		c0.378-1.416,0.858-2.831,1.444-4.245c0.584-1.415,1.264-2.688,2.037-3.822c0.774-1.132,1.633-2.038,2.576-2.717
		c0.944-0.679,1.981-0.981,3.114-0.906c1.32,0,2.415,0.425,3.283,1.274c0.868,0.849,1.558,1.868,2.065,3.058
		c0.511,1.187,0.888,2.426,1.133,3.706c0.245,1.284,0.425,2.342,0.538,3.172c0.113,0.529,0.189,1.396,0.228,2.603
		c0.037,1.211,0.075,2.577,0.112,4.105c0.038,1.528,0.085,3.133,0.142,4.812c0.057,1.681,0.133,3.265,0.226,4.756
		c0.096,1.491,0.218,2.792,0.368,3.906c0.151,1.114,0.359,1.877,0.623,2.293c0.038,0.34-0.112,0.67-0.452,0.991
		s-0.736,0.566-1.189,0.735s-0.887,0.208-1.302,0.113s-0.68-0.405-0.793-0.936c-0.415-1.697-0.68-3.678-0.792-5.942
		c-0.113-2.265-0.189-4.597-0.228-6.992c-0.037-2.396-0.065-4.736-0.084-7.02c-0.02-2.283-0.142-4.321-0.367-6.114
		c-0.228-1.793-0.615-3.208-1.161-4.247c-0.547-1.036-1.33-1.5-2.35-1.386c-1.133,0.075-2.142,0.604-3.028,1.584
		c-0.888,0.982-1.67,2.256-2.35,3.822s-1.255,3.34-1.728,5.321c-0.471,1.982-0.877,4.001-1.217,6.059
		c-0.34,2.056-0.622,4.047-0.85,5.971c-0.227,1.927-0.405,3.625-0.538,5.096c-0.132,1.473-0.244,2.614-0.339,3.425
		c-0.095,0.812-0.18,1.143-0.255,0.99c-0.114,0-0.321,0.012-0.622,0.028c-0.304,0.021-0.604,0.021-0.907,0
		c-0.301-0.017-0.565-0.075-0.792-0.17c-0.227-0.093-0.339-0.273-0.339-0.536v-5.83c-0.27,0.521-0.583,1.026-0.986,1.498
		C312.729,530.28,311.917,530.903,310.955,531.375z M330.707,693.276h-7.574v-87.03h7.574V693.276z M337.648,586.586
		c-0.309,0.824-0.786,1.61-1.431,2.357c-0.643,0.746-1.48,1.364-2.511,1.854c-1.032,0.49-2.319,0.735-3.865,0.735
		c-3.864,0-6.558-0.749-8.077-2.241c-1.521-1.495-2.28-3.606-2.28-6.338v-24.581h-5.951v-1.083h5.951v-9.971
		c0.413,0.156,0.799,0.286,1.159,0.388c0.36,0.104,0.979,0.154,1.856,0.154c0.771,0,1.441-0.09,2.009-0.271
		c0.566-0.181,1.107-0.475,1.623-0.889v10.588h10.977v1.083h-10.977v25.275c0,1.444,0.143,2.615,0.426,3.517
		c0.282,0.902,0.658,1.599,1.121,2.088c0.463,0.49,0.966,0.811,1.506,0.967c0.542,0.154,1.069,0.231,1.587,0.231
		c1.801,0,3.257-0.656,4.365-1.972c1.107-1.314,1.816-2.82,2.125-4.522l1.083,0.388
		C338.191,585.015,337.959,585.762,337.648,586.586z M338.712,525.516c0-1.056,0.142-2.34,0.425-3.851
		c0.283-1.508,0.699-3.093,1.246-4.755c0.547-1.659,1.208-3.312,1.981-4.954c0.773-1.641,1.67-3.113,2.688-4.415
		s2.133-2.359,3.34-3.17c1.208-0.812,2.51-1.218,3.906-1.218c1.095,0,1.935,0.405,2.521,1.218c0.584,0.811,0.877,1.765,0.877,2.858
		c-0.565,0-1.001-0.065-1.302-0.197c-0.303-0.134-0.585-0.284-0.851-0.453c-0.264-0.17-0.518-0.32-0.763-0.454
		c-0.246-0.131-0.596-0.198-1.048-0.198c-0.906,0-1.793,0.361-2.662,1.077c-0.866,0.716-1.679,1.65-2.433,2.802
		c-0.756,1.15-1.444,2.435-2.066,3.851c-0.624,1.414-1.161,2.84-1.614,4.272c-0.452,1.437-0.802,2.784-1.048,4.049
		c-0.244,1.263-0.367,2.312-0.367,3.142c0,0.793,0.056,1.605,0.17,2.436c0.113,0.829,0.34,1.575,0.68,2.233
		c0.339,0.662,0.821,1.209,1.443,1.644c0.623,0.435,1.424,0.65,2.406,0.65c1.245,0,2.443-0.395,3.595-1.188
		c1.15-0.793,2.217-1.756,3.198-2.887c0.98-1.133,1.85-2.351,2.604-3.652c0.754-1.302,1.34-2.462,1.754-3.481
		c-0.038-2.944-0.131-5.774-0.282-8.493c-0.15-2.717-0.264-5.272-0.34-7.668c-0.075-2.399-0.075-4.624,0-6.683
		c0.076-2.056,0.34-3.896,0.793-5.518c0.15-0.228,0.367-0.417,0.65-0.567c0.283-0.149,0.566-0.245,0.85-0.282
		c0.282-0.037,0.548,0,0.793,0.112c0.244,0.113,0.405,0.359,0.48,0.737c-0.415,2.828-0.65,5.442-0.708,7.839
		c-0.055,2.397,0,4.681,0.171,6.852c0.169,2.17,0.387,4.282,0.65,6.34c0.265,2.058,0.537,4.161,0.821,6.312
		c0.283,2.152,0.51,4.426,0.679,6.822c0.17,2.397,0.217,5.012,0.142,7.84c-0.037,0.756-0.18,1.228-0.425,1.416
		c-0.244,0.189-0.527,0.207-0.848,0.057c-0.321-0.15-0.623-0.433-0.906-0.849c-0.284-0.416-0.5-0.85-0.651-1.302
		c-0.076-0.264-0.16-0.746-0.255-1.443c-0.095-0.699-0.189-1.444-0.283-2.237c-0.094-0.792-0.179-1.538-0.254-2.236
		c-0.076-0.698-0.133-1.196-0.171-1.5c-0.604,0.645-1.358,1.435-2.265,2.379c-0.904,0.941-1.905,1.857-3,2.745
		c-1.094,0.886-2.265,1.65-3.51,2.293c-1.245,0.642-2.491,0.963-3.736,0.963c-1.32,0-2.425-0.285-3.312-0.852
		c-0.887-0.564-1.614-1.301-2.18-2.206c-0.566-0.907-0.973-1.905-1.217-3.002C338.835,527.646,338.712,526.571,338.712,525.516z
		 M353.338,539.28c0,1.136-0.399,2.101-1.196,2.9c-0.8,0.798-1.766,1.198-2.899,1.198c-1.135,0-2.1-0.4-2.897-1.198
		c-0.801-0.8-1.198-1.765-1.198-2.9c0-1.132,0.397-2.099,1.198-2.897c0.798-0.798,1.763-1.198,2.897-1.198
		c1.134,0,2.1,0.4,2.899,1.198C352.938,537.182,353.338,538.148,353.338,539.28z M340.122,589.368h5.951v-30.996h-5.951v-1.083
		h12.599v32.079h5.951v1.082h-18.55V589.368z M428.008,693.276h-81.641v-87.03h7.573v81.126h74.067V693.276z M409.529,580.248
		c0.208,1.854,0.658,3.529,1.354,5.024c0.695,1.494,1.725,2.73,3.092,3.708c1.364,0.979,3.182,1.47,5.449,1.47
		c2.267,0,4.135-0.335,5.604-1.005c1.467-0.67,2.627-1.48,3.477-2.436c0.851-0.952,1.481-1.918,1.895-2.897
		c0.412-0.979,0.721-1.779,0.928-2.397l1.158,0.232c-0.153,0.566-0.451,1.379-0.889,2.434c-0.437,1.058-1.132,2.113-2.086,3.172
		c-0.954,1.056-2.241,1.984-3.866,2.781c-1.623,0.799-3.723,1.198-6.298,1.198c-2.578,0-4.96-0.414-7.15-1.237
		c-2.191-0.823-4.085-2.01-5.681-3.557c-1.599-1.543-2.835-3.388-3.711-5.525c-0.877-2.139-1.314-4.521-1.314-7.149
		c0-2.268,0.452-4.47,1.354-6.609c0.9-2.138,2.137-4.03,3.711-5.681c1.569-1.649,3.413-2.976,5.526-3.98
		c2.112-1.006,4.379-1.507,6.802-1.507c1.441,0,2.987,0.258,4.638,0.771c1.648,0.516,3.182,1.354,4.597,2.512
		c1.418,1.16,2.603,2.694,3.557,4.6c0.953,1.907,1.431,4.278,1.431,7.111h-23.808c0,0.516-0.013,1.044-0.037,1.584
		c-0.027,0.543-0.039,1.226-0.039,2.049C409.222,576.613,409.323,578.392,409.529,580.248z M431.646,526.364
		c0.378-2.49,0.567-4.962,0.567-7.416c0-2.452-0.114-4.915-0.341-7.387c-0.227-2.474-0.538-4.945-0.934-7.417
		s-0.82-4.991-1.274-7.559c0-0.452,0.019-0.885,0.058-1.302c0.038-0.416,0.142-0.782,0.311-1.103
		c0.17-0.321,0.425-0.576,0.765-0.766c0.339-0.189,0.792-0.263,1.358-0.226l2.831,21.116c0.415-1.094,0.915-2.293,1.5-3.597
		c0.585-1.301,1.283-2.519,2.095-3.649c0.811-1.134,1.765-2.076,2.859-2.832c1.095-0.754,2.357-1.131,3.793-1.131
		c1.735,0,3.197,0.548,4.388,1.642c1.188,1.095,2.149,2.434,2.886,4.019c0.736,1.586,1.266,3.265,1.587,5.038
		c0.319,1.775,0.479,3.34,0.479,4.699c-0.075,1.925-0.312,3.87-0.708,5.831c-0.396,1.963-1.027,3.758-1.896,5.379
		c-0.868,1.623-1.991,2.943-3.368,3.962c-1.378,1.02-3.048,1.528-5.012,1.528c-0.979,0.076-2.104-0.02-3.367-0.282
		c-1.265-0.264-2.491-0.735-3.68-1.415c-1.189-0.68-2.236-1.604-3.143-2.773C432.496,529.556,431.911,528.102,431.646,526.364z
		 M522.867,693.276H433.91v-87.03h88.06v5.902h-80.741v32.863h71.498v5.903h-71.498v36.457h81.639V693.276z M525.357,459.782
		h-27.514v7.211c0,6.552,4.153,9.325,10.592,9.325c4.575,0,8.576-1.251,11.874-3.49l3.006,2.762
		c-3.801,3.1-8.793,5.102-15.268,5.102c-10.103,0-15.545-5.521-15.545-14.187v-15.352c0-10.038,6.521-15.766,16.904-15.766
		c10.549,0,15.95,6.064,15.95,15.575V459.782z"/>
	<path fill="#FFFFFF" d="M465.47,569.528c-0.364-0.562-0.823-0.967-1.374-1.209c-0.553-0.241-1.205-0.365-1.955-0.365
		c-0.752,0-1.403,0.124-1.954,0.365c-0.553,0.242-1.01,0.646-1.375,1.209c-0.364,0.564-0.635,1.293-0.812,2.187
		c-0.176,0.894-0.264,2.004-0.264,3.33c0,1.566,0.121,2.815,0.364,3.744c0.243,0.925,0.563,1.638,0.962,2.134
		c0.396,0.499,0.861,0.825,1.39,0.979c0.53,0.154,1.094,0.231,1.689,0.231s1.159-0.077,1.69-0.231
		c0.529-0.154,0.993-0.48,1.391-0.979c0.398-0.496,0.717-1.209,0.96-2.134c0.242-0.929,0.365-2.178,0.365-3.744
		c0-1.326-0.088-2.437-0.267-3.33C466.104,570.821,465.833,570.093,465.47,569.528z"/>
	<path fill="#FFFFFF" d="M413,523.93c0.999-1.056,2.028-2.404,3.086-4.047c1.056-1.642,2.056-3.435,3-5.378
		c0.943-1.944,1.688-3.783,2.235-5.521c0.547-1.734,0.812-3.218,0.793-4.443c-0.019-1.229-0.462-1.954-1.33-2.18
		c-0.793,0-1.613,0.5-2.463,1.499c-0.849,1.002-1.67,2.265-2.463,3.794c-0.792,1.528-1.538,3.207-2.236,5.038
		c-0.697,1.829-1.293,3.604-1.783,5.322s-0.849,3.246-1.075,4.585c-0.227,1.341-0.283,2.294-0.17,2.86
		C411.198,525.497,412,524.987,413,523.93z"/>
	<path fill="#FFFFFF" d="M127.794,320.169c-0.592,1.012-1.376,2.103-2.35,3.273c-0.973,1.17-2.177,2.44-3.614,3.809
		c-1.438,1.368-3.128,2.843-5.075,4.423c-1.945,1.582-4.187,3.292-6.727,5.131l0.229,1.962c2.417-0.197,4.683-0.349,6.796-0.456
		c2.114-0.107,4.174-0.16,6.18-0.16c2.158,0,4.268,0.046,6.329,0.137c2.06,0.092,4.185,0.243,6.374,0.456
		c0.442-1.003,0.661-1.855,0.661-2.554c0-0.533-0.125-0.992-0.375-1.38c-0.251-0.387-0.611-0.703-1.084-0.945
		c-0.471-0.244-1.036-0.422-1.699-0.536c-0.661-0.114-1.409-0.171-2.245-0.171c-1.004,0-2.137,0.057-3.398,0.171
		c-1.263,0.114-2.592,0.281-3.992,0.501c-1.398,0.22-2.842,0.483-4.332,0.787c-1.49,0.305-2.949,0.647-4.378,1.026l-0.045-0.114
		c2.705-1.793,5.078-3.467,7.115-5.018c2.038-1.551,3.801-3.006,5.292-4.367c1.489-1.36,2.726-2.641,3.705-3.843
		c0.981-1.2,1.764-2.337,2.349-3.409c0.585-1.072,1-2.094,1.243-3.067c0.244-0.973,0.365-1.923,0.365-2.85
		c0-1.277-0.254-2.417-0.764-3.42c-0.51-1.004-1.208-1.852-2.098-2.543c-0.889-0.691-1.938-1.221-3.146-1.585
		c-1.208-0.365-2.505-0.548-3.888-0.548c-0.958,0-1.976,0.1-3.057,0.298c-1.079,0.197-2.147,0.478-3.203,0.843
		c-1.057,0.365-2.072,0.813-3.044,1.345c-0.973,0.531-1.829,1.137-2.566,1.813c-0.738,0.677-1.326,1.422-1.768,2.235
		c-0.439,0.814-0.661,1.676-0.661,2.588c0,0.639,0.117,1.208,0.353,1.71c0.237,0.501,0.552,0.924,0.947,1.266
		s0.851,0.601,1.369,0.775c0.516,0.174,1.056,0.262,1.618,0.262c0.913,0,1.794-0.221,2.646-0.662l0.091-0.296
		c-0.729-0.593-1.276-1.326-1.642-2.201c-0.365-0.874-0.546-1.752-0.546-2.634c0-0.607,0.109-1.189,0.331-1.745
		c0.22-0.555,0.569-1.041,1.048-1.459c0.479-0.417,1.102-0.753,1.87-1.004c0.768-0.25,1.699-0.376,2.793-0.376
		c0.852,0,1.729,0.129,2.635,0.388s1.726,0.672,2.463,1.243c0.737,0.57,1.346,1.311,1.825,2.224
		c0.479,0.913,0.718,2.029,0.718,3.353c0,0.791-0.125,1.623-0.376,2.497C128.81,318.216,128.387,319.159,127.794,320.169z"/>
	<path fill="#FFFFFF" d="M145.63,335.722c1.331,1.36,2.899,2.388,4.709,3.079c1.808,0.692,3.755,1.037,5.838,1.037
		c1.521,0,2.98-0.197,4.378-0.592c1.398-0.396,2.71-0.974,3.935-1.733c1.223-0.76,2.336-1.688,3.341-2.783
		c1.003-1.094,1.859-2.337,2.565-3.728c0.706-1.392,1.258-2.921,1.653-4.585c0.396-1.664,0.594-3.447,0.594-5.347
		c0-2.6-0.37-4.899-1.106-6.899c-0.737-2-1.757-3.683-3.056-5.052c-1.3-1.367-2.851-2.401-4.653-3.101
		c-1.8-0.699-3.759-1.049-5.873-1.049c-1.519,0-2.987,0.202-4.4,0.605c-1.414,0.402-2.736,0.983-3.968,1.744
		c-1.232,0.76-2.354,1.687-3.364,2.782c-1.011,1.095-1.878,2.333-2.6,3.717c-0.722,1.384-1.282,2.9-1.676,4.549
		c-0.396,1.649-0.594,3.41-0.594,5.279c0,2.646,0.381,4.979,1.141,7.002C143.255,332.671,144.299,334.362,145.63,335.722z
		 M147.625,315.745c0.472-1.649,1.121-3.048,1.95-4.195c0.829-1.149,1.81-2.022,2.942-2.624c1.132-0.6,2.352-0.9,3.66-0.9
		c1.095,0,2.121,0.189,3.08,0.57c0.957,0.38,1.838,0.913,2.645,1.597c0.805,0.685,1.524,1.497,2.155,2.438
		c0.632,0.943,1.167,1.989,1.608,3.136c0.44,1.148,0.778,2.373,1.015,3.671c0.235,1.301,0.353,2.643,0.353,4.026
		c0,1.961-0.208,3.76-0.626,5.393c-0.418,1.636-1.027,3.041-1.824,4.22c-0.798,1.178-1.771,2.097-2.92,2.758
		c-1.148,0.662-2.451,0.994-3.91,0.994c-1.673,0-3.174-0.427-4.505-1.278c-1.33-0.852-2.466-1.992-3.408-3.422
		c-0.944-1.428-1.666-3.074-2.167-4.937c-0.502-1.862-0.752-3.805-0.752-5.827C146.919,319.269,147.154,317.395,147.625,315.745z"/>
	<path fill="#FFFFFF" d="M127.948,346.423c-0.379,0-1.126,0.11-2.235,0.333c-1.111,0.222-2.53,0.557-4.252,1
		c-1.726,0.444-3.713,0.999-5.965,1.666c-2.254,0.667-4.713,1.443-7.377,2.333l0.634,2.411c2.856-0.803,5.25-1.379,7.188-1.728
		c1.935-0.35,3.327-0.524,4.172-0.524c0.825,0,1.423,0.27,1.794,0.809c0.37,0.54,0.554,1.413,0.554,2.618
		c0,4.232-0.068,8.113-0.206,11.646c-0.138,3.532-0.26,6.686-0.365,9.455c-0.042,0.91-0.094,2.053-0.157,3.428
		c-0.065,1.375-0.144,2.851-0.24,4.426c-0.094,1.577-0.195,3.18-0.3,4.806c-0.106,1.63-0.221,3.153-0.349,4.57l0.507,0.032
		l6.917-0.825c0.021-1.776,0.058-3.626,0.112-5.554c0.052-1.924,0.121-3.881,0.206-5.869c0.084-1.988,0.175-3.988,0.268-5.998
		c0.095-2.009,0.197-3.986,0.303-5.934c0.063-1.269,0.131-2.643,0.205-4.125c0.075-1.48,0.153-2.956,0.239-4.426
		c0.086-1.47,0.165-2.899,0.237-4.284c0.073-1.386,0.143-2.629,0.207-3.73c0.063-1.099,0.111-2.009,0.144-2.729
		c0.031-0.719,0.046-1.163,0.046-1.332c0-0.741-0.186-1.337-0.554-1.793C129.309,346.648,128.731,346.423,127.948,346.423z"/>
</g>
<g>
	<path fill="#FFFFFF" d="M593,759H6V7h587V759z M12,753h575V13H12V753z"/>
</g>
<g>
	<path fill="#FAAF40" d="M225.245,285.844c-0.472-0.401-1.296-1.12-2.477-2.158c-1.18-1.039-2.419-2.139-3.716-3.295
		c-1.296-1.16-2.517-2.259-3.655-3.298c-1.142-1.038-1.947-1.758-2.419-2.157c-0.629-0.642-1.219-1.3-1.768-1.979
		c-0.55-0.678-1.102-1.338-1.651-1.977c-0.707-0.88-1.397-1.758-2.065-2.638c-0.667-0.877-1.395-1.636-2.18-2.276
		c-0.394-0.481-1.002-1.298-1.829-2.458c-0.825-1.157-1.71-2.396-2.653-3.718c-0.943-1.316-1.809-2.554-2.594-3.715
		c-0.787-1.156-1.298-1.976-1.535-2.456c-0.235-0.4-0.765-1.319-1.592-2.757c-0.825-1.439-1.73-3.015-2.712-4.733
		c-0.983-1.718-1.928-3.396-2.831-5.036c-0.904-1.636-1.592-2.895-2.062-3.776h0.116c-0.629-1.118-1.101-1.956-1.414-2.517
		c-0.16-0.317-0.257-0.618-0.296-0.899c-0.038-0.278-0.097-0.539-0.175-0.777c-0.631,0.401-1.239,0.759-1.829,1.078
		c-0.59,0.32-1.001,0.56-1.239,0.719c-0.158,0.082-0.235,0.479-0.235,1.198c0,0.641,0,1.319,0,2.039v2.875
		c0,0.322,0.039,1.102,0.118,2.339c0.077,1.239,0.137,2.576,0.176,4.015c0.04,1.438,0.079,2.778,0.118,4.017
		c0.039,1.239,0.061,2.017,0.061,2.335v7.433c0.077,1.757,0.45,3.219,1.12,4.374c0.667,1.16,1.394,2.178,2.182,3.059
		c0.156,0.16,0.394,0.419,0.708,0.777c0.314,0.361,0.548,0.62,0.706,0.779v1.08c0,0.08-0.175,0.178-0.528,0.297
		c-0.353,0.123-0.811,0.242-1.357,0.362c-0.553,0.12-1.103,0.217-1.652,0.299c-0.551,0.079-1.022,0.12-1.416,0.12
		c-0.158,0-0.708-0.06-1.651-0.18c-0.943-0.118-1.494-0.22-1.651-0.299c-1.101,0-2.202,0.017-3.302,0.061
		c-1.103,0.039-2.204,0.098-3.303,0.182c-1.18,0.076-2.359,0.137-3.538,0.177c-1.18,0.04-2.36,0.06-3.539,0.06h-0.59
		c-0.866,0-1.632-0.041-2.299-0.12c-0.668-0.082-1.002-0.44-1.002-1.078c0-0.08,0.177-0.377,0.529-0.9
		c0.355-0.519,0.806-1.177,1.357-1.977c0.472-0.637,0.943-1.417,1.416-2.338c0.473-0.917,0.827-1.936,1.062-3.057v-32.363
		c0-0.558-0.04-1.896-0.119-4.016c-0.078-2.117-0.138-4.375-0.177-6.772c-0.039-2.398-0.079-4.655-0.118-6.774
		c-0.041-2.114-0.059-3.415-0.059-3.894v-1.92c-0.079-2.793-0.199-5.471-0.355-8.029c-0.158-2.556-0.59-5.074-1.296-7.552v0.12
		c-0.316-0.878-0.513-1.336-0.59-1.378c-0.08-0.04-0.197-0.139-0.355-0.3h0.119c-0.63-0.558-1.18-1.079-1.652-1.558
		c-0.471-0.479-0.707-0.917-0.707-1.318c0-0.159,0.117-0.459,0.353-0.899c0.236-0.439,1.063-0.659,2.477-0.659h19.344
		c0.943-0.24,2.103-0.379,3.48-0.419c1.374-0.04,2.653-0.061,3.832-0.061h0.941c3.147,0,6.411,0.221,9.793,0.66
		c3.377,0.438,6.486,1.278,9.315,2.516c2.83,1.239,5.149,3.018,6.96,5.333c1.808,2.32,2.713,5.394,2.713,9.23
		c0,2.799-0.65,5.314-1.947,7.552c-1.3,2.238-2.971,4.296-5.013,6.173c-2.046,1.878-4.285,3.577-6.725,5.092
		c-2.436,1.522-4.794,2.877-7.074,4.077c0.233-0.079,0.355,0.201,0.355,0.838v0.241c0,0.24,0.038,0.401,0.116,0.479l28.66,53.461
		l-0.471-0.239c0.548,0.558,1.159,1.276,1.828,2.157c0.669,0.878,1.002,1.636,1.002,2.276c0,0.321-0.197,0.64-0.59,0.959
		c-0.396,0.319-1.18,0.48-2.357,0.48c-0.868,0-1.475-0.04-1.829-0.121c-0.354-0.079-0.649-0.238-0.885-0.478H225.245z
		 M200.3,197.384c-1.06-2.078-2.695-3.796-4.894-5.155c-0.081-0.078-0.276-0.241-0.59-0.48h-12.974l-1.061,0.359l0.943-0.12
		c0.235-0.239,0.354-0.239,0.354,0v35.961v0.36c0.471-0.32,0.785-0.558,0.943-0.72c0.471-0.318,1.374-0.96,2.713-1.918
		c1.333-0.959,2.751-1.997,4.244-3.117c1.493-1.117,2.89-2.157,4.186-3.117c1.3-0.957,2.184-1.637,2.658-2.038h-0.122
		c1.73-1.438,3.026-3.295,3.892-5.573c0.864-2.278,1.298-4.736,1.298-7.371C201.892,201.817,201.362,199.462,200.3,197.384z"/>
	<path fill="#FAAF40" d="M232.107,269.661c-1.336,0.402-2.476,0.8-3.421,1.2l0.119-0.119l-0.119,0.119
		c-0.314,0.161-0.55,0.239-0.708,0.239c0.239,0,0.433-0.038,0.59-0.118c-0.235,0.16-0.45,0.256-0.647,0.299
		c-0.197,0.038-0.61,0.258-1.239,0.659h-1.179c-2.202,0-3.303-0.48-3.303-1.439v-0.239l1.298-2.636
		c0.158-0.398,0.372-0.798,0.649-1.199c0.275-0.399,0.491-0.758,0.649-1.077l-0.354,0.358c0-0.079,0.037-0.199,0.116-0.358
		c0.156-0.321,0.237-0.68,0.237-1.08c0.075-0.319,0.156-0.838,0.235-1.558c0.078-0.72,0.178-1.458,0.296-2.22
		c0.116-0.756,0.215-1.476,0.294-2.157c0.075-0.676,0.118-1.177,0.118-1.497c0-1.117,0-3.076,0-5.875
		c0-2.796,0.039-5.792,0.118-8.988c0.077-3.197,0.136-6.192,0.178-8.991c0.039-2.796,0.057-4.753,0.057-5.873v-28.05
		c-0.079-1.438-0.158-2.736-0.235-3.895c-0.079-1.158-0.256-2.236-0.53-3.237c-0.277-0.998-0.689-1.957-1.239-2.876
		c-0.551-0.917-1.298-1.897-2.241-2.937v-1.678c2.515,0,5.385,0.021,8.611,0.06c3.223,0.041,6.091,0.101,8.608,0.179
		c2.517,0.081,4.993,0.141,7.431,0.179c2.436,0.042,4.914,0.061,7.431,0.061h13.563c0.155-0.159,0.372-0.279,0.649-0.359
		c0.272-0.078,0.489-0.199,0.649-0.36c0.154-0.078,0.274-0.198,0.353-0.359c0.077-0.16,0.215-0.3,0.414-0.42
		c0.195-0.12,0.471-0.219,0.826-0.299c0.353-0.08,0.923-0.12,1.708-0.12c0.55,0,0.926,0.041,1.123,0.12
		c0.193,0.08,0.726,0.32,1.59,0.719l6.487,12.346c0,0.559-0.335,0.919-1.002,1.078c-0.669,0.161-1.435,0.24-2.3,0.24
		c-1.103,0-1.871-0.079-2.299-0.24c-0.434-0.158-0.809-0.399-1.122-0.718h0.355c-0.16-0.16-0.296-0.319-0.416-0.479
		c-0.116-0.16-0.335-0.319-0.647-0.479h0.119c-1.732-0.879-3.363-1.659-4.894-2.338c-1.535-0.679-3.168-1.178-4.897-1.499h0.235
		c-0.787-0.078-2.083-0.158-3.891-0.24c-1.809-0.079-3.774-0.199-5.897-0.359c-2.124-0.16-4.149-0.3-6.075-0.42
		c-1.928-0.12-3.244-0.218-3.952-0.3h-2.004c-0.079,0.162-0.119,0.401-0.119,0.72v19.298l-0.707-0.481l0.707,0.72
		c0.708,0,1.514,0.022,2.417,0.06c0.905,0.043,1.634,0.06,2.183,0.06c0.395,0,0.845,0.021,1.358,0.06
		c0.509,0.043,1.042,0.061,1.592,0.061c0.628,0,1.255,0.019,1.886,0.059c0.629,0.041,1.298,0.061,2.006,0.061
		c1.336,0,2.75-0.079,4.247-0.24c1.491-0.159,2.829-0.439,4.009-0.84c0-0.078,0.157-0.257,0.471-0.538
		c0.315-0.279,0.668-0.62,1.061-1.019c0.473-0.48,1.142-0.878,2.006-1.201c0.865-0.317,2.436-0.478,4.719-0.478v12.946
		c0,0.959-0.118,1.519-0.354,1.678c-0.239,0.161-1.104,0.241-2.596,0.241h-2.123c-1.416-2.238-2.91-3.615-4.48-4.135
		c-1.575-0.52-3.267-0.78-5.074-0.78h-5.659c-0.396,0-0.908,0-1.537,0s-1.258,0-1.885,0c-0.551,0-1.062,0.021-1.533,0.062
		c-0.473,0.041-0.75,0.057-0.827,0.057c-0.157,0-0.433-0.057-0.826-0.177c-0.394-0.121-0.589-0.259-0.589-0.42l-0.825,1.438
		l0.352-0.24v2.398c0,1.518-0.019,3.537-0.058,6.053c-0.04,2.516-0.097,5.175-0.176,7.972c-0.081,2.797-0.14,5.554-0.178,8.27
		c-0.041,2.715-0.059,5.035-0.059,6.951v13.547l-0.12-0.24c0.395,1.039,1.377,1.697,2.951,1.977c1.572,0.281,3.184,0.42,4.835,0.42
		c0.708,0,1.416-0.021,2.124-0.062c0.708-0.039,1.336-0.059,1.888-0.059h1.769c1.258,0,2.633-0.079,4.127-0.242
		c1.493-0.158,2.989-0.438,4.482-0.838c1.493-0.398,2.868-0.957,4.127-1.678c1.258-0.719,2.281-1.679,3.068-2.875
		c0.156-0.16,0.392-0.661,0.708-1.499c0.312-0.839,0.51-1.338,0.59-1.499c0.471-0.96,1.532-1.438,3.183-1.438h1.652l9.552,9.108
		v0.481c0,1.6-0.884,2.958-2.653,4.075c-1.77,1.122-3.814,2.058-6.133,2.818c-2.32,0.759-4.598,1.317-6.841,1.677
		c-2.239,0.36-3.875,0.54-4.894,0.54h-1.651l-28.07-4.434h-2.006C234.309,268.984,233.444,269.264,232.107,269.661z"/>
	<path fill="#FAAF40" d="M287.61,205.653c-0.156-0.158-0.233-0.279-0.233-0.36l0.47,0.24l-0.943-0.959l0.118,0.239
		c-0.079-0.239-0.276-0.798-0.589-1.678c-0.315-0.878-0.631-1.856-0.944-2.937c-0.314-1.078-0.61-2.077-0.885-2.996
		c-0.275-0.917-0.452-1.499-0.531-1.739l0.118,0.121c-0.078-0.24-0.217-0.559-0.412-0.959c-0.198-0.4-0.375-0.797-0.531-1.199
		c-0.158-0.399-0.394-0.958-0.708-1.678c-0.393-0.48-0.75-0.938-1.061-1.378c-0.316-0.439-0.588-0.78-0.827-1.019
		c-0.866-0.799-1.691-1.597-2.475-2.398c-0.787-0.797-1.182-1.438-1.182-1.917c0-0.319,0.217-0.599,0.651-0.839
		c0.43-0.24,0.903-0.419,1.414-0.539c0.511-0.12,1.003-0.198,1.474-0.24c0.473-0.04,0.787-0.059,0.945-0.059h18.164
		c1.416,0,2.24,0.199,2.476,0.598c0.237,0.401,0.354,0.681,0.354,0.84c0,0.4-0.159,0.859-0.474,1.378
		c-0.314,0.521-0.667,1.099-1.061,1.738h0.12c-0.237,0.401-0.434,0.779-0.59,1.139c-0.16,0.359-0.238,0.898-0.238,1.619v0.238
		l-0.118-0.119l9.082,29.847l-0.235-0.119l1.061,1.796l5.308,17.381l4.837-18.219l0.589-1.438l-0.118,0.118l3.776-16.3
		c0.154-0.16,0.311-0.26,0.47-0.301c0.158-0.04,0.312-0.137,0.472-0.299c0-0.398,0.098-0.617,0.294-0.66
		c0.197-0.038,0.923-0.06,2.183-0.06c1.729,0,2.712,0.282,2.948,0.84l12.976,35.84l11.911-43.991l-0.118,0.12v-0.239
		c0-0.479,0.194-1.238,0.59-2.277v0.119c0.078-0.158,0.137-0.278,0.177-0.36c0.038-0.078,0.06-0.397,0.06-0.958
		c0.236-1.438,0.393-2.936,0.472-4.495c0.078-1.558,0.116-3.134,0.116-4.734h12.268v1.678c-0.08,0.161-0.233,0.499-0.473,1.019
		c-0.234,0.521-0.471,1.06-0.708,1.617c-0.233,0.561-0.471,1.1-0.707,1.619c-0.236,0.52-0.395,0.898-0.47,1.139l0.233-0.24
		c-0.233,0.641-0.43,1.16-0.588,1.559c-0.16,0.56-0.316,1.06-0.473,1.497c-0.157,0.441-0.275,0.741-0.354,0.9l0.116-0.121v0.121
		l-19.932,75.876c-0.158,0.64-0.589,1.18-1.298,1.615c-0.708,0.441-1.649,0.662-2.829,0.662c-1.339,0-2.262-0.12-2.771-0.359
		c-0.514-0.24-0.847-0.681-1.003-1.32l-9.907-29.366l0.59,0.239c-0.159-0.158-0.395-0.42-0.708-0.779
		c-0.316-0.359-0.472-0.578-0.472-0.658v0.119c-0.158-0.4-0.353-1.058-0.591-1.977c-0.236-0.918-0.55-1.897-0.943-2.937
		l-9.434,35.599l0.115-0.119c0,0.083-0.019,0.161-0.055,0.241c-0.044,0.079-0.061,0.161-0.061,0.238
		c-0.16,0.721-0.414,1.239-0.768,1.557c-0.352,0.321-1.317,0.481-2.889,0.481c-0.941,0-1.771-0.082-2.478-0.238
		c-0.707-0.162-1.14-0.561-1.296-1.2v0.121l-21.586-65.328H287.61z"/>
	<path fill="#FAAF40" d="M366.08,280.211c0.432-0.403,0.962-0.842,1.594-1.32c0.154-0.162,0.292-0.32,0.412-0.478
		c0.117-0.163,0.294-0.523,0.529-1.08c0.156-0.32,0.314-0.838,0.473-1.558c0.156-0.72,0.236-1.161,0.236-1.32
		c0-0.318,0.017-0.897,0.06-1.737c0.038-0.839,0.075-1.737,0.115-2.696c0.041-0.958,0.078-1.877,0.12-2.757
		c0.038-0.88,0.057-1.518,0.057-1.917v-61.254c0-0.317-0.019-0.958-0.057-1.917c-0.042-0.958-0.079-1.996-0.12-3.116
		c-0.04-1.117-0.077-2.197-0.115-3.236c-0.043-1.037-0.06-1.798-0.06-2.277c-0.08-0.96-0.255-1.738-0.531-2.338
		c-0.275-0.6-0.61-1.139-1.003-1.619c-0.552-0.797-1.022-1.498-1.414-2.097c-0.396-0.599-0.59-1.059-0.59-1.379
		c0-0.159,0.117-0.438,0.353-0.839c0.237-0.4,1.062-0.6,2.477-0.6h19.461c1.337,0,2.123,0.2,2.36,0.6
		c0.235,0.401,0.352,0.68,0.352,0.839v0.24c-1.337,1.121-2.377,2.418-3.125,3.895c-0.746,1.48-1.119,3.177-1.119,5.095v82.229
		c0,1.436,0.194,2.515,0.59,3.235c0.392,0.719,0.784,1.319,1.18,1.797h-0.119c1.18,1.44,1.769,2.278,1.769,2.516v0.362
		c0,0.318-0.117,0.639-0.354,0.958c-0.235,0.32-1.021,0.48-2.358,0.48h-0.591l-18.986-4.315c-1.104-0.32-1.753-0.621-1.948-0.898
		c-0.196-0.283-0.295-0.501-0.295-0.661C365.431,280.888,365.646,280.61,366.08,280.211z"/>
	<path fill="#FAAF40" d="M392.692,265.348c0.903-1.681,1.593-3.458,2.062-5.334c0.472-1.878,0.786-3.817,0.946-5.814
		c0.153-1.998,0.233-3.996,0.233-5.995v-15.941c0-0.72-0.019-1.697-0.056-2.936c-0.043-1.239-0.061-2.657-0.061-4.257
		c0-1.677-0.022-3.475-0.061-5.394c-0.04-1.916-0.057-3.834-0.057-5.754c-0.08-3.835-0.14-7.492-0.181-10.968
		c-0.037-3.475-0.056-5.931-0.056-7.37c-0.238-2.477-0.729-4.435-1.475-5.874c-0.749-1.439-1.988-2.956-3.717-4.555
		c0-0.24,0.197-0.498,0.592-0.779c0.392-0.279,1.137-0.42,2.239-0.42h21.111c0,1.04-0.06,1.72-0.177,2.038
		c-0.116,0.32-0.255,0.642-0.412,0.959c-0.316,0.642-0.572,1.28-0.768,1.918c-0.198,0.641-0.295,1.36-0.295,2.158
		c0,1.759,0.392,3.278,1.18,4.555c0.786,1.278,1.652,2.438,2.594,3.475l-0.117-0.119l26.891,26.729l0.236,0.359
		c0-0.719,0-1.438,0-2.157c0-0.798,0.037-1.637,0.12-2.518c0.075-2.076,0.136-4.034,0.175-5.873c0.04-1.837,0.059-3.116,0.059-3.835
		v-2.998c0-4.155-0.04-8.529-0.116-13.125c-0.08-4.595-0.313-9.01-0.71-13.246c-0.235-2.316-0.865-4.435-1.886-6.354l0.118,0.122
		c-0.394-0.559-0.649-0.899-0.769-1.019c-0.116-0.121-0.218-0.26-0.293-0.42c-0.63-0.639-1.259-1.238-1.888-1.799
		c-0.632-0.558-0.942-1.037-0.942-1.438c0.077-0.159,0.235-0.36,0.472-0.6c0.471-0.158,1.493-0.578,3.064-1.258
		c1.573-0.677,3.027-1.336,4.365-1.977c1.336-0.639,2.652-1.217,3.95-1.739c1.298-0.519,2.184-0.898,2.656-1.138
		c0.075,0,0.193-0.079,0.352-0.24h-0.118c0.314-0.159,0.689-0.359,1.121-0.599c0.433-0.24,0.885-0.399,1.357-0.479h-0.354
		c0.158-0.079,0.275-0.12,0.354-0.12c0.156,0,0.471,0,0.943,0c0.784,0,1.551,0.08,2.299,0.24c0.746,0.161,1.121,0.521,1.121,1.079
		v-0.12c-0.944,1.759-1.81,3.676-2.596,5.753c-0.786,2.079-1.338,4.276-1.652,6.593v-0.121c-0.077,0.641-0.156,1.738-0.234,3.297
		c-0.077,1.558-0.177,3.236-0.295,5.034c-0.117,1.799-0.217,3.477-0.296,5.035c-0.077,1.558-0.117,2.658-0.117,3.296v12.945
		c0,4.555,0.019,9.031,0.059,13.425c0.037,4.395,0.1,8.871,0.178,13.426c0.076,4.554,0.137,9.049,0.177,13.483
		c0.041,4.437,0.06,8.889,0.06,13.366v8.871l-0.943,1.797h-5.782c-1.099,0-1.765-0.1-2.004-0.301
		c-0.234-0.197-0.667-0.938-1.297-2.217c-0.076-0.317-0.157-0.72-0.233-1.199c-0.082-0.479-0.197-1.157-0.354-2.039
		c-0.161-0.876-0.278-1.676-0.356-2.396c-0.08-0.718-0.158-1.237-0.236-1.558v-0.599l0.12,0.24l-2.596-8.272l0.235,0.12
		l-6.839-11.866h0.353l-27.952-29.606v37.158l1.298,13.185c0.076,0.958,0.432,1.9,1.062,2.816c0.628,0.92,1.254,1.78,1.884,2.578
		c0.631,0.8,1.378,1.759,2.241,2.875c0,0.959-0.63,1.521-1.886,1.68c-1.258,0.159-2.359,0.239-3.302,0.239h-14.863
		c-0.468,0-1.199-0.179-2.179-0.538c-0.983-0.36-1.477-0.738-1.477-1.14C390.551,268.504,391.786,267.023,392.692,265.348z"/>
	<path fill="#FAAF40" d="M487.872,268.643c-6.331-2.117-12.168-5.171-17.513-9.169h0.233c-5.583-4.393-10.007-9.508-13.268-15.344
		c-3.263-5.831-4.894-12.183-4.894-19.058c0-5.273,0.765-10.507,2.299-15.702c1.532-5.194,3.832-9.889,6.898-14.084
		s6.918-7.591,11.558-10.188c4.64-2.597,10.025-3.896,16.16-3.896c3.852,0,7.489,0.501,10.91,1.499c3.42,1,6.702,2.419,9.847,4.255
		h3.302c1.102,0,1.848,0.162,2.241,0.479c0.394,0.321,0.593,0.6,0.593,0.839c0,0.241-0.611,1.02-1.831,2.338
		c-1.22,1.318-2.554,2.697-4.01,4.135c-1.454,1.439-3.439,3.357-5.957,5.755h-2.712c-0.55-4.075-1.944-7.312-4.187-9.709
		c-2.24-2.397-5.132-3.596-8.669-3.596c-3.538,0-6.528,0.958-8.964,2.876c-2.438,1.917-4.385,4.336-5.837,7.252
		c-1.456,2.917-2.497,6.173-3.125,9.769c-0.632,3.596-0.943,7.072-0.943,10.429c0,4.238,0.292,8.491,0.885,12.767
		c0.588,4.274,1.609,8.331,3.065,12.167c1.452,3.835,3.378,7.352,5.78,10.547c2.396,3.195,5.403,5.793,9.022,7.791h-0.119
		c0.235,0.159,0.49,0.3,0.767,0.419c0.275,0.12,0.57,0.261,0.885,0.42c0.628,0.399,1.336,0.819,2.121,1.257
		c0.787,0.439,1.537,0.778,2.245,1.021V227.47c0-0.079-0.024-0.36-0.062-0.841c-0.042-0.478-0.078-0.977-0.118-1.497
		c-0.04-0.517-0.08-1.06-0.118-1.619c-0.039-0.558-0.058-0.959-0.058-1.198c-0.159-1.438-0.531-2.556-1.122-3.357
		c-0.59-0.796-1.198-1.517-1.827-2.159l-1.18-1.196l1.294-0.959c3.618-0.08,6.509-0.14,8.673-0.181
		c2.161-0.039,3.968-0.078,5.424-0.119c1.453-0.041,2.732-0.079,3.833-0.12c1.104-0.04,2.438-0.062,4.01-0.062h0.355
		c0.942,0,1.75,0.102,2.417,0.3c0.668,0.2,1.004,0.582,1.004,1.141c0,0.398-0.295,0.859-0.886,1.378
		c-0.589,0.52-1.316,1.06-2.183,1.617h0.12c-0.16,0.161-0.337,0.321-0.533,0.48c-0.195,0.161-0.451,0.56-0.765,1.198
		c-0.553,1.121-0.866,2.559-0.944,4.314c-0.078,1.76-0.117,3.397-0.117,4.915v43.511c0,0.56-0.454,0.879-1.357,0.959
		c-0.905,0.079-1.632,0.12-2.182,0.12h-1.533C500.51,272.578,494.2,270.762,487.872,268.643z M470.241,259.474h0.118l-0.118-0.12
		V259.474z"/>
	<path fill="#FAAF40" d="M326.653,392.726c-6.812-2.278-13.097-5.564-18.85-9.867h0.254c-6.008-4.728-10.768-10.23-14.279-16.512
		c-3.511-6.274-5.268-13.11-5.268-20.508c0-5.675,0.827-11.307,2.477-16.898c1.649-5.588,4.125-10.644,7.422-15.156
		c3.302-4.516,7.446-8.169,12.441-10.964c4.991-2.795,10.788-4.194,17.389-4.194c4.145,0,8.061,0.538,11.74,1.613
		c3.679,1.075,7.212,2.602,10.597,4.58h3.557c1.183,0,1.986,0.172,2.408,0.514c0.424,0.345,0.638,0.647,0.638,0.905
		c0,0.258-0.658,1.097-1.968,2.515c-1.312,1.417-2.75,2.902-4.315,4.45c-1.566,1.548-3.704,3.613-6.41,6.191h-2.918
		c-0.595-4.384-2.097-7.867-4.51-10.448c-2.408-2.579-5.517-3.87-9.327-3.87c-3.808,0-7.023,1.031-9.645,3.096
		c-2.624,2.063-4.72,4.665-6.282,7.805c-1.57,3.141-2.688,6.642-3.363,10.513c-0.68,3.869-1.015,7.61-1.015,11.223
		c0,4.559,0.314,9.137,0.949,13.738c0.635,4.6,1.734,8.967,3.299,13.092c1.567,4.127,3.639,7.913,6.221,11.35
		c2.58,3.441,5.818,6.237,9.71,8.387h-0.127c0.253,0.172,0.528,0.323,0.826,0.451c0.293,0.128,0.61,0.279,0.952,0.451
		c0.674,0.432,1.438,0.884,2.285,1.357c0.843,0.47,1.648,0.836,2.41,1.093v-39.211c0-0.086-0.021-0.389-0.063-0.903
		c-0.048-0.517-0.085-1.054-0.127-1.613c-0.045-0.558-0.085-1.139-0.129-1.741c-0.042-0.602-0.062-1.031-0.062-1.292
		c-0.171-1.548-0.571-2.749-1.205-3.61c-0.636-0.86-1.29-1.632-1.967-2.321l-1.27-1.292l1.396-1.032
		c3.893-0.083,7.002-0.148,9.327-0.193c2.328-0.042,4.272-0.085,5.84-0.127c1.565-0.044,2.94-0.086,4.125-0.131
		c1.186-0.042,2.622-0.063,4.317-0.063h0.379c1.018,0,1.884,0.108,2.602,0.322c0.72,0.218,1.081,0.625,1.081,1.226
		c0,0.431-0.318,0.926-0.952,1.484c-0.636,0.56-1.42,1.141-2.35,1.741h0.127c-0.17,0.174-0.36,0.346-0.57,0.517
		c-0.213,0.172-0.491,0.604-0.824,1.291c-0.595,1.205-0.935,2.752-1.017,4.643c-0.087,1.892-0.129,3.655-0.129,5.289v46.826
		c0,0.602-0.484,0.942-1.458,1.03c-0.973,0.086-1.758,0.13-2.346,0.13h-1.652C340.254,396.963,333.463,395.006,326.653,392.726z
		 M307.678,382.859h0.126l-0.126-0.127V382.859z"/>
	<path fill="#FAAF40" d="M357.913,393.953c2.2-1.463,3.533-3.374,3.999-5.739c0.464-2.365,0.696-4.795,0.696-7.288v-65.917
		c0-1.891-0.124-3.289-0.381-4.192c-0.253-0.903-0.803-2.042-1.646-3.42l0.378,0.13c-0.679-0.687-1.058-1.117-1.144-1.289
		c-0.252-0.343-0.463-0.623-0.632-0.839c-0.173-0.212-0.341-0.407-0.51-0.58l-0.38-0.646c0.51-0.342,1.099-0.729,1.777-1.161
		c0.592,0,1.796-0.02,3.618-0.064c1.816-0.041,3.53-0.106,5.14-0.193c1.606-0.083,3.088-0.128,4.441-0.128c1.438,0,2.412,0,2.922,0
		h6.725c1.184,0.344,1.883,0.646,2.093,0.903c0.212,0.256,0.319,0.473,0.319,0.644c0,0.087-0.041,0.13-0.13,0.13v0.128l-1.268,1.29
		l0.255-0.127c-0.678,0.944-1.377,1.978-2.094,3.094c-0.721,1.12-1.078,2.45-1.078,3.998v74.431c0,1.203,0.146,2.062,0.443,2.579
		c0.295,0.517,0.611,0.988,0.953,1.419c0.422,0.602,0.843,1.16,1.27,1.678c0.42,0.515,0.635,0.86,0.635,1.03v0.13
		c0,0.345-0.129,0.731-0.384,1.161c-0.251,0.429-1.143,0.645-2.665,0.645h-20.308c-1.521,0-2.411-0.216-2.665-0.645
		c-0.253-0.43-0.381-0.731-0.381-0.902V393.953z M358.421,304.689c0.083,0,0.172,0.046,0.253,0.13v0.127L358.421,304.689z"/>
	<path fill="#FAAF40" d="M397.794,392.793c-0.762,0.172-1.521,0.345-2.283,0.515c-0.764,0.175-1.57,0.322-2.413,0.45
		c-0.844,0.132-1.82,0.195-2.919,0.195h-0.253c-0.933,0-1.734-0.063-2.412-0.195c-0.677-0.128-1.017-0.58-1.017-1.353
		c0.678-0.776,1.099-1.246,1.27-1.42l-0.76,0.517c0-0.085,0.23-0.387,0.696-0.902c0.464-0.517,0.783-0.859,0.953-1.033l-0.633,0.26
		c0.168-0.343,0.378-1.055,0.633-2.131c0.254-1.074,0.465-1.913,0.635-2.515v0.128c0.421-9.714,0.761-19.39,1.016-29.024
		c0.252-9.626,0.381-19.346,0.381-29.148v-16.642c-0.174-1.204-0.509-2.343-1.016-3.418c-0.51-1.076-0.933-1.914-1.271-2.516
		l0.509,0.259c-0.086-0.084-0.254-0.279-0.509-0.583c-0.253-0.298-0.425-0.491-0.507-0.579v-0.258c0-0.171,0.104-0.387,0.316-0.645
		c0.21-0.258,0.91-0.558,2.096-0.901h1.396c0.166,0,0.315-0.021,0.443-0.067c0.128-0.042,0.231-0.064,0.314-0.064
		c1.271,0,2.519,0.022,3.745,0.064c1.228,0.046,2.435,0.11,3.62,0.196c1.268,0.085,2.537,0.149,3.808,0.192
		c1.268,0.043,2.577,0.064,3.934,0.064h2.791c1.102,0.602,1.734,0.967,1.903,1.094c0.17,0.131,0.258,0.282,0.258,0.452
		c0,0.348-0.192,0.734-0.572,1.162c-0.38,0.433-0.783,0.861-1.207,1.292c-0.085,0.345-0.212,0.817-0.382,1.42
		c-0.678,1.979-1.119,4.085-1.33,6.319c-0.213,2.236-0.317,4.602-0.317,7.093v8.643c-0.086,3.528-0.171,7.032-0.256,10.513
		c-0.085,3.482-0.212,6.988-0.382,10.514c-0.17,5.676-0.338,11.287-0.506,16.833c-0.171,5.546-0.252,11.158-0.252,16.833
		c0,0.946-0.257,1.333-0.762,1.161h-0.129c2.962,0.347,5.458,0.603,7.489,0.774c2.03,0.173,4.27,0.259,6.729,0.259
		c3.213,0,6.131-0.561,8.756-1.677c2.622-1.12,5.332-2.795,8.124-5.031c0.76-0.261,1.246-0.409,1.458-0.452
		c0.212-0.042,0.571-0.064,1.077-0.064c0.932,0,1.735,0.107,2.412,0.322c0.679,0.216,1.018,0.668,1.018,1.354
		c0,0.175,0.019,0.343,0.062,0.515c0.042,0.175,0.063,0.348,0.063,0.518c0.168,1.546,0.358,3.291,0.572,5.224
		c0.21,1.934,0.317,3.762,0.317,5.483c0,0.86-0.275,1.59-0.825,2.192c-0.552,0.602-1.268,1.096-2.159,1.482
		c-0.889,0.389-1.839,0.666-2.854,0.839c-1.015,0.17-1.99,0.3-2.92,0.388c-0.169,0-0.634,0.041-1.396,0.13
		c-0.761,0.083-1.587,0.148-2.477,0.19c-0.888,0.044-1.711,0.086-2.474,0.131c-0.76,0.042-1.228,0.062-1.396,0.062h-0.508
		c-0.172,0-0.361-0.02-0.573-0.062c-0.208-0.045-0.401-0.065-0.569-0.065c-0.592-0.088-1.185-0.173-1.777-0.256
		c-0.592-0.089-1.1-0.175-1.521-0.26l-16.628-4.515c-0.932-0.257-1.883-0.406-2.856-0.45s-1.927-0.067-2.854-0.067h-0.888
		C399.232,392.532,398.555,392.62,397.794,392.793z M423.053,397.564l0.127,0.13l-1.142-0.13H423.053z"/>
	<path fill="#FAAF40" d="M458.162,393.823c-1.438,0.433-2.666,0.861-3.683,1.291l0.13-0.129l-0.13,0.129
		c-0.339,0.171-0.59,0.256-0.76,0.256c0.255,0,0.463-0.04,0.633-0.128c-0.255,0.173-0.486,0.279-0.697,0.323
		c-0.212,0.04-0.655,0.276-1.332,0.709h-1.269c-2.371,0-3.554-0.516-3.554-1.547v-0.26l1.395-2.839
		c0.17-0.427,0.402-0.854,0.698-1.287c0.298-0.427,0.529-0.817,0.699-1.162l-0.383,0.387c0-0.083,0.041-0.213,0.129-0.387
		c0.169-0.343,0.254-0.728,0.254-1.162c0.084-0.34,0.168-0.901,0.252-1.676c0.083-0.774,0.191-1.57,0.317-2.388
		c0.127-0.813,0.233-1.588,0.315-2.321c0.083-0.728,0.131-1.266,0.131-1.613c0-1.204,0-3.31,0-6.319c0-3.011,0.04-6.234,0.127-9.674
		c0.085-3.441,0.146-6.666,0.188-9.675c0.043-3.01,0.064-5.118,0.064-6.322v-30.184c-0.086-1.548-0.168-2.945-0.253-4.191
		c-0.087-1.247-0.278-2.408-0.573-3.485c-0.295-1.073-0.739-2.105-1.332-3.095c-0.592-0.99-1.396-2.042-2.411-3.16v-1.808
		c2.706,0,5.794,0.023,9.265,0.066c3.47,0.043,6.557,0.108,9.267,0.194c2.707,0.085,5.373,0.15,7.998,0.191
		c2.617,0.044,5.285,0.066,7.993,0.066h14.599c0.165-0.172,0.397-0.302,0.696-0.387c0.297-0.084,0.528-0.215,0.698-0.386
		c0.168-0.086,0.295-0.215,0.38-0.389c0.084-0.17,0.233-0.322,0.446-0.453c0.207-0.126,0.507-0.233,0.885-0.321
		c0.384-0.085,0.996-0.127,1.843-0.127c0.589,0,0.992,0.042,1.206,0.127c0.21,0.088,0.781,0.345,1.712,0.774l6.982,13.287
		c0,0.601-0.363,0.989-1.079,1.159c-0.721,0.175-1.545,0.26-2.477,0.26c-1.186,0-2.009-0.085-2.474-0.26
		c-0.465-0.17-0.868-0.427-1.206-0.773h0.382c-0.172-0.17-0.318-0.341-0.442-0.514c-0.13-0.172-0.363-0.343-0.701-0.517h0.127
		c-1.862-0.945-3.615-1.783-5.266-2.516c-1.651-0.728-3.408-1.267-5.27-1.612h0.255c-0.848-0.083-2.244-0.17-4.189-0.257
		c-1.946-0.083-4.062-0.213-6.346-0.388c-2.285-0.17-4.464-0.322-6.536-0.451c-2.074-0.128-3.492-0.236-4.252-0.322h-2.158
		c-0.083,0.173-0.125,0.432-0.125,0.773V330.1l-0.763-0.516l0.763,0.774c0.76,0,1.628,0.023,2.599,0.064
		c0.976,0.047,1.758,0.065,2.351,0.065c0.422,0,0.908,0.021,1.459,0.065c0.55,0.042,1.12,0.065,1.713,0.065
		c0.677,0,1.353,0.02,2.032,0.063c0.675,0.044,1.396,0.064,2.156,0.064c1.438,0,2.963-0.084,4.569-0.257
		c1.608-0.172,3.046-0.472,4.315-0.904c0-0.085,0.168-0.278,0.508-0.578c0.34-0.302,0.719-0.667,1.144-1.097
		c0.506-0.517,1.226-0.948,2.157-1.292c0.93-0.343,2.622-0.517,5.079-0.517v13.932c0,1.032-0.129,1.637-0.385,1.807
		c-0.253,0.172-1.187,0.256-2.789,0.256h-2.289c-1.521-2.406-3.127-3.889-4.822-4.449c-1.692-0.56-3.51-0.84-5.452-0.84h-6.097
		c-0.422,0-0.974,0-1.647,0c-0.68,0-1.355,0-2.033,0c-0.591,0-1.143,0.025-1.648,0.064c-0.508,0.047-0.806,0.067-0.89,0.067
		c-0.172,0-0.464-0.067-0.888-0.193c-0.424-0.129-0.636-0.28-0.636-0.452l-0.886,1.549l0.38-0.26v2.582
		c0,1.633-0.021,3.805-0.063,6.514c-0.045,2.708-0.108,5.568-0.191,8.577c-0.087,3.013-0.148,5.977-0.188,8.901
		c-0.046,2.923-0.068,5.416-0.068,7.481v14.578l-0.123-0.261c0.422,1.12,1.478,1.828,3.174,2.128
		c1.688,0.302,3.426,0.451,5.201,0.451c0.764,0,1.525-0.019,2.285-0.064c0.761-0.04,1.438-0.062,2.033-0.062h1.899
		c1.354,0,2.835-0.087,4.444-0.257c1.605-0.174,3.214-0.472,4.823-0.906c1.605-0.427,3.088-1.029,4.441-1.805
		c1.354-0.774,2.455-1.807,3.3-3.096c0.17-0.173,0.424-0.709,0.763-1.612c0.335-0.903,0.548-1.439,0.633-1.612
		c0.51-1.03,1.651-1.548,3.429-1.548h1.777l10.281,9.804v0.517c0,1.72-0.951,3.181-2.854,4.385c-1.906,1.207-4.105,2.216-6.601,3.03
		c-2.498,0.819-4.952,1.421-7.363,1.808c-2.41,0.388-4.169,0.581-5.268,0.581h-1.775l-30.209-4.774h-2.156
		C460.528,393.094,459.6,393.393,458.162,393.823z"/>
	<path fill="#FAAF40" d="M273.873,381.02c-0.103-0.101,0,0.356,0.297,1.372c0.303,1.015,0.676,2.263,1.127,3.732
		c0.45,1.477,0.948,3.001,1.499,4.575c0.548,1.577,0.976,2.873,1.274,3.887c0.5,1.424,0.775,2.439,0.826,3.05
		c0.049,0.61,0.076,1.624,0.076,3.048s-0.151,2.414-0.452,2.974c-0.299,0.557-0.55,0.938-0.748,1.145l0.299-0.153l-1.35,1.371v0.763
		c0.049,0-1.906,1.507-3.809,3.042h37.172c-0.125-0.231-0.29-0.481-0.513-0.753c-0.202-0.205-0.578-0.588-1.125-1.147
		c-0.551-0.558-1.127-1.243-1.725-2.056c-0.204-0.205-0.45-0.483-0.752-0.839c-0.301-0.356-0.701-0.941-1.199-1.753l0.15,0.152
		c-0.999-1.829-1.927-3.635-2.777-5.413c-0.848-1.776-1.673-3.529-2.473-5.257c-0.802-1.527-1.55-3.052-2.249-4.575
		c-0.7-1.525-1.453-3.101-2.251-4.724h0.151l-28.048-83.696c-0.204-0.406-0.403-1.269-0.601-2.59
		c-0.205-1.319-0.302-2.236-0.302-2.744v-0.611c0-1.015,0.097-1.752,0.302-2.211c0.197-0.456,0.397-0.938,0.601-1.446
		c0.396-0.813,0.748-1.601,1.049-2.364c0.299-0.762,0.447-1.649,0.447-2.667c-0.2,0-0.649,0-1.348,0c-0.7,0-1.478,0.028-2.325,0.076
		c-0.851,0.053-1.725,0.077-2.625,0.077c-0.802,0-1.5,0-2.099,0h-5.252c-0.297,0-0.674,0.024-1.123,0.076
		c-0.451,0.054-0.928,0.076-1.426,0.076c-1.2,0-2.475,0.052-3.825,0.154c-1.35,0.101-2.624,0.204-3.824,0.303
		c-1.201,0.104-2.251,0.229-3.149,0.381c-0.901,0.153-1.451,0.332-1.651,0.533l-0.451,0.611c0.5,0.813,0.948,1.729,1.348,2.745
		c0.398,1.016,0.6,2.083,0.6,3.201v0.61c0,0.204-0.025,0.357-0.074,0.458c-0.052,0.101-0.076,0.255-0.076,0.457
		c-0.101,0.609-0.249,1.475-0.451,2.592l-18.449,56.406l0.449-0.156c-0.8,1.222-1.326,2.213-1.572,2.974
		c-0.252,0.763-0.479,1.602-0.677,2.514c0.099-0.504,0.099-0.631,0-0.38c-0.102,0.255-0.251,0.638-0.449,1.145
		c-0.301,0.916-0.851,2.438-1.651,4.574c-0.8,2.135-1.675,4.421-2.625,6.859c-0.952,2.439-1.851,4.752-2.7,6.938
		c-0.851,2.186-1.425,3.685-1.725,4.496h0.149c-0.202,0.408-0.524,1.017-0.975,1.829c-0.45,0.817-0.726,1.271-0.824,1.372
		c-0.302,0.304-0.826,0.868-1.575,1.678c-0.75,0.816-1.552,1.652-2.402,2.516c-0.849,0.864-1.676,1.678-2.473,2.438
		c-0.802,0.762-1.35,1.297-1.651,1.602l1.352,1.369h25.498c0-1.013-0.202-1.954-0.6-2.817c-0.4-0.864-0.849-1.701-1.35-2.515
		c-0.299-0.51-0.575-1.118-0.824-1.831c-0.25-0.709-0.375-1.624-0.375-2.744c0-0.201,0-0.354,0-0.455
		c0-0.206,0.049-0.662,0.15-1.374h-0.15l8.25-26.829c0.098-0.406,0.247-0.764,0.449-1.069h30.301l7.651,23.323L273.873,381.02z
		 M260.972,346.718h-24.451c0.2,0,0.452-0.049,0.75-0.152c0.299-0.102,0.451-0.251,0.451-0.458v-0.304l-0.151,0.304l3.45-9.909
		v-0.458l-0.148,0.303l8.399-25.15L260.972,346.718l0.15-0.306h0.598c-0.202,0.207-0.101,0.306,0.301,0.306H260.972z"/>
	<path fill="#FAAF40" d="M163.111,236.938c-1.336-2.714-3.144-5.094-5.423-7.132c-2.282-2.039-4.896-3.795-7.844-5.273
		c-2.95-1.479-6.036-2.819-9.258-4.015l0.118,0.119c-0.159-0.081-0.454-0.159-0.885-0.24c-0.434-0.078-0.846-0.199-1.238-0.359
		c1.887-1.039,3.695-2.458,5.426-4.256c1.728-1.796,3.223-3.776,4.482-5.933c1.256-2.157,2.258-4.335,3.007-6.534
		c0.747-2.195,1.12-4.174,1.12-5.931c0-5.833-1.237-10.807-3.715-14.924c-2.477-4.115-5.721-7.472-9.73-10.069
		c-4.011-2.597-8.551-4.495-13.622-5.694c-5.072-1.199-10.244-1.798-15.51-1.798h-1.061c-0.63,0.08-1.87,0.239-3.715,0.479
		c-1.85,0.239-3.598,0.479-5.25,0.718h0.119c-0.943,0.162-2.011,0.289-3.033,0.367c0,0-1.474,1.3-3.431,3.231
		s-4.099,4.294-4.099,4.294c1.415-1.278,2.09-1.517,3.781-2.198c1.691-0.677,3.438-1.177,5.249-1.498
		c1.807-0.319,3.598-0.52,5.366-0.6c1.769-0.079,3.439-0.12,5.014-0.12c1.18,0,2.279,0.061,3.302,0.181
		c1.021,0.119,2.279,0.34,3.774,0.66c6.84,1.599,11.753,4.494,14.742,8.689c2.987,4.195,4.482,10.17,4.482,17.922
		c0,3.915-0.531,7.331-1.591,10.248c-1.062,2.917-2.577,5.394-4.542,7.431c-1.966,2.039-4.305,3.676-7.018,4.915
		c-2.712,1.24-5.721,2.14-9.022,2.697h-1.533c-0.078,0-0.177-0.02-0.294-0.059c-0.119-0.04-0.297-0.261-0.531-0.66l0.354,0.241
		c-0.08-2.479-0.159-4.275-0.237-5.396c-0.078-1.118-0.138-2.196-0.176-3.235c-0.041-1.038-0.059-1.757-0.059-2.158v-2.637
		c0-1.918,0.018-3.696,0.059-5.335c0.038-1.636,0.098-3.416,0.176-5.333c0-0.718,0.019-1.457,0.06-2.217
		c0.038-0.759,0.097-1.578,0.177-2.458c0.156-1.357,0.589-2.637,1.297-3.835c0.707-1.198,1.571-2.196,2.595-2.997
		c0-0.158-0.14-0.318-0.414-0.479c-0.277-0.16-0.846-0.398-1.709-0.719h-6.251c-0.472,0-1.456,0.021-2.95,0.061
		c-1.495,0.041-3.065,0.101-4.717,0.179c-1.651,0.081-3.225,0.161-4.718,0.24c-1.495,0.08-2.477,0.12-2.949,0.12v1.078
		c0,0.402,0.178,0.86,0.531,1.379c0.353,0.521,0.767,1.1,1.239,1.738c0.156,0.162,0.294,0.401,0.412,0.72
		c0.118,0.32,0.254,0.76,0.413,1.319c0,0.159,0.039,0.479,0.118,0.958c0.078,0.479,0.137,0.979,0.177,1.498
		c0.039,0.52,0.078,1.039,0.118,1.559c0.04,0.52,0.061,0.897,0.061,1.139v57.894c0,0.24-0.021,0.719-0.061,1.438
		c-0.04,0.721-0.079,1.52-0.118,2.397c-0.04,0.881-0.099,1.737-0.177,2.578c-0.079,0.839-0.118,1.46-0.118,1.858
		c0,0.24-0.041,0.601-0.117,1.079c-0.079,0.481-0.159,0.8-0.237,0.958c-0.158,0.641-0.314,1.1-0.471,1.378
		c-0.159,0.282-0.316,0.501-0.472,0.661c-0.552,0.64-1.002,1.22-1.357,1.737c-0.353,0.521-0.531,1.02-0.531,1.497l2.36,0.6
		c1.493,0,2.967,0.042,4.421,0.121c1.455,0.079,2.929,0.159,4.423,0.239c1.493,0.079,2.987,0.138,4.482,0.179
		c1.494,0.041,3.026,0.062,4.599,0.062c0.63,0,1.101-0.021,1.417-0.062c0.312-0.041,0.707-0.179,1.177-0.417
		c0.473,0,0.963,0.017,1.477,0.06c0.51,0.038,1.041,0.061,1.592,0.061c1.336,0.08,2.751,0.119,4.245,0.119c1.495,0,3.027,0,4.601,0
		c4.56,0,9.2-0.256,13.917-0.78c4.718-0.518,8.982-1.635,12.798-3.356c3.813-1.717,6.916-4.232,9.317-7.55
		c2.397-3.315,3.596-7.73,3.596-13.245C165.117,242.853,164.448,239.657,163.111,236.938z M144.299,256.956
		c-1.455,2.638-3.44,4.616-5.955,5.933c-2.519,1.32-5.444,2.12-8.787,2.398c-3.343,0.282-6.898,0.42-10.673,0.42h-4.481
		c-0.473-0.159-1.142-0.4-2.005-0.721c-0.867-0.317-1.297-1.037-1.297-2.157v-35.119c0-0.079,0.451-0.139,1.355-0.18
		c0.903-0.04,1.475-0.06,1.711-0.06c1.415-0.161,2.713-0.34,3.891-0.541c1.181-0.198,2.32-0.458,3.421-0.778
		c1.416-0.398,2.811-0.737,4.188-1.019c1.375-0.28,2.653-0.42,3.833-0.42c2.516,0,4.815,0.622,6.9,1.859
		c2.082,1.24,3.871,2.838,5.367,4.795c1.493,1.958,2.653,4.216,3.478,6.772c0.826,2.558,1.239,5.154,1.239,7.792
		C146.482,250.645,145.754,254.319,144.299,256.956z"/>
</g>
</svg>
