<?xml version="1.0" encoding="utf-8"?>
<!-- Generator: Adobe Illustrator 15.0.2, SVG Export Plug-In . SVG Version: 6.00 Build 0)  -->
<!DOCTYPE svg PUBLIC "-//W3C//DTD SVG 1.1//EN" "http://www.w3.org/Graphics/SVG/1.1/DTD/svg11.dtd">
<svg version="1.1" id="Layer_1" xmlns="http://www.w3.org/2000/svg" xmlns:xlink="http://www.w3.org/1999/xlink" x="0px" y="0px"
	 width="100px" height="100px" viewBox="0 0 100 100" enable-background="new 0 0 100 100" xml:space="preserve">
<g id="Layer_1_1_">
</g>
<polygon fill="#FFFFFF" points="81.38,97.249 83.417,103.514 90.005,103.514 84.675,107.387 86.711,113.652 81.38,109.779 
	76.05,113.652 78.086,107.387 72.755,103.514 79.344,103.514 "/>
<line fill="none" x1="115.637" y1="87.391" x2="115.637" y2="87.391"/>
<path fill="#CE8B30" d="M115.637,87.391c14.234-4.943,29.155-10.029,44.741-15.254l9.608-3.68l-7.469,3.621
	c-7.174,4.148-10.513,7.447-20.111,12.268L83.417,41.487c0.295,1.942,0.573,4.101,0.832,6.536c-0.259-0.715-0.541-1.104-0.832-1.311
	l54.021,39.248c0.099-0.312,0.051-0.583-0.033-0.836c-0.057-0.177-0.129-0.347-0.184-0.515c-0.107-0.332-0.138-0.658,0.221-1.041
	l1.353-0.278l-9.474,1.883l0.3-1.291l-0.3,1.291L115.637,87.391"/>
<line fill="none" x1="129.32" y1="85.176" x2="129.32" y2="85.176"/>
<line fill="none" x1="84.249" y1="48.023" x2="84.249" y2="48.023"/>
<line fill="none" x1="169.986" y1="68.458" x2="169.986" y2="68.458"/>
<path fill="#CE8B30" d="M125.033,172.193l0.24,0.248l1.933,3.119c1.558,3.942,3.114,7.894,5.94,13.459
	c1.229,2.739,2,4.877,2.317,6.41l7.291,35.354L-20.085,82.417c-1.09-0.993-1.538-1.791-1.343-2.394
	c0.082-0.248,0.267-0.465,0.569-0.646l9.934,4.9c-0.032,0.045-0.048,0.095-0.065,0.143c-0.095,0.294,0.064,0.662,0.41,1.085
	l144.525,176.062l-4.356-74.221C129.391,183.919,124.456,174.391,125.033,172.193"/>
<line fill="none" x1="-10.925" y1="84.277" x2="-10.925" y2="84.277"/>
<line fill="none" x1="-50.225" y1="69.997" x2="-50.225" y2="69.997"/>
<path fill="#6B602D" d="M-50.225,69.997c-4.188-2.636-7.05-4.919-9.906-7.2l5.865,1.905c0.801,1.011,3.589,2.713,3.352,3.444
	c-0.066,0.203-0.354,0.332-0.983,0.351l1.348,0.278L-50.225,69.997"/>
<polyline fill="#6B602D" points="-44.82,68.887 -48.378,66.536 -47.03,66.812 -44.82,68.887 "/>
<polyline fill="#6B602D" points="53.945,73.825 55.402,75.312 54.287,74.424 53.945,73.825 "/>
<line fill="none" x1="55.402" y1="75.312" x2="55.402" y2="75.312"/>
<line fill="none" x1="173.068" y1="138.727" x2="173.068" y2="138.727"/>
<polyline fill="#6B602D" points="173.068,138.727 169.646,138.174 173.068,138.727 "/>
<polyline fill="#6B602D" points="169.646,138.174 169.621,138.244 169.646,138.174 "/>
<line fill="none" x1="16.102" y1="181.747" x2="16.102" y2="181.747"/>
<polyline fill="#6B602D" points="16.102,181.747 14.395,184.741 16.102,181.747 "/>
<line fill="none" x1="126.546" y1="37.597" x2="126.546" y2="37.597"/>
<polyline fill="#6B602D" points="126.546,37.597 125.861,38.792 126.546,37.597 "/>
<polyline fill="#6B602D" points="190.32,73.079 190.471,73.014 150.061,197.383 155.41,203.331 150.061,197.383 190.471,73.014 
	190.32,73.079 "/>
<line fill="none" x1="55.402" y1="75.312" x2="55.402" y2="75.312"/>
<polyline fill="#6B602D" points="55.402,75.312 59.111,79.389 55.402,75.312 "/>
<line fill="none" x1="8.042" y1="194.518" x2="8.042" y2="194.518"/>
<line fill="none" x1="8.042" y1="194.518" x2="8.042" y2="194.518"/>
<polyline fill="#6B602D" points="8.042,194.518 7.261,196.493 7.699,195.116 8.042,194.518 "/>
<polyline fill="#6B602D" points="73.285,11.033 72.755,7.836 80.316,53.443 16.516,180.919 16.102,181.747 16.383,181.104 
	79.223,36.877 72.755,7.608 73.059,8.979 73.285,11.033 "/>
<line fill="none" x1="16.102" y1="181.747" x2="16.102" y2="181.747"/>
<polyline fill="#6B602D" points="7.392,200.822 4.705,203.104 4.986,202.46 4.705,203.104 4.986,202.46 5.388,201.904 
	7.392,200.822 "/>
<line fill="none" x1="11.271" y1="188.396" x2="11.271" y2="188.396"/>
<line fill="none" x1="11.271" y1="188.396" x2="11.271" y2="188.396"/>
<path fill="#6B602D" d="M11.271,188.396l-3.229,6.121l-0.78,1.976l0.438-1.377c-2.827,5.565-5.192,10.625-6.286,14.063l2.136-2.683
	l-0.017-2.556l1.171-0.84l0.281-0.646l0.157-0.731l0.246,0.178l2.801-6.432l-2.329,4.235l2.206-4.325l0.123,0.09l2.669-4.834
	L11.271,188.396 M8.067,195.385l-0.123-0.088L8.067,195.385 M5.143,201.727L5.143,201.727"/>
<line fill="none" x1="7.699" y1="195.116" x2="7.699" y2="195.116"/>
<polyline fill="#2B2829" points="7.699,195.116 7.261,196.493 7.699,195.116 "/>
<line fill="none" x1="7.261" y1="196.493" x2="7.261" y2="196.493"/>
<line fill="none" x1="5.388" y1="201.904" x2="5.388" y2="201.904"/>
<polyline fill="#2B2829" points="4.986,202.46 4.705,203.104 4.986,202.46 "/>
<line fill="none" x1="74.421" y1="12.404" x2="74.421" y2="12.404"/>
<line fill="none" x1="74.421" y1="12.404" x2="74.421" y2="12.404"/>
<polyline fill="#6B602D" points="74.421,12.404 74.043,11.033 73.514,8.979 72.755,4.41 80.587,51.648 14.504,183.689 
	12.224,188.245 10.859,190.641 11.271,188.396 11.82,187.385 80.753,60.129 72.755,-0.154 74.421,12.404 "/>
<line fill="none" x1="10.859" y1="190.641" x2="10.859" y2="190.641"/>
<line fill="none" x1="5.143" y1="201.727" x2="5.143" y2="201.727"/>
<line fill="none" x1="5.143" y1="201.727" x2="5.143" y2="201.727"/>
<polyline fill="#6B602D" points="5.143,201.727 5.388,201.904 4.986,202.46 5.143,201.727 "/>
<line fill="none" x1="5.388" y1="201.904" x2="5.388" y2="201.904"/>
<polyline fill="#2B2829" points="5.143,201.727 5.388,201.904 5.143,201.727 "/>
<line fill="none" x1="5.388" y1="201.904" x2="5.388" y2="201.904"/>
<line fill="none" x1="74.572" y1="13.087" x2="74.572" y2="13.087"/>
<line fill="none" x1="74.572" y1="13.087" x2="74.572" y2="13.087"/>
<polyline fill="#6B602D" points="74.572,13.087 74.275,12.616 74.043,11.033 74.421,12.404 74.572,13.087 "/>
<line fill="none" x1="74.346" y1="13.087" x2="74.346" y2="13.087"/>
<line fill="none" x1="74.346" y1="13.087" x2="74.346" y2="13.087"/>
<polyline fill="#6B602D" points="74.346,13.087 74.275,12.616 74.346,13.087 "/>
<polyline fill="#6B602D" points="74.143,12.404 73.285,11.033 73.738,11.033 74.143,12.404 "/>
<line fill="none" x1="74.043" y1="11.033" x2="74.043" y2="11.033"/>
<line fill="none" x1="4.986" y1="202.46" x2="4.986" y2="202.46"/>
<line fill="none" x1="4.986" y1="202.46" x2="4.986" y2="202.46"/>
<polyline fill="#2B2829" points="4.986,202.46 4.705,203.104 4.986,202.46 "/>
<line fill="none" x1="4.986" y1="202.46" x2="4.986" y2="202.46"/>
<line fill="none" x1="74.346" y1="13.087" x2="74.346" y2="13.087"/>
<line fill="none" x1="74.346" y1="13.087" x2="74.346" y2="13.087"/>
<polyline fill="#6B602D" points="74.346,13.087 74.143,12.404 74.346,13.087 "/>
<polyline fill="#6B602D" points="74.275,12.616 74.143,12.404 73.738,11.033 73.514,8.979 74.043,11.033 73.514,8.979 
	74.043,11.033 74.275,12.616 "/>
<polyline fill="#2B2829" points="74.346,13.087 74.143,12.404 74.275,12.616 74.346,13.087 "/>
<polyline fill="#2B2829" points="74.143,12.404 73.738,11.033 74.143,12.404 "/>
<line fill="none" x1="73.514" y1="8.979" x2="73.514" y2="8.979"/>
<line fill="none" x1="73.514" y1="8.979" x2="73.514" y2="8.979"/>
<line fill="none" x1="74.043" y1="11.033" x2="74.043" y2="11.033"/>
<polyline fill="#2B2829" points="74.043,11.033 73.514,8.979 74.043,11.033 "/>
<line fill="none" x1="73.738" y1="11.033" x2="73.738" y2="11.033"/>
<line fill="none" x1="73.738" y1="11.033" x2="73.738" y2="11.033"/>
<line fill="none" x1="73.738" y1="11.033" x2="73.738" y2="11.033"/>
<line fill="none" x1="73.738" y1="11.033" x2="73.738" y2="11.033"/>
<polyline fill="#6B602D" points="73.738,11.033 73.285,11.033 73.059,8.979 73.738,11.033 "/>
<line fill="none" x1="73.285" y1="11.033" x2="73.285" y2="11.033"/>
<line fill="none" x1="73.285" y1="11.033" x2="73.285" y2="11.033"/>
<polyline fill="#2B2829" points="73.285,11.033 73.059,8.979 73.285,11.033 "/>
<polyline fill="#2B2829" points="73.738,11.033 73.285,11.033 73.738,11.033 "/>
<line fill="none" x1="73.285" y1="11.033" x2="73.285" y2="11.033"/>
<line fill="none" x1="73.738" y1="11.033" x2="73.738" y2="11.033"/>
<line fill="none" x1="73.738" y1="11.033" x2="73.738" y2="11.033"/>
<polyline fill="#6B602D" points="73.738,11.033 73.059,8.979 72.755,5.69 79.156,75.193 15.256,182.654 14.834,183.363 
	15.014,182.988 80.335,46.422 72.755,5.279 73.438,8.979 73.514,8.979 73.738,11.033 "/>
<line fill="none" x1="73.059" y1="8.979" x2="73.059" y2="8.979"/>
<line fill="none" x1="14.834" y1="183.363" x2="14.834" y2="183.363"/>
<line fill="none" x1="73.738" y1="11.033" x2="73.738" y2="11.033"/>
<line fill="none" x1="73.738" y1="11.033" x2="73.738" y2="11.033"/>
<polyline fill="#2B2829" points="73.738,11.033 73.059,8.979 73.738,11.033 "/>
<line fill="none" x1="73.059" y1="8.979" x2="73.059" y2="8.979"/>
<line fill="none" x1="73.059" y1="8.979" x2="73.059" y2="8.979"/>
<polyline fill="#2B2829" points="7.944,195.297 8.067,195.385 7.944,195.297 "/>
<line fill="none" x1="73.514" y1="8.979" x2="73.514" y2="8.979"/>
<line fill="none" x1="8.067" y1="195.385" x2="8.067" y2="195.385"/>
<line fill="none" x1="8.067" y1="195.385" x2="8.067" y2="195.385"/>
<polyline fill="#6B602D" points="8.067,195.385 8.19,195.475 5.861,199.71 8.067,195.385 "/>
<polyline fill="#2B2829" points="8.067,195.385 8.19,195.475 8.067,195.385 "/>
<line fill="none" x1="8.19" y1="195.475" x2="8.19" y2="195.475"/>
<polyline fill="#2B2829" points="8.19,195.475 5.861,199.71 8.19,195.475 "/>
<line fill="none" x1="8.19" y1="195.475" x2="8.19" y2="195.475"/>
<line fill="none" x1="5.861" y1="199.71" x2="5.861" y2="199.71"/>
<line fill="none" x1="12.224" y1="188.245" x2="12.224" y2="188.245"/>
<line fill="none" x1="12.224" y1="188.245" x2="12.224" y2="188.245"/>
<polyline fill="#6B602D" points="12.224,188.245 11.384,190.174 10.859,190.641 12.224,188.245 "/>
<line fill="none" x1="73.514" y1="8.979" x2="73.514" y2="8.979"/>
<line fill="none" x1="73.514" y1="8.979" x2="73.514" y2="8.979"/>
<polyline fill="#6B602D" points="73.514,8.979 73.438,8.979 72.755,4.662 80.583,54.245 14.652,183.486 12.224,188.245 
	14.504,183.689 80.587,51.648 72.755,4.41 73.514,8.979 "/>
<polyline fill="#2B2829" points="73.514,8.979 73.438,8.979 73.514,8.979 73.438,8.979 73.514,8.979 "/>
<polyline fill="#231F20" points="73.514,8.979 73.438,8.979 73.514,8.979 "/>
<line fill="none" x1="12.224" y1="188.245" x2="12.224" y2="188.245"/>
<polyline fill="#6B602D" points="101.326,73.467 98.218,79.676 81.275,113.536 110.66,117.973 110.66,117.973 110.66,117.973 
	82.389,114.898 98.218,79.676 100.8,73.932 101.326,73.467 "/>
<line fill="none" x1="110.66" y1="117.973" x2="110.66" y2="117.973"/>
<polyline fill="#6B602D" points="103.365,71.561 100.175,76.984 79.871,111.488 113.824,119 109.216,117.98 112.402,118.537 
	80.843,113.02 99.294,78.197 102.318,72.49 103.365,71.561 "/>
<line fill="none" x1="109.216" y1="117.98" x2="109.216" y2="117.98"/>
<line fill="none" x1="139.908" y1="127.715" x2="139.908" y2="127.715"/>
<line fill="none" x1="139.908" y1="127.715" x2="139.908" y2="127.715"/>
<path fill="#6B602D" d="M139.908,127.715c-0.979,0.797-1.938,1.52-8.055,0.408l3.049-0.523l-0.022,0.072L139.908,127.715"/>
<line fill="none" x1="134.902" y1="127.6" x2="134.902" y2="127.6"/>
<line fill="none" x1="134.902" y1="127.6" x2="134.902" y2="127.6"/>
<line fill="none" x1="131.855" y1="128.123" x2="131.855" y2="128.123"/>
<line fill="none" x1="139.908" y1="127.715" x2="139.908" y2="127.715"/>
<line fill="none" x1="139.908" y1="127.715" x2="139.908" y2="127.715"/>
<polyline fill="#6B602D" points="139.908,127.715 134.88,127.672 134.902,127.6 139.908,127.715 "/>
<line fill="none" x1="139.908" y1="127.715" x2="139.908" y2="127.715"/>
<polyline fill="#2B2829" points="139.908,127.715 134.88,127.672 139.908,127.715 "/>
<line fill="none" x1="134.88" y1="127.672" x2="134.88" y2="127.672"/>
<polyline fill="#6B602D" points="104.016,71.186 102.65,73.579 80.423,112.559 117.828,120.303 117.152,120.161 117.466,120.182 
	84.633,117.874 102.425,73.889 103.365,71.561 104.016,71.186 "/>
<line fill="none" x1="117.152" y1="120.161" x2="117.152" y2="120.161"/>
<line fill="none" x1="99.893" y1="71.577" x2="99.893" y2="71.577"/>
<polyline fill="#6B602D" points="99.893,71.577 99.451,72.953 99.893,71.577 "/>
<path fill="#929497" d="M99.341,104.04l-1.836-0.995l-5.047-2.197c-4.168-0.478-8.336-0.955-9.946-0.443l2.704,0.562
	c-0.979,0.796-7.075-0.389-9.313-0.159C84.119,102.12,88.544,101.807,99.341,104.04 M85.216,100.965L85.216,100.965"/>
<line fill="none" x1="82.512" y1="100.402" x2="82.512" y2="100.402"/>
<line fill="none" x1="75.902" y1="100.805" x2="75.902" y2="100.805"/>
<line fill="none" x1="79.27" y1="105.564" x2="79.27" y2="105.564"/>
<polyline fill="#6B602D" points="79.27,105.564 78.965,104.887 79.27,105.564 "/>
<line fill="none" x1="82.512" y1="100.402" x2="82.512" y2="100.402"/>
<polyline fill="#6B602D" points="82.512,100.402 81.725,100.625 82.512,100.402 "/>
<line fill="none" x1="83.369" y1="104.426" x2="83.369" y2="104.426"/>
<polyline fill="#6B602D" points="83.369,104.426 81.619,104.254 78.921,103.99 79.344,105.906 79.27,105.564 79.344,105.906 
	78.921,103.99 81.619,104.254 83.369,104.426 "/>
<polyline fill="#6B602D" points="89.143,86.631 88.703,88.006 86.654,91.598 88.337,87.736 89.143,86.631 "/>
<polyline fill="#6B602D" points="89.947,85.521 88.703,88.006 89.143,86.631 89.947,85.521 "/>
<line fill="none" x1="88.703" y1="88.006" x2="88.703" y2="88.006"/>
<line fill="none" x1="95.059" y1="78.227" x2="95.059" y2="78.227"/>
<line fill="none" x1="95.059" y1="78.227" x2="95.059" y2="78.227"/>
<polyline fill="#6B602D" points="95.059,78.227 93.755,80.667 90.061,87.299 91.96,82.75 95.059,78.227 "/>
<line fill="none" x1="90.061" y1="87.299" x2="90.061" y2="87.299"/>
<polyline fill="#6B602D" points="95.462,77.674 93.755,80.667 95.059,78.227 95.462,77.674 "/>
<line fill="none" x1="93.755" y1="80.667" x2="93.755" y2="80.667"/>
<line fill="none" x1="96.607" y1="75.971" x2="96.607" y2="75.971"/>
<line fill="none" x1="96.607" y1="75.971" x2="96.607" y2="75.971"/>
<polyline fill="#6B602D" points="96.607,75.971 93.037,82.684 93.755,80.667 95.462,77.674 96.607,75.971 "/>
<line fill="none" x1="93.037" y1="82.684" x2="93.037" y2="82.684"/>
<line fill="none" x1="88.337" y1="87.736" x2="88.337" y2="87.736"/>
<path fill="#929497" d="M88.337,87.736l-1.683,3.859l2.049-3.593c-0.534,2.151-0.141,3.286-1.48,6.552
	c-1.097,0.75-1.707,0.832-2.065,0.567c-0.619-0.449-0.509-1.91-0.875-2.705L88.337,87.736"/>
<polyline fill="#3A393A" points="88.337,87.736 86.654,91.598 88.337,87.736 "/>
<line fill="none" x1="86.654" y1="91.598" x2="86.654" y2="91.598"/>
<line fill="none" x1="88.703" y1="88.006" x2="88.703" y2="88.006"/>
<line fill="none" x1="88.703" y1="88.006" x2="88.703" y2="88.006"/>
<path fill="#6B602D" d="M83.172,93.301c-1.497,3.993-1.662,6.411-6.225,14.106c-0.104,0.003-0.186-0.022-0.252-0.071
	c-1.266-0.919,4.761-11.072,3.476-12.009c-0.034-0.022-0.069-0.045-0.114-0.058c-3.012,5.433-4.851,10.023-7.861,15.457
	c2.24-5.146,5.349-11.354,8.455-17.563L83.172,93.301"/>
<line fill="none" x1="72.195" y1="110.727" x2="72.195" y2="110.727"/>
<line fill="none" x1="72.966" y1="110.439" x2="72.966" y2="110.439"/>
<line fill="none" x1="72.966" y1="110.439" x2="72.966" y2="110.439"/>
<polyline fill="#6B602D" points="72.966,110.439 66.6,121.91 67.66,119.287 72.966,110.439 "/>
<polyline fill="#6B602D" points="51.604,100.217 50.881,100.221 50.206,100.081 51.604,100.217 "/>
<path fill="#6B602D" d="M58.54,101.036l-2.069-0.272l-4.867-0.547l-0.723,0.004L58.54,101.036 M56.471,100.764l-4.867-0.547
	L56.471,100.764"/>
<line fill="none" x1="50.881" y1="100.221" x2="50.881" y2="100.221"/>
<line fill="none" x1="67.66" y1="119.287" x2="67.66" y2="119.287"/>
<line fill="none" x1="67.66" y1="119.287" x2="67.66" y2="119.287"/>
<path fill="#6B602D" d="M67.66,119.287l-1.062,2.623l-0.994,2.658l-7.717-23.743l-1.418-0.062l-4.865-0.548l-1.396-0.136
	l0.675,0.141l-11.519-2.229l2.469-0.949c4.012,0.867,7.559,1.524,11.023,2.146l9.639,29.66
	C64.178,125.703,65.803,122.624,67.66,119.287"/>
<polyline fill="#2B2829" points="67.66,119.287 66.6,121.91 67.66,119.287 "/>
<line fill="none" x1="66.6" y1="121.91" x2="66.6" y2="121.91"/>
<line fill="none" x1="51.604" y1="100.217" x2="51.604" y2="100.217"/>
<line fill="none" x1="51.604" y1="100.217" x2="51.604" y2="100.217"/>
<polyline fill="#2B2829" points="51.604,100.217 50.206,100.081 51.604,100.217 "/>
<line fill="none" x1="50.206" y1="100.081" x2="50.206" y2="100.081"/>
<polyline fill="#2B2829" points="56.471,100.764 51.604,100.217 56.471,100.764 "/>
<line fill="none" x1="50.881" y1="100.221" x2="50.881" y2="100.221"/>
<line fill="none" x1="56.471" y1="100.764" x2="56.471" y2="100.764"/>
<polyline fill="#2B2829" points="56.471,100.764 51.604,100.217 56.471,100.764 "/>
<line fill="none" x1="37.128" y1="95.99" x2="37.128" y2="95.99"/>
<line fill="none" x1="37.128" y1="95.99" x2="37.128" y2="95.99"/>
<path fill="#6B602D" d="M37.128,95.99c-2.21,0.158-5.05,0.031-10.453-1.088l-1.389-2.362l3.838,1.485L37.128,95.99"/>
<line fill="none" x1="131.533" y1="50.541" x2="131.533" y2="50.541"/>
<line fill="none" x1="131.533" y1="50.541" x2="131.533" y2="50.541"/>
<polyline fill="#6B602D" points="131.533,50.541 128.867,55.372 127.876,56.35 131.533,50.541 "/>
<path fill="#514107" d="M3.237,129.406c20.375-8.213,41.502-16.352,64.652-24.907l-1.252,2.796c-0.837,0.838-2.203,1.85-4.061,2.991
	l14.957-9.196l5.883,24.338c1.818,7.524,3.305,21.459,3.277,39.627c-0.004,3.332-0.062,6.795-0.174,10.391
	c-1.078,1.949-2.156,6.986-3.104,11.591l14.041-68.144L3.982,129.325L3.237,129.406"/>
<line fill="none" x1="67.889" y1="104.499" x2="67.889" y2="104.499"/>
<path fill="#6B602D" d="M43.874,43.887l1.855,2.039c1.182,2.527,5.146,8.113,4.814,9.202C46.64,49.496,45.458,46.969,43.874,43.887"
	/>
<line fill="none" x1="89.4" y1="187.092" x2="89.4" y2="187.092"/>
<path fill="#A96200" d="M89.4,187.092c-0.608-9.354-1.414-12.074-2.256-12.074c-0.205,0-0.414,0.16-0.623,0.428
	c0.111-3.596,0.17-7.059,0.174-10.391c0.025-18.168-1.459-32.103-3.277-39.627l-5.883-24.338l-14.957,9.196
	c1.857-1.144,3.225-2.153,4.061-2.991c-0.156,0.607-0.295,1.211-0.404,1.803l-0.53,2.838l17.716,9.646
	c1.348,0.734,2.691,1.291,4.039,1.577c0.627,0.131,1.252,0.194,1.879,0.194c0.225,0,0.446-0.011,0.67-0.027l-11.646-35.84
	c-1.211,1.039-2.137,2.47-2.686,4.423l3.807,4.854c0.693,0.211,1.229,0.2,1.675,0.072c0.437-0.122,0.793-0.354,1.134-0.6L82.604,96
	c0.432-0.312,0.875-0.602,1.471-0.65l5.935,18.26c-0.239-0.146-0.479-0.351-0.713-0.642c-0.733-0.909-1.438-2.646-2.091-6.028
	c0.914-2.701,1.855-4.106,2.804-4.361l2.455-0.661l-1.903,2.356c-0.067,0.086-0.146,0.158-0.231,0.221
	c-0.563,0.412-1.49,0.326-2.75-0.23c-2.646-1.164-6.736-4.373-11.918-9.289l9.469,8.98l-15.043,8.176
	c-2.665,1.448-5.685,2.987-9.021,4.604c-3.717,1.846-5.396,3.348-6.416,4.634l0.902-1.646l-5.911,1.762l-13.144,6.102l1.165-0.855
	l3.394-2.854l2.794-2.499c0.499-0.399,0.76-0.726,0.828-0.985l12.184-46.84l3.097-0.186c0.103-0.008,0.187-0.035,0.256-0.086v-0.004
	c0.796-0.574-0.381-3.9-1.024-6.639l-3.053-2.016c-1.382-1.535-2.686-3.152-3.904-4.797c-5.264-7.102-8.815-14.539-9.28-16.955
	l0.929,1.02c1.584,3.082,2.766,5.61,6.67,11.242c0.332-1.089-3.633-6.675-4.814-9.203l5.078,6.472l4.884,4.922
	c3.491,5.326,4.909,6.457,6.562,8.001l27.752,85.409c-0.311-1.604-0.594-3.459-0.529-7.481l-1.817-6.853l-0.983,10.273
	C88.035,157.633,89.477,169.277,89.4,187.092"/>
<path fill="#2C292A" d="M86.695,165.055c0.025-18.168-1.461-32.103-3.278-39.627l-5.884-24.338l-14.957,9.196
	c1.857-1.144,3.225-2.153,4.062-2.991c-0.838,0.838-2.203,1.85-4.062,2.991l14.957-9.196l5.884,24.338
	C85.236,132.952,86.723,146.887,86.695,165.055"/>
<path fill="#312F30" d="M45.73,45.926c1.182,2.527,5.146,8.113,4.814,9.202C50.876,54.039,46.911,48.453,45.73,45.926"/>
<line fill="none" x1="42.945" y1="42.866" x2="42.945" y2="42.866"/>
<line fill="none" x1="45.73" y1="45.926" x2="45.73" y2="45.926"/>
<line fill="none" x1="86.521" y1="175.443" x2="86.521" y2="175.443"/>
<line fill="none" x1="36.492" y1="127.581" x2="36.492" y2="127.581"/>
<line fill="none" x1="36.492" y1="127.581" x2="36.492" y2="127.581"/>
<line fill="none" x1="29.003" y1="131.131" x2="29.003" y2="131.131"/>
<path fill="#6B602D" d="M29.003,131.131l7.489-3.55l1.165-0.854l3.394-2.854l-1.327,0.354l-4.767,3.062l0.158-1.724
	c-4.372,2.057-4.79,2.988-5.86,4.133L29.003,131.131 M30.675,129.631L30.675,129.631 M37.657,126.725l3.394-2.854L37.657,126.725
	 M37.657,126.725L37.657,126.725"/>
<line fill="none" x1="37.657" y1="126.725" x2="37.657" y2="126.725"/>
<polyline fill="#2B2829" points="37.657,126.725 41.051,123.87 37.657,126.725 "/>
<polyline fill="#6B602D" points="43.252,42.643 45.73,45.926 43.874,43.887 43.252,42.643 "/>
<line fill="none" x1="45.73" y1="45.926" x2="45.73" y2="45.926"/>
<line fill="none" x1="84.932" y1="58.301" x2="84.932" y2="58.301"/>
<polyline fill="#6B602D" points="84.932,58.301 84.855,53.508 84.932,58.301 "/>
<path opacity="0.8" fill="#CE8B30" enable-background="new    " d="M2.311-12.289C15.18,2.074,29.78,24.488,43.252,42.643
	l0.622,1.244l-0.929-1.021c0.464,2.416,4.017,9.854,9.282,16.954c1.219,1.646,2.521,3.263,3.902,4.798l3.053,2.017
	c0.646,2.735,1.82,6.062,1.025,6.639c-0.068,0.054-0.154,0.08-0.256,0.088l-3.096,0.185L44.67,120.389
	c-0.068,0.262-0.329,0.584-0.828,0.984l-2.794,2.499l-1.327,0.354l2.184-2.146c-6.281,2.837-6.605,4.06-6.95,5.205l0.158-1.726
	c-4.372,2.059-4.79,2.99-5.86,4.135l-3.328,0.844l-12.75,5.1l8.585-4.623l-6.703,1.543c-10.889,4.174-24.338,9.34-33.083,13.457
	c9.932-4.9,25.844-11.345,29.079-14.705l65.649-68.183L39.174,44.766h0.002l-3.505-5.082l2.784,3.059
	c-2.182-2.73-4.082-4.982-5.867-7.043l54.209,62.56L0.398,134.771c-5.861,2.478-10.542,4.684-18.195,7.504l10.001-4.685
	c-7.138,2.399-12.145,4.744-17.938,6.864c3.947-1.818,10.599-4.311,16.621-6.594l95.339-36.186L26.71,27.607
	c4.797,5.97,9.047,11.183,9.621,10.765c0.016-0.012,0.032-0.024,0.045-0.04c0.027-0.014,0.053-0.032,0.078-0.05
	c1.885-1.37-13.176-22.078-25.09-36.822l2.382,2.506C12.002,0.148,5.755-7.163,2.311-12.289"/>
<path fill="#454547" d="M52.227,59.82c1.222,1.646,2.522,3.263,3.903,4.798l3.054,2.017l-3.054-2.017
	C54.749,63.083,53.445,61.467,52.227,59.82"/>
<path fill="#454547" d="M59.184,66.635c0.646,2.735,1.819,6.062,1.024,6.639C61.003,72.695,59.826,69.37,59.184,66.635"/>
<polyline fill="#353435" points="34.957,127.284 35.115,125.561 34.957,127.284 "/>
<line fill="none" x1="35.115" y1="125.561" x2="35.115" y2="125.561"/>
<polyline fill="#353435" points="39.724,124.223 41.051,123.87 39.724,124.223 "/>
<line fill="none" x1="11.364" y1="1.46" x2="11.364" y2="1.46"/>
<line fill="none" x1="-25.733" y1="144.455" x2="-25.733" y2="144.455"/>
<line fill="none" x1="-18.023" y1="146.012" x2="-18.023" y2="146.012"/>
<line fill="none" x1="-17.797" y1="142.273" x2="-17.797" y2="142.273"/>
<line fill="none" x1="36.376" y1="38.332" x2="36.376" y2="38.332"/>
<line fill="none" x1="35.672" y1="39.682" x2="35.672" y2="39.682"/>
<line fill="none" x1="13.177" y1="135.637" x2="13.177" y2="135.637"/>
<line fill="none" x1="34.957" y1="127.284" x2="34.957" y2="127.284"/>
<line fill="none" x1="39.724" y1="124.223" x2="39.724" y2="124.223"/>
<line fill="none" x1="52.807" y1="124.59" x2="52.807" y2="124.59"/>
<path opacity="0.8" fill="#CE8B30" enable-background="new    " d="M52.807,124.59l0.351-0.033l54.293-39.445l-0.787,0.699
	l-2.726,3.104l-0.438,1.374l0.438-1.374l-3.28,4.389l-2.298,4.319l-30.496,22.157l2.441-1.192l-1.104,0.759L97.533,98.76l0.27-0.754
	l-0.922,1.651L70.258,119l5.166-2.395l-2.525,1.535l22.352-16.236l0.76-1.817l-2.015,2.771l-1.306,2.439l-0.066,0.225l-15.475,11.24
	c2.125-1.623,1.938-2.562,5.486-4.57c0.953,0.101,1.369,0.373,1.49,0.746c0.15,0.465-0.164,1.084-0.482,1.715l4.965-3.606
	c-0.078-0.483-0.157-0.976-0.338-1.338l-1.051,0.933c-0.584,1.559-0.965,2.877-1.484,4.36l0.039-0.108l2.521-1.75
	c2.021-1.4,4.554-2.937,9.562-5.098c0.088,0.061,0.146,0.126,0.17,0.202c0.187,0.571-1.299,1.612-3.172,2.767l-12.358,7.6
	l-0.812,1.97c1.346-3.265,3.334-7.345,2.541-7.92c-0.033-0.024-0.08-0.032-0.119-0.054c-3.01,5.434-4.852,10.027-7.859,15.457
	l5.283-9.531l22.127-10.381v-0.002v0.002L78.482,122.93l-2.238,5.137c2.242-5.146,5.352-11.356,8.457-17.566l-0.121-0.089
	c0.264-2.134,0.775-4.481,1.234-6.726l-0.924,4.504l-7.938-4.504c-0.91-0.517-1.802-1.016-2.652-1.459l4.91,4.567l3.033,2.819
	l1.312-2.819l-0.998,2.146l0.998-2.146l-1.312,2.819l-3.033-2.819l-4.91-4.567c-4.155-2.613-8.233-5.295-13.03-8.918l38.701,28.119
	c1.209,0.021,2.465,0.061,3.774,0.11l-8.209-1.552L64.008,97.079l3.273,3.476c0.59,1.147,0.994,2.051,1.267,2.774l19.64,14.269
	c-2.821-1.861-1.627-2.474-3.498-3.924c-2.978,0.018-7.06-0.406-10.539-0.638l0.427,0.026l2.647,2.207
	c1.871,1.559,3.562,2.867,4.728,3.412c-1.166-0.545-2.854-1.854-4.728-3.412l-2.647-2.207l-0.427-0.026
	c3.479,0.229,7.562,0.653,10.539,0.638l-0.56-0.5c-7.459-1.49-11.879-1.806-16.597-2.287l2.931,0.301l10.849,9.709
	c1.595,1.428,3.215,2.916,5.039,4.746c-0.957-0.556-2.471-1.938-3.91-3.191l-13.657-11.889l-3.073-0.271
	c1.958,0.175,3.771,0.28,4.271-0.125l-2.699-0.56l-0.795,0.223l0.795-0.223c1.604-0.512,5.771-0.035,9.938,0.442
	c-7.603-3.356-15.168-6.841-16.474-8.299l6.623,20.383c-0.14,0.062-0.252,0.091-0.345,0.087l-0.428-0.312l-0.996,2.658
	l-7.715-23.744l-1.418-0.061l2.07,0.271l-7.659-0.815L39.361,97.99l2.469-0.949l-4.703-1.053c-2.21,0.158-5.05,0.033-10.453-1.088
	l-1.389-2.361l-8.142-3.76L6.019,85.324c-8.805-2.184-14.255-2.852-14.645-1.65c-0.023,0.069-0.03,0.146-0.019,0.23l9.796,3.104
	l-6.632-1.759l6.957,2.979l-1.518,0.224c2.088,0.825,3.614,1.479,4.701,2.006l95.19,46.033l20.32,37.89
	c-1-1.865-1.148-2.617-0.875-2.814c0.428-0.311,1.895,0.74,2.727,0.982l-2.381-2.504c-2.381-3.689-2.986-5.016-2.738-5.195
	c0.371-0.269,2.654,2.041,3.711,2.797l4.421,4.551c0.011-0.033-0.013-0.109,0-0.141l0.239,0.387l0.162,0.17l2.25,0.902l0,0H35.073
	l-1.863,3.729l-1.707,2.994l1.707-2.994l0.842-1.934l-2.111,3.549l1.119-2.57h96.639l-0.523-0.465l0.646,0.633H32.94l-3.608,7.285
	l-0.778,1.974l-0.526,0.468l-2.668,4.832l-3.266,6.941l2.004-1.084l-2.285,1.729l-1.172,0.842l0.018,2.555l-2.075,2.727
	c-0.549,1.543-0.792,2.816-0.78,3.777l1.356,121.207L198.206,77.426c0.172-0.24,0.306-0.47,0.403-0.688l-0.022-0.071l-3.009-0.377
	l4.261-0.19l5.843-1.977c-0.742-0.525-4.443-0.143-4.688-0.891c-0.06-0.187,0.084-0.437,0.538-0.787l-1.254,0.564l-1.002-0.867
	c-2.754,0.219-5.76,0.537-8.957,0.938l-4.496,2l4.496-2l-0.09,0.012L149.91,197.178c-4.896-10.453-11.854-23.311-21.702-39.277
	c1.556,3.945,3.112,7.895,6.002,13.416c1.532,3.52,2.345,6.047,2.483,7.674l32.15-98.949c1.028,0.238,1.614,0.625,1.786,1.154
	c0.05,0.148,0.063,0.308,0.048,0.479l-10.916,1.873l0.022,0.072l-4.027,0.911l4.005-0.983c-0.056-0.17-0.189-0.312-0.39-0.43
	L130.84,170.93c0.623-2.826-5.615-14.318-4.342-16.025l1.709,2.996l-1.133-3.36L89.346,42.555l0.659-2.106l-2.804,8.948
	l-1.438,17.812l1.213,1.368l-0.684,3.426c-0.102,1.204-0.49,3.056-0.529,4.761c-0.049,2.189,0.479,4.146,2.953,4.146l1.287-1.371
	c-1.438,5.479-2.729,11.646-3.787,21.922l0.983,5.479c0.913-2.701,1.854-4.106,2.804-4.361l2.455-0.661l-1.904,2.354
	c-0.066,0.086-0.146,0.16-0.23,0.223c-0.562,0.41-1.493,0.32-2.75-0.229c-2.646-1.164-6.736-4.375-11.918-9.289l9.469,8.979
	l-15.043,8.175c-2.665,1.449-5.684,2.988-9.021,4.604c-3.717,1.846-5.396,3.348-6.416,4.634l0.047,0.146l3.121-1.492l-2.401,1.496
	l10.098-4.396l-8.698,4.259l1.379-0.207l6.164-3.199l-5.475,3.133l2.703-0.559L52.807,124.59 M84.221,115.113L84.221,115.113
	 M84.221,115.113L84.221,115.113 M82.441,118.326c-2.672-2.297-6.307-6.049-9.178-8.506l7.291,5.297
	c1.508,0.119,2.793,0.145,3.666-0.004c-0.873,0.148-2.158,0.123-3.666,0.004l-7.291-5.297
	C76.137,112.277,79.77,116.029,82.441,118.326l1.572,1.395l0.647,0.377l-0.647-0.377L82.441,118.326l-1.148-1.71l2.189,0.952
	l-2.189-0.952L82.441,118.326 M76.863,104.596L76.863,104.596 M76.863,104.596L76.863,104.596 M80.275,114.91
	c-0.354-0.924,2.932-6.465,4.188-9.371l-1.699,3.932l-4.465-3.932c-0.658-0.581-1.174-0.949-1.434-0.943
	c0.26-0.006,0.773,0.362,1.434,0.943l4.465,3.932l1.699-3.932C83.206,108.445,79.921,113.986,80.275,114.91 M85.029,105.659
	L85.029,105.659 M85.029,105.659L85.029,105.659 M81.01,115.443l0.062,0.045l-0.189,1.551l0.189-1.551L81.01,115.443
	c0.879-2.756,3.549-7.588,4.02-9.784C84.559,107.855,81.889,112.688,81.01,115.443 M82.555,108.938L82.555,108.938 M81.102,115.064
	l-0.843-1.933L81.102,115.064 M82.035,113.645L82.035,113.645 M80.275,114.91L80.275,114.91 M81.01,115.443L81.01,115.443
	 M81.949,118.682L81.949,118.682 M83.482,117.568L83.482,117.568 M58.54,101.036L58.54,101.036 M106.531,129.611l-2.434-6.698
	L89.271,82.094l0.732-2.556l0,0l0,0l-0.732,2.556l14.826,40.819L106.531,129.611 M106.531,129.611l-2.434-6.698L89.271,82.094
	l0.732-2.556l0,0l0,0l-0.732,2.556l14.826,40.819L106.531,129.611 M106.531,129.611l0.156,0.732l0.562,1.284l0.155,0.729
	l0.533,1.225l0.039,0.104l0.147,0.695l0.56,1.283l0.157,0.732l0.562,1.291l0.558,1.281l0.222,0.688l0.561,1.287l0.56,1.285
	l0.562,1.287l0.619,1.24l0.562,1.287l1.023,1.795c-0.135-2.168-2.215-6.727-4.416-11.436l-0.196-0.453l-0.224-0.441l-0.801-1.722
	l-0.158-0.364l-0.562-1.289l-0.459-0.918C107.007,130.678,106.755,130.127,106.531,129.611 M86.977,68.576
	c0.131,0.109,0.267,0.16,0.4,0.16c0.094,0,0.188-0.1,0.279-0.16h0.304l0.304-0.688l0.379-0.683l0.183-0.817
	c0.163-0.529,0.327-1.168,0.493-1.898l0.007-0.027l0.303-1.365l-0.303,1.365l0.303-1.365l-0.303,1.365l-0.005,0.01
	c0.104-0.455,0.205-0.836,0.308-1.375c-0.123,0.67-0.256,1.158-0.396,1.571l-0.211,0.481l-0.379,0.688l-0.119,0.268
	c-0.116,0.154-0.235,0.291-0.354,0.418h-0.21l-0.216,0.488C87.477,67.355,87.217,67.787,86.977,68.576 M86.977,68.576L86.977,68.576
	 M5.155,87.99L5.155,87.99 M1.152,87.01l1.957,0.635l2.047,0.348L1.152,87.01"/>
<path fill="#CE8B30" d="M106.531,129.611c0.482,1.338,0.935,2.642,1.406,3.973l-0.533-1.223l-0.155-0.73l-0.562-1.285
	L106.531,129.611"/>
<path fill="#CE8B30" d="M107.253,131.221l0.459,0.918l0.562,1.289l0.158,0.364C108.025,132.917,107.63,132.057,107.253,131.221"/>
<path fill="#CE8B30" d="M107.979,133.688c1.412,3.978,3.017,8.195,6.092,14.156l-1.024-1.797l-0.562-1.287l-0.618-1.24l-0.562-1.287
	l-0.56-1.283l-0.562-1.288l-0.222-0.688l-0.558-1.283l-0.562-1.289l-0.156-0.732l-0.561-1.284L107.979,133.688"/>
<polyline fill="#CE8B30" points="109.234,135.514 109.456,135.955 109.652,136.408 109.234,135.514 "/>
<path fill="#4F5052" d="M125.033,172.057l0.24,0.387l-0.24-0.248C125.044,172.161,125.023,172.085,125.033,172.057"/>
<line fill="none" x1="185.822" y1="75.079" x2="185.822" y2="75.079"/>
<polyline fill="#353435" points="185.822,75.079 190.32,73.079 185.822,75.079 "/>
<line fill="none" x1="58.54" y1="101.036" x2="58.54" y2="101.036"/>
<line fill="none" x1="58.54" y1="101.036" x2="58.54" y2="101.036"/>
<polyline fill="#353435" points="58.54,101.036 56.471,100.764 58.54,101.036 "/>
<polyline fill="#353435" points="41.831,97.042 39.362,97.991 41.831,97.042 "/>
<line fill="none" x1="39.362" y1="97.991" x2="39.362" y2="97.991"/>
<polyline fill="#353435" points="26.675,94.902 25.286,92.54 26.675,94.902 "/>
<polyline fill="#373537" points="106.531,129.611 106.689,130.346 107.249,131.631 107.404,132.361 107.939,133.584 
	107.404,132.361 107.249,131.631 106.689,130.346 106.531,129.611 "/>
<polyline fill="#373537" points="107.253,131.221 107.712,132.139 108.275,133.428 108.434,133.792 108.275,133.428 
	107.712,132.139 107.253,131.221 "/>
<polyline fill="#373537" points="107.979,133.688 108.126,134.383 108.686,135.667 108.843,136.4 109.404,137.689 109.962,138.973 
	110.184,139.66 110.742,140.947 111.303,142.232 111.863,143.52 112.484,144.762 113.044,146.049 114.07,147.844 113.044,146.049 
	112.484,144.762 111.863,143.52 111.303,142.232 110.742,140.947 110.184,139.66 109.962,138.973 109.404,137.689 108.843,136.4 
	108.686,135.667 108.126,134.383 107.979,133.688 "/>
<polyline fill="#373537" points="109.234,135.514 109.456,135.955 109.652,136.408 109.456,135.955 109.234,135.514 "/>
<polyline fill="#373537" points="90.005,79.538 90.005,79.538 89.271,82.094 104.1,122.913 106.531,129.611 104.1,122.913 
	89.271,82.094 90.005,79.538 90.005,79.538 "/>
<polyline fill="#373537" points="90.005,79.538 90.005,79.538 89.271,82.094 104.1,122.913 106.531,129.611 104.1,122.913 
	89.271,82.094 90.005,79.538 90.005,79.538 "/>
<line fill="none" x1="54.645" y1="121.365" x2="54.645" y2="121.365"/>
<path fill="#454547" d="M54.645,121.365c1.021-1.286,2.698-2.788,6.414-4.633c3.34-1.615,6.357-3.154,9.022-4.604l15.043-8.175
	l-9.47-8.98c5.183,4.916,9.271,8.125,11.92,9.289c-2.646-1.164-6.737-4.373-11.92-9.289l9.47,8.98l-15.043,8.175
	c-2.665,1.449-5.685,2.988-9.022,4.604C57.343,118.577,55.662,120.079,54.645,121.365"/>
<path fill="#454547" d="M87.201,106.939c0.914-2.703,1.855-4.107,2.804-4.362l2.455-0.661l-1.903,2.355
	c-0.068,0.086-0.146,0.16-0.231,0.222c0.086-0.062,0.163-0.136,0.231-0.222l1.903-2.355l-2.455,0.661
	C89.059,102.832,88.115,104.236,87.201,106.939"/>
<line fill="none" x1="54.691" y1="121.51" x2="54.691" y2="121.51"/>
<line fill="none" x1="54.691" y1="121.51" x2="54.691" y2="121.51"/>
<line fill="none" x1="55.408" y1="121.516" x2="55.408" y2="121.516"/>
<line fill="none" x1="56.807" y1="121.378" x2="56.807" y2="121.378"/>
<line fill="none" x1="103.938" y1="88.912" x2="103.938" y2="88.912"/>
<line fill="none" x1="103.742" y1="121.536" x2="103.742" y2="121.536"/>
<line fill="none" x1="58.876" y1="121.104" x2="58.876" y2="121.104"/>
<line fill="none" x1="97.803" y1="98.004" x2="97.803" y2="98.004"/>
<line fill="none" x1="96.007" y1="100.086" x2="96.007" y2="100.086"/>
<line fill="none" x1="74.298" y1="102.225" x2="74.298" y2="102.225"/>
<line fill="none" x1="84.689" y1="113.674" x2="84.689" y2="113.674"/>
<line fill="none" x1="88.27" y1="109.705" x2="88.27" y2="109.705"/>
<line fill="none" x1="87.201" y1="106.939" x2="87.201" y2="106.939"/>
<line fill="none" x1="77.221" y1="110.053" x2="77.221" y2="110.053"/>
<line fill="none" x1="84.221" y1="112.658" x2="84.221" y2="112.658"/>
<line fill="none" x1="81.292" y1="116.616" x2="81.292" y2="116.616"/>
<line fill="none" x1="69.98" y1="110.168" x2="69.98" y2="110.168"/>
<line fill="none" x1="56.471" y1="100.764" x2="56.471" y2="100.764"/>
<line fill="none" x1="88.718" y1="80.909" x2="88.718" y2="80.909"/>
<path fill="#CE8B30" d="M87.96,68.576h-0.304c0.381-0.221,0.771-0.92,1.166-2.188l-0.182,0.817l-0.379,0.683L87.96,68.576"/>
<path fill="#CE8B30" d="M87.744,67.012l0.216-0.488h0.209C88.025,66.669,87.885,66.833,87.744,67.012"/>
<path fill="#CE8B30" d="M88.523,66.104l0.117-0.268l0.381-0.686l0.211-0.482C89.007,65.357,88.768,65.794,88.523,66.104"/>
<line fill="none" x1="41.831" y1="97.042" x2="41.831" y2="97.042"/>
<path fill="#CE8B30" d="M89.318,64.49c0-0.01,0.002-0.012,0.002-0.02l0.004-0.011L89.318,64.49"/>
<line fill="none" x1="128.208" y1="157.898" x2="128.208" y2="157.898"/>
<line fill="none" x1="122.023" y1="172.549" x2="122.023" y2="172.549"/>
<line fill="none" x1="34.052" y1="175.309" x2="34.052" y2="175.309"/>
<line fill="none" x1="129.175" y1="175.82" x2="129.175" y2="175.82"/>
<line fill="none" x1="201.531" y1="72.443" x2="201.531" y2="72.443"/>
<polyline fill="#6B602D" points="85.156,58.984 85.311,58.301 85.156,58.984 "/>
<path fill="#514107" d="M85.764,67.208c-0.791-1.147-1.57-3.254-2.347-5.467l39.728,28.864c2.594-1.979,5.379-4.015,6.176-5.433
	l9.474-1.883l-1.353,0.278c-0.356,0.383-0.336,0.713-0.228,1.045c0.054,0.166,0.134,0.334,0.188,0.511
	c0.084,0.253,0.131,0.522,0.033,0.836L83.415,46.712c0.291,0.207,0.573,0.596,0.832,1.311l0.604,5.482v0.685l0.076,4.11
	l-0.457,4.109l0.684-3.427l0.152-0.686l1.894-8.904L85.764,67.208"/>
<path fill="#302D2F" d="M137.214,84.616c-0.108-0.333-0.131-0.663,0.228-1.046c-0.356,0.383-0.328,0.709-0.221,1.041
	c0.055,0.168,0.127,0.338,0.184,0.515C137.348,84.949,137.268,84.781,137.214,84.616"/>
<polyline fill="#302D2F" points="137.441,83.57 138.792,83.292 137.441,83.57 "/>
<polyline fill="#282526" points="84.932,58.301 84.855,54.189 84.855,53.508 84.932,58.301 "/>
<polyline fill="#302D2F" points="85.764,67.208 87.201,49.396 85.764,67.208 "/>
<path fill="#514107" d="M85.441,111.43c-0.615,0-1.318-1.371-2.023-3.254l-1.951-5.199l-2.482,1.979
	c1.326-1.06,2.998-2.229,4.548-3.312c6.175-1.524,11.698-2.672,16.993-3.688L83.42,85.525c0.771-6.207,1.614-12.064,2.348-18.316
	l1.213,1.368l-0.684,3.426c-0.102,1.204-0.49,3.056-0.529,4.761c-0.049,2.189,0.48,4.146,2.953,4.146l1.287-1.371
	c-1.438,5.479-2.729,11.646-3.787,21.922l0.983,5.479l-0.604,2.055c-0.236,1.295-0.521,2.021-0.834,2.292
	C85.658,111.378,85.553,111.43,85.441,111.43"/>
<path fill="#302D2F" d="M86.218,101.46c1.062-10.274,2.349-16.444,3.787-21.922C88.566,85.016,87.277,91.184,86.218,101.46"/>
<path fill="#302D2F" d="M85.766,76.762c0.039-1.705,0.43-3.556,0.528-4.76l0.683-3.426l-0.683,3.426
	C86.195,73.206,85.805,75.057,85.766,76.762"/>
<line fill="none" x1="89.335" y1="123.354" x2="89.335" y2="123.354"/>
<path fill="#F97624" d="M89.335,123.354c-0.627,0-1.252-0.062-1.879-0.193c-1.347-0.286-2.692-0.844-4.039-1.577l-17.716-9.646
	l0.531-2.838c0.108-0.593,0.248-1.193,0.404-1.804c1.286-1.019,1.846-1.796,1.67-2.335c-0.059-0.182-0.199-0.334-0.42-0.461
	c15.451-5.656,30.924-11.243,47.747-17.105l13.685-2.217c-0.797,1.418-3.582,3.451-6.176,5.43L83.417,61.741
	c0.774,2.213,1.556,4.317,2.347,5.467c-0.729,6.252-1.572,12.11-2.347,18.317l17.106,12.43c-5.295,1.02-10.82,2.164-16.994,3.689
	c-1.549,1.08-3.221,2.252-4.547,3.311l2.481-1.979l1.951,5.198c0.705,1.884,1.408,3.255,2.022,3.255l0,0
	c0.11,0,0.22-0.053,0.321-0.146c0.312-0.271,0.597-0.997,0.834-2.292l0.604-2.055c0.652,3.383,1.355,5.117,2.091,6.027
	c0.233,0.293,0.474,0.498,0.713,0.643l-5.935-18.264c-0.599,0.053-1.043,0.336-1.476,0.649l-0.312,0.235
	c-0.34,0.248-0.692,0.483-1.129,0.604c-0.446,0.128-0.979,0.139-1.674-0.073l-3.808-4.854c0.543-1.957,1.476-3.383,2.687-4.422
	l11.646,35.84C89.781,123.346,89.559,123.354,89.335,123.354"/>
<line fill="none" x1="66.639" y1="107.295" x2="66.639" y2="107.295"/>
<line fill="none" x1="67.889" y1="104.499" x2="67.889" y2="104.499"/>
<line fill="none" x1="67.889" y1="104.499" x2="67.889" y2="104.499"/>
<path fill="#353435" d="M89.335,123.354c0.224,0,0.446-0.01,0.67-0.026L78.359,87.486c-1.211,1.039-2.144,2.466-2.687,4.424
	c0.548-1.953,1.476-3.385,2.687-4.424l11.646,35.841C89.781,123.346,89.559,123.354,89.335,123.354"/>
<path fill="#353435" d="M87.456,123.159c-1.347-0.286-2.692-0.843-4.039-1.577l-17.716-9.646l0.531-2.838
	c0.108-0.592,0.248-1.193,0.404-1.803c-0.156,0.607-0.296,1.211-0.404,1.803l-0.531,2.838l17.716,9.646
	C84.764,122.316,86.111,122.873,87.456,123.159"/>
<path fill="#353435" d="M81.154,96.837c0.437-0.12,0.789-0.356,1.129-0.604l0.312-0.234c0.432-0.312,0.877-0.6,1.475-0.648
	l5.935,18.264c-0.239-0.146-0.479-0.35-0.713-0.643c0.233,0.293,0.474,0.498,0.713,0.641L84.07,95.35
	c-0.596,0.055-1.039,0.34-1.471,0.652l-0.312,0.236C81.947,96.484,81.591,96.715,81.154,96.837"/>
<line fill="none" x1="66.639" y1="107.295" x2="66.639" y2="107.295"/>
<line fill="none" x1="66.639" y1="107.295" x2="66.639" y2="107.295"/>
<line fill="none" x1="82.598" y1="95.996" x2="82.598" y2="95.996"/>
<path fill="#292627" d="M85.441,111.43L85.441,111.43c0.109,0,0.219-0.052,0.32-0.145C85.658,111.378,85.553,111.43,85.441,111.43"
	/>
<path fill="#292627" d="M83.529,101.645c6.174-1.524,11.699-2.672,16.994-3.688L83.417,85.525
	c0.772-6.207,1.614-12.064,2.347-18.316c-0.729,6.252-1.572,12.109-2.347,18.316l17.106,12.431
	C95.23,98.975,89.703,100.119,83.529,101.645"/>
<line fill="none" x1="67.889" y1="104.499" x2="67.889" y2="104.499"/>
<line fill="none" x1="66.639" y1="107.295" x2="66.639" y2="107.295"/>
<line fill="none" x1="66.639" y1="107.295" x2="66.639" y2="107.295"/>
<path fill="#6B602D" d="M66.639,107.295l1.25-2.796c0.221,0.127,0.361,0.278,0.42,0.461
	C68.484,105.499,67.925,106.277,66.639,107.295"/>
<line fill="none" x1="67.889" y1="104.499" x2="67.889" y2="104.499"/>
<polyline fill="#282526" points="66.639,107.295 67.889,104.499 66.639,107.295 "/>
<polygon fill="#FFFFFF" points="-3.935,-2.899 1.43,-6.722 -0.546,-13.006 4.747,-9.083 10.113,-12.906 8.018,-6.658 13.312,-2.736 
	6.724,-2.798 4.629,3.449 2.652,-2.836 "/>
<line fill="none" x1="-23.614" y1="-32.62" x2="-23.614" y2="-32.62"/>
<path fill="#CE8B30" d="M-23.614-32.62C-32.601-44.717-41.93-57.424-51.59-70.724l-6.392-8.063l5.694,6.039
	c6.109,5.6,10.259,7.794,17.737,15.504l-23.188,69.131c1.764-0.864,3.74-1.778,5.986-2.755c-0.606,0.461-0.891,0.848-1.001,1.188
	l21.233-63.307c-0.327,0-0.571,0.126-0.788,0.282c-0.151,0.107-0.292,0.227-0.436,0.331c-0.285,0.201-0.587,0.328-1.06,0.101
	l-0.671-1.206l4.638,8.472l-1.321,0.102l1.321-0.102L-23.614-32.62"/>
<line fill="none" x1="-29.835" y1="-45.008" x2="-29.835" y2="-45.008"/>
<line fill="none" x1="-51.753" y1="9.132" x2="-51.753" y2="9.132"/>
<line fill="none" x1="-57.982" y1="-78.788" x2="-57.982" y2="-78.788"/>
<path fill="#CE8B30" d="M54.462-67.027l0.164-0.303l2.396-2.779c3.295-2.669,6.595-5.339,11.058-9.706
	c2.245-1.994,4.052-3.371,5.419-4.135l31.538-17.561L12.358,98.344c-0.622,1.338-1.248,2.002-1.881,1.997
	c-0.261-0.004-0.523-0.114-0.786-0.349l1.693-10.946c0.053,0.017,0.106,0.019,0.156,0.019c0.309,0.004,0.612-0.26,0.912-0.717
	L137.041-102.34L67.548-75.917C64.339-74.701,56.73-67.135,54.462-67.027"/>
<line fill="none" x1="11.384" y1="89.046" x2="11.384" y2="89.046"/>
<line fill="none" x1="9.552" y1="130.818" x2="9.552" y2="130.818"/>
<path fill="#6B602D" d="M9.552,130.818c-1.258,4.787-2.577,8.201-3.897,11.609l0.059-6.166c0.723-1.066,1.512-4.236,2.28-4.23
	c0.213,0,0.423,0.238,0.629,0.832l-0.139-1.368L9.552,130.818"/>
<polyline fill="#6B602D" points="6.872,125.997 5.697,130.098 5.556,128.729 6.872,125.997 "/>
<polyline fill="#6B602D" points="-18.049,30.298 -17.067,28.462 -17.58,29.792 -18.049,30.298 "/>
<line fill="none" x1="-17.067" y1="28.462" x2="-17.067" y2="28.462"/>
<line fill="none" x1="8.127" y1="-102.808" x2="8.127" y2="-102.808"/>
<polyline fill="#6B602D" points="8.127,-102.808 8.624,-99.377 8.127,-102.808 "/>
<polyline fill="#6B602D" points="8.624,-99.377 8.699,-99.377 8.624,-99.377 "/>
<line fill="none" x1="96.256" y1="34.021" x2="96.256" y2="34.021"/>
<polyline fill="#6B602D" points="96.256,34.021 99.624,34.751 96.256,34.021 "/>
<line fill="none" x1="-74.388" y1="-28.088" x2="-74.388" y2="-28.088"/>
<polyline fill="#6B602D" points="-74.388,-28.088 -73.044,-27.795 -74.388,-28.088 "/>
<polyline fill="#6B602D" points="-59.674,-99.569 -59.781,-99.692 70.98,-98.457 75.051,-105.346 70.98,-98.457 -59.781,-99.692 
	-59.674,-99.569 "/>
<line fill="none" x1="-17.067" y1="28.462" x2="-17.067" y2="28.462"/>
<polyline fill="#6B602D" points="-17.067,28.462 -14.291,23.702 -17.067,28.462 "/>
<line fill="none" x1="110.857" y1="37.879" x2="110.857" y2="37.879"/>
<line fill="none" x1="110.857" y1="37.879" x2="110.857" y2="37.879"/>
<polyline fill="#6B602D" points="110.857,37.879 112.975,38.032 111.529,38.026 110.857,37.879 "/>
<polyline fill="#6B602D" points="-83.751,30.688 -86.641,32.153 -45.403,11.258 95.342,33.875 96.256,34.021 95.559,33.946 
	-60.878,17.271 -86.858,32.222 -85.642,31.521 -83.751,30.688 "/>
<line fill="none" x1="96.256" y1="34.021" x2="96.256" y2="34.021"/>
<polyline fill="#6B602D" points="117.064,36.606 120.048,38.485 119.35,38.413 120.048,38.485 119.35,38.413 118.699,38.193 
	117.064,36.606 "/>
<line fill="none" x1="104.049" y1="36.634" x2="104.049" y2="36.634"/>
<line fill="none" x1="104.049" y1="36.634" x2="104.049" y2="36.634"/>
<path fill="#6B602D" d="M104.049,36.634l6.809,1.245l2.117,0.151l-1.445-0.004c6.158,1.026,11.693,1.764,15.304,1.776l-3.2-1.231
	l-2.433,0.781l-1.152-0.865l-0.698-0.075l-0.744,0.07l0.096-0.288l-6.977-0.742l4.737,0.95l-4.788-0.806l0.051-0.145l-5.412-1.097
	L104.049,36.634 M111.675,37.595l-0.047,0.144L111.675,37.595 M118.604,38.481L118.604,38.481"/>
<line fill="none" x1="111.529" y1="38.026" x2="111.529" y2="38.026"/>
<polyline fill="#2B2829" points="111.529,38.026 112.975,38.032 111.529,38.026 "/>
<line fill="none" x1="112.975" y1="38.032" x2="112.975" y2="38.032"/>
<line fill="none" x1="118.699" y1="38.193" x2="118.699" y2="38.193"/>
<polyline fill="#2B2829" points="119.35,38.413 120.048,38.485 119.35,38.413 "/>
<line fill="none" x1="-82.784" y1="29.194" x2="-82.784" y2="29.194"/>
<line fill="none" x1="-82.784" y1="29.194" x2="-82.784" y2="29.194"/>
<polyline fill="#6B602D" points="-82.784,29.194 -83.978,29.966 -85.778,31.087 -89.909,33.181 -47.196,11.538 98.589,34.964 
	103.617,35.771 106.312,36.354 104.049,36.634 102.917,36.415 -39.156,8.835 -94.263,34.551 -82.784,29.194 "/>
<line fill="none" x1="106.312" y1="36.354" x2="106.312" y2="36.354"/>
<line fill="none" x1="118.604" y1="38.481" x2="118.604" y2="38.481"/>
<line fill="none" x1="118.604" y1="38.481" x2="118.604" y2="38.481"/>
<polyline fill="#6B602D" points="118.604,38.481 118.699,38.193 119.35,38.413 118.604,38.481 "/>
<line fill="none" x1="118.699" y1="38.193" x2="118.699" y2="38.193"/>
<polyline fill="#2B2829" points="118.604,38.481 118.699,38.193 118.604,38.481 "/>
<line fill="none" x1="118.699" y1="38.193" x2="118.699" y2="38.193"/>
<line fill="none" x1="-82.177" y1="28.844" x2="-82.177" y2="28.844"/>
<line fill="none" x1="-82.177" y1="28.844" x2="-82.177" y2="28.844"/>
<polyline fill="#6B602D" points="-82.177,28.844 -82.538,29.269 -83.978,29.966 -82.784,29.194 -82.177,28.844 "/>
<line fill="none" x1="-82.108" y1="29.062" x2="-82.108" y2="29.062"/>
<line fill="none" x1="-82.108" y1="29.062" x2="-82.108" y2="29.062"/>
<polyline fill="#6B602D" points="-82.108,29.062 -82.538,29.269 -82.108,29.062 "/>
<polyline fill="#6B602D" points="-82.701,29.458 -83.751,30.688 -83.887,30.255 -82.701,29.458 "/>
<line fill="none" x1="-83.978" y1="29.966" x2="-83.978" y2="29.966"/>
<line fill="none" x1="119.35" y1="38.413" x2="119.35" y2="38.413"/>
<line fill="none" x1="119.35" y1="38.413" x2="119.35" y2="38.413"/>
<polyline fill="#2B2829" points="119.35,38.413 120.048,38.485 119.35,38.413 "/>
<line fill="none" x1="119.35" y1="38.413" x2="119.35" y2="38.413"/>
<line fill="none" x1="-82.108" y1="29.062" x2="-82.108" y2="29.062"/>
<line fill="none" x1="-82.108" y1="29.062" x2="-82.108" y2="29.062"/>
<polyline fill="#6B602D" points="-82.108,29.062 -82.701,29.458 -82.108,29.062 "/>
<polyline fill="#6B602D" points="-82.538,29.269 -82.701,29.458 -83.887,30.255 -85.778,31.087 -83.978,29.966 -85.778,31.087 
	-83.978,29.966 -82.538,29.269 "/>
<polyline fill="#2B2829" points="-82.108,29.062 -82.701,29.458 -82.538,29.269 -82.108,29.062 "/>
<polyline fill="#2B2829" points="-82.701,29.458 -83.887,30.255 -82.701,29.458 "/>
<line fill="none" x1="-85.778" y1="31.087" x2="-85.778" y2="31.087"/>
<line fill="none" x1="-85.778" y1="31.087" x2="-85.778" y2="31.087"/>
<line fill="none" x1="-83.978" y1="29.966" x2="-83.978" y2="29.966"/>
<polyline fill="#2B2829" points="-83.978,29.966 -85.778,31.087 -83.978,29.966 "/>
<line fill="none" x1="-83.887" y1="30.255" x2="-83.887" y2="30.255"/>
<line fill="none" x1="-83.887" y1="30.255" x2="-83.887" y2="30.255"/>
<line fill="none" x1="-83.887" y1="30.255" x2="-83.887" y2="30.255"/>
<line fill="none" x1="-83.887" y1="30.255" x2="-83.887" y2="30.255"/>
<polyline fill="#6B602D" points="-83.887,30.255 -83.751,30.688 -85.642,31.521 -83.887,30.255 "/>
<line fill="none" x1="-83.751" y1="30.688" x2="-83.751" y2="30.688"/>
<line fill="none" x1="-83.751" y1="30.688" x2="-83.751" y2="30.688"/>
<polyline fill="#2B2829" points="-83.751,30.688 -85.642,31.521 -83.751,30.688 "/>
<polyline fill="#2B2829" points="-83.887,30.255 -83.751,30.688 -83.887,30.255 "/>
<line fill="none" x1="-83.751" y1="30.688" x2="-83.751" y2="30.688"/>
<line fill="none" x1="-83.887" y1="30.255" x2="-83.887" y2="30.255"/>
<line fill="none" x1="-83.887" y1="30.255" x2="-83.887" y2="30.255"/>
<polyline fill="#6B602D" points="-83.887,30.255 -85.642,31.521 -88.688,32.797 -24.307,5.838 97.376,34.556 98.18,34.746 
	97.768,34.687 -52.107,13.346 -89.08,32.92 -85.755,31.159 -85.778,31.087 -83.887,30.255 "/>
<line fill="none" x1="-85.642" y1="31.521" x2="-85.642" y2="31.521"/>
<line fill="none" x1="98.18" y1="34.746" x2="98.18" y2="34.746"/>
<line fill="none" x1="-83.887" y1="30.255" x2="-83.887" y2="30.255"/>
<line fill="none" x1="-83.887" y1="30.255" x2="-83.887" y2="30.255"/>
<polyline fill="#2B2829" points="-83.887,30.255 -85.642,31.521 -83.887,30.255 "/>
<line fill="none" x1="-85.642" y1="31.521" x2="-85.642" y2="31.521"/>
<line fill="none" x1="-85.642" y1="31.521" x2="-85.642" y2="31.521"/>
<polyline fill="#2B2829" points="111.628,37.739 111.675,37.595 111.628,37.739 "/>
<line fill="none" x1="-85.778" y1="31.087" x2="-85.778" y2="31.087"/>
<line fill="none" x1="111.675" y1="37.595" x2="111.675" y2="37.595"/>
<line fill="none" x1="111.675" y1="37.595" x2="111.675" y2="37.595"/>
<polyline fill="#6B602D" points="111.675,37.595 111.725,37.451 116.463,38.401 111.675,37.595 "/>
<polyline fill="#2B2829" points="111.675,37.595 111.725,37.451 111.675,37.595 "/>
<line fill="none" x1="111.725" y1="37.451" x2="111.725" y2="37.451"/>
<polyline fill="#2B2829" points="111.725,37.451 116.463,38.401 111.725,37.451 "/>
<line fill="none" x1="111.725" y1="37.451" x2="111.725" y2="37.451"/>
<line fill="none" x1="116.463" y1="38.401" x2="116.463" y2="38.401"/>
<line fill="none" x1="103.617" y1="35.771" x2="103.617" y2="35.771"/>
<line fill="none" x1="103.617" y1="35.771" x2="103.617" y2="35.771"/>
<polyline fill="#6B602D" points="103.617,35.771 105.709,35.995 106.312,36.354 103.617,35.771 "/>
<line fill="none" x1="-85.778" y1="31.087" x2="-85.778" y2="31.087"/>
<line fill="none" x1="-85.778" y1="31.087" x2="-85.778" y2="31.087"/>
<polyline fill="#6B602D" points="-85.778,31.087 -85.755,31.159 -89.668,33.105 -44.718,10.763 98.352,34.884 103.617,35.771 
	98.589,34.964 -47.196,11.538 -89.909,33.181 -85.778,31.087 "/>
<polyline fill="#2B2829" points="-85.778,31.087 -85.755,31.159 -85.778,31.087 -85.755,31.159 -85.778,31.087 "/>
<polyline fill="#231F20" points="-85.778,31.087 -85.755,31.159 -85.778,31.087 "/>
<line fill="none" x1="103.617" y1="35.771" x2="103.617" y2="35.771"/>
<polyline fill="#6B602D" points="-32.606,-14.792 -25.75,-13.689 11.633,-7.686 7.049,-37.049 7.049,-37.049 7.049,-37.049 
	12.599,-9.156 -25.75,-13.689 -32.002,-14.43 -32.606,-14.792 "/>
<line fill="none" x1="7.049" y1="-37.049" x2="7.049" y2="-37.049"/>
<polyline fill="#6B602D" points="-35.034,-16.167 -28.904,-14.749 10.102,-5.732 7.08,-40.375 7.49,-35.672 7.066,-38.878 
	11.271,-7.118 -27.483,-14.272 -33.833,-15.445 -35.034,-16.167 "/>
<line fill="none" x1="7.49" y1="-35.672" x2="7.49" y2="-35.672"/>
<line fill="none" x1="7.567" y1="-67.873" x2="7.567" y2="-67.873"/>
<line fill="none" x1="7.567" y1="-67.873" x2="7.567" y2="-67.873"/>
<path fill="#6B602D" d="M7.567-67.873c1.056,0.694,2.033,1.392,2.808,7.561L8.96-63.064l0.076,0.001L7.567-67.873"/>
<line fill="none" x1="8.96" y1="-63.064" x2="8.96" y2="-63.064"/>
<line fill="none" x1="8.96" y1="-63.064" x2="8.96" y2="-63.064"/>
<line fill="none" x1="10.375" y1="-60.312" x2="10.375" y2="-60.312"/>
<line fill="none" x1="7.567" y1="-67.873" x2="7.567" y2="-67.873"/>
<line fill="none" x1="7.567" y1="-67.873" x2="7.567" y2="-67.873"/>
<polyline fill="#6B602D" points="7.567,-67.873 9.037,-63.062 8.96,-63.064 7.567,-67.873 "/>
<line fill="none" x1="7.567" y1="-67.873" x2="7.567" y2="-67.873"/>
<polyline fill="#2B2829" points="7.567,-67.873 9.037,-63.062 7.567,-67.873 "/>
<line fill="none" x1="9.037" y1="-63.062" x2="9.037" y2="-63.062"/>
<polyline fill="#6B602D" points="-35.588,-16.673 -32.895,-16.088 10.958,-6.58 7.122,-44.586 7.19,-43.899 7.117,-44.204 
	14.764,-12.19 -32.532,-15.966 -35.034,-16.167 -35.588,-16.673 "/>
<line fill="none" x1="7.19" y1="-43.899" x2="7.19" y2="-43.899"/>
<line fill="none" x1="-33.978" y1="-12.857" x2="-33.978" y2="-12.857"/>
<polyline fill="#6B602D" points="-33.978,-12.857 -32.533,-12.85 -33.978,-12.857 "/>
<path fill="#929497" d="M-2.845-22.07l-0.398,2.05l-0.582,5.474c0.795,4.119,1.59,8.238,2.559,9.621L-1.54-7.673
	c1.051,0.695,1.751,6.866,2.64,8.932C-0.11-6.975-1.736-11.101-2.845-22.07 M-1.542-7.673L-1.542-7.673"/>
<line fill="none" x1="-1.267" y1="-4.926" x2="-1.267" y2="-4.926"/>
<line fill="none" x1="1.101" y1="1.26" x2="1.101" y2="1.26"/>
<line fill="none" x1="4.631" y1="-3.381" x2="4.631" y2="-3.381"/>
<polyline fill="#6B602D" points="4.631,-3.381 4.076,-2.887 4.631,-3.381 "/>
<line fill="none" x1="-1.267" y1="-4.926" x2="-1.267" y2="-4.926"/>
<polyline fill="#6B602D" points="-1.267,-4.926 -0.818,-4.241 -1.267,-4.926 "/>
<line fill="none" x1="2.313" y1="-6.951" x2="2.313" y2="-6.951"/>
<polyline fill="#6B602D" points="2.313,-6.951 2.675,-5.23 3.233,-2.576 4.936,-3.554 4.631,-3.381 4.936,-3.554 3.233,-2.576 
	2.675,-5.23 2.313,-6.951 "/>
<polyline fill="#6B602D" points="-16.393,-7.119 -14.95,-7.113 -10.909,-6.236 -15.096,-6.682 -16.393,-7.119 "/>
<polyline fill="#6B602D" points="-17.692,-7.554 -14.95,-7.113 -16.393,-7.119 -17.692,-7.554 "/>
<line fill="none" x1="-14.95" y1="-7.113" x2="-14.95" y2="-7.113"/>
<line fill="none" x1="-26.183" y1="-10.241" x2="-26.183" y2="-10.241"/>
<line fill="none" x1="-26.183" y1="-10.241" x2="-26.183" y2="-10.241"/>
<polyline fill="#6B602D" points="-26.183,-10.241 -23.465,-9.729 -16.031,-8.194 -20.939,-8.642 -26.183,-10.241 "/>
<line fill="none" x1="-16.031" y1="-8.194" x2="-16.031" y2="-8.194"/>
<polyline fill="#6B602D" points="-26.833,-10.459 -23.465,-9.729 -26.183,-10.241 -26.833,-10.459 "/>
<line fill="none" x1="-23.465" y1="-9.729" x2="-23.465" y2="-9.729"/>
<line fill="none" x1="-28.801" y1="-11.041" x2="-28.801" y2="-11.041"/>
<line fill="none" x1="-28.801" y1="-11.041" x2="-28.801" y2="-11.041"/>
<polyline fill="#6B602D" points="-28.801,-11.041 -21.325,-9.651 -23.465,-9.729 -26.833,-10.459 -28.801,-11.041 "/>
<line fill="none" x1="-21.325" y1="-9.651" x2="-21.325" y2="-9.651"/>
<line fill="none" x1="-15.096" y1="-6.682" x2="-15.096" y2="-6.682"/>
<path fill="#929497" d="M-15.096-6.682l4.186,0.446l-4.041-0.877c2.213-0.135,3.177-0.852,6.693-0.552
	c1.044,0.821,1.306,1.379,1.162,1.801c-0.243,0.726-1.67,1.058-2.318,1.646L-15.096-6.682"/>
<polyline fill="#3A393A" points="-15.096,-6.682 -10.909,-6.236 -15.096,-6.682 "/>
<line fill="none" x1="-10.909" y1="-6.236" x2="-10.909" y2="-6.236"/>
<line fill="none" x1="-14.95" y1="-7.113" x2="-14.95" y2="-7.113"/>
<line fill="none" x1="-14.95" y1="-7.113" x2="-14.95" y2="-7.113"/>
<path fill="#6B602D" d="M-8.24-3.424c4.259,0.23,6.615-0.338,15.325,1.705c0.034,0.1,0.034,0.184,0.008,0.262
	C6.596,0.025-4.897-2.676-5.405-1.169c-0.011,0.041-0.022,0.08-0.021,0.126C0.66,0.2,5.592,0.577,11.677,1.818
	C6.097,1.225-0.758,0.124-7.614-0.979L-8.24-3.424"/>
<line fill="none" x1="11.679" y1="1.818" x2="11.679" y2="1.818"/>
<line fill="none" x1="11.172" y1="1.17" x2="11.172" y2="1.17"/>
<line fill="none" x1="11.172" y1="1.17" x2="11.172" y2="1.17"/>
<polyline fill="#6B602D" points="11.172,1.17 24.024,3.802 21.204,3.576 11.172,1.17 "/>
<polyline fill="#6B602D" points="7.829,24.615 8.05,25.303 8.12,25.99 7.829,24.615 "/>
<path fill="#6B602D" d="M6.53,17.752l0.361,2.057l0.938,4.806l0.221,0.688L6.53,17.752 M6.891,19.809l0.938,4.806L6.891,19.809"/>
<line fill="none" x1="8.05" y1="25.303" x2="8.05" y2="25.303"/>
<line fill="none" x1="21.204" y1="3.576" x2="21.204" y2="3.576"/>
<line fill="none" x1="21.204" y1="3.576" x2="21.204" y2="3.576"/>
<path fill="#6B602D" d="M21.204,3.576l2.821,0.226l2.834,0.152L6.524,18.437l0.367,1.372l0.938,4.806l0.29,1.373L8.05,25.303
	l1.33,11.656l-1.646-2.07c-0.376-4.087-0.812-7.668-1.26-11.16L31.876,5.636C28.369,4.974,24.945,4.349,21.204,3.576"/>
<polyline fill="#2B2829" points="21.204,3.576 24.024,3.802 21.204,3.576 "/>
<line fill="none" x1="24.024" y1="3.802" x2="24.024" y2="3.802"/>
<line fill="none" x1="7.829" y1="24.615" x2="7.829" y2="24.615"/>
<line fill="none" x1="7.829" y1="24.615" x2="7.829" y2="24.615"/>
<polyline fill="#2B2829" points="7.829,24.615 8.12,25.99 7.829,24.615 "/>
<line fill="none" x1="8.12" y1="25.99" x2="8.12" y2="25.99"/>
<polyline fill="#2B2829" points="6.891,19.809 7.829,24.615 6.891,19.809 "/>
<line fill="none" x1="8.05" y1="25.303" x2="8.05" y2="25.303"/>
<line fill="none" x1="6.891" y1="19.809" x2="6.891" y2="19.809"/>
<polyline fill="#2B2829" points="6.891,19.809 7.829,24.615 6.891,19.809 "/>
<line fill="none" x1="8.141" y1="39.692" x2="8.141" y2="39.692"/>
<line fill="none" x1="8.141" y1="39.692" x2="8.141" y2="39.692"/>
<path fill="#6B602D" d="M8.141,39.692c0.813,2.06,1.544,4.807,2.098,10.298l-1.837,2.034l0.266-4.106L8.141,39.692"/>
<line fill="none" x1="-63.538" y1="-36.73" x2="-63.538" y2="-36.73"/>
<line fill="none" x1="-63.538" y1="-36.73" x2="-63.538" y2="-36.73"/>
<polyline fill="#6B602D" points="-63.538,-36.73 -58.129,-35.636 -56.897,-34.984 -63.538,-36.73 "/>
<path fill="#514107" d="M50.187,61.997C36.238,45.024,22.136,27.312,7.028,7.794l3.042,0.354c1.051,0.548,2.425,1.547,4.072,2.977
	L0.882-0.383l21.453-12.914c6.632-3.992,19.48-9.592,36.817-15.016c3.181-0.995,6.5-1.979,9.965-2.951
	c2.184,0.444,7.312-0.039,11.986-0.516l-69.214,7.049l37.995,86.042L50.187,61.997"/>
<line fill="none" x1="7.028" y1="7.794" x2="7.028" y2="7.794"/>
<path fill="#6B602D" d="M-43.586,48.889l1.387-2.382c2.058-1.886,6.197-7.344,7.335-7.354
	C-39.065,44.565-41.121,46.453-43.586,48.889"/>
<line fill="none" x1="79.363" y1="-37.503" x2="79.363" y2="-37.503"/>
<path fill="#A96200" d="M79.363-37.503c-8.738,3.386-11.096,4.97-10.842,5.774c0.062,0.195,0.276,0.347,0.595,0.466
	c-3.464,0.972-6.784,1.956-9.964,2.951c-17.337,5.425-30.187,11.023-36.818,15.016L0.882-0.383l13.261,11.509
	c-1.648-1.429-3.021-2.429-4.072-2.977c0.626-0.032,1.243-0.081,1.841-0.154l2.866-0.346l3.888-19.793
	c0.296-1.506,0.423-2.957,0.292-4.326c-0.063-0.637-0.19-1.252-0.378-1.851c-0.067-0.213-0.143-0.423-0.227-0.631l-30.695,21.86
	c1.354,0.843,2.997,1.298,5.024,1.236l3.489-5.088c-0.006-0.724-0.176-1.23-0.432-1.618c-0.247-0.38-0.574-0.652-0.911-0.902
	l-0.32-0.227c-0.426-0.318-0.835-0.655-1.062-1.208L9.084-16.036c-0.066,0.271-0.19,0.562-0.398,0.873
	c-0.647,0.973-2.092,2.165-5.124,3.802c-2.851-0.062-4.474-0.538-5.001-1.365l-1.368-2.144l2.819,1.108
	c0.103,0.04,0.195,0.092,0.28,0.156c0.562,0.413,0.758,1.324,0.604,2.691C0.581-8.042-1.252-3.176-4.388,3.242L1.338-8.484
	L13.649,3.415c2.182,2.107,4.556,4.525,7.098,7.225c2.875,2.992,4.812,4.144,6.345,4.729l-1.842-0.366l3.454,5.11l9.765,10.707
	l-1.165-0.854l-3.742-2.382l-3.222-1.915c-0.533-0.356-0.92-0.509-1.188-0.494l-48.339,2.429l-1.104-2.898
	c-0.038-0.096-0.089-0.167-0.159-0.218h-0.002c-0.788-0.585-3.608,1.534-6.025,2.969l-1.008,3.518
	c-1.05,1.778-2.201,3.506-3.405,5.162c-5.195,7.154-11.224,12.774-13.39,13.94l0.695-1.19c2.465-2.437,4.521-4.323,8.722-9.735
	c-1.138,0.01-5.277,5.468-7.334,7.352l4.652-6.784l3.228-6.136c4.035-4.93,4.687-6.62,5.663-8.659L44.494-27.17
	c-1.437,0.777-3.122,1.604-6.979,2.749l-5.99,3.79l10.095-2.143C51.67-27.365,62.348-32.233,79.363-37.503"/>
<path fill="#2C292A" d="M59.152-28.312c-17.337,5.425-30.187,11.023-36.818,15.016L0.882-0.383l13.261,11.509
	c-1.648-1.429-3.021-2.429-4.072-2.977c1.051,0.548,2.425,1.547,4.072,2.977L0.882-0.383l21.453-12.914
	C28.967-17.289,41.814-22.888,59.152-28.312"/>
<path fill="#312F30" d="M-42.199,46.507c2.058-1.886,6.197-7.344,7.335-7.354C-36.002,39.163-40.141,44.621-42.199,46.507"/>
<line fill="none" x1="-44.281" y1="50.08" x2="-44.281" y2="50.08"/>
<line fill="none" x1="-42.199" y1="46.507" x2="-42.199" y2="46.507"/>
<line fill="none" x1="69.116" y1="-31.264" x2="69.116" y2="-31.264"/>
<line fill="none" x1="38.467" y1="30.82" x2="38.467" y2="30.82"/>
<line fill="none" x1="38.467" y1="30.82" x2="38.467" y2="30.82"/>
<line fill="none" x1="44.1" y1="36.901" x2="44.1" y2="36.901"/>
<path fill="#6B602D" d="M44.1,36.901l-5.633-6.081l-1.165-0.854l-3.742-2.381l0.735,1.159l4.351,3.629l-1.692,0.366
	c3.274,3.555,4.288,3.674,5.701,4.352L44.1,36.901 M42.168,35.756L42.168,35.756 M37.302,29.966l-3.742-2.381L37.302,29.966
	 M37.302,29.966L37.302,29.966"/>
<line fill="none" x1="37.302" y1="29.966" x2="37.302" y2="29.966"/>
<polyline fill="#2B2829" points="37.302,29.966 33.559,27.585 37.302,29.966 "/>
<polyline fill="#6B602D" points="-44.587,49.854 -42.199,46.507 -43.586,48.889 -44.587,49.854 "/>
<line fill="none" x1="-42.199" y1="46.507" x2="-42.199" y2="46.507"/>
<line fill="none" x1="-42.154" y1="5.397" x2="-42.154" y2="5.397"/>
<polyline fill="#6B602D" points="-42.154,5.397 -46.704,6.909 -42.154,5.397 "/>
<path opacity="0.8" fill="#CE8B30" enable-background="new    " d="M-84.704,105.391c9.84-16.586,26.841-37.236,40.117-55.536
	l1.001-0.966l-0.695,1.191c2.166-1.167,8.196-6.787,13.389-13.94c1.204-1.657,2.356-3.384,3.406-5.162l1.006-3.518
	c2.417-1.436,5.237-3.554,6.026-2.969c0.071,0.048,0.123,0.123,0.161,0.218l1.104,2.898l48.337-2.431
	c0.27-0.015,0.657,0.137,1.189,0.494l3.222,1.915l0.734,1.16l-2.7-1.44c4.591,5.141,5.853,5.083,7.051,5.069l-1.692,0.366
	c3.273,3.553,4.288,3.672,5.7,4.35l1.804,2.922l8.69,10.632l-6.986-6.804l3.48,5.933c7.25,9.136,16.213,20.414,22.764,27.521
	c-7.653-8.006-18.574-21.249-22.751-23.328l-84.737-42.17l-6.257,41.311v-0.002l-3.794,4.869l2.082-3.576
	c-1.95,2.9-3.528,5.39-4.959,7.711L-4.598-8.37l60.752,71.466c4.121,4.848,7.63,8.649,12.617,15.105l-7.471-8.137
	c4.432,6.09,8.172,10.164,11.93,15.053c-2.92-3.219-7.291-8.816-11.275-13.879L-1.167-8.853l-52.8,79
	c4.256-6.367,7.954-11.985,7.382-12.408c-0.017-0.014-0.031-0.024-0.051-0.03c-0.021-0.022-0.046-0.043-0.071-0.06
	c-1.872-1.389-17.107,19.191-27.598,34.98l1.676-3.023C-75.747,92.414-80.848,100.568-84.704,105.391"/>
<path fill="#454547" d="M-30.893,36.14c1.204-1.658,2.355-3.385,3.406-5.162l1.007-3.518l-1.007,3.518
	C-28.537,32.755-29.689,34.483-30.893,36.14"/>
<path fill="#454547" d="M-26.48,27.459c2.417-1.436,5.236-3.554,6.026-2.969C-21.244,23.905-24.063,26.025-26.48,27.459"/>
<polyline fill="#353435" points="38.644,32.374 36.952,32.74 38.644,32.374 "/>
<line fill="none" x1="36.952" y1="32.74" x2="36.952" y2="32.74"/>
<polyline fill="#353435" points="34.293,28.745 33.559,27.585 34.293,28.745 "/>
<line fill="none" x1="-74.305" y1="92.63" x2="-74.305" y2="92.63"/>
<line fill="none" x1="73.23" y1="85.118" x2="73.23" y2="85.118"/>
<line fill="none" x1="72.404" y1="77.295" x2="72.404" y2="77.295"/>
<line fill="none" x1="68.77" y1="78.201" x2="68.77" y2="78.201"/>
<line fill="none" x1="-46.635" y1="57.708" x2="-46.635" y2="57.708"/>
<line fill="none" x1="-45.135" y1="57.975" x2="-45.135" y2="57.975"/>
<line fill="none" x1="53.146" y1="50.646" x2="53.146" y2="50.646"/>
<line fill="none" x1="38.644" y1="32.374" x2="38.644" y2="32.374"/>
<line fill="none" x1="34.293" y1="28.745" x2="34.293" y2="28.745"/>
<line fill="none" x1="30.718" y1="16.155" x2="30.718" y2="16.155"/>
<path opacity="0.8" fill="#CE8B30" enable-background="new    " d="M30.718,16.155l-0.136-0.324l-53.916-39.957l0.903,0.541
	l3.777,1.668l1.442,0.006l-1.442-0.006l5.169,1.814l4.811,0.895L21.611,3.237L19.74,1.265l1.055,0.827L-7.341-18.76l-0.801-0.031
	l1.853,0.384L20.15,1.186l-3.835-4.209l2.224,1.947L-3.655-17.525l-1.962-0.179l3.248,1.089l2.717,0.513l0.234-0.001L15.949-4.716
	c-2.186-1.54-3.026-1.077-6.005-3.861c-0.192-0.939-0.057-1.417,0.263-1.645c0.398-0.284,1.083-0.168,1.78-0.055l-4.93-3.654
	c-0.438,0.22-0.883,0.444-1.175,0.724l1.205,0.723c1.66,0.09,3.032,0.058,4.604,0.107l-0.117-0.004L9.151-14.26
	c-1.944-1.507-4.167-3.463-7.732-7.592c0.032-0.102,0.077-0.176,0.142-0.223c0.489-0.348,1.928,0.755,3.589,2.197l10.958,9.511
	l2.122,0.184c-3.517-0.305-8.007-0.977-8.317-0.047c-0.013,0.039-0.007,0.085-0.015,0.128C15.983-8.86,20.917-8.482,27-7.243
	l-10.679-2.18l-16.54-17.992l0,0l0,0l21.65,19.578l5.571,0.593C21.419-7.838,14.563-8.939,7.707-10.04L7.659-9.897
	c-2.113,0.388-4.51,0.604-6.785,0.84l4.574-0.471L3.532-0.604c-0.22,1.023-0.429,2.022-0.596,2.968L5.82-3.69L7.6-7.43L4.517-7.834
	l2.346,0.308L4.517-7.834L7.6-7.43L5.82-3.69L2.936,2.364C1.69,7.113,0.355,11.807-1.662,17.47L13.55-27.884
	c-0.341-1.16-0.683-2.37-1.026-3.635l0.982,8.296L1.115,13.724l2.333-4.166c0.918-0.908,1.658-1.564,2.267-2.04l7.719-23.016
	c-0.929,3.251-1.872,2.293-2.695,4.515c0.911,2.834,1.731,6.856,2.555,10.245l-0.103-0.415l1.311-3.188
	c0.926-2.251,1.667-4.257,1.837-5.532c-0.17,1.275-0.913,3.279-1.837,5.532l-1.311,3.188l0.103,0.415
	c-0.825-3.388-1.646-7.41-2.555-10.245L10.43-10.3c0.817,7.562,1.842,11.873,2.798,16.517l-0.592-2.885L18.643-9.93
	c0.883-1.948,1.817-3.941,3.016-6.231c-0.243,1.08-1.107,2.939-1.872,4.688L12.546,5.121l0.663,3.014
	c-0.421-1.92-0.864-3.682-1.4-4.036l0.277,2.742l0.45,0.691l-0.45-0.691c-0.971-1.376-1.765-5.494-2.561-9.614
	C8.603,5.486,7.551,13.749,6.551,15.431L24.009,2.999c0.101,0.114,0.162,0.213,0.186,0.302l-0.17,0.502l2.834,0.152L6.525,18.439
	l0.367,1.371L6.53,17.753l1.52,7.551L9.38,36.96l-1.646-2.07l0.408,4.802c0.813,2.062,1.546,4.809,2.097,10.298l-1.836,2.034
	L7.26,60.919l0.042,11.647c0.558,9.059,1.555,14.457,2.818,14.47c0.073-0.001,0.15-0.017,0.227-0.054l0.022-10.274l0.312,6.853
	l0.752-7.529l0.67,1.384c0.16-2.239,0.326-3.892,0.502-5.087l15.351-104.62l30.049-30.75c-1.479,1.513-2.151,1.879-2.423,1.679
	c-0.425-0.315,0.139-2.03,0.119-2.896l-1.674,3.022c-2.807,3.379-3.889,4.354-4.135,4.171c-0.366-0.274,1.15-3.145,1.555-4.379
	l3.013-5.581c-0.032,0-0.099,0.043-0.132,0.042l0.297-0.345l0.111-0.205l0.188-2.418l0,0L82.71,18.392l4.114,0.66l3.367,0.729
	l-3.367-0.729l-2.096-0.224l4.02,0.949l-2.79-0.296L56.967-72.707l-0.287,0.64l0.41-0.807l29.064,92.419l8.031,1.257l2.115,0.15
	l0.604,0.36l5.41,1.096l7.603,1.034l-1.636-1.588l2.335,1.661l1.153,0.865l2.433-0.783l3.224,1.163
	c1.637,0.061,2.926-0.09,3.838-0.39L236.48-13.287l-294.375-95.112c-0.281-0.092-0.54-0.15-0.777-0.179l-0.062,0.043l0.543,2.982
	l-1.459-4.007l-3.638-4.979c-0.279,0.866,1.197,4.281,0.557,4.739c-0.159,0.112-0.442,0.051-0.913-0.278l0.914,1.028l-0.526,1.216
	c1.035,2.561,2.24,5.333,3.582,8.263l3.256,3.688l-3.256-3.688l0.038,0.082L70.83-98.253c-8.503,7.808-18.682,18.301-30.957,32.487
	c3.297-2.667,6.597-5.338,10.997-9.75c2.897-2.52,5.063-4.05,6.573-4.672L-46.592-81.17c-0.082-1.054,0.111-1.729,0.565-2.051
	c0.126-0.092,0.274-0.154,0.443-0.188l5.061,9.851l0.062-0.043l2.077,3.569l-2.139-3.525c-0.146,0.104-0.241,0.274-0.293,0.5
	l92.328,0.873c-2.884,0.253-11.975,9.651-13.985,8.95l2.345-2.529l-2.865,2.088L-58.499,5.912l-2.206,0.002l9.377-0.011
	l17.422-3.972l0.941-1.567l3.473-0.376c1.178-0.266,3.061-0.45,4.699-0.924c2.104-0.61,3.812-1.702,3.071-4.061l-1.694-0.816
	C-17.76-6.085-11.49-6.706-1.369-8.777l4.932-2.583c-2.853-0.061-4.475-0.538-5.002-1.365l-1.367-2.144l2.818,1.109
	c0.103,0.04,0.197,0.092,0.281,0.155c0.56,0.415,0.754,1.328,0.606,2.691C0.583-8.041-1.252-3.175-4.386,3.243L1.34-8.484
	L13.65,3.415c2.182,2.107,4.556,4.525,7.098,7.225c2.875,2.992,4.812,4.144,6.345,4.729l0.125-0.088l-2.36-2.529l2.148,1.842
	l-7.222-8.313l6.672,7.021l-0.612-1.253l-4.9-4.919l4.63,4.282L24.23,8.999L30.718,16.155 M12.254-10.97L12.254-10.97 M12.254-10.97
	L12.254-10.97 M15.853-10.234c-1.389,3.238-3.878,7.83-5.361,11.305l2.865-8.544c-0.338-1.472-0.7-2.708-1.103-3.494
	c0.403,0.787,0.765,2.022,1.103,3.494l-2.865,8.544C11.975-2.405,14.463-6.997,15.853-10.234l0.858-1.92l0.166-0.73l-0.166,0.73
	L15.853-10.234l-1.287,1.609L14.818-11l-0.251,2.375L15.853-10.234 M4.428-0.795L4.428-0.795 M4.428-0.795L4.428-0.795
	 M13.244-7.143C12.469-6.528,6.198-8,3.049-8.326l4.26,0.44l-2.411,5.44c-0.357,0.802-0.554,1.405-0.47,1.651
	c-0.084-0.246,0.113-0.848,0.47-1.651l2.411-5.439l-4.26-0.44C6.198-8,12.469-6.529,13.244-7.143 M2.993-8.903L2.993-8.903
	 M2.993-8.903L2.993-8.903 M13.532-8.004l0.025-0.073l1.535-0.284l-1.535,0.284L13.532-8.004c-2.893-0.013-8.303-1.109-10.54-0.9
	C5.229-9.113,10.64-8.017,13.532-8.004 M6.863-7.526L6.863-7.526 M13.144-7.979l-1.59,1.383L13.144-7.979 M11.508-8.444
	L11.508-8.444 M13.244-7.143L13.244-7.143 M13.532-8.004L13.532-8.004 M16.339-9.873L16.339-9.873 M14.818-11L14.818-11
	 M6.53,17.752L6.53,17.752 M19.391-36.602l-5.66,4.331L-20.759-5.88l-2.658,0.067l0,0l0,0l2.658-0.067l34.49-26.392L19.391-36.602
	 M19.391-36.602l-5.66,4.331L-20.759-5.88l-2.658,0.067l0,0l0,0l2.658-0.067l34.49-26.392L19.391-36.602 M19.391-36.602l0.652-0.369
	l1.058-0.92l0.65-0.368l1.007-0.875l0.088-0.069l0.618-0.349l1.057-0.919l0.652-0.37l1.062-0.924l1.055-0.916l0.59-0.418
	l1.061-0.921l1.058-0.918l1.059-0.923l0.997-0.963l1.06-0.921l1.408-1.518c-2.03,0.779-5.754,4.131-9.585,7.644l-0.373,0.324
	l-0.354,0.345l-1.402,1.28l-0.3,0.26l-1.061,0.923l-0.738,0.713C20.266-37.375,19.816-36.969,19.391-36.602 M-32.965,0.364
	c0.064-0.159,0.073-0.302,0.033-0.43c-0.028-0.088-0.151-0.149-0.237-0.219l-0.091-0.289l-0.747-0.083l-0.764-0.157l-0.835,0.072
	c-0.554,0.002-1.213,0.038-1.958,0.098l-0.03,0.003l-1.392,0.121l1.392-0.121l-1.392,0.121l1.392-0.121h0.012
	c-0.465,0.038-0.859,0.055-1.404,0.12c0.676-0.083,1.181-0.103,1.617-0.096l0.522,0.058l0.769,0.155l0.292,0.033
	c0.182,0.065,0.349,0.138,0.505,0.212l0.062,0.2l0.531,0.059C-34.28,0.252-33.791,0.372-32.965,0.364 M-32.965,0.364L-32.965,0.364
	 M10.102,72.594L10.102,72.594 M10.367,76.707l0.019-2.059l-0.283-2.057L10.367,76.707"/>
<path fill="#CE8B30" d="M19.391-36.602c1.131-0.861,2.24-1.683,3.368-2.533l-1.006,0.875l-0.651,0.369l-1.057,0.92L19.391-36.602"/>
<path fill="#CE8B30" d="M20.709-37.772l0.738-0.713l1.061-0.923l0.3-0.26C22.096-39.017,21.396-38.383,20.709-37.772"/>
<path fill="#CE8B30" d="M22.845-39.205c3.37-2.54,6.913-5.335,11.676-10.058l-1.406,1.518l-1.06,0.92l-0.998,0.963l-1.059,0.923
	l-1.057,0.918l-1.06,0.921l-0.589,0.418l-1.057,0.916l-1.061,0.923l-0.652,0.37l-1.057,0.919L22.845-39.205"/>
<polyline fill="#CE8B30" points="24.211,-40.949 24.565,-41.294 24.938,-41.618 24.211,-40.949 "/>
<path fill="#4F5052" d="M54.329-66.986l0.297-0.345l-0.164,0.303C54.427-67.026,54.361-66.983,54.329-66.986"/>
<line fill="none" x1="-56.417" y1="-95.881" x2="-56.417" y2="-95.881"/>
<polyline fill="#353435" points="-56.417,-95.881 -59.674,-99.569 -56.417,-95.881 "/>
<line fill="none" x1="6.53" y1="17.752" x2="6.53" y2="17.752"/>
<line fill="none" x1="6.53" y1="17.752" x2="6.53" y2="17.752"/>
<polyline fill="#353435" points="6.53,17.752 6.891,19.809 6.53,17.752 "/>
<polyline fill="#353435" points="7.733,34.891 9.379,36.961 7.733,34.891 "/>
<line fill="none" x1="9.379" y1="36.961" x2="9.379" y2="36.961"/>
<polyline fill="#353435" points="10.239,49.99 8.402,52.023 10.239,49.99 "/>
<polyline fill="#373537" points="19.391,-36.602 20.044,-36.971 21.101,-37.891 21.752,-38.26 22.758,-39.135 21.752,-38.26 
	21.101,-37.891 20.044,-36.971 19.391,-36.602 "/>
<polyline fill="#373537" points="20.709,-37.772 21.448,-38.485 22.509,-39.409 22.808,-39.67 22.509,-39.409 21.448,-38.485 
	20.709,-37.772 "/>
<polyline fill="#373537" points="22.845,-39.205 23.464,-39.554 24.521,-40.473 25.174,-40.843 26.235,-41.766 27.292,-42.682 
	27.881,-43.1 28.942,-44.02 29.999,-44.938 31.058,-45.861 32.057,-46.824 33.117,-47.745 34.523,-49.262 33.117,-47.745 
	32.057,-46.824 31.058,-45.861 29.999,-44.938 28.942,-44.02 27.881,-43.1 27.292,-42.682 26.235,-41.766 25.174,-40.843 
	24.521,-40.473 23.464,-39.554 22.845,-39.205 "/>
<polyline fill="#373537" points="24.211,-40.949 24.565,-41.294 24.938,-41.618 24.565,-41.294 24.211,-40.949 "/>
<polyline fill="#373537" points="-23.417,-5.813 -23.417,-5.813 -20.759,-5.88 13.731,-32.272 19.391,-36.602 13.731,-32.272 
	-20.759,-5.88 -23.417,-5.813 -23.417,-5.813 "/>
<polyline fill="#373537" points="-23.417,-5.813 -23.417,-5.813 -20.759,-5.88 13.731,-32.272 19.391,-36.602 13.731,-32.272 
	-20.759,-5.88 -23.417,-5.813 -23.417,-5.813 "/>
<line fill="none" x1="27.091" y1="15.37" x2="27.091" y2="15.37"/>
<path fill="#454547" d="M27.091,15.37c-1.533-0.587-3.469-1.738-6.344-4.73c-2.542-2.7-4.916-5.117-7.099-7.224L1.337-8.482
	L-4.389,3.245C-1.254-3.173,0.58-8.037,0.896-10.912C0.58-8.038-1.254-3.173-4.389,3.245L1.337-8.482L13.649,3.415
	c2.182,2.107,4.556,4.525,7.098,7.225C23.622,13.632,25.559,14.784,27.091,15.37"/>
<path fill="#454547" d="M3.562-11.36c-2.853-0.061-4.475-0.538-5.002-1.365l-1.367-2.144l2.818,1.109
	c0.103,0.039,0.197,0.091,0.281,0.155c-0.084-0.063-0.179-0.116-0.281-0.155l-2.818-1.109l1.367,2.144
	C-0.913-11.899,0.709-11.421,3.562-11.36"/>
<line fill="none" x1="27.215" y1="15.282" x2="27.215" y2="15.282"/>
<line fill="none" x1="27.215" y1="15.282" x2="27.215" y2="15.282"/>
<line fill="none" x1="27.005" y1="14.595" x2="27.005" y2="14.595"/>
<line fill="none" x1="26.455" y1="13.302" x2="26.455" y2="13.302"/>
<line fill="none" x1="-18.655" y1="-21.917" x2="-18.655" y2="-21.917"/>
<line fill="none" x1="12.524" y1="-31.519" x2="12.524" y2="-31.519"/>
<line fill="none" x1="25.572" y1="11.412" x2="25.572" y2="11.412"/>
<line fill="none" x1="-8.142" y1="-18.791" x2="-8.142" y2="-18.791"/>
<line fill="none" x1="-5.617" y1="-17.703" x2="-5.617" y2="-17.703"/>
<line fill="none" x1="2.936" y1="2.364" x2="2.936" y2="2.364"/>
<line fill="none" x1="10.74" y1="-10.982" x2="10.74" y2="-10.982"/>
<line fill="none" x1="5.88" y1="-13.208" x2="5.88" y2="-13.208"/>
<line fill="none" x1="3.562" y1="-11.36" x2="3.562" y2="-11.36"/>
<line fill="none" x1="9.527" y1="-2.772" x2="9.527" y2="-2.772"/>
<line fill="none" x1="9.913" y1="-10.231" x2="9.913" y2="-10.231"/>
<line fill="none" x1="14.566" y1="-8.625" x2="14.566" y2="-8.625"/>
<line fill="none" x1="11.809" y1="4.1" x2="11.809" y2="4.1"/>
<line fill="none" x1="6.891" y1="19.809" x2="6.891" y2="19.809"/>
<line fill="none" x1="-21.723" y1="-4.997" x2="-21.723" y2="-4.997"/>
<path fill="#CE8B30" d="M-33.261-0.574l0.091,0.289c-0.325-0.297-1.107-0.459-2.437-0.456l0.835-0.072l0.764,0.157L-33.261-0.574"/>
<path fill="#CE8B30" d="M-34.688,0.101l-0.531-0.059l-0.062-0.2C-35.1-0.064-34.901,0.021-34.688,0.101"/>
<path fill="#CE8B30" d="M-35.788-0.369l-0.291-0.034l-0.768-0.156l-0.524-0.057C-36.645-0.607-36.157-0.511-35.788-0.369"/>
<line fill="none" x1="7.733" y1="34.891" x2="7.733" y2="34.891"/>
<path fill="#CE8B30" d="M-37.564-0.644c-0.01,0.003-0.013,0.002-0.021,0.004h-0.01L-37.564-0.644"/>
<line fill="none" x1="39.873" y1="-65.766" x2="39.873" y2="-65.766"/>
<line fill="none" x1="55.702" y1="-64.26" x2="55.702" y2="-64.26"/>
<line fill="none" x1="84.729" y1="18.83" x2="84.729" y2="18.83"/>
<line fill="none" x1="56.68" y1="-72.065" x2="56.68" y2="-72.065"/>
<line fill="none" x1="-63.645" y1="-110.076" x2="-63.645" y2="-110.076"/>
<polyline fill="#6B602D" points="-41.57,4.978 -42.268,5.036 -41.57,4.978 "/>
<path fill="#514107" d="M-33.907,1.931c-0.857,1.1-2.632,2.475-4.511,3.879l15.616-46.557c-2.666-1.88-5.443-3.927-7.034-4.262
	l-4.638-8.471l0.672,1.206c0.472,0.226,0.78,0.107,1.065-0.097c0.143-0.101,0.278-0.228,0.43-0.333
	c0.216-0.156,0.46-0.282,0.788-0.283L-52.753,10.32c0.11-0.34,0.396-0.727,1-1.187l5.048-2.223l0.652-0.205l3.898-1.305l4.058-0.798
	l-3.473,0.376l-0.7,0.061l-9.062,0.866L-33.907,1.931"/>
<path fill="#302D2F" d="M-32.736-52.371c-0.285,0.203-0.593,0.324-1.066,0.097c0.473,0.226,0.775,0.1,1.06-0.101
	c0.144-0.104,0.284-0.223,0.436-0.331C-32.458-52.599-32.594-52.472-32.736-52.371"/>
<polyline fill="#302D2F" points="-33.802,-52.274 -34.473,-53.479 -33.802,-52.274 "/>
<polyline fill="#282526" points="-42.154,5.397 -46.053,6.704 -46.704,6.909 -42.154,5.397 "/>
<polyline fill="#302D2F" points="-33.907,1.931 -51.33,5.903 -33.907,1.931 "/>
<path fill="#514107" d="M8.375-11.027c0.184,0.586-0.913,1.669-2.498,2.907L1.503-4.699l2.632,1.772
	C2.727-3.874,1.109-5.117-0.387-6.27c-3.308-5.432-6.059-10.359-8.618-15.104l-6.724,20.048c-6.153,1.125-11.994,2.079-18.178,3.256
	l0.941-1.566l3.473-0.377c1.179-0.266,3.061-0.449,4.699-0.924c2.104-0.609,3.812-1.702,3.071-4.061l-1.694-0.816
	C-17.76-6.086-11.49-6.707-1.369-8.778l4.932-2.583l2.141-0.04c1.307-0.161,2.084-0.109,2.437,0.108
	C8.259-11.22,8.341-11.133,8.375-11.027"/>
<path fill="#302D2F" d="M-1.369-8.777c-10.12,2.07-16.392,2.692-22.048,2.964C-17.76-6.084-11.489-6.707-1.369-8.777"/>
<path fill="#302D2F" d="M-24.794-0.937c-1.638,0.474-3.521,0.657-4.699,0.924l-3.473,0.377l3.473-0.377
	C-28.314-0.279-26.432-0.462-24.794-0.937"/>
<line fill="none" x1="18.581" y1="-18.319" x2="18.581" y2="-18.319"/>
<path fill="#F97624" d="M18.581-18.319c0.188,0.598,0.316,1.213,0.379,1.85c0.13,1.37,0.002,2.821-0.293,4.326L14.779,7.65
	l-2.865,0.345c-0.599,0.074-1.214,0.122-1.842,0.156C8.714,7.229,7.805,6.928,7.344,7.257c-0.156,0.11-0.259,0.29-0.314,0.538
	C-3.004-5.246-12.974-18.331-23.614-32.62l-6.221-12.389c1.591,0.334,4.369,2.381,7.033,4.262L-38.417,5.81
	c1.878-1.404,3.653-2.78,4.511-3.88c6.184-1.178,12.025-2.133,18.177-3.255l6.725-20.049c2.56,4.746,5.311,9.673,8.619,15.104
	C1.11-5.116,2.729-3.873,4.136-2.925L1.503-4.699L5.877-8.12c1.586-1.238,2.682-2.32,2.497-2.906v-0.001
	C8.341-11.131,8.26-11.22,8.141-11.29c-0.352-0.217-1.13-0.27-2.437-0.108l-2.142,0.039c3.031-1.637,4.477-2.829,5.125-3.803
	c0.208-0.311,0.331-0.601,0.399-0.873L-6.556-4.896c0.228,0.555,0.633,0.894,1.061,1.212l0.319,0.228
	c0.336,0.25,0.668,0.517,0.915,0.896c0.256,0.387,0.426,0.893,0.431,1.618l-3.488,5.088c-2.031,0.069-3.669-0.393-5.025-1.236
	l30.697-21.86C18.439-18.743,18.513-18.533,18.581-18.319"/>
<line fill="none" x1="10.071" y1="8.149" x2="10.071" y2="8.149"/>
<line fill="none" x1="7.028" y1="7.794" x2="7.028" y2="7.794"/>
<line fill="none" x1="7.028" y1="7.794" x2="7.028" y2="7.794"/>
<path fill="#353435" d="M18.581-18.319c-0.067-0.213-0.142-0.423-0.226-0.631L-12.341,2.91c1.356,0.843,2.995,1.305,5.025,1.236
	c-2.028,0.062-3.669-0.393-5.025-1.236l30.695-21.86C18.439-18.743,18.513-18.533,18.581-18.319"/>
<path fill="#353435" d="M18.959-16.469c0.13,1.37,0.003,2.82-0.293,4.326L14.779,7.65l-2.866,0.346
	c-0.599,0.073-1.213,0.121-1.841,0.155c0.626-0.033,1.243-0.082,1.841-0.155l2.866-0.346l3.887-19.793
	C18.962-13.648,19.089-15.099,18.959-16.469"/>
<path fill="#353435" d="M-4.26-2.56c-0.247-0.38-0.577-0.647-0.916-0.896l-0.318-0.228c-0.429-0.318-0.834-0.657-1.062-1.212
	l15.642-11.14c-0.067,0.272-0.19,0.562-0.399,0.873c0.209-0.311,0.332-0.601,0.397-0.872L-6.554-4.896
	c0.229,0.552,0.636,0.889,1.063,1.207l0.319,0.227C-4.835-3.212-4.508-2.94-4.26-2.56"/>
<line fill="none" x1="10.071" y1="8.149" x2="10.071" y2="8.149"/>
<line fill="none" x1="10.071" y1="8.149" x2="10.071" y2="8.149"/>
<line fill="none" x1="-5.496" y1="-3.685" x2="-5.496" y2="-3.685"/>
<path fill="#292627" d="M8.374-11.028L8.374-11.028C8.341-11.132,8.259-11.22,8.14-11.29C8.259-11.22,8.341-11.133,8.374-11.028"/>
<path fill="#292627" d="M-0.387-6.269c-3.307-5.432-6.059-10.359-8.618-15.104l-6.724,20.048C-21.882-0.2-27.724,0.754-33.907,1.931
	c6.184-1.178,12.024-2.132,18.178-3.256l6.724-20.048C-6.444-16.628-3.694-11.701-0.387-6.269"/>
<line fill="none" x1="7.028" y1="7.794" x2="7.028" y2="7.794"/>
<line fill="none" x1="10.071" y1="8.149" x2="10.071" y2="8.149"/>
<line fill="none" x1="10.071" y1="8.149" x2="10.071" y2="8.149"/>
<path fill="#6B602D" d="M10.071,8.149L7.028,7.794c0.055-0.248,0.157-0.427,0.314-0.538C7.804,6.928,8.714,7.228,10.071,8.149"/>
<line fill="none" x1="7.028" y1="7.794" x2="7.028" y2="7.794"/>
<polyline fill="#282526" points="10.071,8.149 7.028,7.794 10.071,8.149 "/>
</svg>
