<?xml version="1.0" encoding="utf-8"?>
<!-- Generator: Adobe Illustrator 15.0.2, SVG Export Plug-In . SVG Version: 6.00 Build 0)  -->
<!DOCTYPE svg PUBLIC "-//W3C//DTD SVG 1.1//EN" "http://www.w3.org/Graphics/SVG/1.1/DTD/svg11.dtd">
<svg version="1.1" id="Layer_1" xmlns="http://www.w3.org/2000/svg" xmlns:xlink="http://www.w3.org/1999/xlink" x="0px" y="0px"
	 width="100px" height="100px" viewBox="0 0 100 100" enable-background="new 0 0 100 100" xml:space="preserve">
<g>
	<rect x="-100" y="38.834" fill="#411116" width="10" height="61.166"/>
	<rect x="-80" y="38.834" fill="#411116" width="10" height="61.166"/>
	<rect x="-60" y="38.834" fill="#411116" width="10" height="61.166"/>
	<rect x="-40" y="38.834" fill="#411116" width="10" height="61.166"/>
	<rect x="-20" y="38.834" fill="#411116" width="10" height="61.166"/>
	<polyline fill="#411116" points="0,100 40,38.834 50,38.834 10,100 	"/>
	<polyline fill="#411116" points="20,100 60,38.834 70,38.834 30,100 	"/>
	<polyline fill="#411116" points="40,100 80,38.834 90,38.834 50,100 	"/>
	<polyline fill="#411116" points="60,100 100,38.834 110,38.834 70,100 	"/>
	<polyline fill="#411116" points="80,100 120,38.834 130,38.834 90,100 	"/>
	<polyline fill="#411116" points="-100,100 -60,38.834 -50,38.834 -90,100 	"/>
	<polyline fill="#411116" points="-80,100 -40,38.834 -30,38.834 -70,100 	"/>
	<polyline fill="#411116" points="-60,100 -20,38.834 -10,38.834 -50,100 	"/>
	<polyline fill="#411116" points="-40,100 0,38.834 10,38.834 -30,100 	"/>
	<polyline fill="#411116" points="-20,100 20,38.834 30,38.834 -10,100 	"/>
</g>
</svg>
