<?xml version="1.0" encoding="utf-8"?>
<!-- Generator: Adobe Illustrator 15.0.2, SVG Export Plug-In . SVG Version: 6.00 Build 0)  -->
<!DOCTYPE svg PUBLIC "-//W3C//DTD SVG 1.1//EN" "http://www.w3.org/Graphics/SVG/1.1/DTD/svg11.dtd">
<svg version="1.1" id="Layer_1" xmlns="http://www.w3.org/2000/svg" xmlns:xlink="http://www.w3.org/1999/xlink" x="0px" y="0px"
	 width="100px" height="100px" viewBox="0 0 100 100" enable-background="new 0 0 100 100" xml:space="preserve">
<g opacity="0.75">
	<path fill-rule="evenodd" clip-rule="evenodd" d="M101.878,4.301c-0.619,0.219-1.271,0.921-1.623,1.34
		c-0.477,0.569-0.87,1.504-0.807,2.171c0.018,0.029-0.097,0.61-0.111,0.739c-0.046,0.407-0.152,0.808-0.285,1.204
		c-0.128,0.38-0.278,0.755-0.406,1.135c-0.148,0.441-0.483,0.859-0.564,1.294c-0.146,0.774-0.521,1.472-0.726,2.212
		c-0.159,0.574-0.254,1.111-0.273,1.722c-0.024,0.806-0.405,1.622-0.479,2.444c-0.013,0.134-0.001,0.937-0.147,0.945
		c-0.03,0.001-0.113,0.388-0.122,0.422c-0.07,0.275-0.274,0.45-0.389,0.723c-0.256,0.615-0.642,1.186-1.066,1.743
		c-0.228,0.297-0.506,0.581-0.773,0.863c-0.296,0.312-0.668,0.598-0.923,0.912c-0.458,0.563-0.92,1.085-1.354,1.652
		c-0.199,0.261-0.461,0.489-0.678,0.752c-0.217,0.263-0.31,0.898-0.351,1.222c-0.082,0.632-0.272,1.154-0.339,1.762
		c-0.036,0.328-0.167,0.883,0.091,1.139c0.154,0.152,0.037,1.082,0.011,1.342c-0.01,0.019,0.083,0.175,0.089,0.175
		c-0.233,0.145-0.089,0.594-0.118,0.79c-0.057,0.369-0.213,0.733-0.392,1.079c-0.178,0.343-0.213,0.731-0.427,1.063
		c-0.156,0.243-0.706,0.443-0.633,0.015c0.081-0.474,0.252-0.936,0.325-1.411c-0.388,0.151-0.464,0.52-0.658,0.779
		c-0.234,0.312-0.494,0.585-0.661,0.938c-0.176,0.369-0.225,0.811-0.294,1.198c-0.078,0.441-0.255,0.875-0.316,1.313
		c-0.058,0.409-0.289,0.644-0.47,1.017c-0.054,0.174-0.052,0.411-0.256,0.57c-0.337,0.263-0.582,0.428-1.044,0.575
		c-0.186,0.059-0.41,0.195-0.621,0.201c-0.385,0.011-0.317-0.3-0.127-0.434c0.354-0.25,0.524-0.382,0.545-0.8
		c0.014-0.263-0.08-0.431-0.035-0.719c0.055-0.347,0.188-0.687,0.413-0.995c-0.034-0.439,0.037-0.88,0.006-1.321
		c-0.042-0.603-0.093-1.245,0.044-1.85c0.069-0.303,0.042-0.692,0.009-1.013c-0.039-0.374-0.08-0.77-0.028-1.208
		c0.048-0.404,0.166-0.803,0.325-1.19c-0.104-0.059-0.039-0.568-0.021-0.658c0.158-0.775-0.295-1.689,0.164-2.445
		c0.058-0.095,0.201-0.697,0.276-0.723c0.174-0.06,0.452-0.701,0.475-0.88c0.036-0.296,0.266-0.657,0.365-0.958
		c0.107-0.328,0.313-0.705,0.47-1.022c0.07-0.142,0.173-0.279,0.226-0.425c0.004-0.109-0.213-0.084-0.208-0.273
		c0.011-0.403,0.411-0.756,0.516-1.147c0.055-0.205,0.236-0.302,0.314-0.489c0.08-0.188,0.079-0.387,0.159-0.574
		c0.166-0.389,0.218-0.802,0.366-1.201c0.237-0.643,0.319-1.416,0.453-2.087c0.084-0.429,0.046-0.867,0.147-1.294
		c0.091-0.383,0.361-0.729,0.484-1.114c0.163-0.507,0.576-0.933,0.701-1.454c-0.077,0.013-0.458,0.39-0.458,0.441
		c0,0.091-0.409,0.417-0.49,0.547c-0.215,0.342-0.17,0.638-0.304,0.98c-0.066,0.171-0.265,0.148-0.467,0.139
		c0.038-0.131-0.155-0.367-0.116-0.559c0.17-0.812,0.582-1.597,0.798-2.404c0.194-0.729,0.716-1.279,0.836-1.977
		c0.101-0.584,0.232-1.035,0.12-1.632c-0.073-0.388-0.165-0.773-0.275-1.156c-0.108-0.376-0.348-0.627-0.463-1.018
		c-0.493-1.677-0.282-3.411-1.219-5.013c-0.191-0.327-0.363-0.68-0.714-0.906c-0.278-0.181-0.274-0.667-0.731-0.389
		c-0.188,0.115,0.06,0.224,0.106,0.329c0.098,0.219,0.046,0.436,0.029,0.658c0.085,0.202,0.253,0.38,0.296,0.593
		c0.047,0.229-0.126,0.546,0.056,0.75c0.257,0.286,0.09,0.772,0.087,1.093c-0.004,0.482,0.033,0.965,0.092,1.445
		c0.103,0.844,0.416,1.692,0.103,2.513c-0.162,0.425,0.075,0.811-0.069,1.182c-0.175,0.448-0.34,0.905-0.378,1.373
		c-0.021,0.242-0.029,0.305-0.393,0.269c-0.075-0.202-0.095-0.413-0.085-0.622c0.022-0.461,0.203-0.923,0.127-1.386
		c-0.248-1.503-1.05-2.946-1.494-4.448c-0.146-0.489-0.222-0.988-0.236-1.489c-0.187-0.5-0.418-0.835-0.767-1.281
		c-0.349-0.445-0.484-0.924-1.011-1.286c-0.109-0.236-0.324-0.424-0.533-0.615c-0.448,0.01-0.288,0.044-0.438,0.371
		c-0.082,0.178-0.176,0.359-0.125,0.552c0.052,0.2,0.341,0.371-0.028,0.499c-0.328,0.113-0.746-0.358-0.548-0.531
		c0.128-0.11-0.088-0.91-0.037-1.113c0.12-0.483-0.542-1.203-0.868-1.621c4.679,0,9.355,0,14.034,0c1.169,0,2.339,0,3.509,0
		c0.584,0,1.169,0,1.754,0c0.233,0,0.468,0,0.702,0c0.548,0,0.351,0.171,0.351,0.518C101.878,0.682,101.878,2.492,101.878,4.301
		C101.551,4.417,101.878,2.319,101.878,4.301z"/>
	<path fill-rule="evenodd" clip-rule="evenodd" d="M101.878,12.728c0,8.706,0,17.411,0,26.116c0,2.177,0,4.353,0,6.529
		c0,1.044,0,2.089,0,3.134c0,0.53,0.015,0.923-0.242,1.41c-0.238,0.453-0.442,0.958-0.61,1.429
		c-0.315,0.885-0.391,1.805-0.599,2.704c0.015,0.026-0.112,0.6-0.125,0.721c-0.057,0.507-0.154,1.017-0.104,1.525
		c0.138,1.398,0.159,3.02,0.25,4.282c0.03,0.421,0.045,0.844,0.127,1.263c0.319,0.153,0.155,0.619,0.367,0.84
		c0.144,0.149-0.063,0.438-0.33,0.349c-0.305-0.1-0.499-0.413-0.571-0.638c-0.076-0.235-0.075-0.546-0.324-0.727
		c0.01-0.157,0.01-0.479-0.03-0.615c-0.107-0.282-0.176-0.694-0.178-0.987c-0.002-0.298-0.058-0.599-0.06-0.9
		c-0.001-0.278,0.258-1.996-0.075-2.063c-0.028-0.007-0.166-1.857-0.148-1.957c0.091-0.517,0.017-1.11,0.076-1.663
		c0.082-0.212,0.021-0.659,0.016-0.901c-0.008-0.354-0.067-0.73-0.282-1.051c-0.536,0.439-0.212,1.346-0.259,1.871
		c-0.034,0.385-0.169,0.765-0.164,1.151c0.004,0.294,0.244,0.633-0.313,0.719c-0.261,0.039-0.483-0.075-0.508-0.273
		c0.205-0.316-0.008-0.655-0.019-0.979c-0.011-0.357,0.057-0.725-0.048-1.079c-0.063-0.217-0.198-0.702,0.008-0.905
		c-0.234-0.542,0.188-1.1,0.354-1.618c0.189-0.588,0.514-1.172,0.549-1.793c0.019-0.317,0.018-0.66-0.096-0.968
		c-0.136-0.37,0.116-0.804,0.156-1.18c0.089-0.835,0.059-1.675,0.158-2.511c0.093-0.79,0.281-1.538,0.266-2.338
		c-0.017-0.873-0.144-1.772,0.032-2.639c0.059-0.293,0.31-0.54,0.324-0.825c0.01-0.209-0.018-0.424,0.033-0.633
		c0.009-0.111-0.18-0.064-0.207-0.153c0.03-0.67,0.322-1.36,0.44-2.042c0.13-0.75,0.149-1.524,0.24-2.259
		c0.102-0.823,0.225-1.476,0-2.304c-0.011-0.639-0.101-1.243-0.202-1.874c-0.117-0.727,0.153-1.581-0.153-2.274
		c-0.48-0.081-0.676,1.761-0.693,1.973c-0.017,0.192-0.059,0.258-0.002,0.438c0.057,0.177-0.116,0.298-0.104,0.376
		c-0.602,0.072-0.579-0.559-0.547-0.861c0.026-0.238-0.071-0.416-0.074-0.653c-0.003-0.159,0.121-0.301,0.118-0.461
		c-0.006-0.271-0.002-0.539,0.023-0.822c0.013-0.149,0.024-0.301,0.006-0.45c0.204-0.206,0.35-0.438,0.493-0.669
		c0.116-0.186,0.732-0.84,0.481-0.878c0.061,0.009,0.652-0.862,0.326-0.946c-0.105-0.027,0.255-0.579,0.327-0.694
		c0.144-0.226,0.21-0.465,0.348-0.705c0.102-0.176,0.128-0.371,0.237-0.545c0.118-0.19,0.073-0.526,0.228-0.668
		c0.39-0.358,0.414-1.201,0.492-1.676c-0.1-0.107-0.219-0.202-0.355-0.285c-0.021-0.155-0.036-0.311-0.046-0.466
		c-0.025-0.372-0.018-0.746,0.051-1.115c0.064-0.347,0.184-0.689,0.38-1.008c-0.107-0.257-0.067-0.493-0.027-0.755
		c0.066-0.422,0.229-0.875,0.299-1.348C101.648,13.97,101.527,13.105,101.878,12.728C101.878,25.002,101.77,12.844,101.878,12.728z"
		/>
	<path fill-rule="evenodd" clip-rule="evenodd" d="M101.878,70.75c0,2.721,0,5.441,0,8.162c-0.2-0.483-0.421-0.959-0.465-1.469
		c-0.015-0.176-0.299-0.749-0.01-0.878c-0.033-0.177,0.021-0.788,0.012-1.126c-0.01-0.36,0.019-1.027-0.219-1.354
		c-0.104-0.696-0.171-1.402-0.305-2.096c-0.099-0.51-0.451-1.105-0.555-1.591c-0.184-0.582-0.396-1.234-0.835-1.725
		c-0.222-0.246-0.442-0.447-0.599-0.724c-0.107-0.191-0.233-0.597-0.521-0.69c-0.105-0.319-0.308-0.614-0.458-0.923
		c-0.111-0.23-0.087-0.707-0.431-0.833c-0.103-0.659-0.642-1.244-0.64-1.919c0.001-0.472-0.02-1.54-0.427-1.898
		c-0.011-0.207-0.154-0.509-0.3-0.671c-0.312-0.345,0.175-0.496,0.521-0.271c0.359,0.232,1.006,0.789,1.142,1.118
		c0.673,0.417,0.184,1.301,0.139,1.872c-0.105,1.338,0.526,2.426,1.206,3.619c0.34,0.597,0.834,1.34,1.374,1.843
		c0.271,0.253,0.419,0.562,0.658,0.828C101.333,70.152,101.712,70.75,101.878,70.75C101.878,73.471,101.848,70.75,101.878,70.75z"/>
	<path fill-rule="evenodd" clip-rule="evenodd" d="M101.878,98.883c0,0.391,0,0.78,0,1.17c0,0.234,0,0.469,0,0.702
		c0,0.36-0.179,0.234-0.593,0.234c0.005-0.248,0.182-0.654,0.236-0.943C101.598,99.652,101.697,99.257,101.878,98.883
		C101.878,99.585,101.604,99.449,101.878,98.883z"/>
	<path fill-rule="evenodd" clip-rule="evenodd" d="M78.093,50.868c0,0.072,0,0.146,0,0.219
		C78.068,51.044,77.892,50.871,78.093,50.868z"/>
	<path fill-rule="evenodd" clip-rule="evenodd" d="M75.604,94.933c-0.184-0.032-0.189-0.195-0.178-0.373
		C75.554,94.634,75.573,94.787,75.604,94.933z"/>
	<path fill-rule="evenodd" clip-rule="evenodd" d="M68.051,21.287c-0.159,0.148-0.02,0.39-0.207,0.527
		C67.798,21.815,67.886,21.295,68.051,21.287C67.916,21.413,67.894,21.294,68.051,21.287z"/>
	<path fill-rule="evenodd" clip-rule="evenodd" d="M62.216,60.414c-0.021-0.143-0.192-0.145-0.227-0.338
		c-0.037-0.213,0.087-0.391,0.087-0.6c0-0.236,0.04-0.55,0.051-0.731c0.026-0.396,0.151-0.787,0.178-1.185
		c-0.157-0.149-0.036-0.402-0.06-0.571c0.081,0.01,0.393-0.066,0.563-0.065c0.473,0.563,0.162,1.643,0.029,2.267
		c-0.086,0.396-0.152,0.761,0.125,1.121c0.215,0.281,0.113,0.645,0.208,0.957c0.214,0.704,0.39,1.507,0.366,2.237
		c-0.008,0.222-0.047,0.355-0.019,0.543c0.023,0.156,0.099,0.814-0.032,0.958c-0.167,0.185,0.193,0.806,0.26,1.01
		c0.123,0.374,0.279,0.83,0.065,1.188c-0.414,0.69-0.085,1.396-0.02,2.098c0.075,0.811-0.243,1.543,0.082,2.368
		c0.106,0.368-0.102,0.799,0.148,1.142c-0.062,0.522,0.147,1.058-0.005,1.575c-0.137,0.463,0.112,0.929-0.084,1.409
		c-0.09,0.184,0.063,0.694,0.141,0.909c0.311,0.86,0.535,1.813,1.044,2.624c0.119,0.318-0.357,0.457-0.681,0.373
		c-0.21-0.438-0.394-0.884-0.565-1.33c-0.176-0.46-0.337-0.922-0.493-1.385c-0.146-0.43-0.121-0.81-0.171-1.247
		c-0.075-0.654-0.408-1.201-0.367-1.877c0.011-0.173,0.095-0.344,0.091-0.516c-0.004-0.176-0.113-0.385-0.034-0.559
		c-0.158-0.45-0.34-0.857-0.53-1.295c-0.264-0.605-0.699-1.189-0.837-1.821c-0.097-0.439-0.012-0.942-0.092-1.324
		c-0.147-0.703,0.207-1.495,0.244-2.099c0.055-0.877,0.493-1.698,0.525-2.586c0.023-0.66,0.168-1.293,0.097-1.957
		C62.178,61.347,62.01,60.762,62.216,60.414C62.205,60.341,62.125,60.566,62.216,60.414z"/>
	<path fill-rule="evenodd" clip-rule="evenodd" d="M48.293-1.646c1.398,0,2.796,0,4.195,0c0.35,0,0.699,0,1.049,0
		c0.004,0.167,0.066,0.325,0.16,0.476c0.236,0.382,0.415,0.632,0.385,1.065c-0.042,0.592,0.54,1.281,0.821,1.852
		c0.326,0.662,0.354,1.358,0.74,2.013c0.231,0.393,0.236,0.733,0.391,1.137c0.137,0.355,0.375,0.662,0.346,1.051
		c0.577,0.768,0.026,1.711,0.563,2.48c0.069,0.348,0.044,0.741,0.355,1.032c-0.04,0.386,0.116,0.739,0.289,1.097
		c0.385,0.798,0.488,1.573,1.311,2.216c0.025-0.484-0.031-0.968-0.015-1.452c0.015-0.422-0.201-0.859-0.255-1.289
		c-0.096-0.754-0.348-1.407-0.28-2.18c0.064-0.719,0.171-1.562-0.169-2.248c-0.354-0.716-0.394-1.448-0.375-2.214
		c0.01-0.404-0.146-0.784-0.27-1.174c-0.086-0.273-0.065-0.739-0.444-0.899c-0.267-0.369-0.121-0.736,0.101-1.084
		c0.183-0.287,0.125-0.627,0.189-0.933c0.065-0.311,0.334-0.544,0.214-0.879c-0.045-0.008,0.547-0.066,0.411-0.066
		c0.352,0,0.703,0,1.055,0c1.408,0,2.814,0,4.222,0c-0.249,0.747-0.131,1.635,0.135,2.355c0.303,0.82,0.396,1.628,0.467,2.476
		c0.075,0.892-0.191,1.707-0.233,2.597c-0.02,0.422,0.085,0.866,0.017,1.284c-0.088,0.538-0.331,1.061-0.338,1.606
		c-0.004,0.32,0.2,0.6,0.178,0.935c-0.03,0.456-0.188,0.892-0.24,1.345c-0.122,1.045-0.122,2.099-0.215,3.146
		c-0.153,1.726,0.581,3.416,0.54,5.133c-0.032,1.356-0.021,2.654-0.014,4.008c0.003,0.647,0.084,1.269-0.024,1.925
		c-0.109,0.668-0.302,1.424-0.331,2.047c-0.083,1.806-0.578,3.581-0.641,5.395c-0.015,0.445,0.048,0.887-0.075,1.326
		c-0.09,0.32-0.265,0.64-0.315,0.964c-0.146,0.94-0.3,1.898-0.567,2.826c-0.081,0.89,0.135,1.766,0.3,2.643
		c0.178,0.948,0.343,1.894,0.559,2.836c0.202,0.888,0.204,1.963,0.687,2.779c0.162,0.274,0.053,0.551,0.093,0.857
		c0.028,0.215,0.188,0.307,0.176,0.537c-0.015,0.287,0.078,0.412,0.2,0.661c0.173,0.353,0.104,0.809,0.208,1.18
		c0.101,0.36,0.141,0.707,0.232,1.074c0.094,0.38,0.232,0.782,0.13,1.168c-0.053,0.201-0.17,0.247-0.44,0.263
		c-0.351,0.022-0.446-0.323-0.534-0.52c-0.165-0.372-0.25-0.763-0.455-1.125c-0.327-0.287-0.458-0.673-0.562-1.031
		c0.002,0.008-0.245-0.328-0.227-0.286c-0.083-0.191-0.182-0.379-0.27-0.569c-0.162-0.355-0.362-0.59-0.481-0.941
		c-0.147-0.435-0.266-0.875-0.332-1.321c-0.072-0.479-0.269-0.902-0.396-1.374c-0.123-0.455-0.184-0.917-0.251-1.377
		c-0.081-0.554-0.301-1.018-0.498-1.55c-0.26-0.704-0.614-1.371-1.012-2.035c-0.202-0.336-0.357-0.686-0.418-1.052
		c-0.072-0.433-0.181-0.872-0.218-1.297c-0.075-0.872-0.419-1.667-0.271-2.561c0.037-0.228,0.265-1.909,0.435-1.919
		c0.04-0.002,0.115-2.111,0.156-2.31c0.186-0.909,0.388-1.806,0.532-2.722c0.114-0.731,0.054-1.521-0.131-2.245
		c-0.163-0.632-0.547-1.212-0.769-1.832c-0.275-0.771-0.215-1.542-0.295-2.326c-0.037-0.37-0.204-0.725-0.289-1.088
		c-0.042-0.183-0.124-0.348-0.15-0.532c-0.034-0.225-0.206-0.235-0.245-0.44c-0.062-0.324-0.47-0.653-0.731-0.907
		c-0.256-0.248-0.405-0.572-0.676-0.799c-0.469-0.392-1.162-0.993-1.184-1.56c-0.023-0.587,0.226-1.519-0.486-1.96
		c-0.143-0.807-0.514-1.579-0.649-2.382c-0.095-0.559-0.341-1.132-0.496-1.702c-0.177-0.645-0.325-1.178-0.462-1.809
		c-0.142-0.649-0.406-1.338-0.698-1.973c-0.252-0.55-0.365-1.092-0.695-1.597c-0.348-0.529-1.026-0.885-1.15-1.483
		c-0.125-0.606-0.402-1.332-0.909-1.819c-0.223-0.214-0.386-0.308-0.514-0.601c-0.117-0.264-0.114-0.394-0.134-0.711
		c-0.006-0.108,0.122-1.289,0.012-1.299C48.403-1.323,48.247-1.56,48.293-1.646C50.041-1.646,48.257-1.58,48.293-1.646z"/>
	<path fill-rule="evenodd" clip-rule="evenodd" d="M50.071,63.398c0.083,0.284,0.008,0.901-0.073,1.186
		c-0.192,0.67-0.277,1.349-0.262,2.034c0.026,1.097,0.043,2.139,0.026,3.229c-0.003,0.242,0.008,0.57-0.463,0.45
		c-0.386-0.1-0.307-0.556-0.305-0.81c0.004-0.599,0.146-1.219-0.02-1.811c-0.129-0.455-0.282-0.883-0.309-1.341
		s0.018-1.157-0.225-1.577c-0.07-0.261,0.08-0.512,0.078-0.771c-0.004-0.306-0.068-0.575-0.019-0.874
		c0.089-0.534,0.061-1.109,0.099-1.641c0.037-0.518,0.264-1.034,0.375-1.541c0.062-0.282,0.025-0.576,0.133-0.852
		c0.088-0.221,0.02-0.905,0.323-0.881c0.296,0.024,0.311,0.262,0.26,0.449c-0.049,0.181,0.069,0.338,0.084,0.514
		c0.085,0.432,0.013,0.938-0.119,1.361c0.039,0.117,0.232,1.587,0.266,1.577C49.902,62.106,50,63.262,50.071,63.398
		C50.076,63.416,49.91,63.084,50.071,63.398z"/>
	<path fill-rule="evenodd" clip-rule="evenodd" d="M48.028,55.477c-0.547,0.064-0.482-0.339-0.428-0.611
		c0.072-0.355-0.063-0.505-0.117-0.835c-0.034-0.211-0.186-0.272-0.212-0.449c-0.046-0.307,0.013-0.629-0.067-0.887
		c-0.249-0.815-0.369-1.632-0.632-2.446c-0.138-0.42-0.426-0.727-0.649-1.122c-0.214-0.377-0.375-0.773-0.609-1.126
		c-0.181-0.271-0.361-0.628-0.598-0.899c-0.243-0.278-0.594-0.497-0.81-0.79c-0.343-0.462-0.834-1.29-0.796-1.785
		c-0.195-0.357-0.238-0.753-0.317-1.131c-0.052-0.24-0.289-0.767-0.156-0.998c-0.169-0.698-0.43-1.315-0.573-2.002
		c-0.162-0.773-0.269-1.51-0.407-2.268c-0.123-0.677-0.155-1.29-0.42-1.94c-0.585-1.431-0.683-3.01-1.073-4.515
		c-0.104-0.396-0.294-0.775-0.391-1.172c-0.073-0.298-0.292-0.724-0.188-1.015c0.106-0.298,0.099-0.58,0.135-0.884
		c0.042-0.351,0.217-0.629,0.245-0.965c0.039-0.458,1.21-0.083,0.776,0.649c0.161,0.361-0.179,0.745,0.06,1.097
		c0.027,0.499,0.133,0.992,0.291,1.477c0.678,2.066,1.494,4.138,2.833,5.982c1.266,1.742,1.68,3.793,2.97,5.535
		c0.665,0.897,0.819,1.912,1.064,2.935c0.289,1.205,0.587,2.263,0.562,3.505c-0.012,0.582,0.03,1.172-0.016,1.753
		c-0.039,0.481-0.137,0.993-0.121,1.482c0.006,0.021-0.092,0.417-0.094,0.522c-0.006,0.309-0.014,0.618-0.03,0.927
		C48.225,54.162,48.157,54.822,48.028,55.477C47.803,55.502,48.241,54.405,48.028,55.477z"/>
	<path fill-rule="evenodd" clip-rule="evenodd" d="M28.092,100.989c-0.76,0-1.52,0-2.28,0c0.116-0.267,0.239-0.53,0.266-0.812
		c-0.229,0.278-0.463,0.557-0.739,0.812c-0.464,0-0.928,0-1.394,0c0.518-1.56,1.806-2.852,2.433-4.356
		c0.105-0.252,0.195-0.793,0.648-0.844c-0.015-0.457,0.005-0.914-0.016-1.37c-0.012-0.234-0.275-0.924,0.324-0.856
		c0.317,0.036,0.219,0.359,0.402,0.492c-0.042,0,0.052,1.019,0.049,1.258c-0.003,0.293-0.016,0.586-0.027,0.879
		c-0.007,0.166-0.131,0.645-0.11,0.717c0.037-0.007,0.067,0.001,0.089,0.021c-0.305-0.008,0.007,1.011,0.026,1.17
		C27.878,99.061,28.174,100.02,28.092,100.989C27.333,100.989,28.178,99.968,28.092,100.989z"/>
	<path fill-rule="evenodd" clip-rule="evenodd" d="M2.204,35.726c-0.003,0.035,0.015,0.083-0.029,0.088
		C2.071,35.837,2.095,35.68,2.204,35.726z"/>
	<path fill-rule="evenodd" clip-rule="evenodd" d="M1.079,48.125c0.196,0.524-0.477,1.135-0.475,1.668
		c-0.17-0.197,0.125-0.509,0.194-0.699C0.901,48.811,1.079,48.414,1.079,48.125C1.17,48.369,1.079,48.14,1.079,48.125z"/>
	<path fill-rule="evenodd" clip-rule="evenodd" d="M-1.083,27.936c-0.114-0.011-0.154-0.191-0.089-0.263
		C-1.062,27.719-1.066,27.852-1.083,27.936z"/>
	<path fill-rule="evenodd" clip-rule="evenodd" d="M-2.032,83.873c0-1.284,0-2.568,0-3.852c0-0.686,0-1.369,0-2.054
		c0-0.343,0-0.687,0-1.028c0-0.173,0.104-0.657,0.03-0.791c0.325,0.597,0.438,1.345,0.622,1.975c0.103,0.358,0.192,0.65,0.113,0.999
		c-0.052,0.233-0.006,0.602,0.035,0.8c0.039,0.193-0.088,0.549-0.09,0.77c-0.003,0.458-0.04,0.916-0.124,1.37
		c-0.061,0.329-0.146,0.655-0.261,0.978C-1.989,83.262-1.852,83.617-2.032,83.873C-2.032,81.305-1.88,83.657-2.032,83.873z"/>
	<path fill-rule="evenodd" clip-rule="evenodd" d="M86.801,100.989c-0.489,0-1.106,0.171-1.097-0.298
		c0.004-0.221,0.003-0.452-0.036-0.657c-0.151-0.786-0.329-1.612-0.537-2.408c-0.039-0.15-0.081-0.302-0.127-0.453
		c-0.095-0.315-0.073-0.181-0.395-0.265c-0.291-0.235-0.477-0.529-0.659-0.814c-0.3-0.47-0.87-1.265-1.474-1.556
		c-0.022,0.386,0.082,0.763,0.179,1.14c0.09,0.351,0,0.673,0.068,1.021c0.139,0.709,0.252,1.414,0.402,2.122
		c0.151,0.706,0.287,1.475-0.027,2.168c-1.287,0-2.573,0-3.86,0c-0.233,0-0.468,0-0.702,0c0-0.008-0.161-0.149-0.178-0.153
		c-0.099-0.263-0.251-0.513-0.364-0.771c-0.131-0.298-0.193-0.604-0.169-0.918c0.001-0.002-0.213-0.384-0.235-0.444
		c-0.114-0.309-0.224-0.622-0.417-0.909c-0.194-0.29-0.448-0.466-0.577-0.786c-0.258-0.641-0.384-1.396-0.991-1.921
		c-0.047,0.384,0.219,0.741,0.267,1.075c0.186,0.515,0.021,0.97,0.118,1.471c0.181,0.923,0.484,1.854,0.529,2.798
		c0.001,0.049,0.1,0.278,0.093,0.34c0,0.382-0.615,0.22-1.049,0.22c-0.815,0-1.631,0-2.446,0c-1.748,0-3.495,0-5.243,0
		c-0.815,0-1.631,0-2.446,0c-0.35,0-0.699,0-1.049,0c-0.08-0.296-0.193-0.585-0.299-0.876c-0.165-0.458-0.168-0.922-0.494-1.343
		c-0.188-0.241-0.278-0.464-0.43-0.718c-0.154-0.259-0.399-0.285-0.673-0.442c-0.456-0.264-0.529-0.769-0.562-1.163
		c-0.275-0.466-0.427-0.965-0.474-1.471c-0.113-0.087-0.072-0.281,0-0.373c-0.171-0.159-0.131-0.397-0.212-0.581
		c-0.117-0.262,0.065-0.859-0.381-1.021c-0.102,0.679-0.087,1.383-0.335,2.045c-0.19,0.507-0.89,1.236-0.673,1.773
		c-0.304,0.669-0.444,1.367-0.621,2.058c-0.177,0.687-0.496,1.38-0.444,2.112c-1.215,0-2.43,0-3.644,0
		c0.207-0.374,0.08-0.813,0.161-1.205c0.056-0.269-0.201-0.767-0.161-0.945c0.004-0.04,0.034-0.055,0.089-0.044
		c-0.37-0.079,0.27-1.871-0.089-1.887c0.189-0.093,0.082-0.658-0.029-0.825c-0.243-0.365-0.399-0.759-0.489-1.159
		c-0.133-0.594-0.026-1.186-0.035-1.811c-0.022-1.647-0.198-3.338-0.549-4.91c-0.165-0.745,0.045-1.486-0.091-2.245
		c-0.061-0.331-0.324-0.483-0.424-0.8c-0.108-0.342-0.286-0.645-0.408-0.973c-0.272-0.735-0.636-1.355-0.569-2.114
		c0.07-0.804,0.104-1.622,0.121-2.426c0.019-0.803,0.145-1.692,0.386-2.483c0.22-0.72,0.676-1.421,0.948-2.171
		c0.266-0.729,0.426-1.462,0.519-2.242c0.11-0.928-0.183-1.87,0.088-2.789c0.118-0.401,0.049-0.807,0.188-1.214
		c0.114-0.335-0.08-0.577-0.095-0.901c-0.038-0.865,0.179-1.727,0.297-2.585c0.045-0.326,0.531-1.502,0.144-1.773
		c-0.062-0.302-0.116-0.642-0.178-0.9c-0.074-0.521-0.059-1.044,0.007-1.565c0.051-0.409,0.123-0.815,0.156-1.226
		c0.012-0.14,0.004-0.562,0.015-0.61c-0.128-0.598-0.267-1.282-0.178-1.888c-0.17-0.179,0.018-0.568,0.036-0.765
		c0.037-0.389,0.028-0.779-0.007-1.166c-0.214-0.41-0.356-0.838-0.476-1.268c-0.09-0.323-0.35-0.867-0.354-1.146
		c-0.759-1.773-0.592-3.582-0.67-5.43c-0.07-1.655-0.554-3.49,0.262-5.087c0.277-0.543,0.605-1.215,0.734-1.784
		c0.061-0.266-0.001-0.893,0.206-1.107c0.519-0.102,0.519,0.496,0.534,0.724c0.023,0.36-0.089,0.653-0.089,0.988
		c0.043,0.305,0.163,0.676,0.089,1.031c0.017,0.028-0.139,0.504-0.143,0.629c-0.005,0.179,0.15,0.264,0.158,0.443
		c0.007,0.164-0.042,0.419,0.132,0.551c-0.051,0.162,0.027,0.555,0.095,0.712c0.168,0.396,0.191,0.822,0.386,1.204
		c0.219,0.429,0.097,0.909,0.299,1.353c0.226,0.499,0.327,0.904,0.331,1.431c0.007,0.782,0.371,1.474,0.339,2.23
		c-0.018,0.417-0.078,0.76,0.038,1.171c0.088,0.31,0.329,0.545,0.449,0.835c0.296,0.719,0.649,1.525,0.755,2.265
		c0.052,0.368,0.209,1.112-0.114,1.439c0,0.312,0.104,0.597,0.092,0.909c-0.011,0.26-0.104,0.65,0.146,0.868
		c-0.184,0.564-0.359,1.481-0.178,2.106c-0.165,0.286,0.104,0.577,0.127,0.866c0.033,0.405-0.088,0.807-0.117,1.21
		c-0.055,0.735,0.491,1.258,0.407,2.025c-0.046,0.424-0.114,0.834-0.025,1.259c0.089,0.423,0.049,0.839,0.162,1.266
		c0.209,0.794-0.106,1.682,0.025,2.51c0.08,0.503,0.032,1.269-0.15,1.722c-0.106,0.267-0.222,0.602-0.307,0.827
		c-0.061,0.161-0.077,0.53-0.122,0.67c-0.201,0.608-0.124,1.231-0.07,1.843c0.037,0.422-0.103,0.866,0.073,1.278
		c0.185,0.433,0.362,0.84,0.657,1.234c0.479,0.643,0.207,1.378,0.505,2.054c0.158,0.359,0.184,0.768,0.344,1.145
		c0.199,0.471,0.493,0.915,0.723,1.377c0.314,0.632,0.803,1.284,1.084,1.876c0.162,0.344,0.348,0.713,0.727,0.959
		c0.438,0.287,0.426,0.71,0.63,1.1c0.283,0.54,0.597,1.031,0.877,1.59c0.284,0.564,0.374,1.153,0.701,1.696
		c0.283,0.471,0.681,1.061,0.622,1.58c0.295,0.688,0.669,1.362,0.731,2.091c0.032,0.395,0.155,0.777,0.347,1.175
		c0.307,0.641,0.26,1.413,0.663,2.007c0.222,0.325,0.311,0.689,0.412,1.043c0.086,0.296,0.379,0.37,0.446,0.655
		c0.128,0.532,0.507,1.146,0.866,1.61c0.345-0.359,0.273-0.912,0.604-1.265c0.432-0.46,0.308-1.245,0.483-1.818
		c0.168-0.548,0.1-1.26,0.423-1.768c0.015-0.293,0.021-0.586,0.034-0.878c0.004-0.099,0.117-0.512,0.113-0.526
		c-0.004-0.039-0.034-0.055-0.089-0.044c0.18,0.006,0.197-2.231,0.231-2.457c0.123-0.818-0.115-1.441-0.313-2.207
		c-0.205-0.792-0.69-1.528-0.807-2.336c0.014-0.023-0.182-0.629-0.193-0.752c-0.051-0.533-0.042-1.068-0.061-1.602
		c-0.025-0.696-0.09-1.293-0.172-1.993c-0.109-0.941,0.126-1.833,0.116-2.761c-0.008-0.669,0.34-1.484-0.016-2.131
		c0.233-0.091-0.305-1.598-0.235-1.831c0.104-0.351-0.059-0.826-0.055-1.21c0.005-0.439,0.071-0.855,0.227-1.278
		c0.125-0.34,0.081-0.768,0.3-1.08c0.248-0.314,0.331-0.73,0.413-1.083c0.117-0.504-0.033-1.157,0.093-1.725
		c0.114-0.514,0.22-1.147,0.25-1.714c0.039-0.732,0.153-1.523,0.153-2.215c0-0.588-0.153-1.277-0.273-1.902
		c-0.109-0.577-0.08-1.131-0.148-1.681c-0.037-0.292,0.243-1.179,0.023-1.345c-0.067-0.051,0.056-0.146,0.053-0.186
		c-0.047-0.229-0.149-0.449-0.228-0.673c-0.135-0.383-0.091-0.781-0.188-1.171c-0.099-0.395-0.058-0.838,0.06-1.229
		c0.044-0.523-0.143-1.035-0.119-1.558c0.015-0.024-0.137-0.619-0.141-0.744c-0.02-0.536,0.085-1.115-0.065-1.64
		c-0.125-0.435-0.102-0.884-0.149-1.325c-0.016-0.154-0.184-0.346-0.089-0.527c-0.23-0.271-0.233-0.658-0.257-0.967
		c-0.013-0.165,0.112-0.287,0.363-0.204c0.353,0.117,0.385,0.292,0.448,0.551c0.068,0.272,0.757,2.75,0.689,2.768
		c-0.19,0.054,0.786,2.225,0.782,2.438c-0.013,0.677,0.222,1.444,0.373,2.041c0.01,0.055,0.013,0.22,0.035,0.39
		c0.051,0.401,0.17,0.795,0.253,1.21c0.095,0.478,0.178,0.969,0.306,1.439c0.055,0.202,0.279,1.327,0.295,1.327
		c0.005,0.041,0.154,0.383,0.237,0.461c0.042,0.293,0.241,0.602,0.219,0.881c-0.011,0.134,0.219,0.222,0.119,0.336
		c-0.059,0.067-0.093,0.217,0.106,0.21c-0.1,0.063-0.058,0.233-0.06,0.242c0.003,0.072,0.097-0.038,0.089,0.021
		c-0.004,0.04-0.034,0.055-0.089,0.044c0.344,0.103,0.166,1.257,0.416,1.271c0.076,0.005,0.151,0.946,0.14,1.046
		c-0.011,0.09,0.132,0.912,0.114,0.922c0.073-0.038,0.683,1.759,0.71,1.763c0.274,0.032,0.58,2.272,0.642,2.54
		c0.089,0.384,0.182,0.766,0.289,1.148c0.048,0.226,0.184,0.681,0.355,0.921c0.044,0.477,0.114,0.95,0.151,1.427
		c0.033,0.406-0.131,0.96,0.022,1.344c0.121,0.301-0.178,0.621,0.033,0.917c-0.053,0.475-0.111,0.951-0.156,1.428
		c-0.096,1.007-0.13,2.021,0.038,3.026c0.109,0.055,0.127-0.173,0.236-0.176c-0.061,0.11-0.141,0.212-0.236,0.308
		c0.005,0.217-0.007,0.433-0.038,0.647c-0.053,0.361-0.163,0.717-0.227,1.078c-0.049,0.276-0.019,0.52-0.051,0.812
		c-0.031,0.284-0.24,0.485-0.239,0.823c0.003,0.763,0.288,1.529,0.439,2.298c0.157,0.797,0.532,1.459,0.868,2.179
		c0.688,1.48,1.74,2.806,2.373,4.332c0.054,0.129,0.29,1.103,0.394,1.111c0.21,0.017,0.396,0.906,0.435,1.058
		c0.232,0.9,0.264,1.764,0.756,2.625c0.211-0.048,0.293-0.445,0.332-0.566c0.127-0.393,0.438-0.699,0.461-1.116
		c0.044-0.78,0.233-1.551,0.271-2.346c0.074-1.59-0.371-2.998-0.531-4.556c-0.137-1.326,0.244-2.798,0.722-4.095
		c0.252-0.685,0.341-1.246,0.489-1.979c0.053-0.262,0.46-2.277,0.114-2.354c-0.332-0.075,0.285-1.828,0.315-2.081
		c0.104-0.87-0.066-1.643-0.21-2.501c-0.231-1.377-0.441-2.763-0.705-4.176c-0.291-1.562-0.876-3.043-1.411-4.556
		c-0.313-0.888-0.704-1.717-1.3-2.515c-0.259-0.347-0.993-1.184-1.006-1.482c-0.004-0.032,0.016-0.047,0.06-0.044
		c-0.029-0.107-0.295-0.443-0.386-0.615c-0.027,0.019-0.037,0.039-0.029,0.067c0.007-0.045-0.055-0.33-0.119-0.176
		c-0.008-0.154-0.058-0.301-0.147-0.438c-0.034,0.054-0.024,0.105,0.029,0.153c-0.145-0.107-0.243-0.269-0.302-0.411
		c-0.053-0.11-0.061-0.222-0.023-0.335c-0.105,0.068-0.146,0.039-0.119-0.089c0.028,0.018,0.038,0.039,0.029,0.066
		c-0.001,0.001-0.097-0.292-0.097-0.295c-0.145-0.099-0.185-0.217-0.118-0.353c0,0.004-0.141-0.522-0.141-0.23
		c0.026-0.27-0.175-0.51-0.236-0.768c-0.032,0.05-0.032,0.102,0,0.153c-0.12-0.064-0.252-0.376-0.179-0.433
		c0.074-0.059-0.409-0.946-0.455-1.065c-0.317-0.828-0.812-1.575-1.177-2.401c-0.295-0.667-0.723-1.312-1.01-1.998
		c-0.326-0.781-0.511-1.564-0.616-2.406c-0.057-0.458,0.009-0.918-0.063-1.305c-0.128-0.683-0.199-1.411-0.196-2.102
		c0.003-0.793-0.137-1.684,0.054-2.466c0.204-0.842-0.037-1.694,0.043-2.545c0.044-0.475,0.104-0.95,0.074-1.426
		c-0.021-0.351-0.197-0.645-0.22-0.993c-0.03-0.46-0.262-0.795-0.401-1.246c-0.186-0.596-0.367-1.37-0.471-2.035
		c-0.107-0.687-0.488-1.33-0.516-2.022c-0.033-0.824-0.501-1.596-0.762-2.395c-0.153-0.724-0.397-1.63-0.237-2.414
		c0.079-0.384,0.215-0.805,0.03-1.185c0.087,0.029,0.016-0.444,0.141-0.478c0.243-0.065,0.199-0.816,0.221-1.01
		c0.054-0.476,0.236-0.87,0.206-1.36c-0.062-0.988,0.216-1.867,0.221-2.845c0.002-0.43,0.229-0.889,0.083-1.302
		c-0.161-0.458-0.004-1.021-0.368-1.433c-0.37,0.648-0.387,1.303-0.622,1.98c-0.293,0.842-0.416,1.683-0.537,2.548
		c-0.099,0.709-0.277,1.3-0.337,2.03c-0.066,0.824,0.156,1.615,0.251,2.359c0.119,0.935,0.261,1.876,0.163,2.816
		c-0.091,0.87-0.449,1.644-0.639,2.521c-0.361,1.675-0.434,3.386-0.713,5.007c-0.123,0.71-0.041,1.544-0.029,2.286
		c0.015,0.904-0.085,1.799-0.106,2.702c-0.011,0.424-0.035,0.848-0.066,1.271c-0.387,0.077-1.044,0.235-1.079-0.223
		c-0.07-0.88-0.412-1.677-0.354-2.577c0.051-0.776-0.088-1.537-0.044-2.31c0.057-1.01,0.132-2.01,0.155-3.021
		c0.021-0.937,0.25-1.862,0.048-2.798c0.069-0.375-0.152-0.766-0.178-1.141c-0.016,0.046-0.112-0.552-0.086-0.28
		c-0.029-0.294-0.032-0.59-0.025-0.885c0.019-0.777,0.009-1.571,0.114-2.344c0.131-0.969,0.408-1.94,0.275-2.919
		c-0.118-0.873-0.352-1.712-0.368-2.594c-0.017-0.936,0.052-1.872,0.23-2.798c0.163-0.842,0.175-1.843,0.719-2.607
		c0.415-0.583,0.814-1.149,1.16-1.743c0.404-0.695,0.894-1.207,1.104-1.942c0.126-0.438,0.224-0.881,0.4-1.31
		c-0.105-0.436-0.176-0.876-0.229-1.317c-0.114-0.918-0.158-1.84-0.251-2.76c-0.021-0.215-0.333-1.83-0.386-1.809
		c0.055-0.022-0.636-1.427-0.729-1.538c-0.16-0.187-0.294-0.434-0.329-0.673c-0.283-0.404-0.632-0.778-0.972-1.156
		c-0.327-0.365-0.437-0.738-0.616-1.154c-0.146-0.337-0.1-0.742-0.35-1.052c-0.252-0.311-0.362-0.734-0.397-1.104
		c-0.038-0.412-0.212-0.798-0.222-1.222c-0.018-0.728-0.015-1.438-0.426-2.118c-0.369-0.613-0.796-1.128-1.017-1.763
		c1.876,0,3.751,0,5.628,0c-0.023,0.443-0.059,0.888-0.015,1.331c0.044,0.421,0.295,0.694,0.437,1.084
		c0.092,0.255,0.249,0.482,0.435,0.727c0.269,0.354,0.182,0.743,0.287,1.125c0.191,0.688,0.558,1.422,0.946,2.07
		c0.423,0.708,0.729,1.514,1.26,2.188c0.487,0.617,0.573,1.489,1.123,2.053c-0.014,0.32,0.307,0.563,0.445,0.852
		c0.184,0.385,0.514,0.882,0.443,1.299c-0.047,0.21,0.146,0.711,0.108,1.084c-0.025,0.255-0.088,0.428-0.113,0.724
		c-0.022,0.264,0.05,0.816-0.086,1.039c-0.155,0.254,0.061,0.803,0.079,1.082c0.009,0.132,0.118,0.716,0.101,0.745
		c0.012,0.837,0.172,1.677,0.187,2.5c0.011,0.59,0.217,1.322,0.111,1.88c-0.032,0.172-0.21,0.777-0.074,0.896
		c0.24,0.208-0.348,0.958-0.379,1.145c-0.28,1.708-0.583,3.42-0.79,5.131c-0.08,0.659-0.288,1.457-0.477,2.163
		c-0.065,0.447-0.177,0.889-0.289,1.331c-0.065,0.261-0.385,0.974-0.333,1.149c0.036-0.006,0.065,0.001,0.089,0.021
		c-0.223,0.098-0.116,0.439-0.147,0.593c-0.094,0.454-0.162,0.916-0.326,1.36c-0.02,0.557,0.246,1.059,0.268,1.614
		c0.013,0.324,0.001,0.66,0.117,0.975c0.295,0.108,0.093,0.401,0.148,0.527c0.225,0.345,0.183,0.83,0.305,1.209
		c0.122,0.381,0.277,0.756,0.388,1.14c0.348,1.211,0.655,2.56,1.508,3.692c0.212,0.281,0.434,0.558,0.626,0.847
		c0.118,0.179,0.227,0.362,0.315,0.551c0.126,0.265,0.181,0.189,0.442,0.352c0.058,0.204,0.153,1.108,0.266,1.12
		c-0.334-0.019,0.285,2.291,0.312,2.417c0.093,0.418,0.231,0.92,0.311,1.291c-0.013,0.171,0.303,0.996,0.562,1.031
		c0.16-0.755,0.066-1.656-0.041-2.397c-0.017-0.115-0.076-1.018,0.037-1.05c0.203-0.058-0.037-0.776,0.109-0.954
		c0.164-0.201,0.212-0.959,0.161-1.172c0.019-0.224-0.314-1.182,0.38-0.852c0.698,0.332,0.203,1.739,0.164,2.263
		c-0.066,0.873,0.079,1.733,0.093,2.613c0.011,0.801,0.167,1.491,0.324,2.282c0.134,0.674,0.347,1.726,0.876,2.296
		c-0.067,0.001-0.127-0.014-0.178-0.044c0.088,0.125,0.081,0.272,0.178,0.395c0.15-0.004-0.09-0.133,0.029-0.175
		c0.012,0.074,0.133,0.358,0.148,0.395c0.11,0.257,0.526,0.803,0.829,1.054c0.087,0.196,0.576,1.227,0.651,1.207
		c-0.018,0.024-0.045,0.033-0.084,0.024c-0.066,0.02,0.168,0.174,0.173,0.194c-0.007,0.155,0.114,0.403,0.207,0.636
		c0.299-0.627,0.146-1.491,0.06-2.128c-0.11-0.81,0.066-1.623-0.397-2.387c-0.218-0.36,0.096-0.74,0.519-0.34
		c0.302,0.287,0.46,0.645,0.589,0.991c0.262,0.706,0.393,1.305,0.453,2.028c0.057,0.659,0.151,1.293,0.151,1.954
		c0,0.363-0.086,0.737-0.059,1.101c0.028,0.38,0.205,0.772,0.122,1.154c-0.146,0.673,0.111,1.522,0.233,2.206
		c0.146,0.821,0.224,1.74,0.355,2.598c0.259,1.667,0.634,3.249,0.558,4.914c-0.037,0.823-0.13,1.781,0.112,2.59
		c-0.022,0.256-0.154,0.354-0.087,0.616c0.06,0.231,0.104,0.465,0.131,0.7c0.013,0.117-0.071,0.708,0.021,0.778
		c0.035,0.027,0.043,0.426,0.023,0.435c-0.008,0.003,0.093,0.736,0.093,0.825c0.012,0.915-0.023,1.883-0.182,2.791
		c-0.014,0.075-0.503,1.292-0.416,1.318c0.001,0-0.291,1.612-0.303,1.855c-0.039,0.776-0.263,1.513-0.43,2.277
		c-0.163,0.752-0.169,1.452-0.244,2.219c-0.171,1.754-0.531,3.64,0.341,5.295c0.852,1.615,1.565,3.289,2.6,4.864
		C87.384,97.659,86.698,99.284,86.801,100.989C86.455,100.989,86.736,99.923,86.801,100.989z M59.165,87.559
		c-0.249-0.156-0.334-0.532-0.392-0.751c-0.077-0.294-0.28-0.553-0.422-0.831c-0.094-0.188-0.875-1.443-1.112-1.424
		c0.064,0.559,0.184,1.112,0.313,1.663c0.06,0.251,0.112,0.944,0.238,1.042c-0.025,0.013-0.052,0.025-0.077,0.038
		c0.045-0.008,0.085-0.001,0.118,0.022c-0.047,0.02-0.097,0.033-0.148,0.043c0.078,0.216,0.117,0.437,0.185,0.653
		c0.067,0.22,0.247,0.562,0.407,0.761c0.189,0.232,0.667,0.441,0.751,0.035C59.111,88.396,59.193,87.98,59.165,87.559
		C58.967,87.435,59.202,88.113,59.165,87.559z M58.661,89.096c-0.049,0.064,0.004,0.314,0.178,0.263
		C58.957,89.243,58.911,89.039,58.661,89.096C58.572,89.214,58.804,89.062,58.661,89.096z"/>
	<path fill-rule="evenodd" clip-rule="evenodd" d="M37.393,100.989c-0.101-0.694-0.009-1.339,0.237-1.997
		c-0.117-0.065,0.065-0.713,0.089-0.837c0.092-0.494,0.264-1.008,0.455-1.485c0.26-0.647,0.762-1.272,1.169-1.908
		c0.568-0.89,1.189-1.716,1.509-2.68c0.303-0.911,0.272-1.8,0.392-2.723c0.028-0.223,0.039-0.316,0.055-0.527
		c0.03-0.419,0.199-0.894,0.181-1.302c-0.033-0.67,0.335-1.564,0.45-2.296c0.133-0.844,0.397-1.771,0.234-2.608
		c-0.148-0.77-0.282-1.536-0.591-2.286c-0.358-0.872,0.308-1.76,0.212-2.643c-0.089-0.808-0.517-1.601-0.688-2.401
		c-0.196-0.912-0.388-1.847-0.738-2.737c-0.328-0.827-0.787-1.66-1.009-2.503c-0.104-0.391-0.245-0.78-0.326-1.171
		c-0.055-0.264-0.256-0.631-0.271-0.932c-0.021-0.405,0.204-0.79,0.093-1.197c-0.113-0.343-0.133-0.72-0.09-1.071
		c0.08-0.668,0.192-1.676,0.59-2.217c0.967-1.317,0.492-2.896,0.632-4.319c0.042-0.446-0.124-0.897-0.06-1.333
		c0.039-0.268,0.047-0.606-0.014-0.868c-0.188-0.809-0.619-1.624-0.897-2.418c-0.147-0.42-0.892-4.244-0.113-4.176
		c0.51,0.045,0.258,1.283,0.318,1.585c0.073,0.36,0.238,0.715,0.338,1.07c0.072,0.257,0.25,0.554,0.215,0.756
		c0.095,0.026,0.023-0.071,0.119-0.044c-0.01,0.04-0.03,0.076-0.061,0.109c0.263,0.073,0.235,0.482,0.389,0.697
		c0.257,0.361,0.411,0.694,0.619,1.036c-0.055-0.01-0.085,0.004-0.089,0.045c0.118-0.01,0.369,0.51,0.385,0.569
		c-0.022-0.022-0.051-0.037-0.089-0.043c0.09,0.073,0.154,0.158,0.194,0.253c0.087,0.199,0.172,0.124,0.32,0.285
		c0.186,0.2,0.112,0.518,0.345,0.69c-0.031-0.013-0.061-0.013-0.089,0c0.291,0.586,1.018,1.173,1.466,1.707
		c0.364,0.435,0.75,1.023,0.917,1.558c0.179,0.576,0.339,1.092,0.437,1.681c0.136,0.82-0.047,1.739-0.154,2.56
		c0.082,0.363-0.351,1.123-0.443,1.559c0.175,0.167,0.068,0.718,0.014,0.896c-0.128,0.415,0.835,1.164,0.046,1.343
		c-0.689-0.58-1.059-1.316-1.63-1.953c0,1.641,0.59,3.198,1.292,4.745c0.508,1.113,1.169,2.146,1.47,3.379
		c0.321,1.312,1.041,2.564,1.782,3.766c0.215,0.348,0.465,0.604,0.583,0.982c0.141,0.448,0.282,0.862,0.324,1.32
		c0.036,0.393,0.1,0.784,0.206,1.169c-0.1,0.062-0.091,0.489-0.059,0.57c0.236,0.745,0.012,1.639,0.036,2.405
		c0.013,0.435-0.05,0.898-0.036,1.326c0.01,0.292,0.151,0.583,0.256,0.862c0.116,0.312-0.002,0.413,0.096,0.729
		c0.115,0.376,0.116,0.764,0.188,1.143c0.072,0.379,0.24,0.714,0.201,1.106c0.405,1.428,1.181,2.948,0.814,4.432
		c-0.041,0.165-0.117,0.742-0.318,0.797c-0.172,0.045-0.028,0.924-0.021,1.048c-0.017,0.07,0.098,0.434,0.043,0.617
		c-0.069,0.233-0.02,0.568-0.043,0.699c0.316,0.008,0.389,1.022,0.385,1.185c0.389,0.23,0.225,0.714,0.237,0.987
		c0.091,0.252,0.061,0.521,0.017,0.776c-0.066,0.379-0.513,0.233-0.958,0.233c-0.497,0-0.319-0.301-0.321-0.613
		c-0.004-0.33-0.002-0.67-0.13-0.988c-0.271,0.162-0.339,0.449-0.372,0.689c-0.025,0.184-0.031,0.366-0.041,0.55
		c-0.017,0.296,0.102,0.362-0.357,0.362c-1.194,0-2.39,0-3.584,0c-0.078-0.416,0.097-0.978,0.082-1.417
		c-0.019-0.595-0.111-1.17-0.025-1.765c0.067-0.48,0.021-0.912-0.049-1.388c-0.062-0.422,0.017-0.921-0.244-1.312
		c-0.619,0.327-0.771,1.23-1.067,1.724c-0.376,0.627-0.626,1.351-0.718,2.031c-0.051,0.38-0.045,0.762-0.051,1.143
		c-0.004,0.244-0.011,0.489-0.032,0.735c-0.034,0.382-0.245,0.248-0.688,0.248C40.034,100.989,38.714,100.989,37.393,100.989
		C37.328,100.536,38.934,100.989,37.393,100.989z"/>
	<path fill-rule="evenodd" clip-rule="evenodd" d="M20.688-1.646C20.625-1.407,20.75-1.2,20.697-0.953
		c-0.104,0.49-0.071,0.99-0.187,1.479c-0.283,1.197-0.13,2.374-0.09,3.581c0.014,0.441,0.246,0.854,0.237,1.291
		c0.237,0.327,0.021,0.613,0.094,0.918c0.099,0.414,0.354,0.786,0.396,1.237c0.051,0.543-0.078,1.14,0.116,1.666
		c0.173,0.469,0.36,0.935,0.472,1.414c0.104,0.449,0.419,0.644,0.769,1.005c0.265,0.273,0.347,0.627,0.513,0.933
		c0.107,0.198,0.564,1.271,0.747,1.333c0.287,0.098,0.422,1.269,0.491,1.516c0.164,0.586,0.32,1.173,0.46,1.762
		c0.003,0.236,0.239,0.795,0.359,1.068c0.124,0.281,0.063,0.775,0.322,0.995c-0.064-0.011-0.104-0.04-0.118-0.088
		c0.271,0.569,0.312,1.211,0.545,1.761c0.268,0.63,0.379,1.411,0.53,2.093c0.141,0.641,0.384,1.239,0.48,1.854
		c0.13,0.838,0.272,1.678,0.49,2.507c0.328,1.253,0.889,2.581,1.532,3.753c0.564,1.027,1.725,2.048,1.897,3.12
		c0.054,0.338,0.068,0.679,0.094,1.019c0.174,0.306,0.329,0.617,0.446,0.938c0.223,0.604,0.31,1.132,0.407,1.724
		c0.113,0.684,0.126,1.415,0.282,2.1c0.152,0.659,0.355,1.261,0.134,1.972c-0.097,0.31-0.256,1.712-0.726,1.678
		c-0.305-0.022-0.448-0.212-0.367-0.423c0.146-0.378,0.042-0.803,0.012-1.187c-0.12-1.505-0.349-3.041-1.107-4.475
		c-0.189,0.752-0.061,1.527-0.188,2.285c-0.04,0.238-0.155,0.449-0.216,0.722c-0.055,0.247,0.011,0.262,0.167,0.46
		c0.057,0.102-0.118,0.026-0.089,0.11c0.009,0.779-0.196,1.498-0.08,2.291c0.093,0.632-0.012,1.35,0.021,1.988
		c0.041,0.805,0.045,1.611,0.049,2.416c0.001,0.379,0.002,0.758,0.004,1.137c0.001,0.126,0.109,0.702,0.095,0.726
		c0.184,1.647,0.398,3.335,0.771,4.963c0.272,1.189,0.691,2.295,0.722,3.541c0.026,1.188,0.15,2.239,0.188,3.444
		c0.053,1.752,0.076,3.446-0.229,5.19c-0.136,0.772-0.216,1.494-0.229,2.275c-0.007,0.363-0.041,0.729-0.1,1.089
		c-0.04,0.244-0.003,0.812-0.234,1.003c-0.101-0.005,0.352,0.767,0.375,0.919c0.102,0.682-0.054,1.269,0.242,1.946
		c0.23,0.529,0.407,1.034,0.519,1.56c0.135,0.631,0.631,1.155,0.819,1.764c0.005,0.495,0.207,1.148,0.21,1.703
		c0.002,0.727-0.127,1.453-0.12,2.181c-0.022-0.095-0.132,0.465-0.113,0.28c-0.037,0.365-0.053,0.731-0.054,1.098
		c-0.005,0.639,0.051,1.276,0.196,1.87c-0.079-0.043-0.118-0.028-0.119,0.044c0.031,0.078,0.119-0.036,0.119,0
		c0.002,0.022-0.039,0.162-0.039,0.143c0,0-0.018,0.343,0.157,0.406c-0.166-0.027-0.049,1.017,0.148,1.009
		c-0.053,0.011-0.092,0.033-0.119,0.066c0.15-0.002,0.098,0.227,0.208,0.285c-0.151,0.007,0.302,1.485,0.357,1.681
		c0.193,0.679,0.635,1.289,0.8,1.977c0.137,0.562,0.204,1.038,0.198,1.599c-0.004,0.516-0.09,0.962-0.021,1.48
		c0.148,1.097,0.698,2.252,0.918,3.396c0.143,0.734,0.363,1.462,0.489,2.198c0.121,0.711,0.041,1.437,0.07,2.153
		c-1.101,0-2.201,0-3.303,0c-0.375,0-0.933,0.14-1.08-0.159c-0.134-0.271-0.214-0.572-0.271-0.854
		c-0.05-0.242-0.369-1.588-0.583-1.646c-0.081-0.021-0.144-0.899-0.16-1.002c-0.073-0.441-0.032-0.952-0.243-1.365
		c-0.271-0.529-0.454-1.135-0.639-1.657c-0.114-0.325-0.333-0.634-0.355-0.976c-0.333-0.362-0.56-0.735-0.731-1.149
		c-0.544-1.306-0.949-2.521-1.104-3.875c-0.317,0.233-0.333,0.832-0.492,1.137c-0.242,0.463-0.89,0.87-1.41,1.176
		c-0.47,0.275-0.769,0.792-1.048,1.183c-0.412,0.574-0.788,1.161-1.185,1.742c-0.305,0.444-0.587,0.863-0.78,1.343
		c-0.104,0.258-0.177,0.521-0.205,0.789c-0.026,0.267,0.104,0.42,0.143,0.641c0,0.459-0.201,0.871-0.162,1.354
		c0.043,0.538-0.229,1.096-0.216,1.65c0.004,0.129,0.083,1.261-0.153,1.275c-0.146,0.009-0.06,0.294-0.18,0.394
		c-0.446,0-0.896,0-1.342,0c-1.568,0-3.258,0.062-4.76-0.044c0.354-0.971-0.536-1.777-0.544-2.724
		c-0.004-0.464-0.824-1.106-1.175-1.511c-0.057-0.276-0.278-0.517-0.359-0.787c-0.066-0.23-0.089-0.479-0.262-0.685
		c-0.265,0.819-0.652,1.612-0.932,2.429c-0.105,0.306-0.441,0.46-0.609,0.758c-0.114,0.204-0.147,0.867-0.35,0.976
		c-0.171,0.092-0.246,0.789-0.302,0.958c-0.07,0.209-0.137,0.418-0.178,0.63c-0.331,0-0.663,0-0.995,0c-1.327,0-2.653,0-3.98,0
		c0.073-0.986-0.073-2.077-0.267-3.051c-0.867-0.924-0.856-2.16-1.304-3.203c-0.127,0.436-0.054,0.886-0.106,1.326
		c-0.031,0.25-0.183,0.434-0.211,0.696c-0.082,0.773-0.206,1.563-0.235,2.328c-0.012,0.337,0.13,0.702,0.108,1.062
		c-0.016,0.271-0.088,0.576-0.06,0.841c-1.471,0-2.941,0-4.413,0c0.26-0.804,0.266-1.842,0.186-2.656
		c-0.074-0.757-0.073-1.615-0.67-2.248c-0.124-0.134-0.275-0.251-0.39-0.388c-0.204-0.245-0.232-0.07-0.548-0.172
		c0-0.521,0-1.042,0-1.564c0-1.128,0-2.257,0-3.385c0-0.457-0.004-0.86,0.137-1.293c0.113-0.352,0.311-0.667,0.427-1.032
		c0.087-0.276,0.81-2.345,0.54-2.453c-0.208-0.082,0.418-1.74,0.476-1.895c0.329-0.878,0.658-1.647,1.01-2.479
		c0.15-0.353,0.207-0.714,0.343-1.062c0.245-0.226,0.378-0.649,0.492-0.919c0.377-0.889,0.979-1.709,1.419-2.578
		c0.369-0.729,0.65-1.427,0.935-2.2c0.3-0.812,0.371-1.514,0.595-2.329c0.109-0.404,0.263-0.8,0.403-1.198
		c0.046-0.126,0.217-1.033,0.326-1.062c0.159-0.042,0.357-0.89,0.448-1.071c0.155-0.308,0.563-0.77,0.626-1.062
		c-0.009-0.257,0.307-0.545,0.448-0.771c0.243-0.386,0.493-0.591,0.623-1.015c0.253-0.824,0.644-1.617,1.028-2.386
		c0.398-0.799,0.522-1.649,0.643-2.5c0.129-0.915,0.3-1.747,0.445-2.688c0.127-0.82,0.234-1.676,0.545-2.467
		c0.067-0.175-0.1-0.332-0.059-0.505c0.035-0.159,0.078-0.315,0.08-0.479c0.007-0.456,0.071-0.849,0.135-1.312
		c0.125-0.898,0.332-1.789,0.441-2.689c0.113-0.922,0.258-1.948,0.113-2.867c-0.089-0.553,0.154-1.249-0.187-1.781
		c-0.179-0.279-1-1.955-0.288-1.955c0.851,0,0.55,1.291,0.887,1.653c0.266,0.286,0.346,0.733,0.535,1.076
		c0.19,0.342,0.537,0.829,0.563,1.199c0.674,0.702,0.823,1.451,1.102,2.259c0.045,0.128,0.106,0.798,0.344,0.817
		c0.247,0.02,0.182,1.002,0.206,1.139c0.117,0.689-0.189,1.482,0.036,2.149c0.088,0.178-0.11,0.683-0.052,0.934
		c0.097,0.423,0.465,0.725,0.458,1.151c-0.007,0.34-0.093,0.73,0.098,1.052c-0.045,0.41-0.172,0.66-0.036,1.065
		c0.154,0.458,0.288,0.921,0.382,1.389c0.049,0.245,0.088,0.494,0.11,0.742c0.015,0.155-0.285,0.517-0.23,0.577
		c0.141,0.156-0.074,1.051-0.091,1.265c-0.023,0.277-0.131,0.539-0.108,0.818c0.021,0.252,0.114,0.521-0.054,0.757
		c-0.244,0.342-0.159,0.971-0.163,1.354c-0.003,0.424-0.217,1-0.402,1.404c-0.483,1.059-0.698,2.167-0.94,3.281
		c-0.147,0.678-0.336,1.351-0.481,2.029c-0.118,0.561-0.37,1.053-0.557,1.603c-0.168,0.492-0.194,0.979-0.442,1.458
		c-0.197,0.384-0.44,0.834-0.582,1.227c-0.359,0.991-1.371,2.059-2.384,2.774c-0.878,0.621-1.11,1.778-1.44,2.599
		c-0.216,0.536-0.411,1.03-0.578,1.578c-0.048,0.156-0.128,1.298-0.266,1.291c0.021,0.022,0.052,0.029,0.088,0.022
		c0.05,0.17-0.183,0.821-0.262,1.068c-0.189,0.592-0.153,1.245-0.253,1.852c-0.154,0.938-0.208,1.865-0.303,2.807
		c-0.011,0.109-0.199,0.695-0.367,0.682c-0.024,0.252-0.036,0.391-0.037,0.648c0,0.098,0.153,0.323,0.045,0.366
		c-0.01,0.004,0.065,0.471,0.065,0.499C5,93.234,5.142,93.936,5.126,93.96c-0.041,0.068,0.057,0.35,0.174,0.546
		c0.282,0.479,0.343,1.034,0.5,1.541c0.02,0.063,0.209,0.896,0.272,0.902c0.088,0.011,0.267,0.984,0.368,1.122
		c0.118-0.063,0.225-0.615,0.251-0.707c0.132-0.447,0.237-0.84,0.245-1.303c0.013-0.805,0.128-1.509,0.255-2.313
		c0.072-0.462,0.183-0.92,0.322-1.372c0.054-0.178,0.272-1.265,0.487-1.323c0.194-0.051,0.569-0.907,0.668-1.102
		c0.125-0.244,0.341-0.722,0.288-0.987c0.107-0.019,0.092,0.072,0.208,0.044c0.034-0.142-0.178,0.037-0.119-0.132
		c0.078-0.043,0.118-0.028,0.119,0.045c0.151-0.136,0.131-0.332,0.236-0.483c-0.057-0.015-0.116-0.022-0.177-0.022
		c0.163,0.078-0.072,0.335-0.119,0.417c-0.085-0.105,0.106-0.632,0.326-0.614c0.09-0.429,0.189-0.855,0.289-1.282
		c0.227-0.963,0.514-1.878,0.851-2.826c0.29-0.813,0.629-1.544,0.691-2.379c0.064-0.882,0.097-1.708,0.179-2.579
		c0.067-0.703,0.097-1.51,0.566-2.147c-0.043-0.035,0.137-0.518,0.208-0.549c0.046-0.468,0.241-0.908,0.436-1.352
		c0.256-0.585,0.467-1.127,0.809-1.721c0.28-1.016,0.592-2.012,0.854-3.027c0.114-0.437,0.388-0.816,0.528-1.239
		c0.154-0.464,0.268-0.934,0.375-1.404c0.059-0.259,0.038-0.677,0.149-0.874c0.144-0.254,0.315-0.791,0.284-1.07
		c1.023-1.544,1.456-3.257,2.132-4.905c0.169-0.414,0.448-0.799,0.539-1.229c0.094-0.443,0.094-0.896,0.141-1.343
		c0.024-0.223,0.058-0.445,0.121-0.664c0.256-0.051,0.305-0.131,0.35-0.316c0.124-0.51,0.208-1.025,0.239-1.542
		c0.096-1.547,0.036-3.329-0.632-4.817c-0.269-0.595-0.683-1.287-1.211-1.772c-0.177-0.161-0.44-0.218-0.266-0.498
		c0.274-0.442,0.855,0.117,1.066,0.313c0.545,0.511,1.021,0.966,1.288,1.563c0.188,0.421,0.55,0.781,0.83,1.177
		c0.238,0.335,0.327,0.707,0.524,1.05c0.36,0.631,0.35,1.373,0.49,2.046c0.191,0.915,0.028,1.879-0.089,2.803
		c-0.092,0.717-0.077,1.702-0.379,2.354c-0.117,0.251-0.064,0.749-0.093,1.043c-0.042,0.449-0.093,0.902-0.253,1.339
		c-0.008,0.777-0.431,1.543-0.473,2.336c-0.047,0.878-0.196,1.737-0.295,2.607c-0.098,0.859-0.248,1.81-0.515,2.644
		c-0.176,0.55-0.198,1.265-0.33,1.876c-0.16,0.751-0.425,1.436-0.497,2.189c-0.084,0.893-0.287,1.782-0.353,2.672
		c-0.048,0.661-0.279,1.074-0.231,1.755c0.064,0.914,0.379,1.908,0.798,2.771c0.242-0.18,0.331-0.669,0.402-0.902
		c0.112-0.362,0.245-0.718,0.302-1.091c0.114-0.759,0.808-1.272,1.137-1.967c0.74-1.562,1.833-2.916,2.364-4.532
		c0.272,0.073,0.712-1.827,1.066-1.844c0.285-0.767,1.134-1.275,1.604-1.968c0.844-1.243,1.289-2.551,1.681-3.926
		c0.229-0.8,0.109-1.572,0.213-2.377c0.042-0.325,0.533-2.491,0.214-2.62c-0.03-0.01-0.006-0.829,0.011-0.952
		c0.065-0.454,0-1.054-0.136-1.549c-0.217-0.779-0.137-1.588-0.353-2.353c-0.243-0.863-0.496-1.672-0.788-2.535
		c-0.507-1.502-1.048-3.007-1.758-4.442c-0.263-0.53-0.747-0.957-0.995-1.49c-0.216-0.463-0.559-0.675-1.004-1.018
		c-0.443-0.342-0.626-0.633-0.923-1.012c-0.982-1.258-2.609-2.124-3.601-3.405c-0.117-0.25-0.647-0.555-0.859-0.801
		c-0.271-0.316-0.595-0.612-0.853-0.936c-0.231-0.292-0.335-0.634-0.601-0.912c-0.126-0.132-0.293-0.238-0.501-0.292
		c-0.052-0.208-0.32-0.44-0.45-0.607c-0.218-0.281-0.334-0.589-0.517-0.893c-0.177-0.292-0.482-0.523-0.703-0.795
		c-0.607-0.744,0.004-1.591-0.197-2.389c-0.344-1.361-0.426-2.755-0.691-4.119c-0.158-0.816-0.114-1.638-0.281-2.473
		c-0.096-0.472-0.212-0.887-0.197-1.366c0.014-0.443-0.327-0.851-0.415-1.282c-0.135-0.667-0.098-1.922-1.256-2.026
		c-0.41-0.037-0.449,0.39-0.382,0.631c0.132,0.47,0.295,0.835,0.137,1.327c-0.066,0.204-0.215,0.873-0.526,0.957
		c-0.096,0.444-0.032,0.897-0.032,1.345c0,0.918-0.236,2.151-0.732,2.987c-0.262,0.439-0.214,1.216-0.236,1.694
		c-0.004,0.102,0.169,0.736,0.307,0.752c0.114,0.013,0.223,0.749,0.242,0.848c0.039,0.196,0.226,0.678-0.171,0.682
		c-0.436,0.005-0.463-0.2-0.503-0.474c-0.032-0.218-0.54-1.294-0.504-1.295c-0.023-0.125-0.232-0.505-0.307-0.69
		c-0.156-0.394-0.098-0.712-0.142-1.115c-0.079-0.72-0.357-1.418-0.495-2.129c-0.1-0.516-0.248-1.067-0.327-1.625
		c-0.104-0.728-0.044-1.477-0.079-2.208c-0.036-0.743-0.347-1.439-0.513-2.167c-0.146-0.632-0.215-1.189-0.496-1.826
		c-0.26-0.585-0.692-1.053-1.128-1.561c-0.212-0.248-0.475-0.473-0.794-0.647c-0.199-0.108-0.419-0.195-0.65-0.258
		c-0.3-0.083-0.307,0.026-0.579-0.017c-0.019-0.229-1.199-0.304-1.569-0.417c-0.092,0.047,0.131,0.083,0.147,0.088
		c-0.157,0.098-0.308-0.163-0.443-0.176c-0.084,0.019,0.077,0.013,0.029,0.066c-0.119,0.025-0.119-0.069-0.237-0.044
		c0.043-0.029,0.092-0.036,0.148-0.022c-0.394-0.174-0.814-0.312-1.215-0.477c-0.176-0.072-0.874-0.479-0.888-0.401
		c-0.841-0.473-0.563-1.325-0.563-2.023c0-0.771,0-1.54,0-2.31c0-1.541,0-3.08,0-4.621c0.322,0.619-0.033,1.279,0.62,1.814
		c0.318,0.262,0.744,0.437,1.065,0.701c0.354,0.292,0.869,0.563,1.115,0.908c0.153,0.214,0.386,0.52,0.486,0.725
		c0.169,0.416,0.637,0.702,0.86,1.097c0.976,0.599,1.487,1.504,2.458,2.107c-0.159-0.354-0.12-0.739-0.282-1.092
		c-0.181-0.394-0.518-0.78-0.736-1.172C3.09,11.48,2.616,10.628,2.306,9.762c-0.442-1.236-0.287-2.348-0.19-3.596
		C2.103,6.111,2.212,5.658,2.209,5.51C2.203,5.109,2.186,4.693,2.322,4.301c0.16-0.485-0.217-1.108-0.246-1.629
		c-0.044-0.761,0.07-1.314-0.46-2.014C1.372,0.335,1.149,0.009,0.912-0.315c-0.3-0.41-0.733-0.908-0.929-1.331
		c1.289,0,2.577,0,3.867,0c0.234,0,0.468,0,0.702,0c0.445,0,0.664-0.128,0.762,0.231C5.43-0.976,5.69-0.562,5.787-0.125
		c0.15,0.689,0.346,1.202,0.742,1.814c0.374,0.274,0.438,0.615,0.618,0.939C7.32,2.94,7.662,3.109,7.846,3.42
		c0.709,1.193,1.096,2.549,1.822,3.755c0.363,0.604,0.685,1.257,1.097,1.844c0.02,0.802,0.5,1.502,0.851,2.242
		c0.515,1.084,1.126,2.209,1.423,3.329c0.194,0.727,0.527,1.508,0.935,2.184c0.108,0.179,0.23,0.354,0.375,0.519
		c0.22,0.032,0.403,0.118,0.556,0.236c0.326,0.25,0.527,0.559,0.825,0.825c1.178,1.058,0.989,2.523,2.233,3.569
		c0.864,1.411,1.948,2.722,2.873,4.104c0.138-0.375-0.18-0.887-0.284-1.252c-0.124-0.434-0.234-0.876-0.488-1.282
		c-0.521-0.831-0.858-1.711-1.368-2.544c-0.893-1.459-2.188-2.679-3.199-4.089c-0.465-0.648-0.804-1.332-1.021-2.047
		c-0.122-0.405-0.032-0.836-0.128-1.247c-0.114-0.497-0.395-0.964-0.506-1.463c-0.135-0.607-0.04-1.298-0.177-1.873
		c-0.193-0.819,0.153-1.732-0.014-2.585c-0.109-0.561-0.274-1.291-0.162-1.917c0.23-0.36-0.003-0.788-0.094-1.15
		c-0.098-0.396-0.175-0.782-0.336-1.173c-0.208-0.496-0.476-1.284-0.884-1.698c-0.7-0.711-0.386-1.625-0.505-2.432
		c-0.055-0.378-0.192-0.92,0.444-0.92c0.687,0,1.373,0,2.06,0s1.374,0,2.06,0c0.343,0,0.687,0,1.03,0
		c0.538,0,0.398,0.297,0.43,0.646c0.024,0.263-0.134,0.96,0.298,1.066c0.102,0.398,0.396,0.744,0.55,1.129
		c0.28,0.711,0.318,1.388,0.455,2.106c0.045,0.235,0.143,0.462,0.299,0.67c0.06-1.093,0.146-2.184,0.069-3.281
		c-0.04-0.576-0.128-1.15-0.169-1.726c-0.022-0.308-0.212-0.611,0.283-0.611C19.882-1.646,20.285-1.646,20.688-1.646
		C20.656-1.527,20.184-1.646,20.688-1.646z M24.242,71.495c0.145-0.236,0.287-0.475,0.414-0.724
		C24.48,70.971,24.279,71.267,24.242,71.495z M23.383,39.127c0.326-1.004-0.346-1.943-0.533-2.918
		c-0.13-0.025-0.225-0.299-0.304-0.38c-0.175-0.18-0.234-0.433-0.495-0.563c-0.212-0.434-0.562-0.812-0.92-1.185
		c0.268,0.861,0.081,1.75,0.296,2.608c0.087,0.343,0.245,0.831,0.355,1.253c0.208,0.021,0.716,0.705,0.89,0.856
		c0.075,0.009-0.022-0.101,0.088-0.066c0.016,0.049-0.003,0.085-0.059,0.11c0.309,0.086,0.312,0.6,0.682,0.768
		C23.358,39.45,23.393,39.288,23.383,39.127C23.717,38.1,23.395,39.312,23.383,39.127z M2.737,8.186
		c-0.008,0.22-0.023,0.636,0.06,0.702C2.803,8.834,2.847,8.35,2.737,8.186z"/>
	<path fill-rule="evenodd" clip-rule="evenodd" d="M37.986-1.646c0.111,0.422-0.061,0.852,0.06,1.273
		c0.118,0.417,0.337,0.774,0.367,1.215c0.023,0.363-0.145,0.733-0.071,1.089c0.081,0.401,0.48,0.767,0.682,1.14
		c0.392,0.721,0.582,1.484,1.02,2.197c0.215,0.353,0.436,0.722,0.705,1.057c0.27,0.332,0.464,0.788,0.745,1.074
		c0.197,0.203,0.252,0.595,0.379,0.841c0.163,0.312,0.326,0.625,0.403,0.957c0.099,0.421,0.03,0.829,0.154,1.25
		c0.141,0.482,0.251,0.966,0.397,1.445c0.536,1.759,1.316,3.54,1.739,5.285c0.416,1.707,0.996,3.272,1.112,4.992
		c0.059,0.876,0.599,1.71,0.66,2.564c0.004-0.016,0.243,0.451,0.061,0.462c-0.098,0.005-0.188,0.852-0.172,0.983
		c0.091,0.714-0.002,1.498-0.004,2.244c0,0.189-0.063,0.874,0.199,0.945c0.091,0.024,0.022,1.173,0.023,1.3
		c0.01,0.696-0.115,1.241-0.107,1.922c-0.013,0.058,0.111,0.51,0.103,0.667c-0.007,0.135-0.012,0.571,0.074,0.673
		c0.148,0.175,0.056,0.572,0.052,0.772c-0.008,0.378-0.024,0.762,0.081,1.135c0.059,0.206,0.255,0.597-0.014,0.769
		c-0.098-0.104-0.341-0.062-0.474-0.044c-0.115-0.164-0.191-0.343-0.243-0.524c-0.212-0.732-0.08-1.491-0.24-2.228
		c-0.084-0.385-0.093-0.779-0.159-1.167c-0.04-0.233-0.229-0.505-0.187-0.732c-0.396-0.603-0.4-1.387-0.802-2.003
		c-0.494-0.759-0.525-1.609-0.724-2.435c-0.181-0.75-0.58-1.46-0.756-2.211c-0.105-0.456-0.173-0.866-0.356-1.307
		c-0.166-0.395-0.399-0.761-0.563-1.162c-0.594-1.453-1.199-2.867-1.981-4.269c-0.342-0.611-0.656-1.235-0.912-1.866
		c-0.327-0.804-0.908-1.541-1.18-2.349c-0.226-0.665-0.614-1.288-0.932-1.93c-0.361-0.733-0.584-1.525-0.76-2.288
		c-0.173-0.74-0.369-1.479-0.632-2.208C35.583,7.46,35.4,7.043,35.13,6.656c-0.215-0.309-0.317-0.722-0.698-0.951
		c-0.185,0.807-0.208,1.638-0.503,2.43c-0.317,0.862-0.641,1.687-0.748,2.58c-0.09,0.746-0.018,1.513,0.038,2.266
		c0.058,0.753,0.385,1.426,0.529,2.15c0.141,0.713,0.277,1.428,0.519,2.133c0.094,0.275-0.049,0.576-0.026,0.891
		c0.039,0.497,0.121,0.964,0.255,1.453c0.22,0.808,0.254,1.738,0.591,2.506c0.37,0.84,0.315,1.761,0.632,2.612
		c0.245,0.659,0.213,1.508,0.258,2.201c0.021,0.306,0.241,1.538-0.134,1.726c-0.191,0.097-0.448-1.519-0.483-1.685
		c-0.042-0.199,0.126-0.731-0.247-0.809c-0.041-0.484-0.194-0.953-0.305-1.429c-0.408-1.752-1.198-3.472-1.877-5.192
		c-0.531-1.351-1.728-2.414-2.23-3.78c-0.58-1.158-0.914-2.547-0.89-3.731c0.024-1.302-0.343-2.531-0.371-3.863
		c-0.018-0.872,0.083-1.769-0.046-2.636c-0.127-0.847-0.401-1.673-0.678-2.499c-0.002-0.126-0.255-0.546-0.321-0.714
		c-0.162-0.413-0.368-0.821-0.657-1.195c-0.187-0.039-0.592-0.532-0.734-0.653c-0.199-0.167-0.357-0.296-0.332-0.444
		c-0.11-0.036-0.014,0.075-0.089,0.066c-0.064-0.035-0.084-0.079-0.059-0.131C26.544-0.021,26.575-0.006,26.611,0
		c-0.004-0.133-0.216,0.025-0.206-0.11c-0.028-0.107,0.076,0.032,0.089-0.043c-0.035-0.05-0.403-0.162-0.179-0.198
		c-0.217,0-0.969-1.053-0.977-1.295c1.343,0,2.686,0,4.028,0c0.67,0,1.342,0,2.014,0c0.314,0.319,0.492,0.714,0.89,0.988
		c-0.038-0.329-0.125-0.657-0.118-0.988C34.096-1.646,36.042-1.646,37.986-1.646C38.098-1.222,36.042-1.646,37.986-1.646z"/>
	<path fill-rule="evenodd" clip-rule="evenodd" d="M44.591-1.646c0.067,0.829,0.264,1.549,0.647,2.3
		c0.282,0.55,0.495,1.161,0.605,1.757c0.291,1.555,1.016,2.924,1.893,4.364c0.938,1.539,1.293,3.28,1.748,4.888
		c0.131,0.461,0.282,0.917,0.427,1.376c0.072,0.229,0.157,1.085,0.411,1.194c0.189,0.081,0.44,0.679,0.521,0.84
		c0.092,0.185,0.142,0.377,0.146,0.574c0.139,0.021,0.245,0.24,0.236,0.329c0.311,0.167,0.287,0.521,0.445,0.756
		c0.197,0.29,0.443,0.646,0.722,0.917c0.26,0.254,0.454,0.974,0.877,0.983c0.404,0.008,0.656,0.89,0.749,1.138
		c0.521,1.391,1.38,2.651,1.763,4.078c0.1,0.373-0.077,0.783,0.078,1.112c0.177,0.372,0.164,0.792,0.192,1.177
		c0.014,0.186-0.06,1.121,0.086,1.199c0.192,0.104,0.272,1.065,0.322,1.27c0.188,0.771,0.009,1.659-0.165,2.438
		c-0.048,0.217-0.106,0.433-0.182,0.646c0.122,0.107,0.155,0.261,0.158,0.396c0.004,0.345-0.181,0.752-0.268,1.094
		c-0.027,0.107-0.294,0.729-0.306,0.726c-0.279-0.04-0.193,0.422-0.296,0.527c0.088,0.041,0.099-0.078,0.118-0.044
		c0.107,0.04-0.029,0.292-0.148,0.241c0.053,0.026,0.102,0.056,0.148,0.088c-0.315,0.056-0.351,0.779-0.417,0.953
		c-0.09,0.237-0.323,0.421-0.441,0.648c-0.155,0.301-0.499,0.335-0.624,0.68c-0.065,0.184-0.146,0.4-0.375,0.512
		c-0.309,0.151-0.725-0.214-0.415-0.297c0.477-0.128-0.082-1.318-0.161-1.546c-0.104-0.293-0.252-0.577-0.4-0.86
		c-0.149-0.284-0.122-0.727-0.336-0.968c0-0.66,0.104-1.51,0.543-2.103c0.391-0.525,0.7-0.938,0.904-1.532
		c0.134-0.387,0.121-0.828,0.28-1.263c0.355-0.965,0.138-2.019,0.527-3.033c0.2-0.523,0.206-1.097,0.045-1.627
		c-0.097-0.313-0.234-0.628-0.206-0.954c0.021-0.234,0.062-0.401-0.039-0.631c-0.102-0.234-0.127-0.485-0.129-0.729
		c-0.089-0.148-0.363-0.384-0.487-0.56c-0.159-0.225-0.386-1.77-0.562-1.791c-0.125-0.015-0.999-0.979-1.024-1.095
		c-0.112-0.288-0.354-0.524-0.569-0.772c-0.201-0.229-0.295-0.544-0.586-0.72c0.056,0.973,0.227,1.944,0.334,2.855
		c0.08,0.677,0.054,1.357,0.138,2.034c0.03,0.244-0.001,1.554-0.289,1.632c-0.062,0.017-0.187,1.428-0.2,1.562
		c-0.068,0.681,0.053,1.363,0.014,2.045c-0.08,1.358-0.286,2.746-0.471,4.092c-0.228,0.119-0.052,0.475-0.059,0.636
		c-0.008,0.187-0.076,0.646-0.178,0.812c-0.033,0.054-0.307,0.158-0.398,0.138c-0.353-0.075-0.194-0.773-0.185-0.991
		c0.019-0.426,0.018-0.811-0.001-1.191c-0.014-0.272,0.034-0.545,0.019-0.818c-0.017-0.289-0.218-0.516-0.146-0.813
		c0.109-0.449,0.142-0.833,0.214-1.266c0.101-0.597-0.191-1.061-0.303-1.619c-0.059-0.299,0.064-0.602,0.08-0.9
		c0.019-0.359-0.027-0.717-0.02-1.076c-0.212-0.458,0.082-1.116-0.326-1.514c0.23,0-0.029-0.033,0-0.088
		c-0.069-0.304-0.041-0.613-0.037-0.919c0.011-0.563-0.107-1.05-0.348-1.595c-0.482-1.088-1.254-2.1-1.482-3.257
		c-0.004-0.398-0.222-0.982-0.25-1.439c-0.033-0.547-0.093-1.104-0.238-1.654c-0.249-0.942-0.695-2.091-1.412-2.899
		c-0.375-0.422-0.761-0.969-1.032-1.447c-0.174,0.034-0.622-0.623-0.695-0.724c-0.732-1.012-1.366-2.13-1.636-3.274
		c-0.272-1.153-0.289-2.283-0.821-3.398c-0.29-0.608-0.48-1.317-0.599-1.956c-0.054-0.283-0.069-0.552-0.147-0.834
		c-0.057-0.208-0.271-0.609-0.218-0.808C41.768-1.646,43.179-1.646,44.591-1.646C44.629-1.171,43.179-1.646,44.591-1.646z"/>
	<path fill-rule="evenodd" clip-rule="evenodd" d="M77.352,63.903c-0.063-0.056-0.104-0.129-0.148-0.198
		C77.237,63.697,77.358,63.809,77.352,63.903z"/>
	<path fill-rule="evenodd" clip-rule="evenodd" d="M2.796,8.888c-0.083-0.066-0.067-0.482-0.06-0.702
		C2.847,8.35,2.803,8.834,2.796,8.888z"/>
	<path fill-rule="evenodd" clip-rule="evenodd" d="M98.471,100.989c-2.194,0-4.391,0-6.587,0c-0.577,0-1.154,0-1.732,0
		c-0.231,0-0.462,0-0.693,0c-0.519,0-0.378-0.142-0.465-0.475c-0.201-0.765-0.444-1.523-0.623-2.291
		c-0.002-0.404-0.02-0.808-0.03-1.212c-0.009-0.32,0.089-0.739-0.072-1.028c-0.19-0.339-0.182-0.916-0.187-1.275
		c-0.003-0.26,0.062-0.71-0.007-0.917c-0.098-0.335-0.079-0.692-0.053-1.032c0.027-0.344-0.042-0.791,0.082-1.118
		c0.093-0.241,0.105-0.463,0.148-0.72c0.058-0.337-0.146-0.647-0.152-1.001c-0.012-0.648,0.026-1.486,0.218-2.106
		c0.151-0.495,0.157-0.953,0.348-1.441c0.24-0.616,0.603-1.324,0.676-1.962c0.027-0.248-0.097-0.503-0.108-0.768
		c-0.018-0.367-0.068-0.733-0.069-1.102c-0.003-0.408,0.115-0.738,0.244-1.126c0.092-0.276,0.254-0.426,0.386-0.681
		c0.394-0.763,0.931-1.854,0.77-2.612c0.271-0.095-0.026-0.48,0.237-0.592c0.033-0.374,0.09-0.795,0.051-1.159
		c-0.043-0.398-0.052-0.799-0.094-1.197c-0.02-0.18-0.235-0.932-0.194-1.001c0.084-0.562-0.469-1.29-0.71-1.808
		c-0.133-0.286-0.301-0.575-0.48-0.865c-0.148-0.242-0.95-0.947-0.9-1.174c0.059-0.271-0.686-0.429-0.496-0.726
		c0.191-0.3,0.714,0.159,0.832,0.312c0.522,0.672,1.282,1.289,1.759,2.024c0.374,0.575,0.863,1.157,1.133,1.777
		c0.152,0.354,0.366,0.688,0.437,1.06c0.049,0.26,0.236,0.841,0.463,1.039c0.215,0.187,0.145,0.537,0.067,0.752
		c-0.057,0.108,0.059,0.543,0.059,0.702c0,0.349,0.312,0.653,0.306,1.05c-0.007,0.407,0.056,0.843,0.071,1.27
		c0.015,0.377-0.182,0.755-0.14,1.125c0.048,0.424,0.178,0.812,0.161,1.248c-0.036,0.927-0.089,1.845-0.158,2.77
		c-0.068,0.902-0.08,1.806-0.163,2.707c-0.075,0.837-0.29,1.535-0.458,2.344c-0.333,1.599-0.825,3.182-1.098,4.822
		c-0.079,0.481-0.048,0.972-0.037,1.444c0.013,0.472,0.229,0.922,0.304,1.351c0.069,0.406,0.557,0.784,0.623,1.221
		c0.033,0.22,0.142,0.396,0.158,0.628c0.024,0.34,0.173,0.306,0.431,0.515c0.118-0.38,0.309-0.749,0.356-1.141
		c0.051-0.421-0.028-0.819,0.038-1.246c0.142-0.91,0.609-1.774,0.965-2.649c0.593-1.459,1.285-2.947,1.366-4.51
		c-0.015-0.065,0.176-0.408,0.108-0.578c-0.072-0.181-0.279-0.629-0.02-0.805c0.17-0.778,0.172-1.573,0.296-2.349
		c0.085-0.527,0.136-1.113,0.136-1.675c0-0.144,0.06-0.378,0.042-0.496c-0.034-0.236-0.139-0.611-0.059-0.835
		c-0.289-0.13-0.2-0.547-0.172-0.72c0.057-0.355-0.089-0.751-0.091-1.111c-0.006-0.812,0.055-1.76-0.382-2.512
		c-0.428-0.739-0.621-1.52-0.631-2.322c-0.004-0.329-0.194-0.54-0.239-0.846c-0.079-0.541-0.155-1.087-0.322-1.619
		c-0.019-0.728-0.433-1.344-0.713-1.987c-0.175-0.401-0.358-0.801-0.514-1.208c-0.172-0.452-0.433-0.902-0.558-1.347
		c-0.13-0.47-0.281-0.937-0.412-1.407c-0.051-0.183-0.129-1.176-0.317-1.239c-0.35-0.119-0.455-1.881-0.241-2.159
		c-0.296-0.181-0.155-0.759-0.355-1.016c-0.23-0.295-0.379-0.625-0.616-0.914c-0.576-0.703-0.885-1.438-1.092-2.231
		c-0.123-0.472-0.26-0.88-0.522-1.317c-0.195-0.324,0.271-0.727,0.631-0.38c0.385,0.367,0.383,0.888,0.574,1.307
		c0.138,0.303,0.299,0.96,0.729,1.128c-0.152-0.631-0.073-1.131-0.299-1.739c-0.262-0.706-0.522-1.492-0.623-2.216
		c-0.093-0.669-0.359-1.306-0.586-1.954c-0.131-0.377-0.151-0.751-0.217-1.129c-0.063-0.373-0.438-0.683-0.438-1.037
		c-0.372-0.473-0.532-1.176-0.652-1.711c-0.128-0.576,0.077-1.175-0.243-1.696c-0.137-0.223,0.074-0.403,0.097-0.633
		c0.036-0.378-0.079-0.765,0.028-1.139c0.092-0.318,0.55-0.675,0.207-1.01c0.566-0.025-0.854-1.41,0.206-1.128
		c0.223,0.059,0.568,0.734,0.665,0.917c0.157,0.298,0.059,0.908,0.433,1.111c-0.146,0.132,0.025,0.356-0.171,0.422
		c-0.141,0.047-0.157,0.396-0.193,0.493c-0.064,0.169-0.522,0.973-0.346,1.11c0.081,0.063,0.08,0.577,0.108,0.715
		c0.089,0.443,0.156,0.868,0.256,1.306c0.122,0.536,0.305,1.113,0.67,1.612c0.226,0.308,0.254,0.659,0.475,0.954
		c0.179,0.238,0.592,0.736,0.593,0.979c-0.042,0.664,0.697,1.325,0.859,1.976c0.549,0.608,0.588,1.469,0.847,2.162
		c0.238,0.636,0.319,1.325,0.46,2.009c0.181,0.877,0.688,1.67,0.897,2.533c0.162,0.667,0.156,1.38,0.451,1.984
		c0.422,0.865,0.774,1.746,1.002,2.649c0.173,0.688,0.308,1.321,0.401,1.983c0.493,0.689,0.829,1.498,0.995,2.239
		c0.139,0.619,0.329,1.102,0.405,1.725c0.076,0.611,0.051,1.256,0.102,1.839c0.14,1.594,0.339,3.072,0.837,4.611
		c0.214,0.665,0.297,1.355,0.397,1.997c0.045,0.283,0.354,0.589,0.511,0.864c0.249,0.434,0.375,0.905,0.4,1.376
		c0.096,1.753,0.791,3.549,0.908,5.363c0.062,0.966-0.079,1.925-0.18,2.888c-0.084,0.808-0.475,1.738-0.615,2.487
		c0.037-0.007,0.066,0.001,0.089,0.021c-0.062,0-0.439,2.016-0.536,2.283c-0.065,0.181-0.174,0.802-0.357,0.917
		C98.327,99.855,98.5,100.755,98.471,100.989C95.352,100.989,98.517,100.612,98.471,100.989z"/>
	<path fill-rule="evenodd" clip-rule="evenodd" d="M71.517-1.646c1.222,0,2.443,0,3.666,0c0.555,0,1.11,0,1.665,0
		c-0.053,0.258,0.364,0.627,0.477,0.871c0.486,1.05,1.39,2.092,2.302,2.967c0.49,0.471,0.971,1.097,1.224,1.633
		c0.124,0.263,0.307,0.499,0.323,0.784c0.285,0.288,0.457,0.57,0.593,0.9c-0.087,0.072,0.102,0.572,0.115,0.65
		c0.076,0.458,0.287,0.896,0.437,1.342c0.118,0.348,0.274,0.682,0.434,1.021c0.117,0.251,0.427,0.643,0.38,0.862
		c-0.119,0.549,0.593,1.221,0.412,1.764c0.018,0.351,0.099,0.697,0.192,1.041c0.088,0.324,0.072,0.739,0.231,1.039
		c0.151,0.285,0.13,0.615,0.261,0.918c0.156,0.359,0.362,0.688,0.441,1.062c0.062,0.298,0.207,0.58,0.305,0.871
		c0.091,0.268,0.271,0.645,0.235,0.907c-0.029,0.224,0.225,0.404,0.229,0.642c0.005,0.296,0.175,0.479,0.256,0.756
		c0.14,0.482,0.06,0.941,0.323,1.389c0.196,0.333,0.132,0.699,0.077,1.05c-0.04,0.258,0.123,1.004-0.151,1.122
		c-0.588,0.254-0.488-1.256-0.683-1.469c-0.188,0.497-0.024,1.134-0.114,1.657c-0.104,0.608-0.33,1.252-0.371,1.854
		c-0.036,0.531-0.12,1.027-0.265,1.56c-0.165,0.605-0.103,1.253-0.171,1.87c-0.059,0.527-0.426,0.925-0.608,1.43
		c-0.231,0.638-0.348,1.285-0.615,1.905c-0.224,0.517-0.097,1.072-0.19,1.602c-0.062,0.347-0.088,0.741-0.085,1.148
		c0.007,1.145-0.446,2.209-0.497,3.335c-0.054,1.225-0.646,2.487-0.311,3.713c0.099,0.363-0.111,1.033-0.243,1.388
		c-0.174,0.464-0.234,0.919-0.216,1.375c0.008,0.206,0.008,0.345,0.034,0.554c0.068,0.177-0.013,0.255-0.245,0.233
		c-0.321,0.006-0.279-0.198-0.354-0.375c-0.094-0.215,0.091-1.555-0.339-1.567c0.049,0.005,0.011-1.097,0.032-1.254
		c0.054-0.388-0.182-0.777-0.27-1.16c-0.088-0.38-0.084-0.768-0.046-1.151c0.076-0.779,0.237-1.545,0.286-2.328
		c0.021-0.328,0.098-0.588,0.037-0.909c-0.058-0.302-0.064-0.609-0.057-0.914c0.032-1.365,0.164-2.723,0.342-4.09
		c0.107-0.822-0.014-1.647-0.174-2.46c-0.097-0.494-0.253-1.039-0.178-1.555c0.14-0.964,0.013-1.953,0.352-2.941
		c-0.147-0.645-0.188-1.376-0.192-2.025c-0.002-0.357-0.213-0.694-0.271-1.047c-0.059-0.356,0.227-0.441,0.139-0.723
		c-0.161-0.509-0.081-1.216-0.476-1.648c0.067-0.375-0.504-0.797-0.679-1.129c-0.321-0.608-0.531-1.364-0.654-2.008
		c0.761-0.382,0.696,0.702,1.037,1.031c0.505-1.655-0.685-3.387-1.067-4.988c-0.055-0.23-0.164-0.527-0.311-0.76
		c-0.258-0.408-0.306-0.87-0.478-1.304c-0.286-0.725-0.993-1.403-1.433-2.077c-0.472-0.721-0.891-1.357-1.325-2.084
		s-1.034-1.408-1.537-2.115c-0.268-0.377-0.436-0.787-0.617-1.188c-0.1-0.219-0.245-0.688-0.431-0.866
		c-0.07-0.385-0.267-0.741-0.506-1.084C72.019-0.879,71.526-1.383,71.517-1.646C73.294-1.646,71.518-1.625,71.517-1.646z"/>
	<path fill-rule="evenodd" clip-rule="evenodd" d="M35.586,67.722c0.728,0.077,0.632,1.52,0.698,1.913
		c0.14,0.852,0.649,1.621,0.874,2.47c0.104,0.393,0.204,0.788,0.381,1.167c0.167,0.354,0.09,0.744,0.245,1.112
		c0.131,0.31,0.333,0.596,0.495,0.894c0.152,0.277,0.222,0.599,0.408,0.841c0.251,0.325,0.24,0.655,0.392,1.005
		c0.146,0.332,0.306,0.658,0.329,1.012c0.044,0.646,0.177,1.345,0.119,2.021c-0.034,0.403,0.056,0.764-0.091,1.172
		c-0.159,0.443-0.214,0.9-0.336,1.349c-0.23,0.848-0.742,1.626-0.968,2.469c-0.057,0.212-0.102,0.427-0.179,0.635
		c-0.066,0.18-0.288,0.351-0.324,0.528c-0.091,0.454,0.145,0.891,0.142,1.342c-0.002,0.38-0.482,0.387-0.853,0.217
		c0.022-0.249-0.29-0.582-0.331-0.855c-0.114-0.768-0.301-1.56-0.649-2.308c-0.337-0.727-0.398-1.497-0.547-2.253
		c-0.162-0.813-0.682-1.589-0.783-2.418c-0.289-0.376-0.491-0.771-0.532-1.207c-0.1-0.143-0.362-1.063-0.562-1.054
		c0-0.405-0.372-0.755-0.225-1.167c0.129-0.361,0.113-0.772,0.294-1.115c0.392-0.743,0.661-1.624,0.757-2.415
		c0.057-0.469,0.359-0.951,0.479-1.427c0.104-0.406,0.146-0.809,0.21-1.185c0.087-0.5,0.146-1.004,0.181-1.508
		C35.237,68.546,35.007,67.911,35.586,67.722C35.742,67.737,35.45,67.767,35.586,67.722z M37.364,81.48
		c0.152-0.447,0.009-0.914,0.177-1.339c0.002-0.002-0.005-0.254-0.005-0.253c0.021-0.319-0.275-0.273-0.426-0.508
		c-0.359-0.559-0.361-1.428-0.512-2.044c-0.094-0.383-0.109-0.807-0.306-1.169c-0.154-0.285,0.038-0.695-0.202-0.942
		c0.049,0.698-0.271,1.393-0.244,2.081c0.025,0.647,0.274,1.298,0.47,1.916c0.092,0.289,0.159,0.627,0.289,0.909
		c0.319,0.7,0.253,1.484,0.58,2.161c0.07-0.119,0.384-0.638,0.075-0.637c-0.123,0-0.236-0.164-0.134-0.198
		C37.198,81.503,37.277,81.511,37.364,81.48C37.446,81.237,37.236,81.504,37.364,81.48z"/>
	<path fill-rule="evenodd" clip-rule="evenodd" d="M-2.032,36.999c0-4.608,0-9.217,0-13.825c0.313,0.521,0.518,1.104,0.775,1.603
		c0.33,0.639,0.188,1.327,0.678,1.944c0.398,0.5,0.56,1.163,0.946,1.676c-0.051-0.01-0.388,0.389-0.668,0.125
		c-0.23-0.215-0.251-0.581-0.635-0.696c-0.122,0.464,0.226,1.022,0.443,1.449c0.157,0.31,0.68,0.766,0.74,1.053
		c0.437,0.899,1.067,1.862,1.804,2.641c0.354,0.376,0.715,0.976,0.774,1.441C2.844,34.545,3,35.72,3.121,35.727
		c0.098,0.006,0.403,1.194,0.472,1.362c0.087,0.215,0.362,1.327,0.597,1.358c0.021-0.355-0.09-0.624-0.134-0.932
		c-0.036-0.26-0.655-1.251-0.116-1.323c0.583-0.078,0.721,0.703,0.869,1.001c0.253,0.508,0.619,0.977,0.714,1.522
		c0.198,1.131,0.055,2.294,0.289,3.424c0.042,0.199,0.118,0.411,0.303,0.565c0.001,0.292,0.008,0.584,0.012,0.875
		c0.003,0.313-0.05,0.789-0.012,0.968c-0.082-0.002-0.301,1.303-0.266,1.47c-0.435,0.338-0.127,1.32-0.17,1.774
		c-0.062,0.643-0.028,1.4-0.343,2.009c-0.19,0.373-0.156,0.806-0.08,1.133c0.204,0.824-0.259,1.983,0.503,2.743
		c0.031,0.18,0.193,0.377,0.151,0.518c-0.06,0.199,0.069,0.525,0.082,0.735c0.007,0.114,0.184,0.455,0.047,0.483
		c0.066-0.015-0.002,0.208-0.013,0.173c0.025,0.086,0.14,0.1,0.146,0.268c0.012,0.264-0.003,0.528,0.001,0.792
		c0.007,0.537-0.161,1.022-0.206,1.551c-0.034,0.39-0.073,0.734-0.106,1.142c-0.037,0.475,0.228,1.232-0.036,1.648
		c-0.118,0.187-0.164,0.394-0.175,0.598c-0.009,0.177-0.094,0.385-0.099,0.52c-0.108,0.54-0.088,1.149-0.504,1.624
		c-0.035,0.243-0.178,0.456-0.293,0.682c-0.112,0.22,0.02,0.574-0.354,0.574c-0.704,0-0.449-0.668-0.254-0.927
		c0.272-0.364,0.005-1.073,0.025-1.481c0.013-0.252,0.062-0.511,0.225-0.734c-0.154-0.125-0.082-0.356-0.123-0.507
		c-0.296-1.115,0.05-2.427,0.041-3.569c-0.002-0.306-0.116-3.646-0.183-3.649c-0.271-0.018-0.396-1.957-1.039-2.129
		c-0.332,0.73-0.495,1.545-0.767,2.294c-0.229,0.632-0.387,1.3-0.565,1.986c-0.149,0.508-0.331,1.202-0.385,1.79
		c-0.036,0.41,0.032,0.854-0.101,1.244c-0.095,0.282-0.246,0.497-0.297,0.795c-0.104,0.604-0.144,1.192-0.101,1.8
		c0.016,0.22,0.081,0.835-0.408,0.607c-0.235-0.108-0.552-0.631-0.221-0.795c0-0.495,0.013-1.13-0.253-1.611
		c-0.373-0.674-0.164-1.693-0.235-2.43c-0.039-0.401-0.265-1.04-0.137-1.316c0.269-0.579,0.053-1.399-0.018-1.997
		c-0.063-0.535,0.016-1.11-0.153-1.651c-0.235-0.751,0.369-1.555,0.345-2.294c-0.022-0.68,0.405-1.276,0.59-1.896
		c0.267-0.896,0.415-1.81,0.563-2.72c0.115-0.715,0.268-1.407,0.154-2.158c-0.043-0.279-0.013-0.445-0.094-0.718
		c-0.073-0.243-0.216-0.874-0.495-1.023c0.211,0.541-0.35,0.955-0.806,0.421c-0.354-0.414-0.572-1.136-0.576-1.626
		c-0.003-0.724-0.065-1.457-0.449-2.133C-1.609,38.038-1.665,37.479-2.032,36.999C-2.032,32.391-1.932,37.13-2.032,36.999z"/>
</g>
</svg>
